<svg xmlns="http://www.w3.org/2000/svg" width="436.594" height="266.155" viewBox="0 0 436.594 266.155">
  <g id="Grupo_137429" data-name="Grupo 137429" transform="translate(-373.406 -1674)">
    <g id="Grupo_133978" data-name="Grupo 133978" transform="translate(185.687 1550.863)">
      <path id="Trazado_190730" data-name="Trazado 190730" d="M317.112,123.62c67.805-3.934,138.9,16.56,128.447,46.269s55.867-10.552,82.333.159c18.842,7.626,11.31,30.84,20.425,40.194,20.9,21.448,42.275-5.56,68.874,10.644S589.33,388.335,561.542,389.18L244.6,387.254l-22.744-2.044s-62.915-34.4-17.909-66.141c30.431-21.459,8.535-37.043,5.225-46.867-3.8-11.28-12.666-30.98,25.967-45.437s28.658-45.914,27.708-52.428-13.536-46.783,54.269-50.717Z" transform="translate(0 0)" fill="#9bc1f9" opacity="0.1"/>
      <path id="Trazado_190731" data-name="Trazado 190731" d="M742.612,1653.892h-2.025l7.546-39.21,1.683.32Z" transform="translate(-469.034 -1265.378)" fill="#0e2e35"/>
      <g id="Grupo_133963" data-name="Grupo 133963" transform="translate(229.6 219.301)">
        <path id="Trazado_190732" data-name="Trazado 190732" d="M556.245,930.716a22.02,22.02,0,0,0-1.983-10.541c-1.38-2.893-4.793-4.535-7.906-4.539-9.885-.013-11.142,13.149-17.435,18.225-1.923,1.551-4.072,2.815-5.891,4.488-6.718,6.177-3.692,17.612,2.477,23.028,4.281,3.758,11.009,5.893,16.285,2.956a16.671,16.671,0,0,0,6.334-6.876c2.114-3.964,3.477-8.538,4.98-12.762A47.945,47.945,0,0,0,556.245,930.716Z" transform="translate(-510.836 -891.633)" fill="#0e2e35"/>
        <path id="Trazado_190733" data-name="Trazado 190733" d="M488.126,797.907s-7.26-13.058-9.027-15.834-6.368-13.806-6.532-14.241,3.169-5.655,2.425-5.834-1.567,2.752-2.361,2.4-3.113-7.406-3.565-7.056c-.846.655,1.25,4.377.8,4.611s-1.818-4.095-2.7-3.968,1.685,3.968,1.437,4.307-2.917-3.28-3.4-2.508c-.262.419,2.454,3.159,1.933,3.415s-2.938-1.512-3.194-1,2.235,1.208,2.98,2.583,2.013,1.969,2.54,4.516,1.314,11.76,4.012,16.357,8.632,14.771,8.632,14.771Z" transform="translate(-463.918 -757.333)" fill="#f79c8d"/>
        <path id="Trazado_190734" data-name="Trazado 190734" d="M767.978,1208.348l-11.288-8.641s-1.136-8.061-2.656-15.214c-1.9.54-3.624,2.039-5.53,2.562l2.87,16.019,14.795,7.659,4.179,5.389.95-5.532Z" transform="translate(-705.351 -1119.721)" fill="#f48c7f"/>
        <path id="Trazado_190735" data-name="Trazado 190735" d="M737.435,1080.067c-3.088-9.4-6.541-9-6.541-9l2.67,19.759c1.907-.523,4.389-1.687,6.294-2.227A86.319,86.319,0,0,0,737.435,1080.067Z" transform="translate(-690.412 -1023.495)" fill="#fff2bf"/>
        <path id="Trazado_190736" data-name="Trazado 190736" d="M537.658,1781.905s-.7,4.858-1.895,6.426a12.4,12.4,0,0,0-1.619,2.143,6.335,6.335,0,0,0,.218,4.9c.284.623-.02.621.627.822a3.969,3.969,0,0,0,4.771-2.253,11.493,11.493,0,0,0,.936-4.14,15.056,15.056,0,0,1,1.569-6.654Z" transform="translate(-523.15 -1626.546)" fill="#f7a491"/>
        <path id="Trazado_190737" data-name="Trazado 190737" d="M693.392,1796.559s.43,5.478.081,7.258c-.187.953-1.228,2.916-.75,3.813a2.4,2.4,0,0,0,1.023,1.122l12.373.2c.674.011.228-.425-.315-.827a24.894,24.894,0,0,0-4.449-2.475c-.185-.09-.86-.522-1.1-.671a8.571,8.571,0,0,1-1.77-1.572c-.888-.995-.966-5.819-.966-5.819Z" transform="translate(-657.923 -1638.978)" fill="#f7a491"/>
        <path id="Trazado_190738" data-name="Trazado 190738" d="M695.485,1308.657s1.558,8.894.535,14.726-5.933,59.881-5.933,59.881l-5.457.309s-1.144-22.578-.939-25.718a48.917,48.917,0,0,1,1.824-8.394l-.543-18.229,6.886-23.948Z" transform="translate(-650.345 -1223.893)" fill="#13375b"/>
        <path id="Trazado_190739" data-name="Trazado 190739" d="M570.381,1292.707s-4.3,6.5-5.32,11.886.751,21.924-1.217,28.978c-1.065,3.818-5.1,9.715-5.717,14.649s-3.022,17.858-3.022,17.858l5.454,1.087,12.676-32.278,9.943-29.174,2.547-15.025Z" transform="translate(-541.279 -1209.815)" fill="#355389"/>
        <path id="Trazado_190740" data-name="Trazado 190740" d="M631.941,1059.85s-5.689-.364-7.94,2.1,4.993,21.982,5.4,25.122-2.086,11.489-2.086,11.489,13.364,2.7,17.183.162c0,0,.409-22.578,0-24.821s-3.819-11.364-4.638-12.261S631.941,1059.85,631.941,1059.85Z" transform="translate(-599.361 -1013.963)" fill="#fff2bf"/>
        <path id="Trazado_190741" data-name="Trazado 190741" d="M679.6,1008.827s-.029.168-.082.455a43.6,43.6,0,0,1-1.89,7.193c-.8,1.516,2.73,6.351,6.125,5.761,1.011-.176-.854-4.442-.765-4.894.172-.865.4-2.045.642-3.255l.4-2.026c.363-1.849.659-3.361.659-3.361Z" transform="translate(-645.123 -970.584)" fill="#f7a491"/>
        <path id="Trazado_190742" data-name="Trazado 190742" d="M689.864,1009.282c.053-.287.082-.455.082-.455l5.088-.128s-.3,1.512-.659,3.361l-.4,2.014a4.757,4.757,0,0,1-2.429-1.225,6.459,6.459,0,0,1-1.84-2.752C689.773,1009.774,689.825,1009.5,689.864,1009.282Z" transform="translate(-655.472 -970.584)" fill="#f47458"/>
        <path id="Trazado_190743" data-name="Trazado 190743" d="M682.649,932.767a4.571,4.571,0,0,0-3.9,1.676c-1.5,1.955-3.123,8,.611,11.288s7.423-.434,7.97-4.379S688.089,932.625,682.649,932.767Z" transform="translate(-644.751 -906.154)" fill="#f7a491"/>
        <path id="Trazado_190744" data-name="Trazado 190744" d="M740.553,977.023c-.446.871-1.194,1.354-1.671,1.077s-.5-1.206-.057-2.078,1.194-1.354,1.671-1.078S741,976.151,740.553,977.023Z" transform="translate(-696.87 -941.882)" fill="#f7a491"/>
        <path id="Trazado_190745" data-name="Trazado 190745" d="M670.37,928.24s-3.2,5.749-5.5,6.015-2.593,3.321-2.593,3.321.819-7.04,3.088-8.4A8.387,8.387,0,0,1,670.37,928.24Z" transform="translate(-632.203 -902.273)" fill="#0e2e35"/>
        <path id="Trazado_190746" data-name="Trazado 190746" d="M537.781,1840.819a6.082,6.082,0,0,1-5.98-2.513c-.755,1.483-1.124,3.7-.568,4.914.489,1.073,1.92,1.042,3.046,1.084a2.939,2.939,0,0,0,2.7-1.663A10,10,0,0,0,537.781,1840.819Z" transform="translate(-520.799 -1674.395)" fill="#b75742"/>
        <path id="Trazado_190747" data-name="Trazado 190747" d="M700.1,1850.525a11.143,11.143,0,0,1-7.044-.279c-.349.995-.812,2.243-.566,2.962.3.881.728,1.08,1.106,1.09,2.989.079,10.949.187,13.228.216a.375.375,0,0,0,.289-.616C706.543,1853.22,700.34,1850.674,700.1,1850.525Z" transform="translate(-657.769 -1684.524)" fill="#b75742"/>
        <path id="Trazado_190748" data-name="Trazado 190748" d="M669.932,968.7c.186,1.021-.188,1.957-.837,2.091s-1.326-.585-1.512-1.606.188-1.957.837-2.091S669.746,967.681,669.932,968.7Z" transform="translate(-636.66 -935.276)" fill="#f7a491"/>
        <path id="Trazado_190749" data-name="Trazado 190749" d="M578.436,997.005s8.031,8.685,9.225,12.185-1.164,8.507-4.42,8.726-10.5-15.414-10.5-15.414Z" transform="translate(-556.237 -960.663)" fill="#fff2bf"/>
      </g>
      <g id="Grupo_133964" data-name="Grupo 133964" transform="translate(387.24 231.928)">
        <rect id="Rectángulo_41137" data-name="Rectángulo 41137" width="111.333" height="156.28" rx="37.794" fill="#c93218"/>
        <rect id="Rectángulo_41138" data-name="Rectángulo 41138" width="92.334" height="137.981" transform="translate(9.478 9.769)"/>
      </g>
      <path id="Trazado_190750" data-name="Trazado 190750" d="M976.584,266.784h0l-.03-.01c-.284-.1-.573-.193-.865-.278-.1-.029-.2-.059-.3-.085s-.212-.053-.319-.078-.216-.052-.326-.075-.207-.042-.31-.062-.233-.043-.35-.063q-.15-.025-.3-.046c-.127-.018-.254-.034-.382-.049-.093-.011-.185-.022-.279-.031-.146-.014-.293-.024-.44-.034-.077,0-.154-.012-.232-.015-.226-.011-.453-.017-.682-.017H866.9q-.366,0-.728.018a14.2,14.2,0,0,0-1.426.145q-.351.054-.7.125a14.182,14.182,0,0,0-11.219,12.451,14.406,14.406,0,0,0-.073,1.451V495.2a14.192,14.192,0,0,0,9.329,13.346h0l.073.025c.27.1.544.183.821.263.1.029.2.059.3.086s.213.053.319.078.216.052.326.075.206.042.31.062.233.043.35.063c.1.016.2.032.3.046.127.018.254.034.382.049.093.011.186.022.279.031.146.014.293.024.44.034.077,0,.154.012.232.015.226.011.453.017.682.017H971.771a14.175,14.175,0,0,0,14.142-14.19V280.13A14.192,14.192,0,0,0,976.584,266.784Z" transform="translate(-564.192 -121.15)" fill="#fc502d"/>
      <rect id="Rectángulo_41139" data-name="Rectángulo 41139" width="119.449" height="204.768" transform="translate(295.416 164.13)" fill="#f3fcff"/>
      <rect id="Rectángulo_41140" data-name="Rectángulo 41140" width="51.113" height="2.566" rx="0.868" transform="translate(329.681 155.129)" fill="#fff"/>
      <ellipse id="Elipse_5380" data-name="Elipse 5380" cx="5.867" cy="5.886" rx="5.867" ry="5.886" transform="translate(349.206 372.877)" fill="#daeef7" opacity="0.3"/>
      <rect id="Rectángulo_41141" data-name="Rectángulo 41141" width="119.449" height="8.591" transform="translate(295.416 360.306)" fill="#3cb4c5" opacity="0.2"/>
      <rect id="Rectángulo_41142" data-name="Rectángulo 41142" width="119.449" height="10.867" transform="translate(295.416 164.13)" fill="#3cb4c5" opacity="0.2"/>
      <g id="Grupo_133965" data-name="Grupo 133965" transform="translate(204.988 157.996)">
        <path id="Trazado_190751" data-name="Trazado 190751" d="M440.078,426.513H336.34a6.5,6.5,0,0,0-6.488,6.51v42.956a6.5,6.5,0,0,0,6.488,6.51h81.673c3.305,4.628,9.3,12.916,9.827,12.916.5,0-.458-7.828-1.13-12.916h13.368a6.5,6.5,0,0,0,6.488-6.51V433.023A6.5,6.5,0,0,0,440.078,426.513Z" transform="translate(-325.569 -415.37)" fill="#daeef7" opacity="0.3" style="mix-blend-mode: multiply;isolation: isolate"/>
        <path id="Trazado_190752" data-name="Trazado 190752" d="M411.832,353.029H308.093a6.5,6.5,0,0,0-6.488,6.51V402.5a6.5,6.5,0,0,0,6.488,6.51h81.673c3.305,4.628,9.3,12.916,9.828,12.916.5,0-.458-7.828-1.13-12.916h13.368a6.5,6.5,0,0,0,6.488-6.51V359.539A6.5,6.5,0,0,0,411.832,353.029Z" transform="translate(-301.605 -353.029)" fill="#0d2380"/>
        <rect id="Rectángulo_41143" data-name="Rectángulo 41143" width="51.147" height="2.836" rx="0.959" transform="translate(10.728 13.928)" fill="#fff"/>
        <path id="Rectángulo_41144" data-name="Rectángulo 41144" d="M.959,0H21.074a.959.959,0,0,1,.959.959v.917a.96.96,0,0,1-.96.96H.959A.959.959,0,0,1,0,1.877V.959A.959.959,0,0,1,.959,0Z" transform="translate(10.728 21.411)" fill="#fff"/>
        <path id="Rectángulo_41145" data-name="Rectángulo 41145" d="M.959,0H67.613a.96.96,0,0,1,.96.96v.917a.96.96,0,0,1-.96.96H.959A.959.959,0,0,1,0,1.877V.959A.959.959,0,0,1,.959,0Z" transform="translate(35.245 21.411)" fill="#fff"/>
        <rect id="Rectángulo_41146" data-name="Rectángulo 41146" width="36.923" height="2.836" rx="0.959" transform="translate(67.103 13.928)" fill="#fff"/>
        <path id="Rectángulo_41147" data-name="Rectángulo 41147" d="M.959,0H92.338A.959.959,0,0,1,93.3.959v.917a.96.96,0,0,1-.96.96H.959A.959.959,0,0,1,0,1.877V.959A.959.959,0,0,1,.959,0Z" transform="translate(10.728 36.08)" fill="#fff"/>
        <path id="Rectángulo_41148" data-name="Rectángulo 41148" d="M.959,0H47.238A.959.959,0,0,1,48.2.959v.917a.96.96,0,0,1-.96.96H.96A.96.96,0,0,1,0,1.876V.959A.959.959,0,0,1,.959,0Z" transform="translate(10.728 28.895)" fill="#fff"/>
        <path id="Rectángulo_41149" data-name="Rectángulo 41149" d="M.959,0H41.342A.959.959,0,0,1,42.3.959v.917a.96.96,0,0,1-.96.96H.959A.959.959,0,0,1,0,1.877V.959A.959.959,0,0,1,.959,0Z" transform="translate(61.724 28.895)" fill="#fff"/>
      </g>
      <path id="Rectángulo_41150" data-name="Rectángulo 41150" d="M.858,0H31.029a.858.858,0,0,1,.858.858v.819a.857.857,0,0,1-.857.857H.857A.857.857,0,0,1,0,1.677V.858A.858.858,0,0,1,.858,0Z" transform="translate(432.079 145.749) rotate(180)" fill="#fff"/>
      <path id="Trazado_190753" data-name="Trazado 190753" d="M1494.75,208.532h92.679a5.806,5.806,0,0,1,5.8,5.816v38.376a5.806,5.806,0,0,1-5.8,5.816h-72.966c-2.953,4.135-8.307,11.539-8.78,11.539-.443,0,.409-6.994,1.01-11.539H1494.75a5.806,5.806,0,0,1-5.8-5.816V214.348A5.806,5.806,0,0,1,1494.75,208.532Z" transform="translate(-1103.924 -72.447)" fill="#daeef7" opacity="0.3" style="mix-blend-mode: multiply;isolation: isolate"/>
      <path id="Trazado_190754" data-name="Trazado 190754" d="M1519.985,142.882h92.679a5.806,5.806,0,0,1,5.8,5.816v38.376a5.806,5.806,0,0,1-5.8,5.816H1539.7c-2.953,4.135-8.307,11.539-8.78,11.539-.443,0,.409-6.994,1.01-11.539h-11.943a5.806,5.806,0,0,1-5.8-5.816V148.7A5.806,5.806,0,0,1,1519.985,142.882Z" transform="translate(-1125.333 -16.752)" fill="#0d2380"/>
      <path id="Rectángulo_41151" data-name="Rectángulo 41151" d="M.858,0H27.476a.857.857,0,0,1,.857.857v.819a.857.857,0,0,1-.857.857H.857A.857.857,0,0,1,0,1.676V.858A.858.858,0,0,1,.858,0Z" transform="translate(481.232 141.107) rotate(180)" fill="#fff"/>
      <path id="Rectángulo_41152" data-name="Rectángulo 41152" d="M.857,0H18.281a.857.857,0,0,1,.857.857v.819a.857.857,0,0,1-.857.857H.856A.856.856,0,0,1,0,1.677V.857A.857.857,0,0,1,.857,0Z" transform="translate(481.232 149.382) rotate(180)" fill="#fff"/>
      <path id="Rectángulo_41153" data-name="Rectángulo 41153" d="M.857,0H22.7a.857.857,0,0,1,.857.857v.82a.856.856,0,0,1-.856.856H.857A.857.857,0,0,1,0,1.676V.857A.857.857,0,0,1,.857,0Z" transform="translate(459.782 149.382) rotate(180)" fill="#fff"/>
      <path id="Rectángulo_41154" data-name="Rectángulo 41154" d="M.857,0h31.2a.858.858,0,0,1,.858.858v.819a.857.857,0,0,1-.857.857H.857A.857.857,0,0,1,0,1.676V.857A.857.857,0,0,1,.857,0Z" transform="translate(433.247 149.382) rotate(180)" fill="#fff"/>
      <path id="Rectángulo_41155" data-name="Rectángulo 41155" d="M.857,0H46.665a.858.858,0,0,1,.858.858v.819a.857.857,0,0,1-.857.857H.858A.858.858,0,0,1,0,1.676V.857A.857.857,0,0,1,.857,0Z" transform="translate(447.714 141.107) rotate(180)" fill="#fff"/>
      <path id="Rectángulo_41156" data-name="Rectángulo 41156" d="M.857,0H80.183a.857.857,0,0,1,.857.857v.819a.857.857,0,0,1-.857.857H.858A.858.858,0,0,1,0,1.676V.857A.857.857,0,0,1,.857,0Z" transform="translate(481.232 165.591) rotate(180)" fill="#fff"/>
      <path id="Rectángulo_41157" data-name="Rectángulo 41157" d="M.858,0h40.15a.857.857,0,0,1,.857.857v.819a.857.857,0,0,1-.857.857H.857A.857.857,0,0,1,0,1.676V.858A.858.858,0,0,1,.858,0Z" transform="translate(481.232 157.582) rotate(180)" fill="#fff"/>
      <path id="Rectángulo_41158" data-name="Rectángulo 41158" d="M.857,0H36.241A.857.857,0,0,1,37.1.857v.819a.857.857,0,0,1-.857.857H.858A.858.858,0,0,1,0,1.676V.857A.857.857,0,0,1,.857,0Z" transform="translate(437.291 157.582) rotate(180)" fill="#fff"/>
      <g id="Grupo_133966" data-name="Grupo 133966" transform="translate(305.316 190.544)">
        <path id="Trazado_190755" data-name="Trazado 190755" d="M983.235,905.444s-23.153,3.341-19.615,25.685c3.3,20.832,23.153,16.6,28.252,15.557S983.235,905.444,983.235,905.444Z" transform="translate(-963.252 -854.228)" fill="#f7cc7f"/>
        <path id="Trazado_190756" data-name="Trazado 190756" d="M995.792,1071.608c2.374-.486.665-9.461-1.84-18.915-8.523,1.671-18.018,3.535-26.079,5.126C971.992,1076.636,990.843,1072.621,995.792,1071.608Z" transform="translate(-967.172 -979.149)" fill="#e8ba70"/>
        <path id="Trazado_190757" data-name="Trazado 190757" d="M1182.874,1159.507s5.085,18.156,3.746,32.263c-1.249,13.156.624,15.348,5.515,14.931s16.753-3.341,16.961-8.04-1.977-28.818-10.2-41.765S1182.874,1159.507,1182.874,1159.507Z" transform="translate(-1149.572 -1063.185)" fill="#b0c0d2"/>
        <path id="Trazado_190758" data-name="Trazado 190758" d="M1190.777,1152.975c-3.26,2.19-7.9,7.572-7.9,7.572s5.085,18.156,3.746,32.263c-1.249,13.156.624,15.348,5.515,14.931a41.184,41.184,0,0,0,7.276-1.435C1201.361,1173.972,1193.021,1156.634,1190.777,1152.975Z" transform="translate(-1149.572 -1064.225)" fill="#0d2380"/>
        <path id="Trazado_190759" data-name="Trazado 190759" d="M1232.7,615.208s-38.4,27.956-50.806,36.414l-7.258,10.807,5.151,31.48,12.409,6.108L1252.838,712l-1.4-6.813-11-30.54-5.619-34.769-1.639-21.378Z" transform="translate(-1142.586 -608.001)" fill="#0d2380"/>
        <path id="Trazado_190760" data-name="Trazado 190760" d="M1256.948,956.183l-1.473-9.115-61.365,14.944,2.2,13.435,12.409,6.108,60.639,11.981-1.405-6.813Z" transform="translate(-1159.105 -889.54)" fill="#0d2380"/>
        <path id="Trazado_190761" data-name="Trazado 190761" d="M1104.6,841.523s-5.073,26.7,10.3,48.395a2.688,2.688,0,0,1-1.014,3.263l-11.447,2.924s-5.307,1.879-9.781-5.743-12.383-24.746-7.7-43.644c0,0,1.145-5.116,7.388-6.056l8.324-1.566S1104.362,838.521,1104.6,841.523Z" transform="translate(-1065.286 -797.902)" fill="#b0c0d2"/>
        <path id="Trazado_190762" data-name="Trazado 190762" d="M1535.918,574.887s9.989-7.361,15.765-7.2,11.551,7.831,15.3,14.1,13.58,30.854,14.516,47.455.78,40.251-7.336,43.07-18.106-.626-18.106-.626-13.111-11.276-20.76-46.359S1535.918,574.887,1535.918,574.887Z" transform="translate(-1445.8 -567.68)" fill="#0d2380"/>
        <path id="Trazado_190763" data-name="Trazado 190763" d="M1614.057,680.266s9.337-12.137,4.578-44.908c-7.492-51.6-26.379-59.4-26.379-59.4s-13.979,10.652-.625,60.514C1602.636,677.559,1614.057,680.266,1614.057,680.266Z" transform="translate(-1491.448 -574.704)" fill="#001351"/>
        <path id="Trazado_190764" data-name="Trazado 190764" d="M1594.48,835.776a189.669,189.669,0,0,0,4.47,20.982c1.066,3.981,2.136,7.6,3.2,10.89,5.807-2.018,15.2-7.073,11.187-19.9C1609.621,835.87,1599.947,835.144,1594.48,835.776Z" transform="translate(-1498.765 -794.988)" fill="#f7cc7f"/>
        <path id="Trazado_190765" data-name="Trazado 190765" d="M1617.031,927.6c1.067,3.981,2.137,7.6,3.2,10.89,5.726-1.99,14.938-6.934,11.345-19.369l-15.783,3.649Q1616.369,925.125,1617.031,927.6Z" transform="translate(-1516.846 -865.833)" fill="#e8ba70"/>
        <path id="Trazado_190766" data-name="Trazado 190766" d="M1125.39,1057.607a59.184,59.184,0,0,1-9.215-20.894l-20.285,3.841a69.689,69.689,0,0,0,7.258,17.5c4.475,7.622,9.782,5.743,9.782,5.743l11.446-2.924A2.688,2.688,0,0,0,1125.39,1057.607Z" transform="translate(-1075.777 -965.592)" fill="#0d2380"/>
      </g>
      <g id="Grupo_133972" data-name="Grupo 133972" transform="translate(506.926 165.73)">
        <g id="Grupo_133971" data-name="Grupo 133971" transform="translate(0 0)">
          <g id="Grupo_133967" data-name="Grupo 133967" transform="translate(35.606)">
            <path id="Trazado_190767" data-name="Trazado 190767" d="M2580.418,413.62l-.092,10.057,6.374-6,20.088-13.643-16.4,3.576s-8.2,3.1-8.6,3.577A20.789,20.789,0,0,0,2580.418,413.62Z" transform="translate(-2572.341 -404.034)" fill="#fc502d"/>
            <path id="Trazado_190768" data-name="Trazado 190768" d="M2527.664,408.553l34.448-4.52-26.37,9.586Z" transform="translate(-2527.664 -404.034)" fill="#fc502d"/>
            <path id="Trazado_190769" data-name="Trazado 190769" d="M2606.547,422.2l-9.929-6.163,23.992-12.006Z" transform="translate(-2586.162 -404.034)" fill="#fc502d"/>
          </g>
          <g id="Grupo_133970" data-name="Grupo 133970" transform="translate(0 14.207)">
            <g id="Grupo_133968" data-name="Grupo 133968" transform="translate(0 3.634)">
              <path id="Trazado_190770" data-name="Trazado 190770" d="M2292.845,554.951a22.127,22.127,0,0,1,.156-2.42c.088-.741.216-1.493.379-2.233l.8.177c-.158.714-.281,1.438-.365,2.153a21.28,21.28,0,0,0-.15,2.33q0,.34,0,.679l-.818.018C2292.844,555.418,2292.843,555.18,2292.845,554.951Zm2.245-9.745a31.17,31.17,0,0,1,2.636-4.665l.675.463a30.432,30.432,0,0,0-2.567,4.542Zm25.548-4.812c-.051-.024-.1-.049-.152-.074l.367-.733.125.061a.46.46,0,0,0,.085.016,3.763,3.763,0,0,0,2.221-.561,3.481,3.481,0,0,0,1.13-1.657l.773.268a4.343,4.343,0,0,1-1.4,2.038,4.541,4.541,0,0,1-2.819.727A1.062,1.062,0,0,1,2320.638,540.395Zm-19.586-4.039a42.671,42.671,0,0,1,3.849-3.7l.529.627a41.821,41.821,0,0,0-3.775,3.629Zm15.562-1.915a10.017,10.017,0,0,1,0-2.429,11.917,11.917,0,0,1,.246-1.362l.8.193a11.08,11.08,0,0,0-.229,1.267,9.2,9.2,0,0,0,0,2.229,7.571,7.571,0,0,0,.347,1.5l-.774.266A8.425,8.425,0,0,1,2316.614,534.44Zm3.39-4.632-.109-.036.255-.78.119.04a8.234,8.234,0,0,1,4.25,3.241l-.689.442A7.4,7.4,0,0,0,2320,529.808Zm-10.428.17a18.649,18.649,0,0,1,3.309-1.208c.666-.115,1.28-.2,1.875-.253l.075.817c-.574.054-1.167.134-1.812.245a16.865,16.865,0,0,0-3.115,1.149Zm9.495-4.269a18.321,18.321,0,0,1,3.6-4.017l.522.632a17.522,17.522,0,0,0-3.437,3.837Z" transform="translate(-2292.844 -521.692)" fill="#fc502d"/>
            </g>
            <g id="Grupo_133969" data-name="Grupo 133969" transform="translate(34.435)">
              <path id="Trazado_190771" data-name="Trazado 190771" d="M2520.252,499.33a15.738,15.738,0,0,1,2.5-.8l-.182-.8a16.573,16.573,0,0,0-2.634.844Z" transform="translate(-2519.94 -497.727)" fill="#fc502d"/>
            </g>
          </g>
        </g>
      </g>
      <g id="Grupo_133976" data-name="Grupo 133976" transform="translate(447.828 237.979)">
        <path id="Trazado_190772" data-name="Trazado 190772" d="M1911.8,1110.957l-.419.376a.515.515,0,0,1-.724-.018l-7.433-8.2a.509.509,0,0,1,.056-.719l.419-.376a.514.514,0,0,1,.724.018l7.433,8.2A.509.509,0,0,1,1911.8,1110.957Z" transform="translate(-1903.101 -1068.314)" fill="#13375b"/>
        <path id="Trazado_190773" data-name="Trazado 190773" d="M1946.409,1117.115c-.994-.811-8.677,2.572-8.579,3.75s-5.361,12.593-5.361,12.593l-9.433-7.547,0,0c-.083-.273-.978-3.208-1.021-3.733-.046-.551-1.64-1.515-2.38-1.373s.633,1.074.723,1.245c.246.465-.7.64-.7.64s-2.726-1.5-2.784-2.384-.62-2.733-1.209-2.346c-.3.2-.3,1.512-.206,2.135-.175-.707-.423-1.505-.665-1.584-.441-.144-.66.419-.58.695s.792,3.278,1.008,3.616,4.613,3.888,5.247,4.661c0,0,12.2,14,13.07,14.362.762.321,3.48-4.5,6.048-7.7S1949.514,1119.648,1946.409,1117.115Z" transform="translate(-1912.509 -1081.133)" fill="#f7a491"/>
        <path id="Trazado_190774" data-name="Trazado 190774" d="M2283.454,1770.786s1.677,1.642,1.715,2.244.148,7.056-.536,7.659-2.7,1.03-2.049,1.707c.489.512,4.247.4,6.738.265.727-.04,1.639-5.861,1.927-6.717.418-1.243,1.435-4.042,1.055-4.908a7.267,7.267,0,0,0-2.321-2.1,11.434,11.434,0,0,1-2.571-2.747Z" transform="translate(-2224.935 -1631.893)" fill="#f48c7f"/>
        <path id="Trazado_190775" data-name="Trazado 190775" d="M2139.18,1821.194s1.5,4.253,1.5,4.264c.111.674.551,2.339.551,2.951,0,2.3-10.343-1.953-8.025-2.973a2.458,2.458,0,0,0,.937-1.613,5.4,5.4,0,0,0-.871-2.72Z" transform="translate(-2098.029 -1678.478)" fill="#f7a491"/>
        <g id="Grupo_133973" data-name="Grupo 133973" transform="translate(22.14 63.518)">
          <path id="Trazado_190776" data-name="Trazado 190776" d="M2051.9,1299.405s-.754,7.624-.754,7.738c0,12.334-2.436,36.426-1.973,38.744,1.13,5.656,13.3,34.508,13.3,34.508l6.575-.789-8.568-34.544,3.153-13.9,4.462-27.484Z" transform="translate(-2049.11 -1299.405)" fill="#355389"/>
          <path id="Trazado_190777" data-name="Trazado 190777" d="M2100.184,1312.236l1.248,7.226,3.376,29.741,12.856,29.067s-1.808,4.23-4.477,4.824l-20.461-29.843-12.71-38.187.446-8.484Z" transform="translate(-2075.33 -1305.492)" fill="#13375b"/>
        </g>
        <path id="Trazado_190778" data-name="Trazado 190778" d="M2050.186,1068.022l9.118.934s.418-7.5.418-11.079c0-4.341-.369-9.932-.891-9.812a7.944,7.944,0,0,0-4.617,2.771C2050.147,1056.445,2050.186,1068.022,2050.186,1068.022Z" transform="translate(-2027.883 -1022.657)" fill="#86b1f2"/>
        <path id="Trazado_190779" data-name="Trazado 190779" d="M2059.048,1055.5c-.191,1.323-3.7,37.3-3.7,37.3,16.6,8.046,25.764,1.433,25.764,1.433s-.543-25.266.108-28.7c.431-2.275.968-17.394-.5-17.818a36.678,36.678,0,0,0-6.4-1.366c-2.011-.21-9.826-.331-11.224.14A17.882,17.882,0,0,0,2059.048,1055.5Z" transform="translate(-2032.266 -1021.043)" fill="#9bc1f9"/>
        <path id="Trazado_190780" data-name="Trazado 190780" d="M2286.132,1784.038s-3.864,10.917-5.377,11.444c-.4.14-2.329.495-2.693,1.35a3.726,3.726,0,0,0,0,1.118h8.055s1.019-4.81,1.422-6.924c0,0,2.132-5.164,1.895-5.633S2286.132,1784.038,2286.132,1784.038Z" transform="translate(-2221.165 -1647.033)" fill="#184655"/>
        <path id="Trazado_190781" data-name="Trazado 190781" d="M2096.981,1853.289l-1.184-3.754s-2.487,1.056-3.731.88a37.549,37.549,0,0,1-3.672-.88c-4.965,1.64-9.031,2.435-8.292,3.754h16.879Z" transform="translate(-2053.188 -1702.599)" fill="#184655"/>
        <g id="Grupo_133974" data-name="Grupo 133974" transform="translate(19.912 51.329)">
          <path id="Trazado_190782" data-name="Trazado 190782" d="M2035.531,1228.407a2.165,2.165,0,0,1-.25-.187c.3-3.525.242-6.941-.861-8.1l.519-1.1c1.278.992,1.885,3.626,1.646,7.9a7.253,7.253,0,0,1-.168.885C2036.047,1228.219,2035.711,1228.483,2035.531,1228.407Z" transform="translate(-2034.42 -1219.022)" fill="#f7a491"/>
        </g>
        <path id="Trazado_190783" data-name="Trazado 190783" d="M2239.959,1140.242a.994.994,0,0,0,0-.232c-.245-2.492-2.306-23.415-2.654-24.3-.313-.8-9.561-14.073-9.561-14.073l-4.545,6.213,8.893,11.9c.2.756,3.408,14.881,3.408,14.881s.657,2.574.952,4.117c-.134.371-.266.722-.383,1.01a9.3,9.3,0,0,1-.958,1.545,10.628,10.628,0,0,0-1.136,2.015c-.094.363-.264,1.118-.36,1.574s-.228.987-.25,1.234a2.375,2.375,0,0,1-.287.663.4.4,0,0,0,.469.574c.323-.108.574-.527.73-.789.438-.738.671-2.086.78-2.014s.493,2.358.553,2.616a28.294,28.294,0,0,0,.78,3.4c.26.485.6.4.695.1.078-.262-.287-3.977-.287-3.977s-.045-.474.161-.326.545,3.52.689,4.014.472.755.75.359c.339-.483-.244-4.06-.244-4.06s-.065-.449.126-.407.431,2.916.58,3.165a.377.377,0,0,0,.7-.077,17.727,17.727,0,0,0-.336-3.677s.027-.254.146-.17.5,2.52.745,2.745a.261.261,0,0,0,.38.006c.454-.311-.241-2.627-.235-3.779s-.526-2.446-.367-3.817C2239.914,1140.586,2239.942,1140.375,2239.959,1140.242Z" transform="translate(-2174.666 -1068.103)" fill="#f8a492"/>
        <path id="Trazado_190784" data-name="Trazado 190784" d="M2212.4,1071.76l-7.9,5.322s-4.452-6.648-6.842-9.014c-2.993-2.965,1.091-12.047,3.02-11.533C2205,1057.684,2212.4,1071.76,2212.4,1071.76Z" transform="translate(-2152.095 -1029.826)" fill="#9bc1f9"/>
        <path id="Trazado_190785" data-name="Trazado 190785" d="M2137.743,993.493l1.181,7.814s-4.315,9.3-6.891,8.5c-2.161-.677-.831-8.909-.831-8.909s1.178-4.421.824-6.633S2137.743,993.493,2137.743,993.493Z" transform="translate(-2096.271 -975.968)" fill="#f7a491"/>
        <path id="Trazado_190786" data-name="Trazado 190786" d="M2138.059,994.261c-.353-2.212,5.716-.768,5.716-.768l.1.648a3.6,3.6,0,0,1-.658,1.089,7.98,7.98,0,0,1-5.307,2.41A12.108,12.108,0,0,0,2138.059,994.261Z" transform="translate(-2102.303 -975.968)" fill="#f47458"/>
        <g id="Grupo_133975" data-name="Grupo 133975" transform="translate(32.104 0)">
          <path id="Trazado_190787" data-name="Trazado 190787" d="M2125.184,909.524c.172-.063,1.375,8.9-.909,11.365s-6.733,3.273-8.329,1.331c-1.765-2.148-1.677-11.78,1.874-14.317S2125.184,909.524,2125.184,909.524Z" transform="translate(-2114.82 -903.054)" fill="#f7a491"/>
          <path id="Trazado_190788" data-name="Trazado 190788" d="M2126.266,880.566a9.853,9.853,0,0,1,5.175,2.961c1.246.148,2.94.839,4.689,3.745a7.282,7.282,0,0,1-1.941,9.473,5.668,5.668,0,0,0-2.469,4.186l-.4-1.16a6.514,6.514,0,0,1-.314-2.733,5.376,5.376,0,0,1,.405-1.643c.6-1.3-1.293-2.159-1.825-3.238-.409-.831-.429-2.732-1.074-4.105l-.77-1.049a4.885,4.885,0,0,0-3.515-1C2122.494,886.4,2122.744,879.846,2126.266,880.566Z" transform="translate(-2121.914 -880.511)" fill="#184655"/>
          <path id="Trazado_190789" data-name="Trazado 190789" d="M2166.215,956.863c-.019,1.093.477,1.988,1.106,2s1.154-.867,1.172-1.96-.477-1.989-1.106-2S2166.232,955.769,2166.215,956.863Z" transform="translate(-2158.421 -943.622)" fill="#f7a491"/>
        </g>
        <path id="Trazado_190790" data-name="Trazado 190790" d="M2122.5,983.492l-3.442-.179a1.51,1.51,0,0,0,1.523,1.438C2122.423,984.9,2122.5,983.492,2122.5,983.492Z" transform="translate(-2086.311 -967.725)" fill="#fff"/>
      </g>
      <path id="Trazado_190791" data-name="Trazado 190791" d="M1081.455,1653.716l1.683-.32-7.274-38.714-1.683.32Z" transform="translate(-752.044 -1265.378)" fill="#0e2e35"/>
      <path id="Trazado_190792" data-name="Trazado 190792" d="M987.1,1653.892h-2.025l7.546-39.21,1.683.32Z" transform="translate(-676.446 -1265.378)" fill="#0e2e35"/>
      <path id="Trazado_190793" data-name="Trazado 190793" d="M834.917,1654.877l1.644.02-7.235-39.054-1.683.32Z" transform="translate(-542.889 -1266.363)" fill="#0e2e35"/>
      <path id="Trazado_190794" data-name="Trazado 190794" d="M760.988,1265.491c-6.666.716-15.293,1.472-23.954,16.219-9.465,16.118-4.483,40.193,2.988,46.884s31.871,14.951,52.383,2.584c0,0,12.385-7.495,6.029-19.933-9.781-19.141-8.4-23.132-12.773-30.634S775.138,1263.971,760.988,1265.491Z" transform="translate(-461.616 -968.994)" fill="#fae0b2"/>
      <path id="Trazado_190795" data-name="Trazado 190795" d="M737.035,1289.032c5.911-10.066,11.806-13.612,17.073-15.078a44.25,44.25,0,0,0-6.17,8.357c-9.465,16.118-4.483,40.193,2.988,46.884,6.625,5.933,26.564,13.1,45.3,6.02a19.061,19.061,0,0,1-3.819,3.284c-20.511,12.367-44.912,4.106-52.383-2.584S727.569,1305.149,737.035,1289.032Z" transform="translate(-461.616 -976.316)" fill="#f7cc7f"/>
      <path id="Trazado_190796" data-name="Trazado 190796" d="M1045.567,1427.988l1.714,5.158-5.222-2.061Z" transform="translate(-724.793 -1106.993)" fill="#f79c8d"/>
      <path id="Trazado_190797" data-name="Trazado 190797" d="M1011.051,1326.767c.348.014,1.3.334,2.7,2.97,1.782,3.367,4.385,13.536,4.385,13.536l-7.772,2.894-1-2.123-1.644-16.342S1010.954,1326.763,1011.051,1326.767Z" transform="translate(-695.66 -1021.121)" fill="#fc502d"/>
      <path id="Trazado_190798" data-name="Trazado 190798" d="M884.83,1317.1a47.465,47.465,0,0,1,10.273,1.467s1.875,16.114-1.688,28.358c-.8,2.741.66,11.362.66,11.362l-23.028-.3s2.728-20.842,1.7-24.209-1.052-15.1-1.052-15.1.158-.024,5.174-.892A52.153,52.153,0,0,1,884.83,1317.1Z" transform="translate(-579.712 -1012.919)" fill="#fc502d"/>
      <path id="Trazado_190799" data-name="Trazado 190799" d="M907.63,1785.968s.509,5.88,1.446,7.508-.049,4.4-.1,4.776-1.972.922-5.028.6-3.007-1.031-2.761-2.171,1.873-2.605,1.972-3.691a28.32,28.32,0,0,0-.937-4.993Z" transform="translate(-605.195 -1410.692)" fill="#f7a491"/>
      <path id="Trazado_190800" data-name="Trazado 190800" d="M889.279,1554.7s15.9-.883,19.446,1.267-.642,6.564-.642,6.564-12.941,5.627-34.607,6.877c-5.13.3-5.572-13.377-4.613-14.509S889.279,1554.7,889.279,1554.7Z" transform="translate(-577.515 -1214.186)" fill="#13375b"/>
      <path id="Trazado_190801" data-name="Trazado 190801" d="M902.52,1843.291c-3.147-.335-2.758-1.881-2.5-3.055a10.406,10.406,0,0,1,1.6-2.421,5.245,5.245,0,0,0,2.106,1.024c1.419.419,3.365-.411,4.6-.93a15.208,15.208,0,0,1,.421,4.06C908.7,1842.359,905.667,1843.626,902.52,1843.291Z" transform="translate(-604.147 -1454.677)" fill="#184655"/>
      <path id="Trazado_190802" data-name="Trazado 190802" d="M861.52,1566.957c.635,4.806,3.78,28.73,3.78,28.73l-7.3.9s-8.972-31.227-8.512-36,3.819-5.178,3.819-5.178S859.839,1554.235,861.52,1566.957Z" transform="translate(-561.411 -1215.07)" fill="#355389"/>
      <path id="Trazado_190803" data-name="Trazado 190803" d="M853.578,1339.162c2.153-.808,3.206,18.592,3.5,26.577a93.815,93.815,0,0,0,12.113-.121c.778-.058,2.573-.716,3.347-.817a7.744,7.744,0,0,1,1.9-.09,35.917,35.917,0,0,1,4.457,2.007c.422.442,1.562,1.557,1.369,2.039s-2.192-1.343-2.192-1.343l-.977-.548c1.217,1.189,3.537,2.754,3.2,3.324s-2.419-1.033-3.911-2.115c1.28,1.156,2.869,3.224,2.5,3.547-.329.29-2.138-2.1-4.07-2.794-.716-.255-1.43.452-1.993.538a4.046,4.046,0,0,1-1.459.081l-2.093-.593c-.713.065-.731.486-1.451.639-.836.178-2.207.365-3.271.625-6.128,1.5-8.172,2.193-10.049,2.192C848.819,1372.3,848.489,1341.071,853.578,1339.162Z" transform="translate(-561.845 -1031.615)" fill="#f7a491"/>
      <path id="Trazado_190804" data-name="Trazado 190804" d="M845.849,1347.233c-.4-8.179-.344-18.26,4.241-19.98,1.809-.679,5,3.4,4.425,20.146A34.456,34.456,0,0,1,845.849,1347.233Z" transform="translate(-558.203 -1021.473)" fill="#fc502d"/>
      <path id="Trazado_190805" data-name="Trazado 190805" d="M973.964,1436.234H973.5l-7.026,17.266.484-.074Z" transform="translate(-660.667 -1113.989)" fill="#f79c8d"/>
      <path id="Trazado_190806" data-name="Trazado 190806" d="M1052.961,1819.137a3.974,3.974,0,0,0,.5,3.391c1.14,1.35,5.877,2.674,6.5,3.405a2.05,2.05,0,0,1,.575,1.354l-13.295-.366.145-4.015.612-2.885Z" transform="translate(-729.191 -1438.831)" fill="#f7a491"/>
      <path id="Trazado_190807" data-name="Trazado 190807" d="M1050.129,1844.227s-3.417,1.382-5.067.564-1.6-1.045-2.078-.74-.648,4.069-.648,4.069l14.95.439c1.04-.024,1.566-.79.721-1.446a12.2,12.2,0,0,0-1.63-.969A46.746,46.746,0,0,0,1050.129,1844.227Z" transform="translate(-725.028 -1459.857)" fill="#184655"/>
      <path id="Trazado_190808" data-name="Trazado 190808" d="M1053.893,1560.3c1.028-2.162,3.365-4.978,7.477-3.282,3.922,1.617,4.974,5.592,3.737,9.662s-9.384,28-9.667,31.287l-6.5.043s1.182-18.946,1.472-23.525A44.346,44.346,0,0,1,1053.893,1560.3Z" transform="translate(-730.627 -1216.016)" fill="#355389"/>
      <path id="Trazado_190809" data-name="Trazado 190809" d="M914.371,1436.234H892.63a1.417,1.417,0,0,0-1.312.883l-6.695,16.383H872.637a.608.608,0,0,0-.607.608h0a.608.608,0,0,0,.607.608h34.114a2.381,2.381,0,0,0,2.172-1.411l6.741-15.067A1.422,1.422,0,0,0,914.371,1436.234Z" transform="translate(-580.546 -1113.989)"/>
      <path id="Trazado_190810" data-name="Trazado 190810" d="M1060.885,1490.274a1.2,1.2,0,1,1-.9-1.566A1.28,1.28,0,0,1,1060.885,1490.274Z" transform="translate(-738.766 -1158.489)" fill="#fff"/>
      <g id="Grupo_133977" data-name="Grupo 133977" transform="translate(298.183 282.833)">
        <path id="Trazado_190811" data-name="Trazado 190811" d="M928.312,1177.982a16.652,16.652,0,0,1-1.923-.77,9.645,9.645,0,0,0-2.193-.826c-1.213-.187-3.3-.062-4.449,1.186-1.434,1.556-3.982.281-3.469,8.429.581,9.222,5.709,8.21,5.833,8.054s4.574-5.9,4.574-5.9,1.556,3.4,1.556,3.278S936.183,1180.633,928.312,1177.982Z" transform="translate(-916.211 -1176.316)" fill="#0e2e35"/>
        <path id="Trazado_190812" data-name="Trazado 190812" d="M940.879,1268.757l.443,3.3s.992,4.748-.284,5.663-5.425-5.8-5.425-5.8l.438-8.35Z" transform="translate(-932.67 -1250.337)" fill="#f7a491"/>
        <path id="Trazado_190813" data-name="Trazado 190813" d="M937.569,1266.272a9.455,9.455,0,0,0,5.346,5.278l-.375-2.794-4.829-5.19Z" transform="translate(-934.33 -1250.336)" fill="#f47458"/>
        <path id="Trazado_190814" data-name="Trazado 190814" d="M937.445,1203.328a4.394,4.394,0,0,1,5.061,4.444,33.394,33.394,0,0,1-.37,4.227c-.588,3.8-3.183,7.154-4.9,6.855s-6.034-3.58-5.274-8.994C932.431,1206.517,934.608,1203.786,937.445,1203.328Z" transform="translate(-929.498 -1199.184)" fill="#f7a491"/>
        <path id="Trazado_190815" data-name="Trazado 190815" d="M926.344,1241.21a1.279,1.279,0,1,1-.972-1.73A1.415,1.415,0,0,1,926.344,1241.21Z" transform="translate(-922.69 -1229.889)" fill="#f7a491"/>
        <path id="Trazado_190816" data-name="Trazado 190816" d="M930.236,1201.711s2.075.516,2.845-.819,3.523-4.214,7.024-3.02-3.08-2.9-3.36-2.9-3.64-.023-3.64-.023-2.59,2.131-2.684,2.365-.84,2.786-.84,2.786Z" transform="translate(-927.554 -1192.12)" fill="#0e2e35"/>
      </g>
      <path id="Trazado_190817" data-name="Trazado 190817" d="M958.856,1276.287l3.776.722a1.68,1.68,0,0,1-2.03,1.153C958.567,1277.834,958.856,1276.287,958.856,1276.287Z" transform="translate(-654.195 -978.295)" fill="#fff"/>
      <path id="Trazado_190818" data-name="Trazado 190818" d="M701.564,998.917l3.775.722a1.68,1.68,0,0,1-2.03,1.153C701.274,1000.463,701.564,998.917,701.564,998.917Z" transform="translate(-435.917 -742.984)" fill="#fff"/>
    </g>
  </g>
</svg>
