<svg xmlns="http://www.w3.org/2000/svg" width="336.242" height="282.666" viewBox="0 0 336.242 282.666">
  <g id="Grupo_137439" data-name="Grupo 137439" transform="translate(-215.609 -8961.333)">
    <g id="Grupo_135467" data-name="Grupo 135467" transform="translate(-1042.522 8180.333)">
      <g id="Grupo_135462" data-name="Grupo 135462" transform="translate(1258.132 781)">
        <g id="Grupo_135458" data-name="Grupo 135458">
          <g id="Grupo_135310" data-name="Grupo 135310" transform="translate(46.736 3.062)">
            <g id="Grupo_135309" data-name="Grupo 135309">
              <g id="Grupo_135308" data-name="Grupo 135308">
                <g id="Grupo_135307" data-name="Grupo 135307">
                  <circle id="Elipse_5406" data-name="Elipse 5406" cx="132.01" cy="132.01" r="132.01" fill="#fff2bf"/>
                </g>
              </g>
            </g>
          </g>
          <g id="Grupo_135457" data-name="Grupo 135457">
            <g id="Grupo_135398" data-name="Grupo 135398">
              <g id="Grupo_135314" data-name="Grupo 135314" transform="translate(69.829 12.6)">
                <g id="Grupo_135313" data-name="Grupo 135313">
                  <g id="Grupo_135312" data-name="Grupo 135312">
                    <g id="Grupo_135311" data-name="Grupo 135311">
                      <path id="Trazado_191987" data-name="Trazado 191987" d="M1574.49,859.053l-33.624,141.586-4.424,18.631-6.841,28.8a25.56,25.56,0,0,1-30.777,18.96l-117.39-27.874a25.56,25.56,0,0,1-18.96-30.777l35.431-149.191,9.458-39.822a25.848,25.848,0,0,1,1.479-4.409,25.554,25.554,0,0,1,29.292-14.552l117.39,27.874A25.569,25.569,0,0,1,1574.49,859.053Z" transform="translate(-1361.776 -799.702)" fill="#0d2380"/>
                    </g>
                  </g>
                </g>
              </g>
              <g id="Grupo_135318" data-name="Grupo 135318" transform="translate(71.798 48.623)" opacity="0.3">
                <g id="Grupo_135317" data-name="Grupo 135317">
                  <g id="Grupo_135316" data-name="Grupo 135316">
                    <g id="Grupo_135315" data-name="Grupo 135315">
                      <path id="Trazado_191988" data-name="Trazado 191988" d="M1575.22,875.84l-33.614,141.58-4.423,18.634-6.848,28.8a25.563,25.563,0,0,1-30.781,18.96l-117.384-27.87a25.561,25.561,0,0,1-17.47-14.526c.519.6,1.063,1.174,1.642,1.718a10.824,10.824,0,0,1-.474-4.908c24.424-5.9,38.616-30.062,38.616-30.062l12.667,20.754,84.156,19.65-86.651-13.106c-8.437,11.931-21.613,14.993-29.694,15.688l110.5,26.235a25.561,25.561,0,0,0,30.78-18.96l6.848-28.8,4.423-18.633,33.615-141.58a25.474,25.474,0,0,0-1.484-16.244A25.527,25.527,0,0,1,1575.22,875.84Z" transform="translate(-1364.699 -853.169)" fill="#000072"/>
                    </g>
                  </g>
                </g>
              </g>
              <g id="Grupo_135322" data-name="Grupo 135322" transform="translate(70.256 12.7)" opacity="0.55">
                <g id="Grupo_135321" data-name="Grupo 135321">
                  <g id="Grupo_135320" data-name="Grupo 135320">
                    <g id="Grupo_135319" data-name="Grupo 135319">
                      <path id="Trazado_191989" data-name="Trazado 191989" d="M1572.379,840.495a25.433,25.433,0,0,0-13.033-7.707l-117.4-27.88a25.563,25.563,0,0,0-30.772,18.966l-44.889,189.014a25.46,25.46,0,0,0,2.747,18.7,25.525,25.525,0,0,1-5.928-23.063L1408,819.509a25.555,25.555,0,0,1,30.771-18.96l117.391,27.879A25.506,25.506,0,0,1,1572.379,840.495Z" transform="translate(-1362.41 -799.851)" fill="#fff"/>
                    </g>
                  </g>
                </g>
              </g>
              <g id="Grupo_135326" data-name="Grupo 135326" transform="translate(67.786 10.549)">
                <g id="Grupo_135325" data-name="Grupo 135325">
                  <g id="Grupo_135324" data-name="Grupo 135324">
                    <g id="Grupo_135323" data-name="Grupo 135323">
                      <path id="Trazado_191990" data-name="Trazado 191990" d="M1503.743,1068.775a27.578,27.578,0,0,1-6.379-.75l-117.392-27.88a27.634,27.634,0,0,1-20.478-33.234l44.889-189.017a27.6,27.6,0,0,1,33.235-20.479l117.392,27.879a27.6,27.6,0,0,1,20.478,33.235l-44.89,189.017A27.651,27.651,0,0,1,1503.743,1068.775Zm-5.433-4.73a23.54,23.54,0,0,0,28.31-17.444l44.89-189.017a23.514,23.514,0,0,0-17.444-28.31L1436.672,801.4a23.513,23.513,0,0,0-28.31,17.444l-44.89,189.017a23.54,23.54,0,0,0,17.445,28.31Z" transform="translate(-1358.744 -796.658)" fill="#000072"/>
                    </g>
                  </g>
                </g>
              </g>
              <g id="Grupo_135330" data-name="Grupo 135330" transform="translate(4.024 122.006)">
                <g id="Grupo_135329" data-name="Grupo 135329">
                  <g id="Grupo_135328" data-name="Grupo 135328">
                    <g id="Grupo_135327" data-name="Grupo 135327">
                      <path id="Trazado_191991" data-name="Trazado 191991" d="M1378.621,1019.344a57.285,57.285,0,0,1-73.89,54.8h-.005l-37.05,10.394,10.213-27.935a57.257,57.257,0,1,1,100.732-37.26Z" transform="translate(-1264.105 -962.089)" fill="#b0c0d2"/>
                    </g>
                  </g>
                </g>
              </g>
              <g id="Grupo_135334" data-name="Grupo 135334" transform="translate(2.045 121.991)" opacity="0.65">
                <g id="Grupo_135333" data-name="Grupo 135333">
                  <g id="Grupo_135332" data-name="Grupo 135332">
                    <g id="Grupo_135331" data-name="Grupo 135331">
                      <path id="Trazado_191992" data-name="Trazado 191992" d="M1342.91,967.559a57.261,57.261,0,0,0-61.976,91.454l-8.536,23.354-7.66,2.151,10.213-27.935a57.263,57.263,0,0,1,67.96-89.023Z" transform="translate(-1261.167 -962.067)" fill="#fff"/>
                    </g>
                  </g>
                </g>
              </g>
              <g id="Grupo_135338" data-name="Grupo 135338" transform="translate(5.615 142.506)" opacity="0.3">
                <g id="Grupo_135337" data-name="Grupo 135337">
                  <g id="Grupo_135336" data-name="Grupo 135336">
                    <g id="Grupo_135335" data-name="Grupo 135335">
                      <path id="Trazado_191993" data-name="Trazado 191993" d="M1377.411,1029.256a57.283,57.283,0,0,1-73.889,54.8h-.006l-37.05,10.394,3.786-10.348,28.887-9.495h.006a57.285,57.285,0,0,0,64.921-82.093A56.986,56.986,0,0,1,1377.411,1029.256Z" transform="translate(-1266.466 -992.516)" fill="#000072"/>
                    </g>
                  </g>
                </g>
              </g>
              <g id="Grupo_135342" data-name="Grupo 135342" transform="translate(0 119.945)">
                <g id="Grupo_135341" data-name="Grupo 135341">
                  <g id="Grupo_135340" data-name="Grupo 135340">
                    <g id="Grupo_135339" data-name="Grupo 135339">
                      <path id="Trazado_191994" data-name="Trazado 191994" d="M1263.747,1085.57a2.046,2.046,0,0,1-1.921-2.748l9.807-26.823a59.2,59.2,0,1,1,29.15,19.259l-36.483,10.236A2.069,2.069,0,0,1,1263.747,1085.57Zm53.685-122.45a55.21,55.21,0,0,0-41.92,91.138,2.043,2.043,0,0,1,.369,2.035l-8.842,24.185,33.206-9.316a2.079,2.079,0,0,1,1.153.013,55.216,55.216,0,1,0,16.034-108.054Z" transform="translate(-1258.132 -959.029)" fill="#000072"/>
                    </g>
                  </g>
                </g>
              </g>
              <g id="Grupo_135350" data-name="Grupo 135350" transform="translate(97.039 38.088)">
                <g id="Grupo_135346" data-name="Grupo 135346" transform="translate(0.312 0.352)">
                  <g id="Grupo_135345" data-name="Grupo 135345">
                    <g id="Grupo_135344" data-name="Grupo 135344">
                      <g id="Grupo_135343" data-name="Grupo 135343">
                        <path id="Trazado_191995" data-name="Trazado 191995" d="M1436.367,838.054l-33.741,142.073,26,42.615,94.283,22.391a6.765,6.765,0,0,0,8.147-5.02l40.37-169.984Z" transform="translate(-1402.626 -838.054)" fill="#fff"/>
                      </g>
                    </g>
                  </g>
                </g>
                <g id="Grupo_135349" data-name="Grupo 135349">
                  <g id="Grupo_135348" data-name="Grupo 135348">
                    <g id="Grupo_135347" data-name="Grupo 135347">
                      <path id="Trazado_191996" data-name="Trazado 191996" d="M1524.334,1045.441a7.114,7.114,0,0,1-1.645-.194l-94.4-22.419-26.125-42.821.028-.117L1436,837.532l.285.067,135.341,32.142-.067.284-40.37,169.984a7.065,7.065,0,0,1-6.853,5.431Zm-95.675-23.125,94.165,22.363a6.474,6.474,0,0,0,7.795-4.8l40.3-169.7-134.489-31.94-33.645,141.671Z" transform="translate(-1402.163 -837.532)" fill="#000072"/>
                    </g>
                  </g>
                </g>
              </g>
              <g id="Grupo_135354" data-name="Grupo 135354" transform="translate(95.248 36.336)">
                <g id="Grupo_135353" data-name="Grupo 135353">
                  <g id="Grupo_135352" data-name="Grupo 135352">
                    <g id="Grupo_135351" data-name="Grupo 135351">
                      <path id="Trazado_191997" data-name="Trazado 191997" d="M1523.47,1046.4a8.934,8.934,0,0,1-2.067-.244l-94.283-22.391a2.1,2.1,0,0,1-1.31-.951l-26-42.615a2.1,2.1,0,0,1-.251-1.582L1433.3,836.549a2.1,2.1,0,0,1,2.532-1.56l135.057,32.075a2.1,2.1,0,0,1,1.561,2.532l-40.37,169.985a8.879,8.879,0,0,1-8.612,6.824Zm-94.525-26.524,93.429,22.188a4.662,4.662,0,0,0,5.615-3.46l39.883-167.938-130.964-31.1-33.054,139.184Z" transform="translate(-1399.505 -834.932)" fill="#000072"/>
                    </g>
                  </g>
                </g>
              </g>
              <g id="Grupo_135358" data-name="Grupo 135358" transform="translate(95.306 178.468)">
                <g id="Grupo_135357" data-name="Grupo 135357">
                  <g id="Grupo_135356" data-name="Grupo 135356">
                    <g id="Grupo_135355" data-name="Grupo 135355">
                      <path id="Trazado_191998" data-name="Trazado 191998" d="M1427.634,1092.6a2.046,2.046,0,0,1-1.745-.98l-26-42.615a2.045,2.045,0,0,1,2.219-3.055l25.129,5.968a11.359,11.359,0,0,1,8.428,13.676l-6.041,25.433a2.043,2.043,0,0,1-1.99,1.573Zm-21.7-41.537,20.856,34.186,4.892-20.6a7.27,7.27,0,0,0-5.393-8.753Z" transform="translate(-1399.591 -1045.892)" fill="#000072"/>
                    </g>
                  </g>
                </g>
              </g>
              <g id="Grupo_135365" data-name="Grupo 135365" transform="translate(96.465 180.339)" opacity="0.3">
                <g id="Grupo_135361" data-name="Grupo 135361" transform="translate(0.614 0.447)">
                  <g id="Grupo_135360" data-name="Grupo 135360">
                    <g id="Grupo_135359" data-name="Grupo 135359">
                      <path id="Trazado_191999" data-name="Trazado 191999" d="M1402.223,1049.333l26,42.615,6.04-25.433a9.313,9.313,0,0,0-6.91-11.214Z" transform="translate(-1402.223 -1049.333)" fill="#262f6a"/>
                    </g>
                  </g>
                </g>
                <g id="Grupo_135364" data-name="Grupo 135364">
                  <g id="Grupo_135363" data-name="Grupo 135363">
                    <g id="Grupo_135362" data-name="Grupo 135362">
                      <path id="Trazado_192000" data-name="Trazado 192000" d="M1428.045,1092.49l-26.734-43.82,25.811,6.13a9.6,9.6,0,0,1,7.127,11.566Zm-25.5-42.927,25.264,41.41,5.876-24.741a9.023,9.023,0,0,0-6.693-10.863Z" transform="translate(-1401.311 -1048.67)" fill="#000072"/>
                    </g>
                  </g>
                </g>
              </g>
              <g id="Grupo_135369" data-name="Grupo 135369" transform="translate(123.876 197.361)" opacity="0.3">
                <g id="Grupo_135368" data-name="Grupo 135368">
                  <g id="Grupo_135367" data-name="Grupo 135367">
                    <g id="Grupo_135366" data-name="Grupo 135366">
                      <path id="Trazado_192001" data-name="Trazado 192001" d="M1463.656,1087.251l-3.979,16.758-8.636-2.1-9.045-2.2,2.1-9.179,3.8-16.588,8.851,2.1A9.307,9.307,0,0,1,1463.656,1087.251Z" transform="translate(-1441.996 -1073.935)" fill="#000072"/>
                    </g>
                  </g>
                </g>
              </g>
              <g id="Grupo_135373" data-name="Grupo 135373" transform="translate(126.763 43.308)" opacity="0.3">
                <g id="Grupo_135372" data-name="Grupo 135372" transform="translate(0 0)">
                  <g id="Grupo_135371" data-name="Grupo 135371">
                    <g id="Grupo_135370" data-name="Grupo 135370">
                      <rect id="Rect치ngulo_41361" data-name="Rect치ngulo 41361" width="138.188" height="13.731" transform="matrix(-0.973, -0.231, 0.231, -0.973, 134.449, 45.289)" fill="#000072"/>
                    </g>
                  </g>
                </g>
              </g>
              <g id="Grupo_135380" data-name="Grupo 135380" transform="translate(122.19)">
                <g id="Grupo_135376" data-name="Grupo 135376" transform="translate(0.352 0.299)">
                  <g id="Grupo_135375" data-name="Grupo 135375">
                    <g id="Grupo_135374" data-name="Grupo 135374">
                      <path id="Trazado_192002" data-name="Trazado 192002" d="M1587.448,840.642a21.543,21.543,0,0,0-13.42-9.7l-13.617-3.234c-16.213-3.85-22.046-11.542-20.631-29.123a14.821,14.821,0,0,0-28.358-7.921c-.014.034-.03.073-.044.107-6.691,17.144-15.38,21.64-31.908,17.715l-13.406-3.184a21.631,21.631,0,0,0-26.046,16.049l150.059,35.637A21.564,21.564,0,0,0,1587.448,840.642Zm-64.871-33.182a7.211,7.211,0,1,1,8.682-5.35A7.21,7.21,0,0,1,1522.576,807.46Z" transform="translate(-1440.017 -781.444)" fill="#0d2380"/>
                    </g>
                  </g>
                </g>
                <g id="Grupo_135379" data-name="Grupo 135379">
                  <g id="Grupo_135378" data-name="Grupo 135378">
                    <g id="Grupo_135377" data-name="Grupo 135377">
                      <path id="Trazado_192003" data-name="Trazado 192003" d="M1590.123,857.192l-.285-.067-150.344-35.705.068-.284a21.949,21.949,0,0,1,26.4-16.266l13.407,3.184c16.494,3.918,25.051-.835,31.568-17.537l.047-.115a15.113,15.113,0,0,1,28.916,8.081c-1.377,17.122,4.154,24.932,20.409,28.793l13.617,3.234a21.762,21.762,0,0,1,13.6,9.835h0a21.777,21.777,0,0,1,2.665,16.564ZM1440.2,820.986l149.486,35.5a21.187,21.187,0,0,0-2.658-15.838h0a21.188,21.188,0,0,0-13.24-9.573l-13.617-3.233c-16.61-3.945-22.262-11.922-20.853-29.431a14.529,14.529,0,0,0-27.8-7.787l-.045.11c-6.649,17.038-15.388,21.886-32.244,17.884l-13.407-3.184A21.366,21.366,0,0,0,1440.2,820.986Zm83.872-13.183a7.5,7.5,0,1,1,7.3-5.771A7.482,7.482,0,0,1,1524.072,807.8Zm0-14.424a6.922,6.922,0,1,0,1.6.188A6.932,6.932,0,0,0,1524.072,793.379Z" transform="translate(-1439.494 -781)" fill="#000072"/>
                    </g>
                  </g>
                </g>
              </g>
              <g id="Grupo_135384" data-name="Grupo 135384" transform="translate(122.544 0.297)" opacity="0.55">
                <g id="Grupo_135383" data-name="Grupo 135383">
                  <g id="Grupo_135382" data-name="Grupo 135382">
                    <g id="Grupo_135381" data-name="Grupo 135381">
                      <path id="Trazado_192004" data-name="Trazado 192004" d="M1530.879,797.636a7.2,7.2,0,0,1-8.3,9.823,7.321,7.321,0,0,1-2.247-.954,7.211,7.211,0,1,0,10.55-8.869Zm-2.309-15.79a14.826,14.826,0,0,0-17.15,8.815c-.013.033-.028.071-.042.1-6.691,17.148-15.379,21.642-31.911,17.716l-13.4-3.183a21.631,21.631,0,0,0-26.043,16.047l3.462.823a21.626,21.626,0,0,1,25.316-13.62l13.4,3.183c16.526,3.925,25.215-.57,31.9-17.713.015-.038.036-.076.049-.108a14.82,14.82,0,0,1,23.577-5.457A14.749,14.749,0,0,0,1528.57,781.846Z" transform="translate(-1440.019 -781.441)" fill="#fff"/>
                    </g>
                  </g>
                </g>
              </g>
              <g id="Grupo_135389" data-name="Grupo 135389" transform="translate(122.543 0.299)">
                <g id="Grupo_135388" data-name="Grupo 135388">
                  <g id="Grupo_135387" data-name="Grupo 135387">
                    <g id="Grupo_135386" data-name="Grupo 135386">
                      <g id="Grupo_135385" data-name="Grupo 135385">
                        <path id="Trazado_192005" data-name="Trazado 192005" d="M1587.448,840.642a21.543,21.543,0,0,0-13.42-9.7l-13.617-3.234c-16.213-3.85-22.046-11.542-20.631-29.123a14.821,14.821,0,0,0-28.358-7.921c-.014.034-.03.073-.044.107-6.691,17.144-15.38,21.64-31.908,17.715l-13.406-3.184a21.631,21.631,0,0,0-26.046,16.049l150.059,35.637A21.564,21.564,0,0,0,1587.448,840.642Zm-63.2-29a11.194,11.194,0,0,1-2.587-.3h0a11.188,11.188,0,1,1,2.587.3Zm-.746-8.058a3.225,3.225,0,1,0-2-1.446,3.232,3.232,0,0,0,2,1.446Z" transform="translate(-1440.017 -781.444)" fill="none"/>
                      </g>
                    </g>
                  </g>
                </g>
              </g>
              <g id="Grupo_135393" data-name="Grupo 135393" transform="translate(182.38 40.08)" opacity="0.25">
                <g id="Grupo_135392" data-name="Grupo 135392">
                  <g id="Grupo_135391" data-name="Grupo 135391">
                    <g id="Grupo_135390" data-name="Grupo 135390">
                      <path id="Trazado_192006" data-name="Trazado 192006" d="M1565.808,850.237c-.528,2.224-9.228,2.063-19.432-.36s-18.047-6.191-17.519-8.415,8.8-.261,19,2.162S1566.336,848.013,1565.808,850.237Z" transform="translate(-1528.832 -840.489)" fill="#fff"/>
                    </g>
                  </g>
                </g>
              </g>
              <g id="Grupo_135397" data-name="Grupo 135397" transform="translate(14.849 169.567)" opacity="0.25">
                <g id="Grupo_135396" data-name="Grupo 135396">
                  <g id="Grupo_135395" data-name="Grupo 135395">
                    <g id="Grupo_135394" data-name="Grupo 135394">
                      <path id="Trazado_192007" data-name="Trazado 192007" d="M1297.318,1048.829c1,9.556,1.95,17.858-4.148,18.5s-11.851-6.592-12.85-16.147,3.135-17.818,9.234-18.456S1296.32,1039.274,1297.318,1048.829Z" transform="translate(-1280.171 -1032.682)" fill="#fff"/>
                    </g>
                  </g>
                </g>
              </g>
            </g>
            <g id="Grupo_135456" data-name="Grupo 135456" transform="translate(221.671 128.252)">
              <g id="Grupo_135402" data-name="Grupo 135402" transform="translate(2.103 2.1)">
                <g id="Grupo_135401" data-name="Grupo 135401">
                  <g id="Grupo_135400" data-name="Grupo 135400">
                    <g id="Grupo_135399" data-name="Grupo 135399">
                      <path id="Trazado_192008" data-name="Trazado 192008" d="M1695.732,1070.24,1632.6,990.226a20.8,20.8,0,0,0-2.675-2.816l0,0a21.378,21.378,0,0,0-7.7-4.348l-16.725-5.283-9.793-3.1a4.176,4.176,0,0,0-5.422,4.278l.734,10.25,1.249,17.495a21.542,21.542,0,0,0,2.084,7.8l0,0a21.243,21.243,0,0,0,2.471,3.953l62.887,79.7c7.81,9.9,22.513,11.874,32.364,4a22.783,22.783,0,0,0,3.659-31.914Z" transform="translate(-1590.27 -974.476)" fill="#fc502d"/>
                    </g>
                  </g>
                </g>
              </g>
              <g id="Grupo_135409" data-name="Grupo 135409" transform="translate(65.611 90.143)">
                <g id="Grupo_135405" data-name="Grupo 135405" transform="translate(0.41 0.41)">
                  <g id="Grupo_135404" data-name="Grupo 135404">
                    <g id="Grupo_135403" data-name="Grupo 135403">
                      <path id="Trazado_192009" data-name="Trazado 192009" d="M1726.685,1113.074l-5.769-7.311-35.774,28.228,5.52,6.995c7.81,9.9,22.513,11.874,32.364,4a22.783,22.783,0,0,0,3.659-31.914Z" transform="translate(-1685.142 -1105.763)" fill="#fe4a27"/>
                    </g>
                  </g>
                </g>
                <g id="Grupo_135408" data-name="Grupo 135408">
                  <g id="Grupo_135407" data-name="Grupo 135407">
                    <g id="Grupo_135406" data-name="Grupo 135406">
                      <path id="Trazado_192010" data-name="Trazado 192010" d="M1708.867,1149.933a23.841,23.841,0,0,1-18.633-8.965l-5.7-7.225,36.233-28.589,5.95,7.541a23.074,23.074,0,0,1-3.705,32.323A22.523,22.523,0,0,1,1708.867,1149.933Zm-23.513-16.093,5.339,6.766a23.228,23.228,0,0,0,15.5,8.59,22.108,22.108,0,0,0,16.45-4.634,22.488,22.488,0,0,0,3.612-31.5l-5.588-7.082Z" transform="translate(-1684.533 -1105.154)" fill="#000072"/>
                    </g>
                  </g>
                </g>
              </g>
              <g id="Grupo_135416" data-name="Grupo 135416" transform="translate(1.785 1.785)">
                <g id="Grupo_135412" data-name="Grupo 135412" transform="translate(0.318 0.315)">
                  <g id="Grupo_135411" data-name="Grupo 135411">
                    <g id="Grupo_135410" data-name="Grupo 135410">
                      <path id="Trazado_192011" data-name="Trazado 192011" d="M1629.92,987.41l0,0a21.378,21.378,0,0,0-7.7-4.348l-16.725-5.283-9.793-3.1a4.176,4.176,0,0,0-5.422,4.278l.734,10.25,1.249,17.495a21.542,21.542,0,0,0,2.084,7.8l0,0c4.637,2.735,12.418,1.984,12.908-6.016,9.112,3.691,15.021-1.715,13.6-10.735C1627.483,1000.14,1632.523,993.6,1629.92,987.41Z" transform="translate(-1590.27 -974.476)" fill="#ffdc9c"/>
                    </g>
                  </g>
                </g>
                <g id="Grupo_135415" data-name="Grupo 135415">
                  <g id="Grupo_135414" data-name="Grupo 135414">
                    <g id="Grupo_135413" data-name="Grupo 135413">
                      <path id="Trazado_192012" data-name="Trazado 192012" d="M1599.459,1016.1a10.8,10.8,0,0,1-5.423-1.478l-.128-.141a21.748,21.748,0,0,1-2.115-7.915l-1.983-27.746a4.494,4.494,0,0,1,5.835-4.6l26.519,8.385a21.578,21.578,0,0,1,7.809,4.413l.087.12a8.4,8.4,0,0,1-1.436,9.069,7.243,7.243,0,0,1-7.526,1.856c.557,4.339-.582,7.969-3.159,10.015-2.6,2.065-6.336,2.313-10.55.712-.36,3.742-2.289,5.528-3.875,6.371A8.653,8.653,0,0,1,1599.459,1016.1Zm-5.019-1.979a9.4,9.4,0,0,0,8.774.473c2.156-1.145,3.391-3.318,3.573-6.282l.027-.441.41.166c4.156,1.685,7.821,1.52,10.319-.462s3.532-5.6,2.852-9.929l-.083-.531.506.183a6.7,6.7,0,0,0,7.344-1.533,7.761,7.761,0,0,0,1.334-8.329,20.954,20.954,0,0,0-7.525-4.228l-26.519-8.385a3.858,3.858,0,0,0-5.008,3.952l1.983,27.744A21.134,21.134,0,0,0,1594.44,1014.121Z" transform="translate(-1589.798 -974.008)" fill="#390075"/>
                    </g>
                  </g>
                </g>
              </g>
              <g id="Grupo_135420" data-name="Grupo 135420" transform="translate(2.103 2.1)" opacity="0.3">
                <g id="Grupo_135419" data-name="Grupo 135419">
                  <g id="Grupo_135418" data-name="Grupo 135418">
                    <g id="Grupo_135417" data-name="Grupo 135417">
                      <path id="Trazado_192013" data-name="Trazado 192013" d="M1695.732,1070.24,1632.6,990.226a20.8,20.8,0,0,0-2.675-2.816l0,0a21.378,21.378,0,0,0-7.7-4.348l-16.725-5.283-9.793-3.1a4.176,4.176,0,0,0-5.422,4.278l.144,2.06,7.829,2.479,16.725,5.283a21.374,21.374,0,0,1,7.7,4.348l0,0a20.9,20.9,0,0,1,2.676,2.816l63.136,80.015a22.783,22.783,0,0,1-.415,28.744,22,22,0,0,0,4-2.545,22.783,22.783,0,0,0,3.659-31.914Z" transform="translate(-1590.27 -974.476)" fill="#000072"/>
                    </g>
                  </g>
                </g>
              </g>
              <g id="Grupo_135424" data-name="Grupo 135424">
                <g id="Grupo_135423" data-name="Grupo 135423">
                  <g id="Grupo_135422" data-name="Grupo 135422">
                    <g id="Grupo_135421" data-name="Grupo 135421">
                      <path id="Trazado_192014" data-name="Trazado 192014" d="M1677.1,1108.093a25.654,25.654,0,0,1-20.057-9.656l-62.887-79.7a23.462,23.462,0,0,1-5-12.91l-1.984-27.746a6.275,6.275,0,0,1,8.152-6.43l26.519,8.385a23.462,23.462,0,0,1,11.392,7.869l63.137,80.016a24.883,24.883,0,0,1-4,34.858A24.316,24.316,0,0,1,1677.1,1108.093Zm-83.682-132.529a2.074,2.074,0,0,0-2.053,2.218l1.985,27.747a19.275,19.275,0,0,0,4.109,10.6l62.887,79.7a21.4,21.4,0,0,0,14.286,7.913,20.293,20.293,0,0,0,15.115-4.252,20.677,20.677,0,0,0,3.32-28.967l-63.137-80.016a19.274,19.274,0,0,0-9.358-6.462l-26.52-8.386A2.113,2.113,0,0,0,1593.414,975.564Z" transform="translate(-1587.149 -971.359)" fill="#000072"/>
                    </g>
                  </g>
                </g>
              </g>
              <g id="Grupo_135431" data-name="Grupo 135431" transform="translate(54.426 76.698)">
                <g id="Grupo_135427" data-name="Grupo 135427" transform="translate(0 0)">
                  <g id="Grupo_135426" data-name="Grupo 135426">
                    <g id="Grupo_135425" data-name="Grupo 135425">
                      <rect id="Rect치ngulo_41362" data-name="Rect치ngulo 41362" width="49.665" height="16.068" rx="5.312" transform="matrix(0.785, -0.619, 0.619, 0.785, 0, 30.765)" fill="#b5b4bf"/>
                    </g>
                  </g>
                </g>
                <g id="Grupo_135430" data-name="Grupo 135430" transform="translate(1.155 1.155)">
                  <g id="Grupo_135429" data-name="Grupo 135429">
                    <g id="Grupo_135428" data-name="Grupo 135428">
                      <path id="Trazado_192015" data-name="Trazado 192015" d="M1679.045,1127.981a3.958,3.958,0,0,1-.461-.027,3.848,3.848,0,0,1-2.586-1.447l-5.519-6.995a3.87,3.87,0,0,1,.641-5.437l33.37-26.331a3.87,3.87,0,0,1,5.437.641l5.519,6.995a3.869,3.869,0,0,1-.641,5.436l-33.369,26.331A3.842,3.842,0,0,1,1679.045,1127.981Zm27.836-40.485a3.263,3.263,0,0,0-2.029.707l-33.37,26.33a3.286,3.286,0,0,0-.544,4.616l5.519,6.995a3.285,3.285,0,0,0,4.616.544l33.37-26.331a3.286,3.286,0,0,0,.544-4.616l-5.519-6.995a3.292,3.292,0,0,0-2.587-1.252Z" transform="translate(-1669.646 -1086.912)" fill="#000072"/>
                    </g>
                  </g>
                </g>
              </g>
              <g id="Grupo_135435" data-name="Grupo 135435" transform="translate(81.893 78.144)" opacity="0.3">
                <g id="Grupo_135434" data-name="Grupo 135434">
                  <g id="Grupo_135433" data-name="Grupo 135433">
                    <g id="Grupo_135432" data-name="Grupo 135432">
                      <path id="Trazado_192016" data-name="Trazado 192016" d="M1727.96,1095.705l-5.523-7a3.576,3.576,0,0,0-5.022-.592l-8.715,6.876a3.577,3.577,0,0,1,5.023.592l5.523,7a3.576,3.576,0,0,1-.592,5.022l8.715-6.877A3.575,3.575,0,0,0,1727.96,1095.705Z" transform="translate(-1708.699 -1087.345)" fill="#000072"/>
                    </g>
                  </g>
                </g>
              </g>
              <g id="Grupo_135439" data-name="Grupo 135439" transform="translate(55.873 101.99)" opacity="0.65">
                <g id="Grupo_135438" data-name="Grupo 135438">
                  <g id="Grupo_135437" data-name="Grupo 135437">
                    <g id="Grupo_135436" data-name="Grupo 135436">
                      <path id="Trazado_192017" data-name="Trazado 192017" d="M1675.568,1122.738l-4.128,3.257a3.576,3.576,0,0,0-.592,5.022l5.523,7a3.576,3.576,0,0,0,5.023.592l4.128-3.258a3.575,3.575,0,0,1-5.022-.591l-5.523-7A3.576,3.576,0,0,1,1675.568,1122.738Z" transform="translate(-1670.078 -1122.738)" fill="#fff"/>
                    </g>
                  </g>
                </g>
              </g>
              <g id="Grupo_135443" data-name="Grupo 135443" transform="translate(53.77 76.04)">
                <g id="Grupo_135442" data-name="Grupo 135442">
                  <g id="Grupo_135441" data-name="Grupo 135441">
                    <g id="Grupo_135440" data-name="Grupo 135440">
                      <path id="Trazado_192018" data-name="Trazado 192018" d="M1678.171,1128.915a5.872,5.872,0,0,1-.677-.04,5.644,5.644,0,0,1-3.8-2.124l-5.519-6.995a5.682,5.682,0,0,1,.94-7.98l33.37-26.331a5.68,5.68,0,0,1,7.98.942l5.519,6.995a5.683,5.683,0,0,1-.941,7.98l-33.37,26.331A5.644,5.644,0,0,1,1678.171,1128.915Zm27.837-40.485a1.464,1.464,0,0,0-.911.318h0l-33.37,26.331a1.475,1.475,0,0,0-.245,2.072l5.519,7a1.475,1.475,0,0,0,2.072.245l33.37-26.331a1.474,1.474,0,0,0,.245-2.072l-5.519-7a1.469,1.469,0,0,0-.986-.552A1.411,1.411,0,0,0,1706.008,1088.43Zm-2.214-1.333h0Z" transform="translate(-1666.958 -1084.222)" fill="#000072"/>
                    </g>
                  </g>
                </g>
              </g>
              <g id="Grupo_135447" data-name="Grupo 135447" transform="translate(4.08 12.927)">
                <g id="Grupo_135446" data-name="Grupo 135446">
                  <g id="Grupo_135445" data-name="Grupo 135445">
                    <g id="Grupo_135444" data-name="Grupo 135444">
                      <path id="Trazado_192019" data-name="Trazado 192019" d="M1600.574,1023.272a12.6,12.6,0,0,1-6.334-1.717,2.1,2.1,0,1,1,2.213-3.579,7.674,7.674,0,0,0,7.035.438c1.6-.851,2.486-2.471,2.629-4.815a2.1,2.1,0,0,1,2.889-1.821c3.535,1.432,6.567,1.359,8.539-.206s2.776-4.575,2.2-8.253a2.1,2.1,0,0,1,2.792-2.3,4.9,4.9,0,0,0,5.444-1.083,5.977,5.977,0,0,0,.977-6.422,2.1,2.1,0,0,1,3.55-2.187l0,0a2.091,2.091,0,0,1,.306.51,10.185,10.185,0,0,1-1.787,10.991,8.772,8.772,0,0,1-6.9,2.762c-.008,3.938-1.394,7.231-3.973,9.278-2.676,2.124-6.265,2.678-10.282,1.628a8.932,8.932,0,0,1-4.415,5.632A10.442,10.442,0,0,1,1600.574,1023.272Z" transform="translate(-1593.204 -990.547)" fill="#000072"/>
                    </g>
                  </g>
                </g>
              </g>
              <g id="Grupo_135451" data-name="Grupo 135451" transform="translate(0.742 3.29)">
                <g id="Grupo_135450" data-name="Grupo 135450">
                  <g id="Grupo_135449" data-name="Grupo 135449">
                    <g id="Grupo_135448" data-name="Grupo 135448">
                      <path id="Trazado_192020" data-name="Trazado 192020" d="M1590.351,991.879a2.1,2.1,0,0,1-.319-4.183,15.512,15.512,0,0,0,12.857-10.146,2.1,2.1,0,0,1,3.894,1.592,19.673,19.673,0,0,1-16.11,12.711A2.2,2.2,0,0,1,1590.351,991.879Z" transform="translate(-1588.25 -976.242)" fill="#000072"/>
                    </g>
                  </g>
                </g>
              </g>
              <g id="Grupo_135455" data-name="Grupo 135455" transform="translate(2.103 2.1)">
                <g id="Grupo_135454" data-name="Grupo 135454">
                  <g id="Grupo_135453" data-name="Grupo 135453">
                    <g id="Grupo_135452" data-name="Grupo 135452">
                      <path id="Trazado_192021" data-name="Trazado 192021" d="M1605.5,977.774l-9.8-3.1a4.171,4.171,0,0,0-5.419,4.275l.733,10.252A17.617,17.617,0,0,0,1605.5,977.774Z" transform="translate(-1590.271 -974.476)" fill="#000072"/>
                    </g>
                  </g>
                </g>
              </g>
            </g>
          </g>
        </g>
        <g id="Grupo_135461" data-name="Grupo 135461" transform="translate(30.54 141.699)">
          <g id="Grupo_135460" data-name="Grupo 135460">
            <g id="Grupo_135459" data-name="Grupo 135459">
              <path id="Trazado_192022" data-name="Trazado 192022" d="M1328.507,1070.631l-8.711-23.16c-.261-.695-.548-1.383-.853-2.047a27.8,27.8,0,0,0-9.656-11.544,22.856,22.856,0,0,0-5.826-2.96l.023.007,2.1-7.633a33.581,33.581,0,0,1,15.472,10.7,62.255,62.255,0,0,1,2.221-7.281,64.225,64.225,0,0,1,10-17.62A73.733,73.733,0,0,1,1353.3,991.88a3.958,3.958,0,1,1,4.058,6.8c-12.833,7.661-21.762,17.911-26.539,30.464a47.73,47.73,0,0,0-3.367,16.781Z" transform="translate(-1303.461 -991.319)" fill="#fc502d"/>
            </g>
          </g>
        </g>
      </g>
      <g id="Grupo_135463" data-name="Grupo 135463" transform="translate(1392.467 853.025)">
        <path id="Trazado_192023" data-name="Trazado 192023" d="M1532.427,912.718a4,4,0,0,1-.924-.108l-70.919-16.843a3.985,3.985,0,1,1,1.841-7.754l70.919,16.843a3.985,3.985,0,0,1-.918,7.862Z" transform="translate(-1457.52 -887.904)" fill="#000072"/>
      </g>
      <g id="Grupo_135464" data-name="Grupo 135464" transform="translate(1374.188 935.816)">
        <path id="Trazado_192024" data-name="Trazado 192024" d="M1505.3,1035.6a4,4,0,0,1-.924-.108l-70.919-16.843a3.984,3.984,0,1,1,1.841-7.753l70.92,16.842a3.985,3.985,0,0,1-.918,7.863Z" transform="translate(-1430.389 -1010.787)" fill="#000072"/>
      </g>
      <g id="Grupo_135465" data-name="Grupo 135465" transform="translate(1386.864 872.17)">
        <path id="Trazado_192025" data-name="Trazado 192025" d="M1545.626,946.77a4,4,0,0,1-.945-.114l-92.432-22.478a3.985,3.985,0,1,1,1.883-7.744l92.432,22.478a3.985,3.985,0,0,1-.938,7.858Z" transform="translate(-1449.204 -916.32)" fill="#000072"/>
      </g>
      <g id="Grupo_135466" data-name="Grupo 135466" transform="translate(1382.628 892.465)">
        <path id="Trazado_192026" data-name="Trazado 192026" d="M1539.337,976.893a4.007,4.007,0,0,1-.945-.113L1445.96,954.3a3.985,3.985,0,0,1,1.883-7.744l92.433,22.478a3.985,3.985,0,0,1-.939,7.858Z" transform="translate(-1442.916 -946.443)" fill="#000072"/>
      </g>
    </g>
  </g>
</svg>
