<svg xmlns="http://www.w3.org/2000/svg" width="166" height="166" viewBox="0 0 166 166">
  <g id="Grupo_137441" data-name="Grupo 137441" transform="translate(-241.922 -6034)">
    <g id="Grupo_137415" data-name="Grupo 137415" transform="translate(1847.922 11470)">
      <g id="Elipse_5327" data-name="Elipse 5327" transform="translate(-1606 -5436)" fill="#fff" stroke="#aab2d3" stroke-width="3">
        <circle cx="83" cy="83" r="83" stroke="none"/>
        <circle cx="83" cy="83" r="81.5" fill="none"/>
      </g>
      <g id="Grupo_135814" data-name="Grupo 135814" transform="translate(-1562.048 -5389.004)">
        <g id="Grupo_135793" data-name="Grupo 135793" transform="translate(9.841 51.287)">
          <rect id="Rectángulo_41474" data-name="Rectángulo 41474" width="5.198" height="2.995" fill="#0d2380"/>
        </g>
        <g id="Grupo_135794" data-name="Grupo 135794" transform="translate(16.339 14.896)">
          <path id="Trazado_192292" data-name="Trazado 192292" d="M364.941,681.279H304.607v-2.995h57.339V641.893h2.995Z" transform="translate(-304.607 -641.893)" fill="#0d2380"/>
        </g>
        <g id="Grupo_135795" data-name="Grupo 135795">
          <path id="Trazado_192293" data-name="Trazado 192293" d="M245.933,635.043h-8.379V580.762h76.672V594.2h-2.995V583.757H240.549v48.292h5.384Z" transform="translate(-237.554 -580.762)" fill="#0d2380"/>
        </g>
        <g id="Grupo_135796" data-name="Grupo 135796" transform="translate(55.244 10.139)">
          <rect id="Rectángulo_41475" data-name="Rectángulo 41475" width="13.08" height="2.995" fill="#0d2380"/>
        </g>
        <g id="Grupo_135797" data-name="Grupo 135797" transform="translate(50.524 10.139)">
          <rect id="Rectángulo_41476" data-name="Rectángulo 41476" width="3.136" height="2.995" fill="#0d2380"/>
        </g>
        <g id="Grupo_135798" data-name="Grupo 135798" transform="translate(50.524 17.891)">
          <rect id="Rectángulo_41477" data-name="Rectángulo 41477" width="17.8" height="2.995" fill="#0d2380"/>
        </g>
        <g id="Grupo_135799" data-name="Grupo 135799" transform="translate(63.041 25.643)">
          <rect id="Rectángulo_41478" data-name="Rectángulo 41478" width="5.283" height="2.995" fill="#0d2380"/>
        </g>
        <g id="Grupo_135800" data-name="Grupo 135800" transform="translate(50.524 25.643)">
          <rect id="Rectángulo_41479" data-name="Rectángulo 41479" width="10.812" height="2.995" fill="#0d2380"/>
        </g>
        <g id="Grupo_135801" data-name="Grupo 135801" transform="translate(50.524 33.395)">
          <rect id="Rectángulo_41480" data-name="Rectángulo 41480" width="17.8" height="2.995" fill="#0d2380"/>
        </g>
        <g id="Grupo_135802" data-name="Grupo 135802" transform="translate(56.462 41.148)">
          <rect id="Rectángulo_41481" data-name="Rectángulo 41481" width="11.862" height="2.995" fill="#0d2380"/>
        </g>
        <g id="Grupo_135803" data-name="Grupo 135803" transform="translate(50.524 41.148)">
          <rect id="Rectángulo_41482" data-name="Rectángulo 41482" width="4.598" height="2.995" fill="#0d2380"/>
        </g>
        <g id="Grupo_135804" data-name="Grupo 135804" transform="translate(6.85 9.332)">
          <path id="Trazado_192294" data-name="Trazado 192294" d="M303.954,640.344H265.668V619.059h38.286Zm-35.291-2.995h32.3v-15.3h-32.3Z" transform="translate(-265.668 -619.059)" fill="#0d2380"/>
        </g>
        <g id="Grupo_135809" data-name="Grupo 135809" transform="translate(7.939 35.164)">
          <g id="Grupo_135805" data-name="Grupo 135805">
            <path id="Trazado_192295" data-name="Trazado 192295" d="M279.921,734.859h-9.786v-9.786h9.786Zm-6.791-2.995h3.8v-3.8h-3.8Z" transform="translate(-270.135 -725.073)" fill="#0d2380"/>
          </g>
          <g id="Grupo_135808" data-name="Grupo 135808" transform="translate(14.18 0.453)">
            <g id="Grupo_135806" data-name="Grupo 135806">
              <rect id="Rectángulo_41483" data-name="Rectángulo 41483" width="20.432" height="2.995" fill="#0d2380"/>
            </g>
            <g id="Grupo_135807" data-name="Grupo 135807" transform="translate(0 5.885)">
              <rect id="Rectángulo_41484" data-name="Rectángulo 41484" width="20.432" height="2.995" fill="#0d2380"/>
            </g>
          </g>
        </g>
        <g id="Grupo_135810" data-name="Grupo 135810" transform="translate(20.025 61.885)">
          <path id="Trazado_192296" data-name="Trazado 192296" d="M356.359,844.74H319.738V834.734h10.608v2.995h-7.614v4.016h30.632v-4.016H332.052v-2.995h24.307Z" transform="translate(-319.738 -834.734)" fill="#0d2380"/>
        </g>
        <g id="Grupo_135813" data-name="Grupo 135813" transform="translate(25.207 52.784)">
          <g id="Grupo_135811" data-name="Grupo 135811">
            <rect id="Rectángulo_41485" data-name="Rectángulo 41485" width="2.995" height="10.598" fill="#0d2380"/>
          </g>
          <g id="Grupo_135812" data-name="Grupo 135812" transform="translate(22.113)">
            <rect id="Rectángulo_41486" data-name="Rectángulo 41486" width="2.995" height="10.598" fill="#0d2380"/>
          </g>
        </g>
      </g>
    </g>
  </g>
</svg>
