<svg xmlns="http://www.w3.org/2000/svg" width="128" height="128" viewBox="0 0 128 128">
  <g id="Grupo_137438" data-name="Grupo 137438" transform="translate(-313.922 -10232)">
    <g id="Elipse_5530" data-name="Elipse 5530" transform="translate(313.922 10232)" fill="#fff" stroke="#aab2d3" stroke-width="5">
      <circle cx="64" cy="64" r="64" stroke="none"/>
      <circle cx="64" cy="64" r="61.5" fill="none"/>
    </g>
    <g id="Grupo_137418" data-name="Grupo 137418" transform="translate(-104.999 10089.279)">
      <path id="Trazado_192343" data-name="Trazado 192343" d="M456.235,227.792l34.692,4.818V184.065c-1.834.429-3.641.844-5.444,1.275-5.645,1.349-11.28,2.744-16.941,4.025-1.245.281-1.513.832-1.507,2.02.047,9.949,0,19.9.057,29.847a1.827,1.827,0,0,1-1.389,2.041c-3.525,1.324-7.015,2.739-10.68,4.182-.028-.531-.069-.948-.069-1.365,0-12.536.015-25.072-.033-37.607a1.786,1.786,0,0,1,1.432-1.986c11.209-4.17,22.394-8.4,33.6-12.577a3.64,3.64,0,0,1,2.119-.078c5.922,1.667,11.82,3.417,17.737,5.1a1.335,1.335,0,0,1,1.148,1.542q-.042,26.713,0,53.426a1.335,1.335,0,0,1-1.155,1.536c-5.966,1.695-11.916,3.444-17.88,5.144a2.693,2.693,0,0,1-1.555.027Q473.6,234.463,456.85,228.24A4.215,4.215,0,0,1,456.235,227.792Z" fill="#eb3b00"/>
    </g>
  </g>
</svg>
