<svg xmlns="http://www.w3.org/2000/svg" width="78.687" height="104" viewBox="0 0 78.687 104">
  <g id="Grupo_137437" data-name="Grupo 137437" transform="translate(4412.687 9878.191)">
    <g id="Grupo_135681" data-name="Grupo 135681" transform="translate(-4991.096 -10088.965)">
      <g id="Grupo_135670" data-name="Grupo 135670" transform="translate(578.409 210.773)">
        <rect id="Rectángulo_41417" data-name="Rectángulo 41417" width="54.685" height="70.769" transform="translate(0.491 0.491)" fill="#f6f6f6"/>
        <path id="Trazado_192183" data-name="Trazado 192183" d="M634.077,282.525H578.409V210.773h55.668Zm-54.685-.983h53.7V211.756h-53.7Z" transform="translate(-578.409 -210.773)"/>
      </g>
      <path id="Trazado_192184" data-name="Trazado 192184" d="M760.947,484.879l17.117-6.9a1.13,1.13,0,0,0,.641-1.43l-.24-.667a.327.327,0,0,1,.051-.309c3.438-4.5,1.089-10.494,1.089-10.494l-3.448-8.813-.013-.042c-.065-.3-1.031-4.5-4.159-4.5a3.941,3.941,0,0,0-3.336,1.487.335.335,0,0,1-.6-.109c-.216-.9-.93-2.048-3.12-2.3a3.26,3.26,0,0,0-3.782,2.079.33.33,0,0,1-.6.03c-.786-1.63-2.461-3.52-4.577-2.814a3.819,3.819,0,0,0-2.424,2.13.333.333,0,0,1-.619,0l-3.519-9.043s-1.693-5.433-5.221-4.092-1.623,6-1.623,6l8.125,21.464a.334.334,0,0,1-.485.4l-3.876-2.344-.04-.028c-.281-.245-4.382-3.734-6.97-1.009s.26,5.69.481,5.914l.035.029,19.242,13.975.106.129.322.688A1.13,1.13,0,0,0,760.947,484.879Z" transform="translate(-128.411 -183.265)" fill="#ffb680" style="isolation: isolate"/>
      <path id="Trazado_192185" data-name="Trazado 192185" d="M758.526,483.44a1.622,1.622,0,0,1-1.469-.933l-.323-.664-19.208-13.95-.08-.07c-1.279-1.294-2.821-4.141-.488-6.6s5.881-.556,7.631.961l.005,0,3.47,2.1L740.1,443.251c-.039-.1-1.071-2.666-.191-4.692a3.559,3.559,0,0,1,2.1-1.939,3.27,3.27,0,0,1,2.686.087c2.079,1.011,3.083,4.017,3.174,4.3l3.38,8.686a4.346,4.346,0,0,1,2.563-2.075c2.222-.74,4.045.956,5.015,2.752a3.732,3.732,0,0,1,4.157-2.068c2.321.262,3.156,1.491,3.456,2.371a4.482,4.482,0,0,1,3.544-1.457c3.432,0,4.5,4.26,4.635,4.862v.005l3.442,8.8c.1.254,2.387,6.245-1.1,10.9l.208.581a1.616,1.616,0,0,1-.919,2.051l-17.117,6.9A1.614,1.614,0,0,1,758.526,483.44Zm-20.391-16.321,19.278,14,.186.225.349.744a.639.639,0,0,0,.817.321l17.117-6.9a.636.636,0,0,0,.362-.808l-.239-.667a.814.814,0,0,1,.122-.772c3.233-4.233,1.045-9.96,1.022-10.017l-3.479-8.906-.005-.025c-.036-.168-.921-4.111-3.679-4.111a3.475,3.475,0,0,0-2.944,1.293.836.836,0,0,1-.845.32.81.81,0,0,1-.625-.612c-.263-1.1-1.17-1.749-2.7-1.921a2.781,2.781,0,0,0-3.268,1.767.821.821,0,0,1-1.5.067c-.745-1.545-2.234-3.143-3.979-2.562A3.344,3.344,0,0,0,752,450.41a.83.83,0,0,1-.765.508h-.014a.818.818,0,0,1-.75-.524l-3.53-9.076c-.009-.028-.919-2.876-2.672-3.728a2.293,2.293,0,0,0-1.905-.052,2.579,2.579,0,0,0-1.547,1.412,6.012,6.012,0,0,0,.2,3.94l8.13,21.476a.825.825,0,0,1-1.2,1l-3.985-2.422c-.162-.142-4.007-3.444-6.291-1.041-2.2,2.316.114,4.86.459,5.214Z" transform="translate(-126.412 -181.253)"/>
      <g id="Grupo_135671" data-name="Grupo 135671" transform="translate(630.825 295.128)">
        <path id="Trazado_192186" data-name="Trazado 192186" d="M872.732,651.825l-3.858-8.68a1.269,1.269,0,0,0-1.633-.661l-18.89,7.606a1.268,1.268,0,0,0-.678,1.708l3.926,8.517a1.268,1.268,0,0,0,1.618.648l18.822-7.444A1.268,1.268,0,0,0,872.732,651.825Z" transform="translate(-847.064 -641.898)" fill="#fc502d"/>
        <path id="Trazado_192187" data-name="Trazado 192187" d="M850.739,659.529a1.76,1.76,0,0,1-1.6-1.024l-3.926-8.517a1.76,1.76,0,0,1,.941-2.37l18.89-7.606a1.753,1.753,0,0,1,2.265.918l3.858,8.68a1.759,1.759,0,0,1-.961,2.351l-18.822,7.444A1.755,1.755,0,0,1,850.739,659.529ZM865.7,640.868a.775.775,0,0,0-.292.057l-18.89,7.606a.777.777,0,0,0-.415,1.046l3.926,8.517a.777.777,0,0,0,.991.4l18.822-7.444a.777.777,0,0,0,.424-1.038l-3.858-8.68A.774.774,0,0,0,865.7,640.868Z" transform="translate(-845.05 -639.884)"/>
      </g>
      <g id="Grupo_135672" data-name="Grupo 135672" transform="translate(607.028 238.351)">
        <path id="Trazado_192188" data-name="Trazado 192188" d="M729.008,362.76a2.258,2.258,0,1,0,4.214-1.623l-2.359-6.124a2.258,2.258,0,0,0-4.214,1.623Z" transform="translate(-726.005 -353.073)" fill="#0d2380"/>
        <path id="Trazado_192189" data-name="Trazado 192189" d="M729.1,362.687a2.765,2.765,0,0,1-2.566-1.763l-2.359-6.124a2.749,2.749,0,1,1,5.131-1.976l2.359,6.124a2.752,2.752,0,0,1-2.565,3.739Zm-2.358-10.642a1.767,1.767,0,0,0-1.649,2.4l2.359,6.125a1.761,1.761,0,0,0,2.283,1.013,1.766,1.766,0,0,0,1.013-2.283l-2.359-6.124a1.769,1.769,0,0,0-1.647-1.133Z" transform="translate(-723.993 -351.061)"/>
      </g>
      <g id="Grupo_135673" data-name="Grupo 135673" transform="translate(597.974 246.989)">
        <path id="Trazado_192190" data-name="Trazado 192190" d="M681.777,401.832l6,2.663a2.258,2.258,0,1,0,1.832-4.128l-6-2.664a2.258,2.258,0,0,0-1.832,4.128Z" transform="translate(-679.944 -397.017)" fill="#0d2380"/>
        <path id="Trazado_192191" data-name="Trazado 192191" d="M686.685,403.171a2.729,2.729,0,0,1-1.115-.237l-6-2.663a2.75,2.75,0,1,1,2.232-5.026l6,2.663a2.75,2.75,0,0,1-1.117,5.263Zm-6-7.182a1.768,1.768,0,0,0-.717,3.383l6,2.664a1.751,1.751,0,0,0,.716.153,1.767,1.767,0,0,0,.718-3.382l-6-2.664A1.757,1.757,0,0,0,680.688,395.988Z" transform="translate(-677.938 -395.005)"/>
      </g>
      <g id="Grupo_135674" data-name="Grupo 135674" transform="translate(621.886 257.548)">
        <path id="Trazado_192192" data-name="Trazado 192192" d="M811.256,454.079l-6-2.664a2.258,2.258,0,0,0-1.832,4.128l6,2.663a2.258,2.258,0,1,0,1.832-4.128Z" transform="translate(-801.59 -450.727)" fill="#0d2380"/>
        <path id="Trazado_192193" data-name="Trazado 192193" d="M808.327,456.88a2.727,2.727,0,0,1-1.115-.237l-6-2.664a2.75,2.75,0,1,1,2.232-5.026l6,2.663a2.75,2.75,0,0,1-1.117,5.263Zm-6-7.182a1.767,1.767,0,0,0-.716,3.383l6,2.664a1.767,1.767,0,0,0,1.433-3.229h0l-6-2.663A1.759,1.759,0,0,0,802.328,449.7Z" transform="translate(-799.578 -448.714)"/>
      </g>
      <g id="Grupo_135675" data-name="Grupo 135675" transform="translate(597.68 257.144)">
        <path id="Trazado_192194" data-name="Trazado 192194" d="M689.429,450.613a2.258,2.258,0,0,0-2.919-1.3l-6.125,2.358a2.258,2.258,0,1,0,1.623,4.214l6.125-2.358A2.258,2.258,0,0,0,689.429,450.613Z" transform="translate(-678.447 -448.673)" fill="#0d2380"/>
        <path id="Trazado_192195" data-name="Trazado 192195" d="M679.191,454.52a2.75,2.75,0,0,1-.988-5.316l6.125-2.358a2.75,2.75,0,0,1,3.554,1.577h0a2.753,2.753,0,0,1-1.579,3.553l-6.125,2.358A2.742,2.742,0,0,1,679.191,454.52Zm6.126-6.876a1.762,1.762,0,0,0-.635.119l-6.125,2.358a1.766,1.766,0,1,0,1.27,3.3l6.125-2.358a1.769,1.769,0,0,0,1.014-2.283h0a1.772,1.772,0,0,0-1.648-1.133Z" transform="translate(-676.441 -446.66)"/>
      </g>
      <g id="Grupo_135676" data-name="Grupo 135676" transform="translate(622.056 247.703)">
        <path id="Trazado_192196" data-name="Trazado 192196" d="M803.086,406.557a2.254,2.254,0,0,0,2.919,1.3l6.125-2.358a2.258,2.258,0,1,0-1.623-4.214l-6.125,2.358A2.258,2.258,0,0,0,803.086,406.557Z" transform="translate(-802.444 -400.639)" fill="#0d2380"/>
        <path id="Trazado_192197" data-name="Trazado 192197" d="M803.188,406.491a2.768,2.768,0,0,1-2.567-1.762h0a2.753,2.753,0,0,1,1.578-3.553l6.125-2.358a2.749,2.749,0,1,1,1.976,5.131l-6.125,2.358A2.741,2.741,0,0,1,803.188,406.491Zm-1.649-2.116a1.762,1.762,0,0,0,2.284,1.013l6.125-2.358a1.766,1.766,0,1,0-1.27-3.3l-6.125,2.358a1.769,1.769,0,0,0-1.014,2.283Z" transform="translate(-800.438 -398.634)"/>
      </g>
      <g id="Grupo_135677" data-name="Grupo 135677" transform="translate(606.318 262.558)">
        <path id="Trazado_192198" data-name="Trazado 192198" d="M727.209,485.88l2.664-6a2.258,2.258,0,1,0-4.128-1.833l-2.664,6a2.258,2.258,0,1,0,4.128,1.832Z" transform="translate(-722.395 -476.214)" fill="#0d2380"/>
        <path id="Trazado_192199" data-name="Trazado 192199" d="M723.132,485.7a2.75,2.75,0,0,1-2.512-3.866l2.664-6a2.749,2.749,0,1,1,5.026,2.231l-2.664,6A2.754,2.754,0,0,1,723.132,485.7Zm2.665-10.517a1.77,1.77,0,0,0-1.615,1.051l-2.664,6a1.767,1.767,0,1,0,3.229,1.433l2.664-6a1.769,1.769,0,0,0-1.614-2.484Z" transform="translate(-720.382 -474.202)"/>
      </g>
      <g id="Grupo_135678" data-name="Grupo 135678" transform="translate(616.878 238.644)">
        <path id="Trazado_192200" data-name="Trazado 192200" d="M777.94,365.377a2.255,2.255,0,0,0,2.98-1.148l2.663-6a2.258,2.258,0,1,0-4.128-1.833l-2.663,6A2.258,2.258,0,0,0,777.94,365.377Z" transform="translate(-776.107 -354.562)" fill="#0d2380"/>
        <path id="Trazado_192201" data-name="Trazado 192201" d="M776.85,364.052a2.727,2.727,0,0,1-1.115-.237h0a2.753,2.753,0,0,1-1.4-3.628l2.663-6a2.749,2.749,0,1,1,5.026,2.231l-2.663,6A2.753,2.753,0,0,1,776.85,364.052Zm2.664-10.518a1.77,1.77,0,0,0-1.615,1.051l-2.663,6a1.769,1.769,0,0,0,.9,2.332h0a1.764,1.764,0,0,0,2.331-.9l2.663-6a1.77,1.77,0,0,0-1.615-2.485Z" transform="translate(-774.102 -352.55)"/>
      </g>
      <g id="Grupo_135679" data-name="Grupo 135679" transform="translate(585.2 217.564)">
        <rect id="Rectángulo_41418" data-name="Rectángulo 41418" width="41.461" height="5.004" transform="translate(0.491 0.491)" fill="#0d2380"/>
        <path id="Trazado_192202" data-name="Trazado 192202" d="M655.4,251.3H612.955v-5.987H655.4Zm-41.46-.983h40.477V246.3H613.938Z" transform="translate(-612.955 -245.318)"/>
      </g>
      <g id="Grupo_135680" data-name="Grupo 135680" transform="translate(585.2 227.214)">
        <rect id="Rectángulo_41419" data-name="Rectángulo 41419" width="41.461" height="5.004" transform="translate(0.491 0.491)" fill="#0d2380"/>
        <path id="Trazado_192203" data-name="Trazado 192203" d="M655.4,300.4H612.955v-5.987H655.4Zm-41.46-.983h40.477v-4.021H613.938Z" transform="translate(-612.955 -294.409)"/>
      </g>
    </g>
  </g>
</svg>
