<svg xmlns="http://www.w3.org/2000/svg" width="436.594" height="273.949" viewBox="0 0 436.594 273.949">
  <g id="Grupo_137434" data-name="Grupo 137434" transform="translate(6545 7919)">
    <g id="Grupo_134162" data-name="Grupo 134162" transform="translate(-6732.72 -7990)">
      <path id="Trazado_191010" data-name="Trazado 191010" d="M317.111,123.62c67.805-3.934,138.9,16.56,128.447,46.269s55.867-10.552,82.333.159c18.841,7.626,11.31,30.84,20.425,40.194,20.9,21.448,42.275-5.561,68.874,10.644S589.33,388.335,561.542,389.18L244.6,387.254l-22.744-2.044s-62.915-34.4-17.909-66.141c30.431-21.459,8.535-37.043,5.225-46.867-3.8-11.28-12.667-30.98,25.967-45.437s28.658-45.914,27.708-52.428-13.536-46.783,54.269-50.717Z" transform="translate(0 -44.231)" fill="#9bc1f9" opacity="0.1"/>
      <g id="Grupo_134257" data-name="Grupo 134257" transform="translate(305.973 71)">
        <g id="Grupo_134191" data-name="Grupo 134191" transform="translate(52.969 39.097)">
          <g id="Grupo_134163" data-name="Grupo 134163">
            <g id="Grupo_134162-2" data-name="Grupo 134162">
              <rect id="Rectángulo_41215" data-name="Rectángulo 41215" width="96.445" height="123.462" rx="22.354" fill="#d3d3d3"/>
            </g>
          </g>
          <g id="Grupo_134166" data-name="Grupo 134166" transform="translate(57.697 10.251)">
            <g id="Grupo_134165" data-name="Grupo 134165">
              <g id="Grupo_134164" data-name="Grupo 134164">
                <path id="Trazado_191011" data-name="Trazado 191011" d="M1697.417,399.266h24.805l2.426-2.828h-24.806Z" transform="translate(-1697.417 -396.439)" fill="#0d2380"/>
              </g>
            </g>
          </g>
          <g id="Grupo_134169" data-name="Grupo 134169" transform="translate(64.291 16.464)">
            <g id="Grupo_134168" data-name="Grupo 134168">
              <g id="Grupo_134167" data-name="Grupo 134167">
                <path id="Trazado_191012" data-name="Trazado 191012" d="M1743.323,440.244h18.212l-2.426-2.828H1740.9Z" transform="translate(-1740.897 -437.416)" fill="#0d2380"/>
              </g>
            </g>
          </g>
          <g id="Grupo_134172" data-name="Grupo 134172" transform="translate(37.725 22.678)">
            <g id="Grupo_134171" data-name="Grupo 134171">
              <g id="Grupo_134170" data-name="Grupo 134170">
                <path id="Trazado_191013" data-name="Trazado 191013" d="M1565.7,481.221h44.778l2.426-2.828h-44.778Z" transform="translate(-1565.702 -478.393)" fill="#0d2380"/>
              </g>
            </g>
          </g>
          <g id="Grupo_134175" data-name="Grupo 134175" transform="translate(11.375 40.548)">
            <g id="Grupo_134174" data-name="Grupo 134174">
              <g id="Grupo_134173" data-name="Grupo 134173">
                <rect id="Rectángulo_41216" data-name="Rectángulo 41216" width="30.724" height="2.828" fill="#0d2380"/>
              </g>
            </g>
          </g>
          <g id="Grupo_134178" data-name="Grupo 134178" transform="translate(11.375 46.761)">
            <g id="Grupo_134177" data-name="Grupo 134177">
              <g id="Grupo_134176" data-name="Grupo 134176">
                <rect id="Rectángulo_41217" data-name="Rectángulo 41217" width="41.602" height="2.828" fill="#0d2380"/>
              </g>
            </g>
          </g>
          <g id="Grupo_134181" data-name="Grupo 134181" transform="translate(11.375 52.975)">
            <g id="Grupo_134180" data-name="Grupo 134180">
              <g id="Grupo_134179" data-name="Grupo 134179">
                <rect id="Rectángulo_41218" data-name="Rectángulo 41218" width="55.461" height="2.828" fill="#0d2380"/>
              </g>
            </g>
          </g>
          <g id="Grupo_134184" data-name="Grupo 134184" transform="translate(11.375 70.858)">
            <g id="Grupo_134183" data-name="Grupo 134183">
              <g id="Grupo_134182" data-name="Grupo 134182">
                <rect id="Rectángulo_41219" data-name="Rectángulo 41219" width="33.834" height="2.828" fill="#0d2380"/>
              </g>
            </g>
          </g>
          <g id="Grupo_134187" data-name="Grupo 134187" transform="translate(11.375 77.072)">
            <g id="Grupo_134186" data-name="Grupo 134186">
              <g id="Grupo_134185" data-name="Grupo 134185">
                <rect id="Rectángulo_41220" data-name="Rectángulo 41220" width="46.81" height="2.828" fill="#0d2380"/>
              </g>
            </g>
          </g>
          <g id="Grupo_134190" data-name="Grupo 134190" transform="translate(11.375 83.286)">
            <g id="Grupo_134189" data-name="Grupo 134189">
              <g id="Grupo_134188" data-name="Grupo 134188">
                <rect id="Rectángulo_41221" data-name="Rectángulo 41221" width="44.956" height="2.828" fill="#0d2380"/>
              </g>
            </g>
          </g>
        </g>
        <g id="Grupo_134230" data-name="Grupo 134230" transform="translate(80.527 76.719)">
          <g id="Grupo_134192" data-name="Grupo 134192" transform="translate(29.163 183.895)">
            <path id="Trazado_191014" data-name="Trazado 191014" d="M1701.857,1790.288s-2.094,3.132-5.029,3.808-5.828,1.753-5.85,3.605,8.489,2.958,11.849,1.09c5.015-2.788,5.525-1.948,6.08-3.341s-.668-5.12-.631-5.563C1708.319,1789.339,1701.857,1790.288,1701.857,1790.288Z" transform="translate(-1690.977 -1789.717)" fill="#353a3d"/>
          </g>
          <g id="Grupo_134193" data-name="Grupo 134193" transform="translate(40.037 182.011)">
            <path id="Trazado_191015" data-name="Trazado 191015" d="M1763.02,1778.2a13.388,13.388,0,0,0-.325,1.545c.057.032,6.616.813,6.418-.4-.161-.984-.391-2.054-.391-2.054Z" transform="translate(-1762.689 -1777.292)" fill="#81807e"/>
          </g>
          <g id="Grupo_134194" data-name="Grupo 134194" transform="translate(53.21 183.481)">
            <path id="Trazado_191016" data-name="Trazado 191016" d="M1858.472,1787.767s-1.493,3-4.044,4.016c-2.727,1.09-4.914,2.344-4.864,4.15s6.666,3.635,11.479.17c3.041-2.189,4-2.2,4.493-3.578s-.847-4.961-.829-5.394C1864.73,1786.595,1858.472,1787.767,1858.472,1787.767Z" transform="translate(-1849.563 -1786.99)" fill="#353a3d"/>
          </g>
          <g id="Grupo_134195" data-name="Grupo 134195" transform="translate(62.045 181.538)">
            <path id="Trazado_191017" data-name="Trazado 191017" d="M1907.824,1775.338a14.68,14.68,0,0,0,.074,1.555c.056.029,6.4.551,6.235-.636a9.778,9.778,0,0,0-.615-2.084Z" transform="translate(-1907.824 -1774.174)" fill="#81807e"/>
          </g>
          <g id="Grupo_134197" data-name="Grupo 134197" transform="translate(29.89 84.232)">
            <g id="Grupo_134196" data-name="Grupo 134196">
              <path id="Trazado_191018" data-name="Trazado 191018" d="M1704.68,1139.411s-5.89,25.981-7.235,33.895c-1.145,6.736-2.058,13.75-1.509,18.612.679,6.02,9.2,37.22,8.845,38.985s8.917.283,8.917.283-6.481-34.8-5.187-41.28c.959-4.8,9.361-36.667,10.648-35.032s2.884,30.077,3.838,34.8,3.881,42.027,3.881,42.027,6.545.966,8.293-.514c0,0,.8-31.854.188-40.706-.232-3.373,3.952-40.448-1.413-55.373C1731.112,1127.219,1704.68,1139.411,1704.68,1139.411Z" transform="translate(-1695.772 -1132.45)" fill="#0d2380"/>
            </g>
          </g>
          <g id="Grupo_134199" data-name="Grupo 134199" transform="translate(12.28 30.812)">
            <g id="Grupo_134198" data-name="Grupo 134198">
              <path id="Trazado_191019" data-name="Trazado 191019" d="M1580.516,816.92c4.2-.59,17.405,5.261,18.605,4.819.826-.3,2.762-6.614,4.146-11.391.818-2.825,1.443-5.114,1.53-5.3l.005-.01a28.188,28.188,0,0,0,.045,5.124c.017.184.038.37.059.559l.018.148a24.842,24.842,0,0,0,.595,3.2,29.205,29.205,0,0,1,.692,6v.009c0,.017,0,.034,0,.052,0,.052,0,.1,0,.155,0,.021,0,.042,0,.063.117,4.09-.165,8.5-.283,10.848-.185,3.636,1.011,5.273,1.046,5.319h0l1.265-.178.914-.129.011,0,1.221-.171,4.79-.674,1.735-.244.41-.058,3.035-.427,8.556-1.2.939-.132.387-.054,3.227-.455,1.458-.2h.005s1.239-8.784,1.334-13.532c.086-4.361,2.421-13.217,2.8-14.633a.29.29,0,0,1,.008-.029.312.312,0,0,1,.01-.039c.007-.025.012-.045.017-.062s.005-.02.008-.03a.02.02,0,0,1,0-.008.027.027,0,0,0,0-.009.061.061,0,0,0,0-.015s6.984,7.337,8.339,10.538c.413.971,1.676,3.613,3.285,6.829a19.314,19.314,0,0,0,1.789-3.924c0-.045,0-.093,0-.143-.1-3.165-3.42-16-6.038-24.384-2.033-4.086-3.786-7.39-4.348-7.793a61.557,61.557,0,0,0-7.565-3.389l-.305-.12-.859-.337-.413-.159-.221-.084-.179-.068h0a24.018,24.018,0,0,0-3-1.024c-.041,0-.106,0-.2,0s-.237.008-.4.019c-1.934.113-7.7.654-9.562.83l-.578.055h0l-2.216,1.012h0l-.124.056c-.805.369-1.737.861-2.721,1.4-1.931,1.058-4.063,2.295-5.832,3.137-1.734.824-4.109,1.974-4.311,2.136l-8.787,25.338-15.243-2.786Z" transform="translate(-1579.636 -780.158)" fill="#fff2bf"/>
            </g>
          </g>
          <g id="Grupo_134200" data-name="Grupo 134200" transform="translate(38.799 83.231)">
            <path id="Trazado_191020" data-name="Trazado 191020" d="M1755.352,1129.783s-.644.77-.83,4.031c0,0,26.469-3.088,29.267-4.3,0,0,.109-3.594-.484-3.656C1782.653,1125.785,1755.352,1129.783,1755.352,1129.783Z" transform="translate(-1754.522 -1125.852)" fill="#495055"/>
          </g>
          <g id="Grupo_134201" data-name="Grupo 134201" transform="translate(51.391 20.436)">
            <path id="Trazado_191021" data-name="Trazado 191021" d="M1848.375,721.207c-.082,4.154-8.125,6.427-8.125,6.427s-3.364-4.218-2.561-4.621c.316-.159.444-.789.483-1.495a14.567,14.567,0,0,0-.046-1.884c-.024-.294-.046-.483-.046-.483s1.149-1.212,2.611-2.657c2.555-2.526,6.067-5.762,6.073-4.475a1.169,1.169,0,0,1-.03.244C1846.116,715.16,1848.375,721.207,1848.375,721.207Z" transform="translate(-1837.565 -711.727)" fill="#eea886"/>
          </g>
          <g id="Grupo_134202" data-name="Grupo 134202" transform="translate(61.534 83.717)">
            <path id="Trazado_191022" data-name="Trazado 191022" d="M1904.458,1129.207s.578,3.643.628,4.593l1.224-.245s-.337-3.855-.536-4.5Z" transform="translate(-1904.458 -1129.055)" fill="#353a3d"/>
          </g>
          <g id="Grupo_134203" data-name="Grupo 134203" transform="translate(41.362 86.563)">
            <path id="Trazado_191023" data-name="Trazado 191023" d="M1771.9,1148s-.464,3.312-.475,4.563l1.3-.168s.266-4.135.413-4.567Z" transform="translate(-1771.426 -1147.827)" fill="#353a3d"/>
          </g>
          <g id="Grupo_134204" data-name="Grupo 134204" transform="translate(51.153 23.829)">
            <path id="Trazado_191024" data-name="Trazado 191024" d="M1843.948,734.106h0c-.016.024-.357.535-.939,1.267-1.235,1.553-3.556,4.1-6.166,5.129a14.635,14.635,0,0,0-.046-1.884,4.193,4.193,0,0,1-.8-.1,24.722,24.722,0,0,1,1.749-2.561l1.615-.483Z" transform="translate(-1835.998 -734.106)" fill="#a77860"/>
          </g>
          <g id="Grupo_134205" data-name="Grupo 134205" transform="translate(45.729 6.823)">
            <path id="Trazado_191025" data-name="Trazado 191025" d="M1815.145,635.915c-.7,1.514-1.357,2.61-1.544,3.045h0a5.378,5.378,0,0,1-.939,1.267c-1.325,1.428-3.789,3.311-6.212,3.245a4.191,4.191,0,0,1-.8-.1,3.8,3.8,0,0,1-2.768-1.912c-5.018-9.825-1.385-17.858-1.385-17.858s13.72-3.88,15.867.251C1818.871,626.754,1816.779,632.358,1815.145,635.915Z" transform="translate(-1800.226 -621.954)" fill="#eea886"/>
          </g>
          <g id="Grupo_134206" data-name="Grupo 134206" transform="translate(45.325)">
            <path id="Trazado_191026" data-name="Trazado 191026" d="M1799.234,585.43s-1.274-.07-1.589-2.486c-.311-2.387.318-3.048.318-3.048s5.664-2.371,7.7-2.68,7.036-.6,8.208.736c0,0,2.848-.662,3.625,4.067,1.231,7.5-4.2,14.787-4.2,14.787s.046-4.9-1.035-5.55-2.014.895-2.014.895l-2.211.4s3.358-7.251-.67-7.52S1801.539,585.851,1799.234,585.43Z" transform="translate(-1797.558 -576.954)" fill="#434343"/>
          </g>
          <g id="Grupo_134207" data-name="Grupo 134207" transform="translate(58.006 11.174)">
            <path id="Trazado_191027" data-name="Trazado 191027" d="M1881.264,652.715c.21-2.159,4.115-2.984,3.854-.72s-2.185,4.437-3.073,4.361S1881.1,654.361,1881.264,652.715Z" transform="translate(-1881.193 -650.648)" fill="#eea886"/>
          </g>
          <g id="Grupo_134209" data-name="Grupo 134209" transform="translate(54.628 31.839)">
            <g id="Grupo_134208" data-name="Grupo 134208">
              <path id="Trazado_191028" data-name="Trazado 191028" d="M1889.464,823.4c0-.045,0-.093,0-.143a122.3,122.3,0,0,0-4.246-24.184c-1.271-4.072-1.564-6.915-2.056-7.268-.852-.611-8.433-2.854-11.649-4.115l-.305-.12-.859-.337-.413-.159-.221-.084-.179-.068-.017.017a52.3,52.3,0,0,0-3.551,4.537c-3.322,4.724-7.648,12.373-6.986,19.436.212,2.267.475,5.522.916,9.175.038.312.078.626.118.945.107.841.224,1.7.352,2.568q.115.782.242,1.575c.88,5.476,3.637,9.209,6.085,13.674l.063.113.034.064.156.287c.084.156.167.314.251.473.048.091.1.181.142.273.468.9.927,1.818,1.372,2.742q.431.894.846,1.79l.086.185s.451,1.047,1.029,2.392l.672,1.564c.158.368.317.739.47,1.1.136.314.266.62.391.91.277.648.521,1.215.689,1.612.126.3.21.5.238.565.842,2.107,1.45,3.734,1.73,4.494.112.306.171.472.171.472l8.467-4.674c1.607-.8.768-5.139.163-6.83a38.651,38.651,0,0,0-2.006-4.475c-.326-.638-.667-1.284-1.016-1.935,2.65-4.63,5.334-9.4,7.035-12.649A19.321,19.321,0,0,0,1889.464,823.4ZM1876,810.155a.305.305,0,0,1,.008-.029.36.36,0,0,1,.01-.039c.005-.022.011-.042.017-.062a.278.278,0,0,1,.008-.03.023.023,0,0,1,0-.008.024.024,0,0,0,0-.009s4.119,6.438,3.808,12.031a26.461,26.461,0,0,1-2.173,5.891.011.011,0,0,1,0,.005c-.458,1.027-.97,2.136-1.512,3.295-.02-.048-.04-.1-.06-.145a14.609,14.609,0,0,1-1.3-5.3S1875.157,813.48,1876,810.155Z" transform="translate(-1858.912 -786.928)" fill="#0d2380"/>
            </g>
          </g>
          <g id="Grupo_134211" data-name="Grupo 134211" transform="translate(5.809 32.789)">
            <g id="Grupo_134210" data-name="Grupo 134210">
              <path id="Trazado_191029" data-name="Trazado 191029" d="M1538.686,819.391l19.173,4.175,9.14-23.9c.2-.16,2.822-1.57,4.557-2.4,1.806-.86,4.092-1.921,6.119-2.857.968-.448,1.88-.866,2.651-1.22l.064.05a113.016,113.016,0,0,0-2.6,13.174,0,0,0,0,1,0,0q-.075.474-.149.966c0,.038-.011.077-.017.114-.033.217-.066.438-.1.661,0,.027-.008.053-.012.078-.022.15-.045.3-.066.454q-.082.557-.165,1.135c-.653,4.579-1.569,12.37-2.45,20.237v0c-.7,6.2-2.282,12.562-2.786,17.31,0,0,0,.006,0,.009a32.76,32.76,0,0,1-.659,3.569c-.036.158-.073.319-.111.481-1.418,5.993-4.172,14.475-4.172,14.475l-.8-.741-2.376-2.193a1.924,1.924,0,0,1-.534-1.987c1.317-4.25,5.795-19.291,6.615-29.866a.024.024,0,0,0,0-.009c.257-3.322-.714-6.452-1.277-9.419-.01.026-.02.051-.029.078-.471,1.311-.994,2.737-1.52,4.124h0c-1.413,3.726-2.859,7.18-3.462,7.4-1.34.493-26.585-6.41-26.76-7.4Z" transform="translate(-1536.961 -793.192)" fill="#0d2380"/>
            </g>
          </g>
          <g id="Grupo_134212" data-name="Grupo 134212" transform="translate(54.628 31.838)">
            <path id="Trazado_191030" data-name="Trazado 191030" d="M1867.3,797.231l-3.913,2.206,1.672,1.705-4.451,24.034c-.908-5.633-1.321-10.983-1.628-14.264-1.024-10.919,9.875-23.237,10.553-23.992.523.2,1.089.418,1.673.649Z" transform="translate(-1858.914 -786.921)" fill="#4e70a6"/>
          </g>
          <g id="Grupo_134213" data-name="Grupo 134213" transform="translate(42.77 32.733)">
            <path id="Trazado_191031" data-name="Trazado 191031" d="M1787.241,792.822s-1.462,4.775-3.166,16.693c-.653,4.578-1.57,12.371-2.451,20.236l-.911-22.509,1.864-2.019-1.657-2.071,3.546-9.054c.968-.448,1.88-.866,2.651-1.221Z" transform="translate(-1780.713 -792.822)" fill="#4e70a6"/>
          </g>
          <g id="Grupo_134214" data-name="Grupo 134214" transform="translate(54.076 29.916)">
            <path id="Trazado_191032" data-name="Trazado 191032" d="M1866.641,776.217l-3.244-1.97s-.091,1.779-8.125,6.427l2.282,6.427Z" transform="translate(-1855.271 -774.247)" fill="#f5e2d9"/>
          </g>
          <g id="Grupo_134215" data-name="Grupo 134215" transform="translate(49.298 30.812)">
            <path id="Trazado_191033" data-name="Trazado 191033" d="M1826.4,780.158s.126,1.92,2.137,5.53l-4.453,5.805-.324-9.415Z" transform="translate(-1823.762 -780.158)" fill="#f5e2d9"/>
          </g>
          <g id="Grupo_134216" data-name="Grupo 134216" transform="translate(51.378 36.343)">
            <path id="Trazado_191034" data-name="Trazado 191034" d="M1840.192,816.629s.863,3.452.552,4.418a4.212,4.212,0,0,1-3.262-.172A15.16,15.16,0,0,1,1840.192,816.629Z" transform="translate(-1837.482 -816.629)" fill="#323657"/>
          </g>
          <g id="Grupo_134218" data-name="Grupo 134218" transform="translate(49.406 76.085)">
            <g id="Grupo_134217" data-name="Grupo 134217">
              <path id="Trazado_191035" data-name="Trazado 191035" d="M1824.7,1088.772c-.483-2.435-.023-9.734,0-10.044l.413.026c0,.075-.476,7.554,0,9.937Z" transform="translate(-1824.477 -1078.728)" fill="#ad9f99"/>
            </g>
          </g>
          <g id="Grupo_134219" data-name="Grupo 134219" transform="translate(47.823 85.006)">
            <path id="Trazado_191036" data-name="Trazado 191036" d="M1819.218,1137.558s-3.895.465-5.182.786l.169,4.365,5.1-.544Z" transform="translate(-1814.035 -1137.558)" fill="#69737a"/>
          </g>
          <g id="Grupo_134220" data-name="Grupo 134220" transform="translate(48.44 39.795)">
            <path id="Trazado_191037" data-name="Trazado 191037" d="M1821.817,839.879a61.289,61.289,0,0,0-3.635,23.248c.734,12.73,1.939,17.346,1.939,17.346l2.678,3.359,1.181-4.128s-3.594-16.231-1.274-32.024c.42-2.862,1.045-8.285,1.045-8.285Z" transform="translate(-1818.104 -839.395)" fill="#0d2380"/>
          </g>
          <g id="Grupo_134221" data-name="Grupo 134221" transform="translate(61.051 92.068)">
            <path id="Trazado_191038" data-name="Trazado 191038" d="M1905.425,1184.146s-.932,1.864-1.864,2.175a8.072,8.072,0,0,0-2.291,1.825l6.563,3.456s1.747-3.418,1.825-5.592S1905.425,1184.146,1905.425,1184.146Z" transform="translate(-1901.269 -1184.131)" fill="#eea886"/>
          </g>
          <g id="Grupo_134222" data-name="Grupo 134222" transform="translate(64.148 92.258)">
            <path id="Trazado_191039" data-name="Trazado 191039" d="M1922.133,1185.383l-.435.874s4.168,3.049,5.292,3.243l.386-1.165Z" transform="translate(-1921.698 -1185.383)" fill="#decbc4"/>
          </g>
          <g id="Grupo_134224" data-name="Grupo 134224" transform="translate(64.148 71.278)">
            <g id="Grupo_134223" data-name="Grupo 134223">
              <path id="Trazado_191040" data-name="Trazado 191040" d="M1921.7,1068.042a32,32,0,0,0,5.755,3.774l8.854-15.924-4.588-8.868S1921.905,1066.489,1921.7,1068.042Z" transform="translate(-1921.698 -1047.024)" fill="#0d2380"/>
            </g>
          </g>
          <g id="Grupo_134225" data-name="Grupo 134225" transform="translate(35.898 48.411)">
            <path id="Trazado_191041" data-name="Trazado 191041" d="M1737.2,903.54c-.145,2.946-.124,5.562-.124,5.562v0c0,.014,0,.094-.01.226-.006-.05-.012-.1-.018-.148-.472,1.311-.994,2.737-1.521,4.125a44.206,44.206,0,0,1-.119-4.495c.211-8.26,2.809-12.592,2.809-12.592C1737.62,897.659,1737.335,900.748,1737.2,903.54Z" transform="translate(-1735.393 -896.22)" fill="#2f4363"/>
          </g>
          <g id="Grupo_134226" data-name="Grupo 134226" transform="translate(70.285 84.888)">
            <path id="Trazado_191042" data-name="Trazado 191042" d="M1969.259,1138.718l-7.088,8.56,6.072-10.494C1968.591,1137.434,1968.932,1138.08,1969.259,1138.718Z" transform="translate(-1962.171 -1136.783)" fill="#2f4363"/>
          </g>
          <g id="Grupo_134227" data-name="Grupo 134227" transform="translate(0 41.884)">
            <path id="Trazado_191043" data-name="Trazado 191043" d="M1524.55,887.383h-16.363a2.43,2.43,0,0,1-2.362-1.858l-7.108-29.347a2.43,2.43,0,0,1,2.361-3h16.364a2.43,2.43,0,0,1,2.362,1.858l7.108,29.347A2.43,2.43,0,0,1,1524.55,887.383Z" transform="translate(-1498.648 -853.177)" fill="#323657"/>
          </g>
          <g id="Grupo_134229" data-name="Grupo 134229" transform="translate(3.048 57.496)">
            <g id="Grupo_134228" data-name="Grupo 134228">
              <path id="Trazado_191044" data-name="Trazado 191044" d="M1521.589,966.569c.8-.741,2.345-1.171,3.668-2.055a1.038,1.038,0,0,0,.218-1.795c1.359-.467,1.213-1.087,1.039-1.51-.235-.571-1.719-.409-1.719-.409a14.609,14.609,0,0,0,1.878-.537c.548-.242.362-1.2-.48-1.5s-4.273.544-4.273.544.559-.274,2.252-1.124,2.064-1.622,1.066-1.993c-.694-.258-2.057.283-4.673,2.041-1.97,1.324-1.81,1.5-1.81,1.5S1520.633,967.454,1521.589,966.569Z" transform="translate(-1518.75 -956.132)" fill="#eea886"/>
            </g>
          </g>
        </g>
        <g id="Grupo_134241" data-name="Grupo 134241" transform="translate(31.418 17.795)">
          <g id="Grupo_134233" data-name="Grupo 134233">
            <g id="Grupo_134232" data-name="Grupo 134232">
              <g id="Grupo_134231" data-name="Grupo 134231">
                <path id="Trazado_191045" data-name="Trazado 191045" d="M1212.988,190.932A26.754,26.754,0,1,0,1190.1,239.3c.543.257,1.093.5,1.645.714a26.755,26.755,0,0,0,21.24-49.082Zm6.69,32.763a20.036,20.036,0,0,1-25.478,10.087q-.621-.245-1.234-.535a20.059,20.059,0,1,1,26.712-9.552Z" transform="translate(-1174.785 -188.356)" fill="#0d2380"/>
              </g>
            </g>
          </g>
          <g id="Grupo_134236" data-name="Grupo 134236" transform="translate(0 8.411)">
            <g id="Grupo_134235" data-name="Grupo 134235">
              <g id="Grupo_134234" data-name="Grupo 134234">
                <path id="Trazado_191046" data-name="Trazado 191046" d="M1183.778,271.489l-5.931,3.109a26.792,26.792,0,0,1,4.218-30.771l4.874,4.592a20.089,20.089,0,0,0-3.161,23.07Z" transform="translate(-1174.785 -243.827)" fill="#fc502d"/>
              </g>
            </g>
          </g>
          <g id="Grupo_134238" data-name="Grupo 134238" transform="translate(3.062 36.073)">
            <g id="Grupo_134237" data-name="Grupo 134237">
              <path id="Trazado_191047" data-name="Trazado 191047" d="M1211.333,435.608l-2.452,6.232c-.552-.218-1.1-.456-1.645-.714a26.637,26.637,0,0,1-12.256-11.763l5.931-3.109a19.969,19.969,0,0,0,9.188,8.819Q1210.711,435.362,1211.333,435.608Z" transform="translate(-1194.979 -426.254)" fill="#0d2380"/>
            </g>
          </g>
          <g id="Grupo_134240" data-name="Grupo 134240" transform="translate(16.964 45.427)">
            <g id="Grupo_134239" data-name="Grupo 134239" transform="translate(0 0)">
              <path id="Trazado_191048" data-name="Trazado 191048" d="M1294.3,495.948a26.616,26.616,0,0,1-7.642-1.776l2.452-6.232a19.938,19.938,0,0,0,5.73,1.333Z" transform="translate(-1286.658 -487.94)" fill="#0d2380"/>
            </g>
          </g>
        </g>
        <g id="Grupo_134242" data-name="Grupo 134242" transform="translate(0 66.707)">
          <path id="Trazado_191049" data-name="Trazado 191049" d="M1017.545,533.08H967.585v-.993h48.966V510.923h.993Z" transform="translate(-967.585 -510.923)" fill="#0d2380"/>
        </g>
        <g id="Grupo_134243" data-name="Grupo 134243" transform="translate(0 77.537)">
          <rect id="Rectángulo_41222" data-name="Rectángulo 41222" width="26.298" height="5.958" fill="#fc502d"/>
        </g>
        <g id="Grupo_134256" data-name="Grupo 134256" transform="translate(80.117)">
          <g id="Grupo_134246" data-name="Grupo 134246">
            <g id="Grupo_134245" data-name="Grupo 134245">
              <g id="Grupo_134244" data-name="Grupo 134244">
                <path id="Trazado_191050" data-name="Trazado 191050" d="M1524.242,80.669a14.572,14.572,0,1,0-27.442,9.814q.165.463.359.909a14.573,14.573,0,0,0,27.084-10.723ZM1514.2,95.864a10.912,10.912,0,0,1-13.7-5.927q-.145-.333-.269-.681a10.926,10.926,0,1,1,13.967,6.608Z" transform="translate(-1495.945 -71)" fill="#0d2380"/>
              </g>
            </g>
          </g>
          <g id="Grupo_134249" data-name="Grupo 134249" transform="translate(0.665 0.007)">
            <g id="Grupo_134248" data-name="Grupo 134248">
              <g id="Grupo_134247" data-name="Grupo 134247">
                <path id="Trazado_191051" data-name="Trazado 191051" d="M1503.814,82.357l-3.481-1.087a14.592,14.592,0,0,1,13.475-10.226l.109,3.646a10.943,10.943,0,0,0-10.1,7.668Z" transform="translate(-1500.333 -71.043)" fill="#fc502d"/>
              </g>
            </g>
          </g>
          <g id="Grupo_134252" data-name="Grupo 134252" transform="translate(0 10.233)">
            <g id="Grupo_134251" data-name="Grupo 134251">
              <g id="Grupo_134250" data-name="Grupo 134250">
                <path id="Trazado_191052" data-name="Trazado 191052" d="M1500.5,147.188l-3.344,1.456q-.193-.445-.359-.909a14.5,14.5,0,0,1-.19-9.251l3.481,1.087a10.878,10.878,0,0,0,.142,6.935Q1500.358,146.855,1500.5,147.188Z" transform="translate(-1495.945 -138.485)" fill="#fc502d"/>
              </g>
            </g>
          </g>
          <g id="Grupo_134255" data-name="Grupo 134255" transform="translate(1.214 18.936)">
            <g id="Grupo_134254" data-name="Grupo 134254">
              <g id="Grupo_134253" data-name="Grupo 134253">
                <path id="Trazado_191053" data-name="Trazado 191053" d="M1506.21,200.966a14.493,14.493,0,0,1-2.259-3.627l3.344-1.456a10.868,10.868,0,0,0,1.693,2.72Z" transform="translate(-1503.951 -195.883)" fill="#fc502d"/>
              </g>
            </g>
          </g>
        </g>
      </g>
    </g>
  </g>
</svg>
