<svg xmlns="http://www.w3.org/2000/svg" width="295" height="147.586" viewBox="0 0 295 147.586">
  <g id="Grupo_137438" data-name="Grupo 137438" transform="translate(-180 -7501)">
    <g id="Grupo_135306" data-name="Grupo 135306" transform="translate(43.16 7144.253)">
      <path id="Trazado_191874" data-name="Trazado 191874" d="M2616.675,987.61,2614.029,983l-4.144.609-3.422-4.3,1.763-4.28-4.62-3.066-3.449,3.478-4.542-.8-1.842-5.342-5.521.583-.313,4.673-4.113,2.089-4.354-3.083-4.417,3.217,2.295,4.946-2.628,3.96-4.775-.254-1.248,5.89,4.544,1.748.391,4.95-4.711,2.7,2.252,5.107,4.876-.757,3.23,3.728-1.689,4.646,4.466,3.154,3.485-3.771,4.836,1.308,1.5,4.991,5.375-.363.694-4.483,4.608-2.646,3.771,3.009,4.768-3.554-2.411-4.2,2.349-4.208,4.834.356,1.483-5.481-4.15-2.247-.552-4.993Zm-18.722,16.128a10.864,10.864,0,1,1,4.012-14.831A10.864,10.864,0,0,1,2597.954,1003.737Z" transform="translate(-2185.515 -550.506)" fill="#b0c0d2"/>
      <g id="Grupo_135128" data-name="Grupo 135128" transform="translate(136.841 433.976)">
        <g id="Grupo_135102" data-name="Grupo 135102" transform="translate(0 0)">
          <g id="Grupo_135101" data-name="Grupo 135101">
            <g id="Grupo_135100" data-name="Grupo 135100">
              <g id="Grupo_135099" data-name="Grupo 135099">
                <g id="Grupo_135098" data-name="Grupo 135098">
                  <path id="Trazado_191875" data-name="Trazado 191875" d="M179.447,1176.681c8.171-7.061,8.991-18.686,7.583-28.915-.235-1.707-.233-3.533-1.2-4.953s-2.978-2.25-4.438-1.37c-1.211.73-1.612,2.268-2.2,3.565a10.076,10.076,0,0,1-3.622,4.253,3.838,3.838,0,0,1-3.485.681c-1.562-.663-1.947-2.687-2.112-4.392q-.461-4.768-.923-9.535a15.969,15.969,0,0,0-1.036-5.008,5.314,5.314,0,0,0-3.691-3.232,3.223,3.223,0,0,0-3.747,2.558,15.8,15.8,0,0,0,.17,2.127,1.8,1.8,0,0,1-.875,1.8,2.071,2.071,0,0,1-1.952-.589,22.775,22.775,0,0,1-4.7-5.722,31.6,31.6,0,0,0-4.448-5.946,9.265,9.265,0,0,0-6.605-2.858,5.547,5.547,0,0,0-5.269,4.348c-.371,2.466,1.283,4.759,3.008,6.547a38.249,38.249,0,0,0,8.7,6.733,3.145,3.145,0,0,1,1.472,1.288c.487,1.1-.473,2.338-1.556,2.827a19.819,19.819,0,0,1-3.931.858,3.853,3.853,0,0,0-3.065,2.336c-.518,1.814,1.127,3.489,2.684,4.537a32.756,32.756,0,0,0,10.218,4.572,11.049,11.049,0,0,1,3.764,1.372,3.171,3.171,0,0,1,1.383,3.508,3.229,3.229,0,0,1-3.354,1.7,22.816,22.816,0,0,1-3.887-1.043c-2.433-.642-5.441-.169-6.732,2.01a5.422,5.422,0,0,0-.082,4.828,12.5,12.5,0,0,0,3.018,3.945,32.942,32.942,0,0,0,15.006,8.389c5.627,1.323,10.713,1.314,15.909-1.218" transform="translate(-136.841 -1119.134)" fill="#b0c0d2"/>
                </g>
              </g>
            </g>
          </g>
        </g>
        <g id="Grupo_135107" data-name="Grupo 135107" transform="translate(2.273 1.763)">
          <g id="Grupo_135106" data-name="Grupo 135106">
            <g id="Grupo_135105" data-name="Grupo 135105">
              <g id="Grupo_135104" data-name="Grupo 135104">
                <g id="Grupo_135103" data-name="Grupo 135103">
                  <path id="Trazado_191876" data-name="Trazado 191876" d="M200.535,1199.919a75.22,75.22,0,0,0-4.233-13.758,153.44,153.44,0,0,0-7.758-15.815l-2.246-4.041c-.74-1.324-1.475-2.638-2.272-3.879a76.654,76.654,0,0,0-4.991-6.866c-1.693-2.107-3.376-4.045-4.964-5.845s-3.107-3.445-4.552-4.888a60.819,60.819,0,0,0-7.319-6.294c-.919-.673-1.649-1.172-2.148-1.5l-.57-.373a1.309,1.309,0,0,0-.2-.118,1.205,1.205,0,0,0,.182.145l.553.4c.487.348,1.205.863,2.112,1.55a64.347,64.347,0,0,1,7.234,6.354c1.431,1.449,2.933,3.1,4.514,4.9s3.251,3.748,4.934,5.854a77.52,77.52,0,0,1,4.956,6.85c.791,1.235,1.518,2.538,2.259,3.866l2.244,4.04a157.364,157.364,0,0,1,7.765,15.773,76.537,76.537,0,0,1,4.283,13.69" transform="translate(-159.282 -1136.539)" fill="#e1e1e1"/>
                </g>
              </g>
            </g>
          </g>
        </g>
        <g id="Grupo_135112" data-name="Grupo 135112" transform="translate(26.889 8.642)">
          <g id="Grupo_135111" data-name="Grupo 135111">
            <g id="Grupo_135110" data-name="Grupo 135110">
              <g id="Grupo_135109" data-name="Grupo 135109">
                <g id="Grupo_135108" data-name="Grupo 135108">
                  <path id="Trazado_191877" data-name="Trazado 191877" d="M402.321,1223.452a3.486,3.486,0,0,0,.091-.744c.041-.48.077-1.177.109-2.038.066-1.722.076-4.1.077-6.727s.044-5,.136-6.716c.044-.858.086-1.552.121-2.032a3.437,3.437,0,0,0,.019-.75,3.4,3.4,0,0,0-.141.736c-.073.477-.149,1.17-.221,2.029-.15,1.718-.229,4.1-.229,6.73.006,2.59.011,4.933.015,6.724,0,.809-.007,1.49-.009,2.038A3.422,3.422,0,0,0,402.321,1223.452Z" transform="translate(-402.284 -1204.446)" fill="#e1e1e1"/>
                </g>
              </g>
            </g>
          </g>
        </g>
        <g id="Grupo_135117" data-name="Grupo 135117" transform="translate(4.594 25.578)">
          <g id="Grupo_135116" data-name="Grupo 135116">
            <g id="Grupo_135115" data-name="Grupo 135115">
              <g id="Grupo_135114" data-name="Grupo 135114">
                <g id="Grupo_135113" data-name="Grupo 135113">
                  <path id="Trazado_191878" data-name="Trazado 191878" d="M182.188,1371.866a4.786,4.786,0,0,0,.885.015c.567-.008,1.388-.024,2.4-.011,2.029.01,4.832.121,7.918.379s5.871.621,7.876.938c1,.151,1.814.3,2.374.392a.444.444,0,1,0,.024-.122c-.554-.134-1.359-.312-2.362-.493-2-.375-4.791-.769-7.887-1.034a77.626,77.626,0,0,0-7.945-.286c-1.018.016-1.84.066-2.407.113A4.653,4.653,0,0,0,182.188,1371.866Z" transform="translate(-182.188 -1371.63)" fill="#e1e1e1"/>
                </g>
              </g>
            </g>
          </g>
        </g>
        <g id="Grupo_135122" data-name="Grupo 135122" transform="translate(38.98 21.889)">
          <g id="Grupo_135121" data-name="Grupo 135121">
            <g id="Grupo_135120" data-name="Grupo 135120">
              <g id="Grupo_135119" data-name="Grupo 135119">
                <g id="Grupo_135118" data-name="Grupo 135118">
                  <path id="Trazado_191879" data-name="Trazado 191879" d="M521.639,1364.337a1.132,1.132,0,0,0,.123-.283l.293-.831c.251-.723.587-1.779.985-3.089.8-2.619,1.787-6.271,2.823-10.316s1.991-7.7,2.733-10.335l.888-3.115.237-.849a1.129,1.129,0,0,0,.062-.3,1.169,1.169,0,0,0-.123.283l-.293.831c-.251.723-.587,1.779-.985,3.088-.8,2.619-1.787,6.271-2.824,10.318s-1.99,7.7-2.732,10.334c-.365,1.279-.665,2.333-.888,3.114l-.237.849A1.145,1.145,0,0,0,521.639,1364.337Z" transform="translate(-521.637 -1335.215)" fill="#e1e1e1"/>
                </g>
              </g>
            </g>
          </g>
        </g>
        <g id="Grupo_135127" data-name="Grupo 135127" transform="translate(8.899 44.626)">
          <g id="Grupo_135126" data-name="Grupo 135126">
            <g id="Grupo_135125" data-name="Grupo 135125">
              <g id="Grupo_135124" data-name="Grupo 135124">
                <g id="Grupo_135123" data-name="Grupo 135123">
                  <path id="Trazado_191880" data-name="Trazado 191880" d="M224.688,1559.674a1.177,1.177,0,0,0,.3.089l.875.2,3.222.689c2.721.582,6.469,1.429,10.609,2.371s7.9,1.756,10.635,2.282c1.367.264,2.474.465,3.243.589l.886.138a1.148,1.148,0,0,0,.313.026,1.2,1.2,0,0,0-.3-.09l-.875-.2-3.221-.689c-2.721-.582-6.469-1.429-10.611-2.371s-7.9-1.755-10.633-2.281c-1.367-.263-2.474-.465-3.243-.589L225,1559.7A1.146,1.146,0,0,0,224.688,1559.674Z" transform="translate(-224.688 -1559.67)" fill="#e1e1e1"/>
                </g>
              </g>
            </g>
          </g>
        </g>
      </g>
      <g id="Grupo_135132" data-name="Grupo 135132" transform="translate(355.597 400.149)">
        <g id="Grupo_135131" data-name="Grupo 135131">
          <path id="Trazado_191881" data-name="Trazado 191881" d="M2326.125,797.014l-1.573-2.74-2.464.362-2.034-2.556,1.048-2.545-2.747-1.823-2.051,2.068-2.7-.473-1.1-3.176-3.282.346-.186,2.778L2306.6,790.5l-2.589-1.833-2.626,1.913,1.365,2.94-1.562,2.354-2.839-.151-.742,3.5,2.7,1.039.232,2.943-2.8,1.608,1.339,3.036,2.9-.45,1.92,2.217-1,2.763,2.656,1.876,2.072-2.242,2.875.778.895,2.968,3.2-.216.413-2.666,2.74-1.573,2.242,1.789,2.834-2.113-1.433-2.5,1.4-2.5,2.874.212.881-3.259-2.467-1.336-.328-2.969Zm-11.131,9.589a6.459,6.459,0,1,1,2.385-8.817A6.459,6.459,0,0,1,2314.994,806.6Z" transform="translate(-2297.475 -786.036)" fill="#b0c0d2"/>
          <g id="Grupo_135129" data-name="Grupo 135129" transform="translate(7.742 8.399)">
            <path id="Trazado_191882" data-name="Trazado 191882" d="M2382.555,880.275a10.9,10.9,0,0,0,1.237-.992,6.179,6.179,0,0,0,1.115-1.473,6.379,6.379,0,0,0-1.468-7.987,6.374,6.374,0,0,0-3.391-1.453,6.325,6.325,0,0,0-6.51,3.737,6.375,6.375,0,0,0-.455,3.661,6.4,6.4,0,0,0,6.158,5.295,6.184,6.184,0,0,0,1.834-.22,10.927,10.927,0,0,0,1.48-.568.375.375,0,0,1-.088.057l-.27.15a2.959,2.959,0,0,1-.453.214,4.571,4.571,0,0,1-.646.23,6.106,6.106,0,0,1-1.859.261,6.519,6.519,0,0,1-4.879-2.261,6.555,6.555,0,0,1-1.479-3.123,6.563,6.563,0,0,1,.457-3.785,6.524,6.524,0,0,1,6.733-3.866,6.557,6.557,0,0,1,3.5,1.513,6.558,6.558,0,0,1,1.951,2.851,6.52,6.52,0,0,1-.507,5.354,6.1,6.1,0,0,1-1.163,1.474,4.542,4.542,0,0,1-.524.441,2.951,2.951,0,0,1-.414.284l-.265.157A.377.377,0,0,1,2382.555,880.275Z" transform="translate(-2372.778 -868.107)" fill="#b0c0d2"/>
          </g>
          <g id="Grupo_135130" data-name="Grupo 135130">
            <path id="Trazado_191883" data-name="Trazado 191883" d="M2325,796.172s-.045.036-.144.105l-.446.311-1.782,1.227.015-.031c.093.807.208,1.805.342,2.967l-.024-.036,2.472,1.328.039.021-.011.044-.873,3.261-.014.052-.054,0-2.875-.205.068-.037-1.392,2.5V807.6l1.437,2.494.037.064-.059.044-2.831,2.117-.055.041-.053-.042-2.244-1.786.1.008-2.738,1.576.047-.068c-.127.823-.267,1.737-.41,2.666l-.012.078-.079.005-3.195.218-.081.005-.023-.077-.9-2.967.072.07-2.875-.776.1-.03-2.071,2.243-.064.069-.077-.054-2.656-1.874-.068-.048.028-.078,1-2.763.02.109-1.921-2.216.1.037-2.9.45-.084.013-.034-.078-1.339-3.036-.04-.092.086-.05.06-.034,2.741-1.573-.055.1q-.117-1.482-.232-2.943l.07.094-2.7-1.04-.087-.034.02-.092.743-3.5.02-.091.093.005,2.839.152-.1.048,1.564-2.354-.008.1-1.363-2.941-.036-.078.069-.05,2.627-1.911.059-.043.06.042,2.587,1.835-.1-.007,2.447-1.24-.052.079c.065-.956.127-1.876.189-2.778l.005-.078.077-.008,3.283-.342.07-.007.023.066,1.09,3.178-.064-.055,2.7.478-.069.022,2.055-2.064.042-.042.049.033,2.742,1.829.044.03-.02.049-1.056,2.542-.008-.057,2.025,2.563-.042-.017,2.465-.351.023,0,.011.02,1.175,2.085.282.506c.061.111.087.165.087.165s-.037-.056-.1-.168l-.3-.5-1.2-2.05.034.017-2.462.373-.026,0-.016-.021-2.043-2.549-.021-.026.013-.031,1.041-2.548.024.078-2.751-1.817.092-.009-2.047,2.072-.029.029-.041-.007-2.7-.469-.048-.008-.016-.046-1.1-3.174.093.059-3.282.351.083-.086c-.06.9-.12,1.822-.183,2.778l0,.054-.049.025-2.444,1.245-.053.027-.049-.034-2.59-1.83h.118l-2.625,1.914.033-.127,1.366,2.939.025.054-.033.05-1.561,2.355-.034.051-.061,0-2.839-.15.112-.086q-.366,1.731-.74,3.5l-.068-.125,2.7,1.039.065.025.005.069q.116,1.46.233,2.943l.006.07-.061.035-2.74,1.574-.06.035.046-.141,1.338,3.036-.118-.065,2.9-.45.06-.009.04.046,1.919,2.217.042.049-.022.061-1,2.762-.04-.126,2.655,1.877-.141.015,2.073-2.241.043-.047.062.017,2.875.78.055.015.017.055.892,2.968-.1-.072,3.2-.213-.091.083c.145-.929.287-1.842.415-2.665l.007-.046.04-.023,2.742-1.57.054-.031.049.039,2.239,1.792-.107,0,2.837-2.109-.022.108-1.429-2.5-.022-.038.021-.038,1.4-2.5.022-.04.046,0,2.874.218-.068.048.89-3.256.028.065-2.462-1.344-.022-.012,0-.024c-.124-1.163-.229-2.163-.315-2.97l0-.02.017-.011,1.788-1.185.461-.3C2324.942,796.205,2325,796.172,2325,796.172Z" transform="translate(-2296.349 -785.194)" fill="#b0c0d2"/>
          </g>
        </g>
      </g>
      <g id="Grupo_135133" data-name="Grupo 135133" transform="translate(147.996 500.096)">
        <path id="Trazado_191884" data-name="Trazado 191884" d="M518.357,1771.959c0,.061-60.759.111-135.691.111-74.958,0-135.7-.05-135.7-.111s60.746-.111,135.7-.111C457.6,1771.848,518.357,1771.9,518.357,1771.959Z" transform="translate(-246.963 -1771.848)" fill="#263238"/>
      </g>
      <g id="Grupo_135191" data-name="Grupo 135191" transform="translate(267.999 389.15)">
        <g id="Grupo_135134" data-name="Grupo 135134" transform="translate(26.924 50.771)">
          <path id="Trazado_191885" data-name="Trazado 191885" d="M2020.221,1179.333l-23.47,58.676h-65.873l20.927-59.476a1.077,1.077,0,0,1,1.017-.719l66.4.043A1.077,1.077,0,0,1,2020.221,1179.333Z" transform="translate(-1907.224 -1177.813)" fill="#263238"/>
          <path id="Trazado_191886" data-name="Trazado 191886" d="M2043.085,1202.219l-21.552,52.57a.615.615,0,0,1-.571.377h-60.01a.6.6,0,0,1-.579-.8l19.094-52.57a.614.614,0,0,1,.579-.4h62.468A.6.6,0,0,1,2043.085,1202.219Z" transform="translate(-1933.701 -1199.007)" fill="#0d2380"/>
          <path id="Trazado_191887" data-name="Trazado 191887" d="M1786.911,1736.328h-89.526V1732.2h87.094Z" transform="translate(-1697.385 -1676.042)" fill="#263238"/>
        </g>
        <g id="Grupo_135154" data-name="Grupo 135154" transform="translate(0 31.947)">
          <g id="Grupo_135143" data-name="Grupo 135143" transform="translate(0 22.617)">
            <g id="Grupo_135136" data-name="Grupo 135136">
              <g id="Grupo_135135" data-name="Grupo 135135">
                <path id="Trazado_191888" data-name="Trazado 191888" d="M1480.075,1215.266s-1.8,21.446-5.691,22.491c-10.577,2.841-22.678.738-26.927-.1-.478-.41-1.027-.906-1.648-1.521a6.645,6.645,0,0,1-1.3-1.831,10.378,10.378,0,0,1-.968-2.643.85.85,0,0,0-1.551-.462c-.377.69-.539,3.31.888,5.7a1.129,1.129,0,0,1-.778,1.53c-1.8.663-8.127,2.628-9.147,3.114-.909.432-1.789,1.2-.833,1.358a51.847,51.847,0,0,0,6.184-.6s-6.871.846-6.7,1.842c.117.687,1.968,1.015,6.456,0,0,0-5.655.74-6.246,1.333-1.335,1.339,5.478.515,5.478.515-4.768.619-4.719.37-4.77,1.023-.038.49,1.04.687,3.659.719,2.125.026,4.319.477,7.552.692h0s40.879,11.566,46.5-6.426c3.032-9.7,3.05-13.389,4.1-19.746" transform="translate(-1431.601 -1215.266)" fill="#ffc19d"/>
              </g>
            </g>
            <g id="Grupo_135138" data-name="Grupo 135138" transform="translate(2.024 30.363)">
              <g id="Grupo_135137" data-name="Grupo 135137">
                <path id="Trazado_191889" data-name="Trazado 191889" d="M1458.127,1515.063a24.875,24.875,0,0,1-6.546.684,24.866,24.866,0,0,1,6.546-.684Z" transform="translate(-1451.582 -1515)" fill="#b66955"/>
              </g>
            </g>
            <g id="Grupo_135140" data-name="Grupo 135140" transform="translate(1.595 28.53)">
              <g id="Grupo_135139" data-name="Grupo 135139">
                <path id="Trazado_191890" data-name="Trazado 191890" d="M1454.275,1496.946a28.307,28.307,0,0,1-6.93,1.151,28.3,28.3,0,0,1,6.93-1.151Z" transform="translate(-1447.345 -1496.906)" fill="#b66955"/>
              </g>
            </g>
            <g id="Grupo_135142" data-name="Grupo 135142" transform="translate(1.926 26.604)">
              <g id="Grupo_135141" data-name="Grupo 135141">
                <path id="Trazado_191891" data-name="Trazado 191891" d="M1457.153,1477.931a25.362,25.362,0,0,1-6.542,1.175,25.369,25.369,0,0,1,6.542-1.175Z" transform="translate(-1450.611 -1477.893)" fill="#b66955"/>
              </g>
            </g>
          </g>
          <g id="Grupo_135147" data-name="Grupo 135147" transform="translate(47.014)">
            <path id="Trazado_191892" data-name="Trazado 191892" d="M2089.69,1576.642l2.658,15.477h-41.454l1.587-12.026Z" transform="translate(-2035.174 -1517.417)" fill="#263238"/>
            <path id="Trazado_191893" data-name="Trazado 191893" d="M1901.368,1051.815s-6.026,18.1-5.64,18.821l13.262,3.076Z" transform="translate(-1895.711 -1045.755)" fill="#ff4f5b"/>
            <path id="Trazado_191894" data-name="Trazado 191894" d="M1901.368,1051.815s-6.026,18.1-5.64,18.821l13.262,3.076Z" transform="translate(-1895.711 -1045.755)" fill="#fc502d"/>
            <path id="Trazado_191895" data-name="Trazado 191895" d="M1962.914,1032.048l-1.3,25.9,40.047-4.534-6.268-25.038s-4.308-29.027-12.159-32.243a74.777,74.777,0,0,0-8.332-2.686,38.345,38.345,0,0,0-15.4-1.14l-.806.1a8.6,8.6,0,0,0-7.148,5.638s-.141,8.916,2.6,14.818Z" transform="translate(-1945.893 -991.994)" fill="#fc502d"/>
            <g id="Grupo_135144" data-name="Grupo 135144" transform="translate(26.274 64.8)">
              <path id="Trazado_191896" data-name="Trazado 191896" d="M2155.313,1641.093c-.061,0-.15-2.105-.2-4.7s-.038-4.707.023-4.708.15,2.1.2,4.7S2155.375,1641.092,2155.313,1641.093Z" transform="translate(-2155.084 -1631.681)" fill="#375a64"/>
            </g>
            <g id="Grupo_135145" data-name="Grupo 135145" transform="translate(28.004 65.762)">
              <path id="Trazado_191897" data-name="Trazado 191897" d="M2172.859,1641.4c-.007-.01.044-.069.174-.113a.794.794,0,0,1,1,.783.932.932,0,0,1-.622.836,1,1,0,0,1-1-.28.961.961,0,0,1-.245-.812c.088-.5.394-.66.4-.636a1.692,1.692,0,0,0-.241.653.825.825,0,0,0,.236.652.812.812,0,0,0,.788.212.745.745,0,0,0,.486-.636.609.609,0,0,0-.31-.579A.919.919,0,0,0,2172.859,1641.4Z" transform="translate(-2172.155 -1641.177)" fill="#375a64"/>
            </g>
            <g id="Grupo_135146" data-name="Grupo 135146" transform="translate(38.779 63.233)">
              <path id="Trazado_191898" data-name="Trazado 191898" d="M2294.919,1621.5c0,.006-.05.049-.158.126s-.264.2-.483.319a10.041,10.041,0,0,1-1.931.9,10.893,10.893,0,0,1-12.521-4.038,10.048,10.048,0,0,1-1.041-1.859c-.1-.228-.159-.417-.206-.541a.683.683,0,0,1-.055-.195,7.394,7.394,0,0,1,.339.7,11.46,11.46,0,0,0,1.09,1.8,11.321,11.321,0,0,0,2.169,2.232,10.656,10.656,0,0,0,7.111,2.293,11.493,11.493,0,0,0,5-1.371A7.387,7.387,0,0,1,2294.919,1621.5Z" transform="translate(-2278.523 -1616.215)" fill="#375a64"/>
            </g>
          </g>
          <g id="Grupo_135153" data-name="Grupo 135153" transform="translate(36.303 3.487)">
            <g id="Grupo_135152" data-name="Grupo 135152">
              <g id="Grupo_135148" data-name="Grupo 135148" transform="translate(30.031 26.097)" opacity="0.2">
                <path id="Trazado_191899" data-name="Trazado 191899" d="M2089.565,1319.555a18.619,18.619,0,0,0,11.243-4.142c4.258-3.593,6.362-9.231,6.829-14.782s-.523-11.11-1.509-16.593a75.269,75.269,0,0,0-9.2,17.275c-1.509,4.025-2.837,8.424-6.181,11.125-1.193.963-2.618,1.682-3.551,2.9s-1.135,3.219.1,4.122l1.1.36" transform="translate(-2086.432 -1284.038)"/>
              </g>
              <g id="Grupo_135151" data-name="Grupo 135151">
                <g id="Grupo_135149" data-name="Grupo 135149" transform="translate(0 15.041)">
                  <path id="Trazado_191900" data-name="Trazado 191900" d="M1793.764,1221.681a9.652,9.652,0,0,0,2.542.823,6.309,6.309,0,0,0,2.142.094q.5-.065.942-.136a7.45,7.45,0,0,0,3.709-1.739c4.619-4.011,17.122-16.7,19.356-19.568,2.686-3.451,3.439-26.261,3.439-26.261l15,2.457s-.268,16.44-3.959,29.229c-2.348,8.134-30.719,24.869-30.744,24.884a78.3,78.3,0,0,1-5.918,6.016c-3.024,2.535-3.255,2.267-3.49,1.865-.631-1.081,5.15-4.661,3.462-4.612s-6.563,5.2-7.176,4.043c-.8-1.508,5.322-5.144,5.817-5.49s.012-1.074-.418-.738c-.619.483-7.244,5.4-8.044,3.927-.443-.817,1.1-1.477,1.1-1.477s6.538-4.144,6.137-4.827-4.327,1.61-5.594,2.481-2.17.614-2.091-.257c.054-.594,3.872-3.351,5.145-4.183s4.805-3.05,2.174-3.373-4.531-1.563-4.812-2.256S1793.064,1221.248,1793.764,1221.681Z" transform="translate(-1789.971 -1174.895)" fill="#ffc19d"/>
                </g>
                <g id="Grupo_135150" data-name="Grupo 135150" transform="translate(33.301)">
                  <path id="Trazado_191901" data-name="Trazado 191901" d="M2126.994,1026.592a8.58,8.58,0,0,1,7.884,2.428c1.749,1.821,3.506,4.868,3.356,9.7-.291,9.43-1.035,12.646-1.035,12.646l-18.49-.64.725-15.843S2120.863,1027.882,2126.994,1026.592Z" transform="translate(-2118.709 -1026.413)" fill="#ff4f5b"/>
                  <path id="Trazado_191902" data-name="Trazado 191902" d="M2126.994,1026.592a8.58,8.58,0,0,1,7.884,2.428,13.49,13.49,0,0,1,3.384,9.941c-.291,9.43-1.062,12.406-1.062,12.406l-18.49-.64.752-15.6S2120.863,1027.882,2126.994,1026.592Z" transform="translate(-2118.709 -1026.413)" fill="#fc502d"/>
                </g>
              </g>
            </g>
          </g>
        </g>
        <g id="Grupo_135190" data-name="Grupo 135190" transform="translate(44.256 0)">
          <g id="Grupo_135163" data-name="Grupo 135163">
            <path id="Trazado_191903" data-name="Trazado 191903" d="M1892.364,691.712a1.261,1.261,0,0,0,1.987,1.2c.756-.545.683-1.7.379-2.577a4.714,4.714,0,0,1-.515-2.7,6.234,6.234,0,0,1,1.169-1.775,4.025,4.025,0,0,0,.576-3.546,3.384,3.384,0,0,0-2.71-2.268c-1.26-.148-2.69.456-3.726-.277-.751-.531-.953-1.563-1.576-2.24-.966-1.051-2.65-.978-4.017-.568s-2.72,1.082-4.142.956a19.433,19.433,0,0,1-3.4-1.079,6.249,6.249,0,0,0-6.71,9.736,3.993,3.993,0,0,0,2.213,1.595" transform="translate(-1868.489 -676.62)" fill="#263238"/>
            <g id="Grupo_135159" data-name="Grupo 135159" transform="translate(3.818 5.331)">
              <g id="Grupo_135156" data-name="Grupo 135156">
                <g id="Grupo_135155" data-name="Grupo 135155">
                  <path id="Trazado_191904" data-name="Trazado 191904" d="M1924.146,765.769h0a7.1,7.1,0,0,1-8.255-5.681c-.411-2.2-.752-4.053-.752-4.053s-5.712.083-6.729-5.469-2.16-17.754-2.16-17.754l-.071-.738c5.968-3.866,13.661-3.588,19.945-.26l.187,1.147,3.61,25.029A7.1,7.1,0,0,1,1924.146,765.769Z" transform="translate(-1906.179 -729.247)" fill="#ffc19d"/>
                  <path id="Trazado_191905" data-name="Trazado 191905" d="M1990.323,898.012l-3.572,1.732a2.148,2.148,0,0,0,2.642.417A1.629,1.629,0,0,0,1990.323,898.012Z" transform="translate(-1978.589 -880.916)" fill="#fff"/>
                  <path id="Trazado_191906" data-name="Trazado 191906" d="M1994.4,963.658a13.124,13.124,0,0,0,6.9-3.3s-1.032,4.3-6.669,4.741Z" transform="translate(-1985.463 -936.948)" fill="#ff9c6a"/>
                </g>
              </g>
              <g id="Grupo_135158" data-name="Grupo 135158" transform="translate(19.866 7.346)">
                <path id="Trazado_191907" data-name="Trazado 191907" d="M2102.843,801.883c.116-.059,4.094-1.018,4.226,3.787s-4.764,3.349-4.776,3.211S2102.843,801.883,2102.843,801.883Z" transform="translate(-2102.292 -801.767)" fill="#ffc19d"/>
                <g id="Grupo_135157" data-name="Grupo 135157" transform="translate(1.422 1.561)">
                  <path id="Trazado_191908" data-name="Trazado 191908" d="M2116.331,821.007c.021-.016.085.056.229.117a.838.838,0,0,0,.626,0,2.071,2.071,0,0,0,.907-1.884,2.76,2.76,0,0,0-.267-1.192.967.967,0,0,0-.647-.625.426.426,0,0,0-.488.243c-.061.136-.028.231-.053.24s-.105-.078-.072-.277a.536.536,0,0,1,.181-.306.633.633,0,0,1,.46-.135,1.176,1.176,0,0,1,.895.721,2.836,2.836,0,0,1,.327,1.331,2.174,2.174,0,0,1-1.164,2.108.9.9,0,0,1-.769-.106C2116.343,821.123,2116.315,821.016,2116.331,821.007Z" transform="translate(-2116.327 -817.181)" fill="#ff9c6a"/>
                </g>
              </g>
            </g>
            <g id="Grupo_135162" data-name="Grupo 135162" transform="translate(2.284 0.543)">
              <path id="Trazado_191909" data-name="Trazado 191909" d="M1891.681,722.756a9.325,9.325,0,0,0,7.685-1.621c2.683-1.832,5.944-2.994,6.764-2.516s1.382,3.424,4.354,3.9c0,0,.579,5.689,2.809,5.178s-.382-9.087-.382-9.087l-5.677-3.016-6.183-.313-6.547,1.649-3.466,2.808Z" transform="translate(-1891.038 -711.907)" fill="#263238"/>
              <g id="Grupo_135160" data-name="Grupo 135160" transform="translate(19.423 1.857)">
                <path id="Trazado_191910" data-name="Trazado 191910" d="M2084.984,700.368a3.86,3.86,0,0,0-2.2,1.236,2.049,2.049,0,0,1,2.2-1.236Z" transform="translate(-2082.78 -700.317)" fill="#263238"/>
              </g>
              <g id="Grupo_135161" data-name="Grupo 135161" transform="translate(18.901)">
                <path id="Trazado_191911" data-name="Trazado 191911" d="M2077.719,681.985a3.7,3.7,0,0,1,.385,1.756,3.529,3.529,0,0,1-.213,1.267c-.12.308-.238.476-.262.464a8.942,8.942,0,0,0,.253-1.729C2077.866,682.78,2077.646,682,2077.719,681.985Z" transform="translate(-2077.621 -681.984)" fill="#263238"/>
              </g>
            </g>
          </g>
          <g id="Grupo_135171" data-name="Grupo 135171" transform="translate(5.559 15.417)">
            <g id="Grupo_135166" data-name="Grupo 135166" transform="translate(0.039 0.79)">
              <g id="Grupo_135165" data-name="Grupo 135165">
                <g id="Grupo_135164" data-name="Grupo 135164">
                  <path id="Trazado_191912" data-name="Trazado 191912" d="M1923.745,837.387a.816.816,0,0,0,.828.783.781.781,0,0,0,.8-.778.817.817,0,0,0-.827-.784A.782.782,0,0,0,1923.745,837.387Z" transform="translate(-1923.745 -836.609)" fill="#263238"/>
                </g>
              </g>
            </g>
            <g id="Grupo_135170" data-name="Grupo 135170">
              <g id="Grupo_135169" data-name="Grupo 135169">
                <g id="Grupo_135168" data-name="Grupo 135168">
                  <g id="Grupo_135167" data-name="Grupo 135167">
                    <path id="Trazado_191913" data-name="Trazado 191913" d="M1923.378,829.751c.106.1.7-.387,1.579-.429s1.543.365,1.633.253c.044-.05-.068-.237-.359-.427a2.241,2.241,0,0,0-1.314-.334,2.152,2.152,0,0,0-1.25.474C1923.408,829.509,1923.326,829.706,1923.378,829.751Z" transform="translate(-1923.364 -828.811)" fill="#263238"/>
                  </g>
                </g>
              </g>
            </g>
          </g>
          <g id="Grupo_135179" data-name="Grupo 135179" transform="translate(13.978 14.876)">
            <g id="Grupo_135174" data-name="Grupo 135174" transform="translate(0.257 0.84)">
              <g id="Grupo_135173" data-name="Grupo 135173">
                <g id="Grupo_135172" data-name="Grupo 135172">
                  <path id="Trazado_191914" data-name="Trazado 191914" d="M2009.007,832.584a.817.817,0,0,0,.864.744.781.781,0,0,0,.766-.815.817.817,0,0,0-.863-.744A.782.782,0,0,0,2009.007,832.584Z" transform="translate(-2009.006 -831.768)" fill="#263238"/>
                </g>
              </g>
            </g>
            <g id="Grupo_135178" data-name="Grupo 135178">
              <g id="Grupo_135177" data-name="Grupo 135177">
                <g id="Grupo_135176" data-name="Grupo 135176">
                  <g id="Grupo_135175" data-name="Grupo 135175">
                    <path id="Trazado_191915" data-name="Trazado 191915" d="M2006.489,824.5c.111.1.684-.42,1.558-.5s1.559.292,1.643.176c.042-.052-.078-.233-.379-.409a2.24,2.24,0,0,0-1.328-.272,2.153,2.153,0,0,0-1.227.532C2006.508,824.253,2006.435,824.454,2006.489,824.5Z" transform="translate(-2006.472 -823.477)" fill="#263238"/>
                  </g>
                </g>
              </g>
            </g>
          </g>
          <g id="Grupo_135183" data-name="Grupo 135183" transform="translate(9.157 15.365)">
            <g id="Grupo_135182" data-name="Grupo 135182">
              <g id="Grupo_135181" data-name="Grupo 135181">
                <g id="Grupo_135180" data-name="Grupo 135180">
                  <path id="Trazado_191916" data-name="Trazado 191916" d="M1961.183,835.631a5.821,5.821,0,0,0-1.446-.118c-.226,0-.441-.025-.494-.174a1.142,1.142,0,0,1,.085-.677q.236-.841.495-1.765a29.348,29.348,0,0,0,1.05-4.593,29.444,29.444,0,0,0-1.417,4.5q-.244.928-.466,1.773a1.3,1.3,0,0,0-.03.888.563.563,0,0,0,.4.291,1.532,1.532,0,0,0,.385.016A5.717,5.717,0,0,0,1961.183,835.631Z" transform="translate(-1958.888 -828.303)" fill="#263238"/>
                </g>
              </g>
            </g>
          </g>
          <g id="Grupo_135186" data-name="Grupo 135186" transform="translate(13.444 12.447)">
            <g id="Grupo_135185" data-name="Grupo 135185">
              <g id="Grupo_135184" data-name="Grupo 135184">
                <path id="Trazado_191917" data-name="Trazado 191917" d="M2001.21,800.335c.109.229.972.031,2.01.055,1.039,0,1.9.223,2.011,0,.051-.108-.115-.318-.472-.515a3.5,3.5,0,0,0-3.063-.039C2001.333,800.02,2001.161,800.226,2001.21,800.335Z" transform="translate(-2001.202 -799.497)" fill="#263238"/>
              </g>
            </g>
          </g>
          <g id="Grupo_135189" data-name="Grupo 135189" transform="translate(5.424 12.943)">
            <g id="Grupo_135188" data-name="Grupo 135188">
              <g id="Grupo_135187" data-name="Grupo 135187">
                <path id="Trazado_191918" data-name="Trazado 191918" d="M1922.065,805.454c.173.184.756-.081,1.479-.162.721-.106,1.351,0,1.472-.219.052-.107-.064-.3-.35-.458a2.155,2.155,0,0,0-2.378.306C1922.052,805.151,1921.988,805.364,1922.065,805.454Z" transform="translate(-1922.034 -804.389)" fill="#263238"/>
              </g>
            </g>
          </g>
        </g>
      </g>
      <g id="Grupo_135277" data-name="Grupo 135277" transform="translate(162.926 393.971)">
        <g id="Grupo_135192" data-name="Grupo 135192" transform="translate(0 47.61)">
          <path id="Trazado_191919" data-name="Trazado 191919" d="M394.421,1195.688l22.858,57.146h64.155l-20.381-57.925a1.049,1.049,0,0,0-.99-.7l-64.669.042A1.049,1.049,0,0,0,394.421,1195.688Z" transform="translate(-394.345 -1194.208)" fill="#263238"/>
          <path id="Trazado_191920" data-name="Trazado 191920" d="M429.43,1217.1l20.99,51.2a.6.6,0,0,0,.556.367H509.42a.586.586,0,0,0,.564-.779l-18.6-51.2a.6.6,0,0,0-.564-.389H429.986A.586.586,0,0,0,429.43,1217.1Z" transform="translate(-425.837 -1214.066)" fill="#0d2380"/>
          <path id="Trazado_191921" data-name="Trazado 191921" d="M620.747,1737.284h87.191v-4.02H623.115Z" transform="translate(-597.812 -1678.658)" fill="#263238"/>
        </g>
        <g id="Grupo_135275" data-name="Grupo 135275" transform="translate(28.516)">
          <g id="Grupo_135197" data-name="Grupo 135197" transform="translate(50.136 32.146)">
            <path id="Trazado_191922" data-name="Trazado 191922" d="M1215.329,1059.973a4.629,4.629,0,0,0,.519-4.471,20.962,20.962,0,0,0-3.981-5.131c-.844-.218.273-5.038.763-6.634.485-1.577-.062-2.468-.933-2.12-.594.237-2.21,5.086-2.658,6.676a17.124,17.124,0,0,1-1.255,3.5c-.46.772-.988,1.013-1.521-.2-1.175-2.669-3.059-4.292-3.862-4.378s-1.189,1.016-.52,1.621a10.885,10.885,0,0,1,1.661,2.425,7.106,7.106,0,0,1,.783,2.223c.115.675.2,1.274.26,1.814a17.16,17.16,0,0,1-.032,4.031l-16.071,18.981-3.506-12.85-.326-.989-13.837,5.141c-.413.11,2.975,10.173,5.124,16.427a11.349,11.349,0,0,0,6.435,6.817h0a11.353,11.353,0,0,0,13.488-3.836l17.2-24.972-.371-.253.349.159Z" transform="translate(-1170.776 -1041.542)" fill="#c78976"/>
            <g id="Grupo_135193" data-name="Grupo 135193" transform="translate(39.092 8.838)">
              <path id="Trazado_191923" data-name="Trazado 191923" d="M1560,1130.035a2.072,2.072,0,0,1-.138.469l-.453,1.25-.7,1.844a3.708,3.708,0,0,1-.525,1.074.993.993,0,0,1-.591.335.73.73,0,0,1-.662-.264,1.072,1.072,0,0,1-.247-.648,2.27,2.27,0,0,1,.073-.641c.1-.4.2-.772.3-1.13.208-.715.428-1.349.627-1.875s.38-.944.512-1.23a1.954,1.954,0,0,1,.229-.433,2.218,2.218,0,0,1-.149.466c-.107.295-.264.72-.444,1.25s-.382,1.165-.578,1.878c-.1.356-.2.733-.287,1.122a1.218,1.218,0,0,0,.131,1.1.506.506,0,0,0,.463.189.782.782,0,0,0,.458-.26,3.682,3.682,0,0,0,.5-1l.742-1.826.518-1.224A2.076,2.076,0,0,1,1560,1130.035Z" transform="translate(-1556.682 -1128.787)" fill="#bf654e"/>
            </g>
            <g id="Grupo_135194" data-name="Grupo 135194" transform="translate(40.745 10.662)">
              <path id="Trazado_191924" data-name="Trazado 191924" d="M1576.3,1148.09a1.618,1.618,0,0,1-.12.412c-.091.26-.229.634-.405,1.093s-.384,1-.631,1.613a1.8,1.8,0,0,1-.64.854,1.01,1.01,0,0,1-.573.169.859.859,0,0,1-.568-.256,1.356,1.356,0,0,1-.348-1.1,6.046,6.046,0,0,1,.207-1.019,13.052,13.052,0,0,1,.573-1.642c.193-.455.37-.814.5-1.058a1.525,1.525,0,0,1,.224-.367c.032.015-.229.567-.577,1.483a15.639,15.639,0,0,0-.521,1.636,6.225,6.225,0,0,0-.188.982,1.149,1.149,0,0,0,.287.926.669.669,0,0,0,.868.062,1.626,1.626,0,0,0,.569-.752l.673-1.589c.194-.452.355-.817.47-1.067A1.6,1.6,0,0,1,1576.3,1148.09Z" transform="translate(-1573.004 -1146.791)" fill="#bf654e"/>
            </g>
            <g id="Grupo_135195" data-name="Grupo 135195" transform="translate(42.596 12.7)">
              <path id="Trazado_191925" data-name="Trazado 191925" d="M1593.611,1168.071a7.058,7.058,0,0,1-.323,1.215c-.116.372-.246.808-.414,1.3a1.117,1.117,0,0,1-.544.67.636.636,0,0,1-.5.021.806.806,0,0,1-.383-.321,1.516,1.516,0,0,1-.171-.9,5.084,5.084,0,0,1,.1-.813,5.252,5.252,0,0,1,.455-1.3,4.6,4.6,0,0,1,.5-.782c.137-.171.227-.252.237-.244.031.023-.279.4-.594,1.094a5.714,5.714,0,0,0-.4,1.275,5.254,5.254,0,0,0-.086.782,1.339,1.339,0,0,0,.141.77.477.477,0,0,0,.6.222.926.926,0,0,0,.443-.545l.456-1.278A7.042,7.042,0,0,1,1593.611,1168.071Z" transform="translate(-1591.274 -1166.914)" fill="#bf654e"/>
            </g>
            <g id="Grupo_135196" data-name="Grupo 135196" transform="translate(36.917 12.955)">
              <path id="Trazado_191926" data-name="Trazado 191926" d="M1537.74,1174.449c-.038,0,0-.338-.041-.867a5.376,5.376,0,0,0-1.815-3.6c-.4-.349-.691-.515-.673-.548a2.106,2.106,0,0,1,.772.427,4.827,4.827,0,0,1,1.873,3.714A2.111,2.111,0,0,1,1537.74,1174.449Z" transform="translate(-1535.211 -1169.432)" fill="#bf654e"/>
            </g>
          </g>
          <g id="Grupo_135201" data-name="Grupo 135201" transform="translate(0 80.21)">
            <path id="Trazado_191927" data-name="Trazado 191927" d="M675.847,1537.646l41.707.211.512-7.354-32.534-14.479a25.223,25.223,0,0,0-5.4,11.874l-4.281,9.749" transform="translate(-675.847 -1516.023)" fill="#263238"/>
            <g id="Grupo_135198" data-name="Grupo 135198" transform="translate(6.415 7.461)">
              <path id="Trazado_191928" data-name="Trazado 191928" d="M752.465,1589.673a2.764,2.764,0,0,1-.377.426,5.141,5.141,0,0,1-.483.461,8.5,8.5,0,0,1-.683.563,9.549,9.549,0,0,1-.883.611c-.321.217-.689.4-1.072.61a13.169,13.169,0,0,1-5.44,1.4c-.435,0-.848.017-1.234-.019a9.55,9.55,0,0,1-1.068-.111,8.53,8.53,0,0,1-.87-.165,5.134,5.134,0,0,1-.645-.172,2.789,2.789,0,0,1-.535-.192c.013-.046.783.214,2.071.373a10.351,10.351,0,0,0,1.057.082c.38.028.787.007,1.215,0a13.758,13.758,0,0,0,5.359-1.374c.379-.2.746-.376,1.066-.583a10.258,10.258,0,0,0,.886-.581C751.881,1590.237,752.432,1589.639,752.465,1589.673Z" transform="translate(-739.174 -1589.671)" fill="#375a64"/>
            </g>
            <g id="Grupo_135199" data-name="Grupo 135199" transform="translate(31.043 11.442)">
              <path id="Trazado_191929" data-name="Trazado 191929" d="M982.3,1638.535a12.239,12.239,0,0,1,.505-1.416l1.292-3.387,1.316-3.38a10.306,10.306,0,0,1,.6-1.38,9.855,9.855,0,0,1-.453,1.435c-.308.876-.748,2.081-1.256,3.4s-.987,2.513-1.354,3.367c-.182.427-.339.77-.452,1A1.431,1.431,0,0,1,982.3,1638.535Z" transform="translate(-982.294 -1628.972)" fill="#375a64"/>
            </g>
            <g id="Grupo_135200" data-name="Grupo 135200" transform="translate(30.458 11.048)">
              <path id="Trazado_191930" data-name="Trazado 191930" d="M977.343,1625.134a1.248,1.248,0,0,0-.555.533.783.783,0,0,0,.037.765.81.81,0,0,0,1.5-.233.784.784,0,0,0-.2-.741,1.246,1.246,0,0,0-.69-.339c0-.012.077-.044.227-.035a.957.957,0,0,1,.575.263.934.934,0,0,1,.284.9,1,1,0,0,1-1.868.291.933.933,0,0,1,0-.944.957.957,0,0,1,.467-.425C977.256,1625.115,977.341,1625.121,977.343,1625.134Z" transform="translate(-976.521 -1625.083)" fill="#375a64"/>
            </g>
          </g>
          <g id="Grupo_135203" data-name="Grupo 135203" transform="translate(9.685 32.794)">
            <g id="Grupo_135202" data-name="Grupo 135202" transform="translate(43.21 6.781)">
              <path id="Trazado_191931" data-name="Trazado 191931" d="M1204.6,1114.883s6.1,17.941,5.755,18.673l-12.347,3.384Z" transform="translate(-1198.012 -1114.883)" fill="#ff4f5b"/>
              <path id="Trazado_191932" data-name="Trazado 191932" d="M1204.6,1114.883s6.1,17.941,5.755,18.673l-12.347,3.384Z" transform="translate(-1198.012 -1114.883)" fill="#fc502d"/>
            </g>
            <path id="Trazado_191933" data-name="Trazado 191933" d="M811.245,1084.448l-3.892,16.518-2.528,9.244-33.376-14.854,10.591-17.038s5.8-23.725,13.988-28.112a19.111,19.111,0,0,1,11.76-2.079l7.109.982q.235.032.466.078a7.838,7.838,0,0,1,6.169,8.149c-.155,3.086-.672,8.312-2.372,12.218C816.885,1074.781,811.245,1084.448,811.245,1084.448Z" transform="translate(-771.45 -1047.939)" fill="#fc502d"/>
          </g>
          <g id="Grupo_135214" data-name="Grupo 135214" transform="translate(26.968 39.595)">
            <g id="Grupo_135212" data-name="Grupo 135212" transform="translate(2.468 13.938)">
              <g id="Grupo_135205" data-name="Grupo 135205">
                <g id="Grupo_135204" data-name="Grupo 135204">
                  <path id="Trazado_191934" data-name="Trazado 191934" d="M981.1,1253.611s0,15.166,3.8,16.6c10.327,3.909,22.677,3.01,27.023,2.6.52-.363,1.121-.806,1.805-1.361l1.436-1.2s6.81,1.3,6.721,1.658-2.657,1.187-5.294.593a1.139,1.139,0,0,0,.628,1.613c1.736.845,7.89,3.45,8.865,4.039.868.524,1.674,1.386.7,1.445a52.279,52.279,0,0,1-6.144-1.216s6.808,1.537,6.539,2.518c-.186.677-2.076.821-6.477-.643,0,0,5.6,1.309,6.133,1.962,1.206,1.477-5.547-.031-5.547-.031,4.721,1.1,4.7.843,4.682,1.5-.011.5-1.112.585-3.742.355-2.134-.187-4.381.046-7.645-.061h0s-42.168,7.513-46.01-11.1c-2.071-10.033-1.72-13.737-2.136-20.219" transform="translate(-966.435 -1252.672)" fill="#c78976"/>
                </g>
              </g>
              <g id="Grupo_135207" data-name="Grupo 135207" transform="translate(51.993 28.892)">
                <g id="Grupo_135206" data-name="Grupo 135206">
                  <path id="Trazado_191935" data-name="Trazado 191935" d="M1479.7,1537.919a25.061,25.061,0,0,0,6.5,1.341,25.08,25.08,0,0,0-6.5-1.341Z" transform="translate(-1479.696 -1537.886)" fill="#bf654e"/>
                </g>
              </g>
              <g id="Grupo_135209" data-name="Grupo 135209" transform="translate(52.224 27.043)">
                <g id="Grupo_135208" data-name="Grupo 135208">
                  <path id="Trazado_191936" data-name="Trazado 191936" d="M1481.976,1519.66a28.546,28.546,0,0,0,6.837,1.848,28.565,28.565,0,0,0-6.837-1.848Z" transform="translate(-1481.975 -1519.635)" fill="#bf654e"/>
                </g>
              </g>
              <g id="Grupo_135211" data-name="Grupo 135211" transform="translate(52.473 25.116)">
                <g id="Grupo_135210" data-name="Grupo 135210">
                  <path id="Trazado_191937" data-name="Trazado 191937" d="M1484.44,1500.632a25.564,25.564,0,0,0,6.445,1.834,25.579,25.579,0,0,0-6.445-1.834Z" transform="translate(-1484.439 -1500.608)" fill="#bf654e"/>
                </g>
              </g>
            </g>
            <path id="Trazado_191938" data-name="Trazado 191938" d="M951.425,1115.114a7.832,7.832,0,0,0-7.085,3.3c-1.436,2.005-2.751,5.229-2.1,10.012,1.265,9.332,2.3,12.443,2.3,12.443l17.15-2.716-2.346-15.653S957.27,1115.7,951.425,1115.114Z" transform="translate(-942.068 -1115.076)" fill="#ff4f5b"/>
            <path id="Trazado_191939" data-name="Trazado 191939" d="M951.425,1115.114a7.832,7.832,0,0,0-7.085,3.3c-1.436,2.005-2.751,5.229-2.1,10.012,1.265,9.332,2.3,12.443,2.3,12.443l17.15-2.716-2.346-15.653S957.27,1115.7,951.425,1115.114Z" transform="translate(-942.068 -1115.076)" fill="#fc502d"/>
            <g id="Grupo_135213" data-name="Grupo 135213" transform="translate(25.049 31.472)">
              <path id="Trazado_191940" data-name="Trazado 191940" d="M1216.865,1426.076a2.048,2.048,0,0,1-.369-.047c-.239-.036-.6-.108-1.042-.175a1.237,1.237,0,0,0-.666.266,6.42,6.42,0,0,0-.706.553,18.7,18.7,0,0,0-1.541,1.555l-.016.018-.023.007a15.4,15.4,0,0,1-4.084.622,45.741,45.741,0,0,1-4.878-.2c-3.935-.279-7.509-.5-10.076-.853-1.284-.17-2.317-.348-3.026-.5-.355-.068-.628-.14-.813-.183a.146.146,0,1,1,.009-.044l.82.142c.712.124,1.746.277,3.029.428,2.566.316,6.132.509,10.073.787a48.085,48.085,0,0,0,4.855.213,15.636,15.636,0,0,0,4.04-.578l-.04.025a17.845,17.845,0,0,1,1.579-1.546,6.348,6.348,0,0,1,.732-.548,1.3,1.3,0,0,1,.74-.262c.458.083.8.17,1.04.222A2.091,2.091,0,0,1,1216.865,1426.076Z" transform="translate(-1189.347 -1425.756)" fill="#bf654e"/>
            </g>
          </g>
          <g id="Grupo_135274" data-name="Grupo 135274" transform="translate(19.249)">
            <g id="Grupo_135220" data-name="Grupo 135220" transform="translate(0 3.292)">
              <g id="Grupo_135215" data-name="Grupo 135215">
                <path id="Trazado_191941" data-name="Trazado 191941" d="M883.012,760.04a5,5,0,0,0-8.884-1.086,15.348,15.348,0,0,0-1.336,3.264,4.957,4.957,0,0,1-2.047,2.788c-1.213.657-2.806.431-3.909,1.259a2.883,2.883,0,0,0-.229,4.079,3.886,3.886,0,0,0,4.242.813,8.694,8.694,0,0,0-.583,2.81,2.945,2.945,0,0,0,1.229,2.477,2.858,2.858,0,0,0,2.786-.051,6.778,6.778,0,0,0,2.108-1.983,7.121,7.121,0,0,0,.705,1.939,2.4,2.4,0,0,0,1.609,1.2,2.332,2.332,0,0,0,2.162-1.065,5.284,5.284,0,0,0,.779-2.39,17.248,17.248,0,0,0-.4-6.234,9.51,9.51,0,0,1-.52-3.955c.25-1.318,1.55-2.557,2.832-2.161" transform="translate(-865.873 -756.712)" fill="#263238"/>
              </g>
              <g id="Grupo_135217" data-name="Grupo 135217" transform="translate(0.324 1.927)">
                <g id="Grupo_135216" data-name="Grupo 135216">
                  <path id="Trazado_191942" data-name="Trazado 191942" d="M869.071,786.13c0,.011.071.047.217.1a5.1,5.1,0,0,0,.661.191,6.523,6.523,0,0,0,5.864-1.682,6.707,6.707,0,0,0,1.342-1.795,9.109,9.109,0,0,0,.748-2.274,12.741,12.741,0,0,1,.625-2.238,3.792,3.792,0,0,1,1.274-1.644,4.153,4.153,0,0,1,3.417-.66,5.019,5.019,0,0,1,2.14,1.156c.436.391.623.665.649.645.01-.007-.03-.079-.116-.212a4.006,4.006,0,0,0-.439-.531,4.851,4.851,0,0,0-2.172-1.3,4.362,4.362,0,0,0-3.667.638,4.085,4.085,0,0,0-1.4,1.77,12.611,12.611,0,0,0-.651,2.3,8.986,8.986,0,0,1-.712,2.2,6.5,6.5,0,0,1-1.261,1.719,6.422,6.422,0,0,1-3.159,1.7,7.014,7.014,0,0,1-2.457.078C869.393,786.2,869.08,786.1,869.071,786.13Z" transform="translate(-869.071 -775.736)" fill="#375a64"/>
                </g>
              </g>
              <g id="Grupo_135219" data-name="Grupo 135219" transform="translate(11.123 4.418)">
                <g id="Grupo_135218" data-name="Grupo 135218">
                  <path id="Trazado_191943" data-name="Trazado 191943" d="M976.12,816.107c.008.009.066-.029.172-.112a2.375,2.375,0,0,0,.41-.422,3.926,3.926,0,0,0,.757-2.016,7.913,7.913,0,0,0-.36-3.171,27.215,27.215,0,0,1-1.014-3.7,5.426,5.426,0,0,1,.7-3.612,5.254,5.254,0,0,1,2.229-2.053,5.777,5.777,0,0,1,2-.561c.5-.043.774-.024.776-.053a2.154,2.154,0,0,0-.784-.083,5.412,5.412,0,0,0-4.5,2.583,5.657,5.657,0,0,0-.767,3.826,24.789,24.789,0,0,0,1.052,3.744,8.021,8.021,0,0,1,.423,3.055,4.056,4.056,0,0,1-.622,1.96C976.317,815.9,976.1,816.081,976.12,816.107Z" transform="translate(-975.672 -800.326)" fill="#375a64"/>
                </g>
              </g>
            </g>
            <g id="Grupo_135221" data-name="Grupo 135221" transform="translate(15.863)">
              <path id="Trazado_191944" data-name="Trazado 191944" d="M1046.656,739.62c3.343-7.732-1.242-12.442-4.228-14.132a12.553,12.553,0,0,0-5.934-1.267,21.76,21.76,0,0,0-6.007.551,10.778,10.778,0,0,0-5.2,2.932c-2.444,2.618-3,6.495-2.774,10.069a28.069,28.069,0,0,0,3.562,12.029,2.971,2.971,0,0,0,1.046,1.217,1.1,1.1,0,0,0,1.446-.263" transform="translate(-1022.464 -724.21)" fill="#263238"/>
            </g>
            <g id="Grupo_135224" data-name="Grupo 135224" transform="translate(20.066 5.206)">
              <g id="Grupo_135223" data-name="Grupo 135223">
                <g id="Grupo_135222" data-name="Grupo 135222">
                  <path id="Trazado_191945" data-name="Trazado 191945" d="M1078.214,805.089l-.122-4.068s4.756-.79,5.741-6.995a66.3,66.3,0,0,0,.074-12.281,6.552,6.552,0,0,0-7.227-6.109l-10.765,1.139a2.183,2.183,0,0,0-1.953,2.214h0l1.431,26.637a6.416,6.416,0,0,0,6.407,6.072h0A6.416,6.416,0,0,0,1078.214,805.089Z" transform="translate(-1063.963 -775.599)" fill="#c78976"/>
                </g>
              </g>
            </g>
            <g id="Grupo_135232" data-name="Grupo 135232" transform="translate(35.769 13.147)">
              <g id="Grupo_135227" data-name="Grupo 135227" transform="translate(1.579 1.012)">
                <g id="Grupo_135226" data-name="Grupo 135226">
                  <g id="Grupo_135225" data-name="Grupo 135225">
                    <path id="Trazado_191946" data-name="Trazado 191946" d="M1236.15,864.7a.8.8,0,0,1-.767.8.761.761,0,0,1-.82-.717.8.8,0,0,1,.766-.8A.762.762,0,0,1,1236.15,864.7Z" transform="translate(-1234.561 -863.982)" fill="#263238"/>
                  </g>
                </g>
              </g>
              <g id="Grupo_135231" data-name="Grupo 135231">
                <g id="Grupo_135230" data-name="Grupo 135230">
                  <g id="Grupo_135229" data-name="Grupo 135229">
                    <g id="Grupo_135228" data-name="Grupo 135228">
                      <path id="Trazado_191947" data-name="Trazado 191947" d="M1222.12,854.829c-.1.1-.7-.342-1.558-.34s-1.484.43-1.577.326c-.046-.046.055-.234.329-.433a2.183,2.183,0,0,1,1.262-.389,2.1,2.1,0,0,1,1.24.4C1222.079,854.6,1222.168,854.783,1222.12,854.829Z" transform="translate(-1218.975 -853.993)" fill="#263238"/>
                    </g>
                  </g>
                </g>
              </g>
            </g>
            <g id="Grupo_135240" data-name="Grupo 135240" transform="translate(27.351 13.307)">
              <g id="Grupo_135235" data-name="Grupo 135235" transform="translate(1.415 1.079)">
                <g id="Grupo_135234" data-name="Grupo 135234">
                  <g id="Grupo_135233" data-name="Grupo 135233">
                    <path id="Trazado_191948" data-name="Trazado 191948" d="M1151.433,866.939a.8.8,0,0,1-.767.8.761.761,0,0,1-.82-.718.8.8,0,0,1,.767-.8A.761.761,0,0,1,1151.433,866.939Z" transform="translate(-1149.845 -866.22)" fill="#263238"/>
                  </g>
                </g>
              </g>
              <g id="Grupo_135239" data-name="Grupo 135239">
                <g id="Grupo_135238" data-name="Grupo 135238">
                  <g id="Grupo_135237" data-name="Grupo 135237">
                    <g id="Grupo_135236" data-name="Grupo 135236">
                      <path id="Trazado_191949" data-name="Trazado 191949" d="M1139.023,856.406c-.1.1-.7-.342-1.558-.34s-1.484.43-1.577.326c-.046-.046.054-.234.329-.433a2.183,2.183,0,0,1,1.262-.389,2.1,2.1,0,0,1,1.24.4C1138.982,856.172,1139.071,856.36,1139.023,856.406Z" transform="translate(-1135.877 -855.57)" fill="#263238"/>
                    </g>
                  </g>
                </g>
              </g>
            </g>
            <g id="Grupo_135244" data-name="Grupo 135244" transform="translate(33.204 13.359)">
              <g id="Grupo_135243" data-name="Grupo 135243">
                <g id="Grupo_135242" data-name="Grupo 135242">
                  <g id="Grupo_135241" data-name="Grupo 135241">
                    <path id="Trazado_191950" data-name="Trazado 191950" d="M1194.051,863.218a5.667,5.667,0,0,1,1.391-.251c.219-.023.426-.066.462-.215a1.114,1.114,0,0,0-.146-.648l-.647-1.665a28.621,28.621,0,0,1-1.452-4.355,28.669,28.669,0,0,1,1.8,4.228q.324.877.62,1.675a1.265,1.265,0,0,1,.113.858.549.549,0,0,1-.359.32,1.489,1.489,0,0,1-.371.052A5.573,5.573,0,0,1,1194.051,863.218Z" transform="translate(-1193.651 -856.083)" fill="#263238"/>
                  </g>
                </g>
              </g>
            </g>
            <g id="Grupo_135247" data-name="Grupo 135247" transform="translate(25.886 28.411)">
              <g id="Grupo_135246" data-name="Grupo 135246">
                <g id="Grupo_135245" data-name="Grupo 135245">
                  <path id="Trazado_191951" data-name="Trazado 191951" d="M1129.723,1006.888a15.785,15.785,0,0,1-8.31-2.217s2.016,4.262,8.226,3.682Z" transform="translate(-1121.413 -1004.671)" fill="#bf654e"/>
                </g>
              </g>
            </g>
            <g id="Grupo_135250" data-name="Grupo 135250" transform="translate(30.688 21.976)">
              <g id="Grupo_135249" data-name="Grupo 135249">
                <g id="Grupo_135248" data-name="Grupo 135248">
                  <path id="Trazado_191952" data-name="Trazado 191952" d="M1171.371,941.729a1.542,1.542,0,0,0-1.383-.573,1.408,1.408,0,0,0-.973.522.893.893,0,0,0-.068,1.021,1.036,1.036,0,0,0,1.123.284,3.243,3.243,0,0,0,1.094-.653.948.948,0,0,0,.245-.253.287.287,0,0,0,0-.319" transform="translate(-1168.816 -941.147)" fill="#bf654e"/>
                </g>
              </g>
            </g>
            <g id="Grupo_135254" data-name="Grupo 135254" transform="translate(30.946 21.086)">
              <g id="Grupo_135253" data-name="Grupo 135253">
                <g id="Grupo_135252" data-name="Grupo 135252">
                  <g id="Grupo_135251" data-name="Grupo 135251">
                    <path id="Trazado_191953" data-name="Trazado 191953" d="M1171.5,932.366c.139-.008.141.922.937,1.581s1.785.557,1.792.687c.013.058-.221.181-.639.192a2.314,2.314,0,0,1-1.5-.521,2.015,2.015,0,0,1-.726-1.326C1171.33,932.591,1171.434,932.361,1171.5,932.366Z" transform="translate(-1171.359 -932.366)" fill="#263238"/>
                  </g>
                </g>
              </g>
            </g>
            <g id="Grupo_135257" data-name="Grupo 135257" transform="translate(26.974 12.002)">
              <g id="Grupo_135256" data-name="Grupo 135256">
                <g id="Grupo_135255" data-name="Grupo 135255">
                  <path id="Trazado_191954" data-name="Trazado 191954" d="M1136.062,843.332c-.084.233-.939.122-1.944.244-1.007.1-1.817.395-1.951.186-.06-.1.082-.319.409-.544a3.406,3.406,0,0,1,2.967-.327C1135.913,843.039,1136.1,843.222,1136.062,843.332Z" transform="translate(-1132.154 -842.69)" fill="#263238"/>
                </g>
              </g>
            </g>
            <g id="Grupo_135260" data-name="Grupo 135260" transform="translate(35.684 10.618)">
              <g id="Grupo_135259" data-name="Grupo 135259">
                <g id="Grupo_135258" data-name="Grupo 135258">
                  <path id="Trazado_191955" data-name="Trazado 191955" d="M1221.047,829.915c-.151.194-.74-.007-1.45-.017-.709-.034-1.31.131-1.448-.073-.061-.1.034-.294.3-.478a2.1,2.1,0,0,1,2.335.072C1221.031,829.62,1221.113,829.82,1221.047,829.915Z" transform="translate(-1218.131 -829.028)" fill="#263238"/>
                </g>
              </g>
            </g>
            <g id="Grupo_135261" data-name="Grupo 135261" transform="translate(17.91 2.672)">
              <path id="Trazado_191956" data-name="Trazado 191956" d="M1064.777,759.265c-1.085-5.292-2.56-3.2-4.225-5.723a25.918,25.918,0,0,1-11.364,5.816,2.226,2.226,0,0,0-.993.317,2.134,2.134,0,0,0-.562,1.792,23.443,23.443,0,0,1-.452,5.481,8.941,8.941,0,0,1-2.651,4.732,22.705,22.705,0,0,1-1.335-14.016c.374-1.914,1.008-3.919,2.532-5.135a8.57,8.57,0,0,1,3.874-1.472,19.276,19.276,0,0,1,10.207.438c3.229,1.21,5.735,2.7,6.168,6.121" transform="translate(-1042.676 -750.585)" fill="#263238"/>
            </g>
            <g id="Grupo_135263" data-name="Grupo 135263" transform="translate(16.561 4.444)">
              <g id="Grupo_135262" data-name="Grupo 135262">
                <path id="Trazado_191957" data-name="Trazado 191957" d="M1029.363,771.27a3.412,3.412,0,0,0,.694.379,5.987,5.987,0,0,0,.862.346l.549.191.631.159a15.935,15.935,0,0,0,3.173.435,20.6,20.6,0,0,0,3.913-.254,20.128,20.128,0,0,0,3.785-1.032,16.575,16.575,0,0,0,1.559-.715l.686-.366.6-.391a8.4,8.4,0,0,0,.991-.73l.392-.318.3-.3a3.392,3.392,0,0,0,.526-.59c-.054-.056-.81.788-2.341,1.733l-.6.365-.683.341c-.463.254-1,.441-1.543.673a21.411,21.411,0,0,1-3.727.988,21.945,21.945,0,0,1-3.846.277,17.374,17.374,0,0,1-3.128-.354A28.656,28.656,0,0,1,1029.363,771.27Z" transform="translate(-1029.363 -768.079)" fill="#375a64"/>
              </g>
            </g>
            <g id="Grupo_135265" data-name="Grupo 135265" transform="translate(18.318 3.45)">
              <g id="Grupo_135264" data-name="Grupo 135264">
                <path id="Trazado_191958" data-name="Trazado 191958" d="M1046.706,758.267a2.6,2.6,0,0,0,.535.437,4.512,4.512,0,0,0,.69.427l.446.245.524.222a16.24,16.24,0,0,0,6.1,1.087,27.386,27.386,0,0,0,6.157-.687c.774-.173,1.392-.35,1.813-.489a2.614,2.614,0,0,0,.643-.25c-.016-.055-.958.208-2.506.5a32.532,32.532,0,0,1-6.1.58,17.683,17.683,0,0,1-6.008-.968A23.627,23.627,0,0,1,1046.706,758.267Z" transform="translate(-1046.705 -758.263)" fill="#375a64"/>
              </g>
            </g>
            <g id="Grupo_135267" data-name="Grupo 135267" transform="translate(35.228 2.06)">
              <g id="Grupo_135266" data-name="Grupo 135266">
                <path id="Trazado_191959" data-name="Trazado 191959" d="M1215.792,744.6c0-.042-.214-.083-.548,0a2.251,2.251,0,0,0-1.611,1.946c-.02.344.061.545.1.538a3.057,3.057,0,0,1,2.057-2.485Z" transform="translate(-1213.63 -744.548)" fill="#375a64"/>
              </g>
            </g>
            <g id="Grupo_135269" data-name="Grupo 135269" transform="translate(2.325 2.006)">
              <g id="Grupo_135268" data-name="Grupo 135268">
                <path id="Trazado_191960" data-name="Trazado 191960" d="M891.827,750.8a.613.613,0,0,0-.184-.225,1.388,1.388,0,0,0-.766-.334,1.932,1.932,0,0,0-1.294.291,1.655,1.655,0,0,0-.754,1.57,2.279,2.279,0,0,0,1.19,1.762,2.36,2.36,0,0,0,2.415-.253,2.721,2.721,0,0,0,.888-1.028,3.612,3.612,0,0,0,.329-1.363,24.714,24.714,0,0,1,.073-2.806,5.218,5.218,0,0,1,3.314-3.83,4.778,4.778,0,0,1,4.153.512,5.379,5.379,0,0,1,1.965,2.157c.307.632.371,1.026.407,1.017a.891.891,0,0,0-.035-.286,3.632,3.632,0,0,0-.249-.788,5.282,5.282,0,0,0-1.955-2.307,5.361,5.361,0,0,0-1.964-.8,4.785,4.785,0,0,0-2.43.187,5.5,5.5,0,0,0-3.55,4.07,23.016,23.016,0,0,0-.071,2.847,3.3,3.3,0,0,1-.288,1.24,2.407,2.407,0,0,1-.774.911,2.068,2.068,0,0,1-2.1.258,2.031,2.031,0,0,1-1.076-1.529,1.444,1.444,0,0,1,.616-1.383,1.824,1.824,0,0,1,1.171-.318A1.7,1.7,0,0,1,891.827,750.8Z" transform="translate(-888.821 -744.015)" fill="#263238"/>
              </g>
            </g>
            <g id="Grupo_135271" data-name="Grupo 135271" transform="translate(21.628 5)">
              <g id="Grupo_135270" data-name="Grupo 135270">
                <path id="Trazado_191961" data-name="Trazado 191961" d="M1079.375,780.155a2.3,2.3,0,0,0,.647.052c.416.01,1.018.01,1.763-.017a18.963,18.963,0,0,0,5.741-.992,9.92,9.92,0,0,0,4.687-3.431,6.555,6.555,0,0,0,.833-1.57,1.946,1.946,0,0,0,.16-.631,12.722,12.722,0,0,1-1.192,2.055,10.306,10.306,0,0,1-4.609,3.25,21.486,21.486,0,0,1-5.636,1.073A21.279,21.279,0,0,0,1079.375,780.155Z" transform="translate(-1079.375 -773.566)" fill="#263238"/>
              </g>
            </g>
            <g id="Grupo_135273" data-name="Grupo 135273" transform="translate(12.818 23.334)">
              <g id="Grupo_135272" data-name="Grupo 135272">
                <path id="Trazado_191962" data-name="Trazado 191962" d="M992.415,957.972a1.051,1.051,0,0,0,.294.588,2.271,2.271,0,0,0,1.608.784,3.5,3.5,0,0,0,2.487-.936,2.236,2.236,0,0,0,.76-1.439,1.581,1.581,0,0,0-.808-1.559,1.25,1.25,0,0,0-1.645.583,1.066,1.066,0,0,0,.064.9,1.34,1.34,0,0,0,.609.586,1.966,1.966,0,0,0,1.476.024,2.686,2.686,0,0,0,1.065-.684,2.818,2.818,0,0,0,.788-1.608,1.282,1.282,0,0,0-.038-.654c-.031,0-.012.234-.1.632a2.866,2.866,0,0,1-.828,1.455,2.493,2.493,0,0,1-.982.584,1.691,1.691,0,0,1-1.245-.038.9.9,0,0,1-.5-1.068.918.918,0,0,1,1.181-.4,1.251,1.251,0,0,1,.614,1.219,1.934,1.934,0,0,1-.639,1.229,3.326,3.326,0,0,1-2.255.924,2.226,2.226,0,0,1-1.518-.629C992.524,958.182,992.444,957.958,992.415,957.972Z" transform="translate(-992.412 -954.558)" fill="#263238"/>
              </g>
            </g>
          </g>
        </g>
        <g id="Grupo_135276" data-name="Grupo 135276" transform="translate(27.011 102.105)">
          <path id="Trazado_191963" data-name="Trazado 191963" d="M730.149,1732.279c0,.061-15.484.111-34.58.111s-34.583-.05-34.583-.111,15.48-.111,34.583-.111S730.149,1732.218,730.149,1732.279Z" transform="translate(-660.987 -1732.168)" fill="#375a64"/>
        </g>
      </g>
      <g id="Grupo_135289" data-name="Grupo 135289" transform="translate(162.215 471.426)">
        <g id="Grupo_135279" data-name="Grupo 135279" transform="translate(4.321 0)">
          <g id="Grupo_135278" data-name="Grupo 135278">
            <path id="Trazado_191964" data-name="Trazado 191964" d="M431.967,1488.825a5.582,5.582,0,0,1,3.69,2.342,9.851,9.851,0,0,1,1.6,4.156,17.389,17.389,0,0,1-1.327,8.807c-2.919-1.358-4.483-4.75-5.168-6.521-1.083-2.8-1.341-8.513,1.2-8.786" transform="translate(-429.985 -1488.825)" fill="#fff2bf"/>
          </g>
        </g>
        <g id="Grupo_135280" data-name="Grupo 135280" transform="translate(13.761 11.515)">
          <path id="Trazado_191965" data-name="Trazado 191965" d="M523.711,1610.069a4.763,4.763,0,0,1,.218-4.777,6.324,6.324,0,0,1,4.075-2.7,2.663,2.663,0,0,1,2.222.313,2.037,2.037,0,0,1,.6,1.974,4.131,4.131,0,0,1-1.049,1.871c-1.652,1.852-3.59,3.34-6.071,3.316" transform="translate(-523.168 -1602.495)" fill="#fff2bf"/>
        </g>
        <g id="Grupo_135282" data-name="Grupo 135282" transform="translate(13.386 14.755)">
          <g id="Grupo_135281" data-name="Grupo 135281">
            <path id="Trazado_191966" data-name="Trazado 191966" d="M519.861,1648.16a3.4,3.4,0,0,1-.081-.592l-.163-1.618a16.717,16.717,0,0,1,.164-5.368,10.233,10.233,0,0,1,2.438-4.764,6.937,6.937,0,0,1,1.252-1.051,4.192,4.192,0,0,1,.383-.225c.09-.048.138-.07.142-.063a10.871,10.871,0,0,0-1.668,1.441,10.564,10.564,0,0,0-2.342,4.71,18,18,0,0,0-.22,5.309c.045.685.082,1.24.1,1.624A3.145,3.145,0,0,1,519.861,1648.16Z" transform="translate(-519.474 -1634.478)" fill="#263238"/>
          </g>
        </g>
        <g id="Grupo_135284" data-name="Grupo 135284" transform="translate(6.883 4.335)">
          <g id="Grupo_135283" data-name="Grupo 135283">
            <path id="Trazado_191967" data-name="Trazado 191967" d="M455.28,1531.616a1.2,1.2,0,0,1,.1.24l.249.7c.213.61.509,1.5.866,2.594.714,2.2,1.658,5.244,2.625,8.633s1.771,6.478,2.322,8.721c.276,1.121.491,2.03.632,2.661l.158.727a.13.13,0,1,1-.041.01l-.2-.717-.7-2.644c-.588-2.232-1.415-5.312-2.38-8.7s-1.887-6.439-2.564-8.646l-.8-2.614-.211-.713A1.222,1.222,0,0,1,455.28,1531.616Z" transform="translate(-455.279 -1531.616)" fill="#263238"/>
          </g>
        </g>
        <g id="Grupo_135286" data-name="Grupo 135286" transform="translate(0 15.729)">
          <g id="Grupo_135285" data-name="Grupo 135285">
            <path id="Trazado_191968" data-name="Trazado 191968" d="M398.087,1650.307a11.141,11.141,0,0,0-8.114-6.146,2.349,2.349,0,0,0-2.446.668,2.306,2.306,0,0,0,.519,2.48,9.518,9.518,0,0,0,10.051,3.241" transform="translate(-387.327 -1644.096)" fill="#fff2bf"/>
          </g>
        </g>
        <g id="Grupo_135288" data-name="Grupo 135288" transform="translate(3.784 18.306)">
          <g id="Grupo_135287" data-name="Grupo 135287">
            <path id="Trazado_191969" data-name="Trazado 191969" d="M424.677,1669.539a2.842,2.842,0,0,1,.557.072,5.4,5.4,0,0,1,.645.136c.247.07.537.124.84.24a9.866,9.866,0,0,1,.991.377,10.936,10.936,0,0,1,1.094.536,12.381,12.381,0,0,1,2.258,1.637,12.128,12.128,0,0,1,1.794,2.137,10.547,10.547,0,0,1,.6,1.059,9.024,9.024,0,0,1,.432.969,8.236,8.236,0,0,1,.282.828,5.02,5.02,0,0,1,.165.638,2.852,2.852,0,0,1,.1.553c-.046.011-.189-.779-.679-1.963a9.63,9.63,0,0,0-.449-.945,11.108,11.108,0,0,0-.61-1.032,12.63,12.63,0,0,0-1.775-2.089,12.9,12.9,0,0,0-2.21-1.623,11.512,11.512,0,0,0-1.069-.545c-.338-.167-.669-.282-.969-.4C425.462,1669.7,424.668,1669.584,424.677,1669.539Z" transform="translate(-424.677 -1669.535)" fill="#263238"/>
          </g>
        </g>
      </g>
      <g id="Grupo_135305" data-name="Grupo 135305" transform="translate(252.087 356.747)">
        <path id="Trazado_191970" data-name="Trazado 191970" d="M1294.675,360.888a18.933,18.933,0,0,0-18.581,26.562c2.2,4.959,6.456,8.838,8.345,13.923,1.3,3.487,1.391,7.333,2.709,10.811a16.789,16.789,0,0,0,18.463,10.156c4.5-.924,8.538-3.734,13.12-4.019,4.917-.306,10.513,2.192,14.405-.827,2.72-2.11,3.184-6.162,2.2-9.46s-3.11-6.112-4.854-9.081-3.164-6.4-2.517-9.782c.586-3.065,2.758-5.549,4.125-8.355a16.741,16.741,0,0,0-16.236-24.03c-3.908.278-7.572,1.905-11.331,3.007a25.877,25.877,0,0,1-9.845,1.094" transform="translate(-1274.521 -356.747)" fill="#f5f5f5"/>
        <g id="Grupo_135304" data-name="Grupo 135304" transform="translate(12.433 9.063)">
          <g id="Grupo_135296" data-name="Grupo 135296" transform="translate(6.385 7.583)">
            <path id="Trazado_191971" data-name="Trazado 191971" d="M1471,521.083s-7.231-.069-9.72,6.21.363,9.316,1.477,11.163,4.1,5.866,4.127,9.651l9.715-.061a25.838,25.838,0,0,1,3.4-9.481c2.9-4.836,2.558-8.362,1.765-10.469A10.368,10.368,0,0,0,1471,521.083Z" transform="translate(-1460.288 -521.07)" fill="#fc502d"/>
            <g id="Grupo_135290" data-name="Grupo 135290" transform="translate(4.804 9.085)">
              <path id="Trazado_191972" data-name="Trazado 191972" d="M1515.821,628.378s-.012-.051-.028-.151l-.068-.446-.245-1.716c-.2-1.492-.5-3.652-.689-6.34-.044-.672-.085-1.377-.1-2.112s-.041-1.5.009-2.3a6.418,6.418,0,0,1,.564-2.4,3.641,3.641,0,0,1,1.849-1.816,2.452,2.452,0,0,1,2.609.523,1.827,1.827,0,0,1,.547,1.32,2.339,2.339,0,0,1-.5,1.371,3.134,3.134,0,0,1-1.164.922,6.1,6.1,0,0,1-1.431.46,17.206,17.206,0,0,1-3.034.324,17.682,17.682,0,0,1-3.048-.177,5.741,5.741,0,0,1-1.441-.432,3.727,3.727,0,0,1-1.2-.872,2.8,2.8,0,0,1-.684-1.291,2.171,2.171,0,0,1,.185-1.42,1.935,1.935,0,0,1,1.014-.968,1.733,1.733,0,0,1,1.366.077,2.582,2.582,0,0,1,1.011.877,3.535,3.535,0,0,1,.5,1.2,14.461,14.461,0,0,1,.219,2.452c.067,1.581.13,3.054.187,4.4.109,2.685.2,4.86.26,6.37l.063,1.732c.005.194.01.343.013.451s0,.154,0,.154-.007-.052-.015-.153l-.027-.45c-.021-.4-.052-.984-.091-1.731-.073-1.51-.178-3.684-.307-6.368-.063-1.345-.131-2.818-.2-4.4a14.432,14.432,0,0,0-.223-2.427,3.41,3.41,0,0,0-.481-1.154,2.446,2.446,0,0,0-.958-.829,1.6,1.6,0,0,0-1.257-.071,1.8,1.8,0,0,0-.936.9,2.029,2.029,0,0,0-.171,1.327,2.656,2.656,0,0,0,.651,1.223,4.33,4.33,0,0,0,2.56,1.255,17.582,17.582,0,0,0,3.019.174,17.117,17.117,0,0,0,3.007-.32,5.965,5.965,0,0,0,1.4-.447,2.989,2.989,0,0,0,1.112-.878,2.194,2.194,0,0,0,.476-1.284,1.681,1.681,0,0,0-.5-1.218,2.313,2.313,0,0,0-2.458-.5,3.51,3.51,0,0,0-1.781,1.745,6.308,6.308,0,0,0-.559,2.347c-.052.785-.031,1.55-.017,2.284s.053,1.437.094,2.108c.175,2.684.458,4.846.641,6.34.094.742.167,1.32.217,1.72l.054.448C1515.819,628.325,1515.821,628.378,1515.821,628.378Z" transform="translate(-1507.709 -610.757)" fill="#263238"/>
            </g>
            <path id="Trazado_191973" data-name="Trazado 191973" d="M1525.365,785.248l9.748-.152.1,6.156-2.829,3.38-3.739.161-3.165-3.782Z" transform="translate(-1518.773 -758.35)" fill="#e1e1e1"/>
            <path id="Trazado_191974" data-name="Trazado 191974" d="M1560.956,872.187A2.63,2.63,0,0,0,1559,871.4a2.571,2.571,0,0,0-1.849.961Z" transform="translate(-1547.341 -835.905)" fill="#375a64"/>
            <g id="Grupo_135291" data-name="Grupo 135291" transform="translate(6.856 31.154)">
              <path id="Trazado_191975" data-name="Trazado 191975" d="M1537.294,829.863a2.184,2.184,0,0,1-.353-.153c-.224-.1-.551-.246-.966-.393a9.451,9.451,0,0,0-6.714.14c-.408.164-.73.32-.949.433a2.186,2.186,0,0,1-.346.168,1.687,1.687,0,0,1,.318-.219,7.846,7.846,0,0,1,.936-.48,8.973,8.973,0,0,1,6.791-.141,7.81,7.81,0,0,1,.956.44A1.686,1.686,0,0,1,1537.294,829.863Z" transform="translate(-1527.966 -828.619)" fill="#263238"/>
            </g>
            <g id="Grupo_135292" data-name="Grupo 135292" transform="translate(6.869 29.659)">
              <path id="Trazado_191976" data-name="Trazado 191976" d="M1537.423,815.1a2.141,2.141,0,0,1-.353-.153c-.224-.1-.551-.246-.966-.393a9.45,9.45,0,0,0-6.714.14c-.408.164-.73.32-.949.433a2.192,2.192,0,0,1-.346.168,1.693,1.693,0,0,1,.318-.218,7.79,7.79,0,0,1,.936-.48,8.972,8.972,0,0,1,6.792-.141,7.828,7.828,0,0,1,.956.44A1.72,1.72,0,0,1,1537.423,815.1Z" transform="translate(-1528.095 -813.858)" fill="#263238"/>
            </g>
            <g id="Grupo_135293" data-name="Grupo 135293" transform="translate(6.794 28.237)">
              <path id="Trazado_191977" data-name="Trazado 191977" d="M1536.69,801.061a2.185,2.185,0,0,1-.353-.153c-.224-.1-.551-.247-.966-.393a9.451,9.451,0,0,0-6.714.14c-.408.164-.73.32-.949.433a2.18,2.18,0,0,1-.346.168,1.692,1.692,0,0,1,.318-.219,7.833,7.833,0,0,1,.937-.48,8.972,8.972,0,0,1,6.792-.141,7.826,7.826,0,0,1,.956.44A1.708,1.708,0,0,1,1536.69,801.061Z" transform="translate(-1527.362 -799.817)" fill="#263238"/>
            </g>
            <g id="Grupo_135294" data-name="Grupo 135294" transform="translate(0.973 1.776)" opacity="0.2">
              <path id="Trazado_191978" data-name="Trazado 191978" d="M1474.338,554.224c-.134.15-.47.122-.955-.129a5.52,5.52,0,0,1-1.7-1.506,8.482,8.482,0,0,1-1.495-3.067,9.008,9.008,0,0,1,1.774-8.1,8.483,8.483,0,0,1,2.64-2.162,5.522,5.522,0,0,1,2.169-.659c.545-.025.863.089.922.282.125.417-.785,1-1.869,2.1a11.516,11.516,0,0,0-1.641,2.064,8.771,8.771,0,0,0-1.3,5.929,11.511,11.511,0,0,0,.628,2.56C1474.042,552.988,1474.626,553.9,1474.338,554.224Z" transform="translate(-1469.891 -538.599)" fill="#fff"/>
            </g>
            <g id="Grupo_135295" data-name="Grupo 135295" transform="translate(5.822 19.336)" opacity="0.2">
              <path id="Trazado_191979" data-name="Trazado 191979" d="M1520.484,713.458a1.365,1.365,0,1,1-1.339-1.51A1.431,1.431,0,0,1,1520.484,713.458Z" transform="translate(-1517.766 -711.948)" fill="#fff"/>
            </g>
          </g>
          <g id="Grupo_135297" data-name="Grupo 135297" transform="translate(0 5.762)">
            <path id="Trazado_191980" data-name="Trazado 191980" d="M1402.693,507.2c-.025.033-1.262-.861-2.763-2s-2.7-2.082-2.673-2.115,1.262.861,2.763,2S1402.718,507.171,1402.693,507.2Z" transform="translate(-1397.257 -503.091)" fill="#263238"/>
          </g>
          <g id="Grupo_135298" data-name="Grupo 135298" transform="translate(5.279 4.435)">
            <path id="Trazado_191981" data-name="Trazado 191981" d="M1451.574,492.725a20.625,20.625,0,0,1-2.2-2.73,20.631,20.631,0,0,1,2.2,2.73Z" transform="translate(-1449.374 -489.994)" fill="#263238"/>
          </g>
          <g id="Grupo_135299" data-name="Grupo 135299" transform="translate(9.858 0.361)">
            <path id="Trazado_191982" data-name="Trazado 191982" d="M1496.642,455.957c-.039.013-.533-1.36-1.1-3.067s-1-3.1-.963-3.115.533,1.36,1.1,3.067S1496.681,455.944,1496.642,455.957Z" transform="translate(-1494.573 -449.775)" fill="#263238"/>
          </g>
          <g id="Grupo_135300" data-name="Grupo 135300" transform="translate(16.947 2.236)">
            <path id="Trazado_191983" data-name="Trazado 191983" d="M1565,471.411a16.721,16.721,0,0,1-.434-3.128,16.752,16.752,0,0,1,.434,3.128Z" transform="translate(-1564.555 -468.284)" fill="#263238"/>
          </g>
          <g id="Grupo_135301" data-name="Grupo 135301" transform="translate(22.749)">
            <path id="Trazado_191984" data-name="Trazado 191984" d="M1621.834,453.425c-.04-.011.374-1.635.925-3.627s1.029-3.6,1.069-3.587-.374,1.635-.925,3.627S1621.873,453.436,1621.834,453.425Z" transform="translate(-1621.831 -446.211)" fill="#263238"/>
          </g>
          <g id="Grupo_135302" data-name="Grupo 135302" transform="translate(27.269 6.492)">
            <path id="Trazado_191985" data-name="Trazado 191985" d="M1666.451,513.251a20.891,20.891,0,0,1,1.939-2.953,20.929,20.929,0,0,1-1.939,2.953Z" transform="translate(-1666.449 -510.297)" fill="#263238"/>
          </g>
          <g id="Grupo_135303" data-name="Grupo 135303" transform="translate(28.73 8.511)">
            <path id="Trazado_191986" data-name="Trazado 191986" d="M1686.567,530.234c.024.033-1.231.981-2.8,2.115s-2.868,2.028-2.892,1.994,1.231-.98,2.8-2.115S1686.543,530.2,1686.567,530.234Z" transform="translate(-1680.87 -530.233)" fill="#263238"/>
          </g>
        </g>
      </g>
    </g>
  </g>
</svg>
