<svg xmlns="http://www.w3.org/2000/svg" width="166" height="166" viewBox="0 0 166 166">
  <g id="Grupo_137438" data-name="Grupo 137438" transform="translate(-284.922 -5604)">
    <g id="Elipse_5528" data-name="Elipse 5528" transform="translate(284.922 5604)" fill="#fff" stroke="#aab2d3" stroke-width="3">
      <circle cx="83" cy="83" r="83" stroke="none"/>
      <circle cx="83" cy="83" r="81.5" fill="none"/>
    </g>
    <g id="Grupo_137410" data-name="Grupo 137410" transform="translate(308.794 5656.421)">
      <g id="Grupo_135747" data-name="Grupo 135747" transform="translate(37.168)">
        <path id="Trazado_192259" data-name="Trazado 192259" d="M390.584,296.262H346.7v-59.8h43.879Zm-38.69-5.189h33.5V241.651h-33.5Z" transform="translate(-346.705 -236.462)" fill="#0d2380"/>
      </g>
      <g id="Grupo_135748" data-name="Grupo 135748" transform="translate(52.533 8.249)">
        <path id="Trazado_192260" data-name="Trazado 192260" d="M388.422,268.478A6.575,6.575,0,1,1,395,261.9,6.582,6.582,0,0,1,388.422,268.478Zm0-9.95A3.376,3.376,0,1,0,391.8,261.9,3.379,3.379,0,0,0,388.422,258.528Z" transform="translate(-381.847 -255.329)" fill="#0d2380"/>
      </g>
      <g id="Grupo_135749" data-name="Grupo 135749" transform="translate(53.018 24.945)">
        <rect id="Rectángulo_41458" data-name="Rectángulo 41458" width="18.921" height="5.189" transform="translate(0)" fill="#0d2380"/>
      </g>
      <g id="Grupo_135750" data-name="Grupo 135750" transform="translate(46.277 24.945)">
        <rect id="Rectángulo_41459" data-name="Rectángulo 41459" width="5.052" height="5.189" transform="translate(0)" fill="#0d2380"/>
      </g>
      <g id="Grupo_135751" data-name="Grupo 135751" transform="translate(46.277 35.188)">
        <rect id="Rectángulo_41460" data-name="Rectángulo 41460" width="25.661" height="5.189" transform="translate(0 0)" fill="#0d2380"/>
      </g>
      <g id="Grupo_135752" data-name="Grupo 135752" transform="translate(63.785 45.431)">
        <rect id="Rectángulo_41461" data-name="Rectángulo 41461" width="8.154" height="5.189" transform="translate(0)" fill="#0d2380"/>
      </g>
      <g id="Grupo_135753" data-name="Grupo 135753" transform="translate(46.277 45.431)">
        <rect id="Rectángulo_41462" data-name="Rectángulo 41462" width="15.608" height="5.189" transform="translate(0)" fill="#0d2380"/>
      </g>
      <g id="Grupo_135754" data-name="Grupo 135754" transform="translate(85.919 15.1)">
        <path id="Trazado_192261" data-name="Trazado 192261" d="M490.5,315.013h-32.3V271h32.3Zm-28.477-3.82h24.658V274.818H462.026Z" transform="translate(-458.206 -270.998)" fill="#0d2380"/>
      </g>
      <g id="Grupo_135755" data-name="Grupo 135755" transform="translate(97.228 21.171)">
        <path id="Trazado_192262" data-name="Trazado 192262" d="M488.912,294.563a4.839,4.839,0,1,1,4.839-4.839A4.845,4.845,0,0,1,488.912,294.563Zm0-7.323a2.484,2.484,0,1,0,2.484,2.484A2.487,2.487,0,0,0,488.912,287.24Z" transform="translate(-484.072 -284.885)" fill="#0d2380"/>
      </g>
      <g id="Grupo_135756" data-name="Grupo 135756" transform="translate(97.585 33.46)">
        <rect id="Rectángulo_41463" data-name="Rectángulo 41463" width="13.926" height="3.82" transform="translate(0 0)" fill="#0d2380"/>
      </g>
      <g id="Grupo_135757" data-name="Grupo 135757" transform="translate(92.623 33.46)">
        <rect id="Rectángulo_41464" data-name="Rectángulo 41464" width="3.718" height="3.82" transform="translate(0 0)" fill="#0d2380"/>
      </g>
      <g id="Grupo_135758" data-name="Grupo 135758" transform="translate(92.623 40.999)">
        <rect id="Rectángulo_41465" data-name="Rectángulo 41465" width="18.888" height="3.82" fill="#0d2380"/>
      </g>
      <g id="Grupo_135759" data-name="Grupo 135759" transform="translate(105.51 48.539)">
        <rect id="Rectángulo_41466" data-name="Rectángulo 41466" width="6.002" height="3.82" transform="translate(0 0)" fill="#0d2380"/>
      </g>
      <g id="Grupo_135760" data-name="Grupo 135760" transform="translate(92.623 48.539)">
        <rect id="Rectángulo_41467" data-name="Rectángulo 41467" width="11.488" height="3.82" transform="translate(0 0)" fill="#0d2380"/>
      </g>
      <g id="Grupo_135761" data-name="Grupo 135761" transform="translate(0 15.1)">
        <path id="Trazado_192263" data-name="Trazado 192263" d="M293.991,315.013h-32.3V271h32.3Zm-28.477-3.82h24.658V274.818H265.514Z" transform="translate(-261.694 -270.998)" fill="#0d2380"/>
      </g>
      <g id="Grupo_135762" data-name="Grupo 135762" transform="translate(11.31 21.171)">
        <path id="Trazado_192264" data-name="Trazado 192264" d="M292.4,294.563a4.839,4.839,0,1,1,4.839-4.839A4.845,4.845,0,0,1,292.4,294.563Zm0-7.323a2.484,2.484,0,1,0,2.485,2.484A2.487,2.487,0,0,0,292.4,287.24Z" transform="translate(-287.561 -284.885)" fill="#0d2380"/>
      </g>
      <g id="Grupo_135763" data-name="Grupo 135763" transform="translate(11.666 33.46)">
        <rect id="Rectángulo_41468" data-name="Rectángulo 41468" width="13.926" height="3.82" transform="translate(0 0)" fill="#0d2380"/>
      </g>
      <g id="Grupo_135764" data-name="Grupo 135764" transform="translate(6.705 33.46)">
        <rect id="Rectángulo_41469" data-name="Rectángulo 41469" width="3.718" height="3.82" transform="translate(0 0)" fill="#0d2380"/>
      </g>
      <g id="Grupo_135765" data-name="Grupo 135765" transform="translate(6.705 40.999)">
        <rect id="Rectángulo_41470" data-name="Rectángulo 41470" width="18.888" height="3.82" transform="translate(0)" fill="#0d2380"/>
      </g>
      <g id="Grupo_135766" data-name="Grupo 135766" transform="translate(19.591 48.539)">
        <rect id="Rectángulo_41471" data-name="Rectángulo 41471" width="6.002" height="3.82" transform="translate(0 0)" fill="#0d2380"/>
      </g>
      <g id="Grupo_135767" data-name="Grupo 135767" transform="translate(6.705 48.539)">
        <rect id="Rectángulo_41472" data-name="Rectángulo 41472" width="11.488" height="3.82" transform="translate(0 0)" fill="#0d2380"/>
      </g>
    </g>
  </g>
</svg>
