<svg xmlns="http://www.w3.org/2000/svg" width="440.094" height="268.176" viewBox="0 0 440.094 268.176">
  <g id="Grupo_137443" data-name="Grupo 137443" transform="translate(-794.422 -1398)">
    <g id="Grupo_134262" data-name="Grupo 134262" transform="translate(62.197 -53.635)">
      <g id="Grupo_134261" data-name="Grupo 134261" transform="translate(732.225 1451.634)">
        <path id="Trazado_191054" data-name="Trazado 191054" d="M318.149,123.624c68.349-3.966,140.01,16.693,129.476,46.64s56.315-10.637,82.993.16c18.993,7.687,11.4,31.088,20.589,40.517,21.068,21.62,42.614-5.6,69.427,10.73S592.55,390.461,564.539,391.312l-319.486-1.941-22.927-2.06s-63.42-34.679-18.053-66.671c30.675-21.631,8.6-37.34,5.267-47.243-3.831-11.37-12.768-31.228,26.175-45.8s28.888-46.282,27.93-52.848-13.645-47.158,54.7-51.124Z" transform="translate(-187.72 -123.136)" fill="#9bc1f9" opacity="0.1"/>
        <g id="Grupo_134260" data-name="Grupo 134260" transform="translate(74.377 23.88)">
          <path id="Trazado_191055" data-name="Trazado 191055" d="M1701.17,298.184s-1.226-13.675-2.817-15.764-8.889.2-11.847-1.078-5.713-3.42-8.91-.547-8.94,14.01-8.94,14.01Z" transform="translate(-1516.674 -279.367)" fill="#5167c4"/>
          <path id="Trazado_191056" data-name="Trazado 191056" d="M1596.72,371.832c-.5,4.6,11.106,9.77,25.934,11.554s27.258-.5,27.763-5.092-11.106-9.77-25.934-11.554S1597.225,367.236,1596.72,371.832Z" transform="translate(-1455.72 -352.871)" fill="#8c9df4"/>
          <path id="Trazado_191057" data-name="Trazado 191057" d="M1343.92,629.08s30.387,18.774,33.88,17.989,35.384-25.886,35.384-25.886,13.353-7.576,22.252-4.031c7.734,3.08-.636,7.9-.075,13.89A17.432,17.432,0,0,1,1425.8,648.2c-14.365,7.232-33.33,21-50.907,19.3-14.923-1.442-33.907-31.785-33.907-31.785Z" transform="translate(-1239.084 -564.722)" fill="#6980e0"/>
          <path id="Trazado_191058" data-name="Trazado 191058" d="M1467.911,1196.811c5.567,6.415,17.308,10.563,39.961,11.614q2.727.129,5.486.212,2.84.087,5.684.123c6.156.086,12.282.015,18.121-.181,5.659-.194,11.05-.5,15.934-.91,9.553-.793,17.18-1.95,21.119-3.275a7.549,7.549,0,0,0,2.5-1.23,4.337,4.337,0,0,0,.979-1.265c1.43-2.651.683-6.992-1.043-11.78-2.517-6.967-7.135-14.867-10.244-19.811-.624-.988-1.18-1.852-1.652-2.573-.948-1.452-1.538-2.3-1.538-2.3s-10.581.982-25.067,2.859c-2.955.381-5.987,2.146-9.211,2.6-31.146,4.4-62.271,10.98-62.24,21.485C1466.7,1193.981,1466.6,1195.3,1467.911,1196.811Z" transform="translate(-1345.586 -1030.001)" fill="#2b478b"/>
          <path id="Trazado_191059" data-name="Trazado 191059" d="M1726.947,1324.826c1.893.057,10.669.436,12.565.462,6.156.086,12.282.015,18.121-.181l5.49-22.119C1754.631,1314.83,1729.677,1324.062,1726.947,1324.826Z" transform="translate(-1566.055 -1146.528)" fill="#2c3a64"/>
          <path id="Trazado_191060" data-name="Trazado 191060" d="M1679.627,1748.314h-30.194c.475-1.15,1.626-2.648,4.429-3.139,4.756-.834,13.012-3.406,11.953-10.271-1.073-6.958,10.51-7.855,10.51-7.855S1681.143,1745.666,1679.627,1748.314Z" transform="translate(-1500.389 -1505.773)" fill="#192647"/>
          <path id="Trazado_191061" data-name="Trazado 191061" d="M1471.422,1305.619s37.457,58.928,40.572,65.931c0,0,12.745,1.187,15.811-7.918,0,0-22.266-62.188-32.052-67.313S1471.422,1305.619,1471.422,1305.619Z" transform="translate(-1349.587 -1139.947)" fill="#2b478b"/>
          <path id="Trazado_191062" data-name="Trazado 191062" d="M2464.127,1704.774s3.764,5.987,4.639,7.926-.841,6.068-3.423,6.69c-2.275.547-2.616,4.778-2.616,4.778h11.033a2.9,2.9,0,0,0,2.672-1.713c1.556-3.59,1.912-8.257,2.225-9.819.657-3.282,1.962-6.037,1.386-9.381s-6.009-5.26-15.916-5.229C2453.244,1698.063,2464.127,1704.774,2464.127,1704.774Z" transform="translate(-2186.461 -1481.188)" fill="#192647"/>
          <g id="Grupo_134258" data-name="Grupo 134258" transform="translate(149.267 16.03)">
            <path id="Trazado_191063" data-name="Trazado 191063" d="M1826.068,455.377s-12.9,17.653-24.4,18.6a35.3,35.3,0,0,1,2.671-7.374,7.775,7.775,0,0,0-.135-7.375l-.058-.1a67.934,67.934,0,0,1-3.26-6.394l5.288-9.569,1.092-5.143a34.727,34.727,0,0,0,3.109,6.481A24.5,24.5,0,0,0,1826.068,455.377Z" transform="translate(-1777.964 -429.798)" fill="#ffb27d"/>
            <path id="Trazado_191064" data-name="Trazado 191064" d="M1810.468,472.519s2.286,8.595-6.318,14.47a67.93,67.93,0,0,1-3.26-6.394l5.288-9.569C1810.4,470.4,1810.468,472.519,1810.468,472.519Z" transform="translate(-1777.964 -457.663)" fill="#ed975d"/>
            <path id="Trazado_191065" data-name="Trazado 191065" d="M1706.737,398.218a9.174,9.174,0,0,1-.068.959c-.025.162-.049.323-.083.484-.866,4.614-5.27,8.532-8.385,10.788a32.7,32.7,0,0,1-3.186,2.06c-4.354,2.035-15.65-13.733-16.722-17.524-.025-.089-.048-.176-.073-.269a11.493,11.493,0,0,1-.391-2.255c-.152-2.417.665-5.152,4.286-8.033a51.207,51.207,0,0,1,10.8.234,54.733,54.733,0,0,1,8.752,1.757c1.174,2.143,2.393,4.638,3.885,7.285a9.409,9.409,0,0,1,.856,2.016A8.125,8.125,0,0,1,1706.737,398.218Z" transform="translate(-1673.697 -384.242)" fill="#ffb27d"/>
            <path id="Trazado_191066" data-name="Trazado 191066" d="M1686.895,390.322a12.564,12.564,0,0,1-.529,4.256c-.015.034-.024.068-.039.1-2.093,5.618-2.544,4.985-2.544,4.985s-2.133-3.238-2.349-3.508a3.383,3.383,0,0,1-.782-1.7,9.586,9.586,0,0,0-.416-1.893c-.01-.034-.024-.068-.034-.1-.616-1.806-1.737-3.244-2.94-2.006-1.639,1.684-.46,3-2.27,2.7s-5.1-6.36-9.575-5.03c-2.832.837-5.6,3.628-8.033,5.362-2.375,1.7-7.729-.866-6.228-4.217a11.611,11.611,0,0,1,3.116-3.86,22.829,22.829,0,0,1,5.039-.983,51.209,51.209,0,0,1,10.8.234,54.733,54.733,0,0,1,8.752,1.757C1682.55,387.5,1685.412,388.889,1686.895,390.322Z" transform="translate(-1650.895 -384.242)" fill="#2b478b"/>
          </g>
          <path id="Trazado_191067" data-name="Trazado 191067" d="M1900.4,1232.307s6.091.8,18.374,1.707c12.729.943,26.222,2.95,28.414,7.226.726,1.416.22,5-1.2,9.951-3.139,10.946-10.747,28.571-19.433,44.2,22.315,1.292,52.673,6.217,52.673,6.217a13.356,13.356,0,0,1,2.885,12.186c-1.593.013-6.38.689-12.916,1.744-23.677,3.811-52.512,11.648-70.394,11.648-3.911,0-6.837-2.778-8.028-6.408v0C1883.434,1298.411,1900.4,1232.307,1900.4,1232.307Z" transform="translate(-1703.284 -1086.652)" fill="#2b478b"/>
          <path id="Trazado_191068" data-name="Trazado 191068" d="M1863.978,648.419c-8.32,8.817-69.417-9.423-64.3-14.071,1.3-1.181-1.125-28.951-3.289-34.934-.506-1.387-.853-2.263-.918-2.441a104.793,104.793,0,0,1-4.708-17.016c-2.015-10.78-2.413-20.755.342-26.9.019-.033,4.128-8.034,4.147-8.057,11.445-3.345,14.078-12.261,14.078-12.261s36.257,10.3,49.417,62.034c0,0,.679,3.3,1.518,8.25h0c.254,1.518.525,3.2.8,4.98,1.406,9.206,2.221,21.012,3.055,29.8.033.3.061.614.093.932C1864.634,642.53,1865.36,646.953,1863.978,648.419Z" transform="translate(-1618.749 -494.015)" fill="#a9baff"/>
          <path id="Trazado_191069" data-name="Trazado 191069" d="M1760.448,634.116s-.252,55.768-11.276,79.186l2.727,6.842,7.371-4.817s18.415-41.519,3.46-81.2Z" transform="translate(-1584.883 -579.893)" fill="#2b478b"/>
          <path id="Trazado_191070" data-name="Trazado 191070" d="M1866.821,532.743s-10.263,12.38-9.8,21.478,19.143,49.529,20.543,73.2,1.827,64.759,1.827,64.759,20.583,7.937,49.064,0C1928.459,692.182,1941.688,558.807,1866.821,532.743Z" transform="translate(-1676.238 -494.015)" fill="#8c9df4"/>
          <g id="Grupo_134259" data-name="Grupo 134259" transform="translate(0 40.333)">
            <path id="Trazado_191071" data-name="Trazado 191071" d="M1298.869,1028.893l79.548,42.954a3.181,3.181,0,0,0,4.316-1.5l2.662-5.265a3.4,3.4,0,0,0-1.273-4.519l-79.7-43.031c-1.537-.831-2.187.49-3.024,2.145l-2.663,5.264C1297.9,1026.6,1297.332,1028.063,1298.869,1028.893Z" transform="translate(-1202.591 -944.824)" fill="#1f4d84"/>
            <path id="Trazado_191072" data-name="Trazado 191072" d="M1589.5,1184.65l35.828,19.367a3.242,3.242,0,0,0,4.432-1.435l2.662-5.265a3.461,3.461,0,0,0-1.388-4.581l-35.828-19.367Z" transform="translate(-1449.614 -1077.055)" fill="#8c9df4"/>
            <path id="Trazado_191073" data-name="Trazado 191073" d="M702.547,645.78c25.73,13.909,57.5,3.617,70.955-22.985a55.6,55.6,0,0,0,5.953-27.254c-.709-18.825-10.88-36.748-28.187-46.1-25.732-13.908-57.5-3.615-70.95,22.986-.175.351-.352.7-.516,1.057C667.13,599.893,677.155,632.055,702.547,645.78Zm-19.33-71.787A50,50,0,0,1,703,553.033a47.84,47.84,0,0,1,46.756-.592c24.133,13.044,33.466,43.842,20.849,68.788a49.262,49.262,0,0,1-38.728,27.1,47.738,47.738,0,0,1-27.807-5.551C679.936,629.736,670.6,598.939,683.218,573.993Z" transform="translate(-674.324 -543.244)" fill="#163560"/>
            <path id="Trazado_191074" data-name="Trazado 191074" d="M722.206,661.54a47.687,47.687,0,0,0,27.807,5.549,49.256,49.256,0,0,0,38.728-27.1,52.285,52.285,0,0,0,4.161-35.882,50.6,50.6,0,0,0-25.011-32.9,47.819,47.819,0,0,0-46.754.592,49.477,49.477,0,0,0-6.907,4.774,50.541,50.541,0,0,0-12.871,16.184C688.744,617.7,698.077,648.5,722.206,661.54Z" transform="translate(-692.465 -562.006)" fill="#b3cff9"/>
          </g>
          <path id="Trazado_191075" data-name="Trazado 191075" d="M1344.416,1090.9c3.771,0,10.8-3.44,11.431-3.5,5.375-.516.191-5.8.191-5.8s-8.448-1.856-9.864-1.748a15.325,15.325,0,0,0-2.063.395l.908,2.168s-5.888.894-5.962,2.531S1342.564,1090.9,1344.416,1090.9Z" transform="translate(-1237.453 -957.486)" fill="#ffb27d"/>
          <path id="Trazado_191076" data-name="Trazado 191076" d="M1817.481,609.673l-2.693-.627-.313,3.68s1.144,3.8,2.353,3.809c.726,0,2.658-2.233,3.827-3.23C1823.771,610.645,1817.481,609.673,1817.481,609.673Z" transform="translate(-1640.205 -558.655)" fill="#1f3d77"/>
          <path id="Trazado_191077" data-name="Trazado 191077" d="M1837.048,517.183s-3.108,11.654-10.479,14.4c0,0-.34,1.935,1.542,4.915,0,0,9.019-2.548,13.018-9.371s3.529-7.585,3.529-7.585A10.587,10.587,0,0,0,1837.048,517.183Z" transform="translate(-1650.429 -480.811)" fill="#a9baff"/>
          <path id="Trazado_191078" data-name="Trazado 191078" d="M1808.669,584.464s.736-1.889-.788-4.693c0,0-5.923,6.308-.953,11.964C1806.928,591.735,1806.251,586.814,1808.669,584.464Z" transform="translate(-1632.129 -533.855)" fill="#a9baff"/>
          <path id="Trazado_191079" data-name="Trazado 191079" d="M1436.721,676.117c-1.294-3.744.51-4.912.51-4.912s36.89-17.494,39.907-19.421,23.3-38.863,23.3-38.863,7.518-15.1,17.094-14.8c8.32.264,12.944,5.451,15.509,10.889a17.435,17.435,0,0,1-3.154,19.386c-11.046,11.69-33.229,34.836-38.976,38.349-12.791,7.82-51.12,14.144-51.12,14.144A12.475,12.475,0,0,1,1436.721,676.117Z" transform="translate(-1319.793 -549.396)" fill="#8c9df4"/>
        </g>
      </g>
    </g>
  </g>
</svg>
