<svg xmlns="http://www.w3.org/2000/svg" width="166" height="166" viewBox="0 0 166 166">
  <g id="Grupo_137445" data-name="Grupo 137445" transform="translate(-306.922 -6497)">
    <g id="Grupo_137443" data-name="Grupo 137443">
      <g id="Grupo_137417" data-name="Grupo 137417" transform="translate(2231.922 11462)">
        <g id="Elipse_5457" data-name="Elipse 5457" transform="translate(-1925 -4965)" fill="#fff" stroke="#aab2d3" stroke-width="3">
          <circle cx="83" cy="83" r="83" stroke="none"/>
          <circle cx="83" cy="83" r="81.5" fill="none"/>
        </g>
        <g id="Grupo_135832" data-name="Grupo 135832" transform="translate(-1889.953 -4914.019)">
          <g id="Grupo_135827" data-name="Grupo 135827" transform="translate(0 0)">
            <g id="Grupo_135824" data-name="Grupo 135824">
              <path id="Trazado_192300" data-name="Trazado 192300" d="M1013.388,283.479a1.86,1.86,0,0,1-1.86-1.858v-6.734A8.9,8.9,0,0,0,1002.2,266l-.07,0-52.021.138H950.1a2.155,2.155,0,0,1-1.513-3.689c.023-.023.047-.045.072-.066l23.5-20.414a10.116,10.116,0,0,1,7.11-2.9h46.431a13.61,13.61,0,0,1,9.623,23.233l-20.629,20.63A1.853,1.853,0,0,1,1013.388,283.479ZM1002.648,262.9a11.985,11.985,0,0,1,11.966,11.985v3.773l18.535-18.536a10.525,10.525,0,0,0-7.443-17.968H979.275a7.052,7.052,0,0,0-4.98,2.043c-.023.023-.047.045-.072.066L952.6,263.045l49.487-.131Q1002.369,262.9,1002.648,262.9Z" transform="translate(-947.948 -239.071)" fill="#0d2380"/>
            </g>
            <g id="Grupo_135825" data-name="Grupo 135825" transform="translate(0.303 39.337)">
              <path id="Trazado_192301" data-name="Trazado 192301" d="M1010.9,359.682h-60.53a1.542,1.542,0,0,1,0-3.084h60.53c.953,0,1.186-.2,1.188-.206a.959.959,0,0,0,.017-.189v-.811a1.542,1.542,0,1,1,3.084,0v.811C1015.195,357.019,1014.885,359.682,1010.9,359.682Z" transform="translate(-948.833 -353.85)" fill="#0d2380"/>
            </g>
            <g id="Grupo_135826" data-name="Grupo 135826" transform="translate(6.137 33.341)">
              <path id="Trazado_192302" data-name="Trazado 192302" d="M1012.042,339.439H967.4a1.542,1.542,0,0,1,0-3.084h44.646a1.542,1.542,0,0,1,0,3.084Z" transform="translate(-965.854 -336.355)" fill="#0d2380"/>
            </g>
          </g>
          <g id="Grupo_135831" data-name="Grupo 135831" transform="translate(1.707 19.182)">
            <g id="Grupo_135828" data-name="Grupo 135828" transform="translate(4.525)">
              <path id="Trazado_192303" data-name="Trazado 192303" d="M1030.957,338.5a1.86,1.86,0,0,1-1.859-1.859v-6.734a8.9,8.9,0,0,0-9.328-8.89l-.07,0-52.02.138h0a1.542,1.542,0,0,1,0-3.084l51.987-.138a11.985,11.985,0,0,1,12.524,11.972v3.773l18.536-18.536A10.528,10.528,0,0,0,1047.371,298a1.542,1.542,0,1,1,1.2-2.841,13.613,13.613,0,0,1,4.326,22.163l-20.63,20.63A1.853,1.853,0,0,1,1030.957,338.5Z" transform="translate(-966.133 -295.04)" fill="#0d2380"/>
            </g>
            <g id="Grupo_135829" data-name="Grupo 135829" transform="translate(0 38.389)">
              <path id="Trazado_192304" data-name="Trazado 192304" d="M1019.214,412.885H954.472a1.542,1.542,0,0,1,0-3.084h64.742c.953,0,1.186-.2,1.188-.206a.953.953,0,0,0,.017-.189V408.6a1.542,1.542,0,0,1,3.084,0v.811C1023.5,410.222,1023.195,412.885,1019.214,412.885Z" transform="translate(-952.93 -407.053)" fill="#0d2380"/>
            </g>
            <g id="Grupo_135830" data-name="Grupo 135830" transform="translate(5.833 32.393)">
              <path id="Trazado_192305" data-name="Trazado 192305" d="M1020.352,392.643H971.493a1.542,1.542,0,0,1,0-3.084h48.858a1.542,1.542,0,0,1,0,3.084Z" transform="translate(-969.951 -389.559)" fill="#0d2380"/>
            </g>
          </g>
        </g>
      </g>
    </g>
  </g>
</svg>
