<svg xmlns="http://www.w3.org/2000/svg" width="166" height="166" viewBox="0 0 166 166">
  <g id="Grupo_137440" data-name="Grupo 137440" transform="translate(1957.348 5435.669)">
    <g id="Grupo_137439" data-name="Grupo 137439">
      <g id="Elipse_5326" data-name="Elipse 5326" transform="translate(-1957.348 -5435.669)" fill="#fff" stroke="#aab2d3" stroke-width="3">
        <circle cx="83" cy="83" r="83" stroke="none"/>
        <circle cx="83" cy="83" r="81.5" fill="none"/>
      </g>
      <g id="Grupo_135792" data-name="Grupo 135792" transform="translate(-1926.829 -5383.503)">
        <g id="Grupo_135769" data-name="Grupo 135769" transform="translate(5.786 19.511)">
          <path id="Trazado_192265" data-name="Trazado 192265" d="M615.5,317.7l1.4-3.121V306.1a13.325,13.325,0,0,1,2.592-7.9l9.157-12.448,10.463-6.976,2.668,23.681-1.75,13.2-8.22,8.955Z" transform="translate(-614.814 -277.883)" fill="#fff"/>
          <path id="Trazado_192266" data-name="Trazado 192266" d="M630.633,323.522l-17.128-7.268,1.569-3.5v-8.366a13.748,13.748,0,0,1,2.692-8.2l9.211-12.522,11.243-7.5,2.77,24.584-.008.063-1.772,13.363Zm-15.757-7.807,15.489,6.573,7.864-8.567,1.721-12.978-2.566-22.778-9.684,6.456L618.6,296.8a12.726,12.726,0,0,0-2.492,7.591v8.587Z" transform="translate(-613.505 -276.168)" fill="#0d2380"/>
        </g>
        <g id="Grupo_135770" data-name="Grupo 135770" transform="translate(17.171)">
          <path id="Rectángulo_41473" data-name="Rectángulo 41473" d="M20.824,0H54.548A20.826,20.826,0,0,1,75.375,20.826V35.285A20.824,20.824,0,0,1,54.55,56.11H20.824A20.824,20.824,0,0,1,0,35.285V20.824A20.824,20.824,0,0,1,20.824,0Z" transform="translate(0.688 0.688)" fill="#fff"/>
          <path id="Trazado_192267" data-name="Trazado 192267" d="M715.521,276.9H654.467a7.856,7.856,0,0,1-7.848-7.847v-41.79a7.856,7.856,0,0,1,7.848-7.847h61.054a7.856,7.856,0,0,1,7.848,7.847v41.79A7.856,7.856,0,0,1,715.521,276.9Zm-61.054-56.11a6.48,6.48,0,0,0-6.473,6.472v41.79a6.48,6.48,0,0,0,6.473,6.472h61.054a6.48,6.48,0,0,0,6.473-6.472v-41.79a6.48,6.48,0,0,0-6.473-6.472Z" transform="translate(-646.619 -219.418)" fill="#0d2380"/>
        </g>
        <g id="Grupo_135771" data-name="Grupo 135771" transform="translate(20.843 3.359)">
          <path id="Trazado_192268" data-name="Trazado 192268" d="M665.251,236.689H664.8V282.3h61.922v-45.61Z" transform="translate(-662.22 -234.11)" fill="#fff"/>
          <path id="Trazado_192269" data-name="Trazado 192269" d="M724.378,279.955H657.3V229.188h67.079ZM662.456,274.8h56.765V234.345H662.456Z" transform="translate(-657.299 -229.188)" fill="#0d2380"/>
        </g>
        <g id="Grupo_135772" data-name="Grupo 135772" transform="translate(86.573 26.083)">
          <path id="Trazado_192270" data-name="Trazado 192270" d="M853.8,297.944a2.659,2.659,0,1,1-2.659-2.659A2.659,2.659,0,0,1,853.8,297.944Z" transform="translate(-848.485 -295.285)" fill="#0d2380"/>
        </g>
        <g id="Grupo_135773" data-name="Grupo 135773" transform="translate(18.891 26.594)">
          <path id="Trazado_192271" data-name="Trazado 192271" d="M655.919,298.918a2.149,2.149,0,1,1-2.149-2.149A2.149,2.149,0,0,1,655.919,298.918Z" transform="translate(-651.622 -296.769)" fill="#0d2380"/>
        </g>
        <g id="Grupo_135780" data-name="Grupo 135780" transform="translate(0 36.782)">
          <g id="Grupo_135774" data-name="Grupo 135774" transform="translate(11.909)">
            <path id="Trazado_192272" data-name="Trazado 192272" d="M655.884,331.971c0,.027,0,.055,0,.085a1.985,1.985,0,0,1-.016.253,2.539,2.539,0,0,1-.431,1.1c-.028.042-.059.083-.089.121a3.086,3.086,0,0,1-2.137,1.165h-7.539l-2.837,11.565.816,4.406,2.745-.551-7.784,3.3-5.689-6.793,3.487-18.725h6.426l7.149,1.192.825.138,4.123.689A3.039,3.039,0,0,1,655.884,331.971Z" transform="translate(-632.368 -327.388)" fill="#fff"/>
            <path id="Trazado_192273" data-name="Trazado 192273" d="M637.405,353.062l-6.091-7.272,3.61-19.385,6.939.007,12.249,2.045.113.1a3.534,3.534,0,0,1,1.122,2.423v.028l0,.062a2.48,2.48,0,0,1-.021.32,3.029,3.029,0,0,1-.519,1.328c-.028.043-.069.1-.108.148a3.6,3.6,0,0,1-2.487,1.357l-.054,0h-7.135l-2.715,11.064.7,3.782,7.188-1.443Zm-4.988-7.562,5.288,6.314,4.412-1.873-.866-4.677.026-.108,2.933-11.957h7.916a2.564,2.564,0,0,0,1.754-.962,1.134,1.134,0,0,0,.068-.091,2.022,2.022,0,0,0,.352-.888,1.467,1.467,0,0,0,.012-.183c0-.035,0-.068,0-.1a2.456,2.456,0,0,0-.686-1.552l-11.893-1.985h-5.955Z" transform="translate(-631.315 -326.404)" fill="#0d2380"/>
          </g>
          <g id="Grupo_135775" data-name="Grupo 135775" transform="translate(3.725 19.293)">
            <path id="Trazado_192274" data-name="Trazado 192274" d="M609.423,389.17l2.089-4.549,16.949,9.45-2.81,5.24Z" transform="translate(-608.765 -383.899)" fill="#fff"/>
            <path id="Trazado_192275" data-name="Trazado 192275" d="M624.589,398.663l-17.081-10.674,2.511-5.468L627.9,392.49ZM608.825,387.6,624.2,397.2l2.309-4.307-16.019-8.932Z" transform="translate(-607.509 -382.521)" fill="#0d2380"/>
          </g>
          <g id="Grupo_135778" data-name="Grupo 135778" transform="translate(0 21.769)">
            <g id="Grupo_135776" data-name="Grupo 135776">
              <path id="Trazado_192276" data-name="Trazado 192276" d="M613.8,398.355l-2.911,5.671c-4.342-2.533-8.826-5.051-12.129-6.8l3.217-5.474Z" transform="translate(-598.044 -391.052)" fill="#fff"/>
              <path id="Trazado_192277" data-name="Trazado 192277" d="M609.732,403.417l-.47-.274c-4.417-2.576-8.831-5.052-12.111-6.794l-.476-.252,3.745-6.374,12.7,7.1Zm-11.622-7.726c3.115,1.666,7.141,3.925,11.2,6.287l2.435-4.745L600.8,391.115Z" transform="translate(-596.675 -389.723)" fill="#0d2380"/>
            </g>
            <g id="Grupo_135777" data-name="Grupo 135777" transform="translate(12.164 6.592)">
              <path id="Trazado_192278" data-name="Trazado 192278" d="M644.055,414.938l-2.911,5.931c-2.147-1.321-4.6-2.777-7.1-4.232l2.911-5.671Z" transform="translate(-633.359 -410.255)" fill="#fff"/>
              <path id="Trazado_192279" data-name="Trazado 192279" d="M640.054,420.249l-.483-.3c-1.971-1.213-4.358-2.635-7.092-4.225l-.423-.246,3.378-6.582,8,4.472Zm-6.634-5.168c2.348,1.369,4.433,2.61,6.208,3.7l2.445-4.983-6.21-3.473Z" transform="translate(-632.056 -408.898)" fill="#0d2380"/>
            </g>
          </g>
          <g id="Grupo_135779" data-name="Grupo 135779" transform="translate(29.673 1.269)">
            <path id="Trazado_192280" data-name="Trazado 192280" d="M689.719,334.511c0,.027,0,.055,0,.085-.005.049-.008.1-.014.152a2.678,2.678,0,0,1-.367,1.065,11.2,11.2,0,0,1-1.892-.267c-3.555-1.148-3.017-3.222-2.8-3.772l4.123.689A3.038,3.038,0,0,1,689.719,334.511Z" transform="translate(-683.966 -331.196)" fill="#fff"/>
            <path id="Trazado_192281" data-name="Trazado 192281" d="M688.629,335.252l-.319-.027a10.583,10.583,0,0,1-2.008-.29,4.769,4.769,0,0,1-3.054-2.224,2.84,2.84,0,0,1-.07-2.225l.152-.391,4.688.783.113.1a3.534,3.534,0,0,1,1.122,2.423v.028l-.02.266a3.222,3.222,0,0,1-.438,1.28Zm-4.594-3.994a1.734,1.734,0,0,0,.144,1.009,3.888,3.888,0,0,0,2.441,1.686,8,8,0,0,0,1.433.213,2.18,2.18,0,0,0,.155-.582l.01-.114c0-.026,0-.052,0-.076a2.456,2.456,0,0,0-.686-1.552Z" transform="translate(-682.983 -330.094)" fill="#0d2380"/>
          </g>
        </g>
        <g id="Grupo_135791" data-name="Grupo 135791" transform="translate(32.787 21.587)">
          <g id="Grupo_135781" data-name="Grupo 135781" transform="translate(0 0)">
            <path id="Trazado_192282" data-name="Trazado 192282" d="M698.463,282.206a8.763,8.763,0,0,1,2.377,1.064c.224.2.764.344.37.773-.305.332-.5.963-1.259.467a3.9,3.9,0,0,0-6.017,2.1,4,4,0,0,0,5.239,4.946,3,3,0,0,0,1.964-1.969c.174-.53.151-.865-.567-.819-.773.049-1.552-.018-2.326.017-.635.029-.571-.371-.59-.783-.021-.457.1-.685.619-.674,1.283.027,2.568.034,3.85,0,.589-.017.715.252.74.76a5,5,0,0,1-6.391,5.089,5.537,5.537,0,0,1-4.1-3.691c-.089-.243-.078-.535-.327-.7v-1.924a5.713,5.713,0,0,1,1.263-3.076,4.79,4.79,0,0,1,3.254-1.493c.156-.011.323.036.46-.082Z" transform="translate(-692.04 -282.206)" fill="#0d2380"/>
          </g>
          <g id="Grupo_135782" data-name="Grupo 135782" transform="translate(26.9 4.033)">
            <path id="Trazado_192283" data-name="Trazado 192283" d="M777.086,297.874c0,1.041.046,2.084-.011,3.122a3.105,3.105,0,0,1-2.185,3.039,3.441,3.441,0,0,1-3.829-1.106c-.188-.246-.7-.585-.187-.9.374-.23.861-.733,1.351,0a1.807,1.807,0,0,0,2.141.674,1.707,1.707,0,0,0,1.224-1.616c.028-.206.113-.458-.081-.6s-.333.095-.49.174a3.177,3.177,0,0,1-3.95-.94,3.617,3.617,0,0,1,.009-4.519,3.151,3.151,0,0,1,4.013-.893c.233.123.35.3.608-.077.247-.36.8-.2,1.193-.1.33.082.2.452.2.7.015,1.014.006,2.028.006,3.043Z" transform="translate(-770.282 -293.936)" fill="#0d2380"/>
          </g>
          <g id="Grupo_135783" data-name="Grupo 135783" transform="translate(19.143 4.012)">
            <path id="Trazado_192284" data-name="Trazado 192284" d="M751.232,300.964a3.545,3.545,0,1,1,3.643-3.472A3.5,3.5,0,0,1,751.232,300.964Z" transform="translate(-747.719 -293.876)" fill="#0d2380"/>
          </g>
          <g id="Grupo_135784" data-name="Grupo 135784" transform="translate(11.441 4.016)">
            <path id="Trazado_192285" data-name="Trazado 192285" d="M728.883,300.962a3.484,3.484,0,0,1-3.564-3.536,3.571,3.571,0,0,1,7.143.014A3.486,3.486,0,0,1,728.883,300.962Z" transform="translate(-725.319 -293.886)" fill="#0d2380"/>
          </g>
          <g id="Grupo_135785" data-name="Grupo 135785" transform="translate(36.784 4.015)">
            <path id="Trazado_192286" data-name="Trazado 192286" d="M802.539,300.961a3.382,3.382,0,0,1-3.246-2.171,3.708,3.708,0,0,1,.87-4.053,3.231,3.231,0,0,1,5.184,1.188c.18.44.106.688-.346.868q-1.747.7-3.475,1.443c-.621.267-.645.537-.127.958a1.974,1.974,0,0,0,2.506-.139c.266-.208.47-.381.841-.17.739.42.789.671.147,1.232A3.322,3.322,0,0,1,802.539,300.961Z" transform="translate(-799.032 -293.886)" fill="#0d2380"/>
          </g>
          <g id="Grupo_135786" data-name="Grupo 135786" transform="translate(34.676 0.47)">
            <path id="Trazado_192287" data-name="Trazado 192287" d="M794.351,288.84c0,1.467-.013,2.935.007,4.4.007.518-.121.783-.712.778-.554-.005-.748-.191-.745-.746q.027-4.482,0-8.964c0-.563.208-.73.753-.737.6-.008.71.276.7.785C794.339,285.852,794.351,287.346,794.351,288.84Z" transform="translate(-792.901 -283.573)" fill="#0d2380"/>
          </g>
          <g id="Grupo_135787" data-name="Grupo 135787" transform="translate(28.454 5.433)">
            <path id="Trazado_192288" data-name="Trazado 192288" d="M778.668,300.166a1.963,1.963,0,0,1-1.913,2.121,2.066,2.066,0,0,1-1.953-2.127,2.044,2.044,0,0,1,2-2.151A1.953,1.953,0,0,1,778.668,300.166Z" transform="translate(-774.803 -298.009)" fill="#fff"/>
          </g>
          <g id="Grupo_135788" data-name="Grupo 135788" transform="translate(20.716 5.433)">
            <path id="Trazado_192289" data-name="Trazado 192289" d="M756.3,300.166a2.01,2.01,0,1,1-4.006-.094,2.006,2.006,0,1,1,4.006.094Z" transform="translate(-752.297 -298.008)" fill="#fff"/>
          </g>
          <g id="Grupo_135789" data-name="Grupo 135789" transform="translate(13.015 5.442)">
            <path id="Trazado_192290" data-name="Trazado 192290" d="M733.89,300.171a2,2,0,1,1-3.994-.067,2,2,0,1,1,3.994.067Z" transform="translate(-729.895 -298.035)" fill="#fff"/>
          </g>
          <g id="Grupo_135790" data-name="Grupo 135790" transform="translate(38.41 5.409)">
            <path id="Trazado_192291" data-name="Trazado 192291" d="M806.665,298.474a.348.348,0,0,1-.229.349c-.738.312-1.475.627-2.22.921-.279.11-.506.023-.445-.326a1.7,1.7,0,0,1,1.063-1.313,1.588,1.588,0,0,1,1.6.1A1.2,1.2,0,0,1,806.665,298.474Z" transform="translate(-803.761 -297.938)" fill="#fff"/>
          </g>
        </g>
      </g>
    </g>
  </g>
</svg>
