<svg xmlns="http://www.w3.org/2000/svg" width="166" height="166" viewBox="0 0 166 166">
  <g id="Grupo_137444" data-name="Grupo 137444" transform="translate(-306.922 -6269)">
    <g id="Grupo_137442" data-name="Grupo 137442">
      <g id="Grupo_137416" data-name="Grupo 137416" transform="translate(2602.922 11234)">
        <g id="Elipse_5456" data-name="Elipse 5456" transform="translate(-2296 -4965)" fill="#fff" stroke="#aab2d3" stroke-width="3">
          <circle cx="83" cy="83" r="83" stroke="none"/>
          <circle cx="83" cy="83" r="81.5" fill="none"/>
        </g>
        <g id="Grupo_135823" data-name="Grupo 135823" transform="translate(-2258.997 -4924.987)">
          <g id="Grupo_135815" data-name="Grupo 135815" transform="translate(11.816 61.579)">
            <rect id="Rectángulo_41487" data-name="Rectángulo 41487" width="6.241" height="3.596" fill="#0d2380"/>
          </g>
          <g id="Grupo_135816" data-name="Grupo 135816" transform="translate(19.617 17.885)">
            <path id="Trazado_192297" data-name="Trazado 192297" d="M331.728,614.933H259.286v-3.6h68.846V567.643h3.6Z" transform="translate(-259.286 -567.643)" fill="#0d2380"/>
          </g>
          <g id="Grupo_135817" data-name="Grupo 135817">
            <path id="Trazado_192298" data-name="Trazado 192298" d="M202.293,571.687H192.233V506.512h92.059v16.129h-3.6V510.108H195.828v57.983h6.465Z" transform="translate(-192.233 -506.512)" fill="#0d2380"/>
          </g>
          <g id="Grupo_135818" data-name="Grupo 135818" transform="translate(24.044 74.304)">
            <path id="Trazado_192299" data-name="Trazado 192299" d="M318.387,772.5H274.416V760.484h12.737v3.6h-9.142V768.9h36.78V764.08H289.2v-3.6h29.186Z" transform="translate(-274.416 -760.484)" fill="#0d2380"/>
          </g>
          <g id="Grupo_135821" data-name="Grupo 135821" transform="translate(30.266 63.377)">
            <g id="Grupo_135819" data-name="Grupo 135819">
              <rect id="Rectángulo_41488" data-name="Rectángulo 41488" width="3.596" height="12.725" fill="#0d2380"/>
            </g>
            <g id="Grupo_135820" data-name="Grupo 135820" transform="translate(26.551)">
              <rect id="Rectángulo_41489" data-name="Rectángulo 41489" width="3.596" height="12.725" fill="#0d2380"/>
            </g>
          </g>
          <g id="Grupo_135822" data-name="Grupo 135822" transform="translate(9.589 10.811)">
            <rect id="Rectángulo_41490" data-name="Rectángulo 41490" width="12.789" height="44.01" fill="#0d2380"/>
            <rect id="Rectángulo_41491" data-name="Rectángulo 41491" width="7.711" height="26.536" transform="translate(2.539 2.886)" fill="#fff"/>
            <rect id="Rectángulo_41492" data-name="Rectángulo 41492" width="7.711" height="8.399" transform="translate(2.539 32.726)" fill="#fff"/>
            <rect id="Rectángulo_41493" data-name="Rectángulo 41493" width="12.789" height="44.01" transform="translate(14.388)" fill="#0d2380"/>
            <rect id="Rectángulo_41494" data-name="Rectángulo 41494" width="7.711" height="2.882" transform="translate(16.927 38.242)" fill="#fff"/>
            <rect id="Rectángulo_41495" data-name="Rectángulo 41495" width="7.711" height="2.882" transform="translate(16.927 34.356)" fill="#fff"/>
            <rect id="Rectángulo_41496" data-name="Rectángulo 41496" width="7.711" height="2.882" transform="translate(16.927 7.022)" fill="#fff"/>
            <rect id="Rectángulo_41497" data-name="Rectángulo 41497" width="7.711" height="2.882" transform="translate(16.927 3.135)" fill="#fff"/>
            <rect id="Rectángulo_41498" data-name="Rectángulo 41498" width="12.789" height="44.01" transform="translate(30.186)" fill="#0d2380"/>
            <rect id="Rectángulo_41499" data-name="Rectángulo 41499" width="7.711" height="26.536" transform="translate(32.726 2.886)" fill="#fff"/>
            <rect id="Rectángulo_41500" data-name="Rectángulo 41500" width="7.711" height="8.399" transform="translate(32.726 32.726)" fill="#fff"/>
            <rect id="Rectángulo_41501" data-name="Rectángulo 41501" width="12.789" height="44.01" transform="translate(60.091)" fill="#0d2380"/>
            <rect id="Rectángulo_41502" data-name="Rectángulo 41502" width="7.711" height="26.536" transform="translate(62.63 2.886)" fill="#fff"/>
            <rect id="Rectángulo_41503" data-name="Rectángulo 41503" width="7.711" height="8.399" transform="translate(62.63 32.726)" fill="#fff"/>
            <rect id="Rectángulo_41504" data-name="Rectángulo 41504" width="12.789" height="44.01" transform="translate(44.574)" fill="#0d2380"/>
            <rect id="Rectángulo_41505" data-name="Rectángulo 41505" width="7.711" height="2.882" transform="translate(47.113 38.242)" fill="#fff"/>
            <rect id="Rectángulo_41506" data-name="Rectángulo 41506" width="7.711" height="2.882" transform="translate(47.113 34.356)" fill="#fff"/>
            <rect id="Rectángulo_41507" data-name="Rectángulo 41507" width="7.711" height="2.882" transform="translate(47.113 7.022)" fill="#fff"/>
            <rect id="Rectángulo_41508" data-name="Rectángulo 41508" width="7.711" height="2.882" transform="translate(47.113 3.135)" fill="#fff"/>
          </g>
        </g>
      </g>
    </g>
  </g>
</svg>
