<svg xmlns="http://www.w3.org/2000/svg" width="429.389" height="264.502" viewBox="0 0 429.389 264.502">
  <g id="Grupo_137439" data-name="Grupo 137439" transform="translate(1743.389 11374)">
    <g id="Grupo_134455" data-name="Grupo 134455" transform="translate(-1941.109 -11532.369)">
      <path id="Trazado_191570" data-name="Trazado 191570" d="M324.976,177.954c66.686-3.869,136.6,16.287,126.327,45.505s54.946-10.378,80.974.156c18.531,7.5,11.123,30.331,20.088,39.531,20.555,21.094,41.577-5.469,67.738,10.469S592.7,438.3,565.373,439.131l-311.715-1.894-22.369-2.01s-61.877-33.835-17.614-65.05c29.928-21.105,8.394-36.431,5.139-46.094-3.737-11.094-12.457-30.469,25.538-44.687s28.185-45.156,27.251-51.562-13.313-46.011,53.374-49.88Z" transform="translate(0 -16.259)" fill="#9bc1f9" opacity="0.1"/>
      <g id="Grupo_134454" data-name="Grupo 134454" transform="translate(270.28 158.369)">
        <g id="Grupo_134440" data-name="Grupo 134440" transform="translate(7.426 69.11)">
          <path id="Trazado_191572" data-name="Trazado 191572" d="M839.079,1096.182s-11.377-10.2-14.662-15.363-4.675-9.459-4.637-10.83a1.864,1.864,0,0,1,1.147-1.752s.043-2.577,1.055-3.4c0,0-1.055-1.539,1.592-2.974s10.684,5.512,11.229,5.664,2.33,5,2.436,6.1.745,7.7,1.259,8.953,3.624,7.784,3.769,7.513S839.079,1096.182,839.079,1096.182Z" transform="translate(-806.997 -996.069)" fill="#ffbeaf"/>
          <path id="Trazado_191573" data-name="Trazado 191573" d="M746.571,927.423a20.832,20.832,0,0,0-12.29,15.6c-1.094,7.5,1.92,16.929,9.652,19.616,7.7,2.676,17.254.111,21.961-6.719,3.357-4.872,3.612-12.052,2.217-17.638A15.787,15.787,0,0,0,746.571,927.423Z" transform="translate(-734.063 -880.759)" fill="#fc502d"/>
          <path id="Trazado_191574" data-name="Trazado 191574" d="M767.057,951.887a16.74,16.74,0,0,0-9.877,12.537c-.88,6.03,1.543,13.6,7.757,15.763,6.188,2.15,13.866.089,17.648-5.4,2.7-3.916,2.9-9.686,1.782-14.174A12.686,12.686,0,0,0,767.057,951.887Z" transform="translate(-753.585 -901.787)" fill="#fff0eb"/>
          <path id="Trazado_191575" data-name="Trazado 191575" d="M1091.258,781.511s-3.6-14.846-3.381-20.966,1.506-10.443,2.314-11.551a1.863,1.863,0,0,1,1.937-.794s1.5-2.1,2.8-2.2c0,0,0-1.865,3-1.549s5.683,10.594,6.045,11.028-.915,5.443-1.45,6.411-3.749,6.77-4.034,8.091-1.423,8.467-1.15,8.327S1091.258,781.511,1091.258,781.511Z" transform="translate(-1035.105 -726.124)" fill="#ffbeaf"/>
          <path id="Trazado_191576" data-name="Trazado 191576" d="M965.261,627.625s16.182,21.393,16.319,22.353S953.6,674.8,952.645,674.8s-17.416-21.393-18.1-22.764S963.341,628.036,965.261,627.625Z" transform="translate(-904.635 -626.754)" fill="#222752"/>
          <path id="Trazado_191577" data-name="Trazado 191577" d="M979.333,645.146s14.39,19.023,14.512,19.877S968.967,687.1,968.114,687.1s-15.487-19.023-16.1-20.243S977.626,645.512,979.333,645.146Z" transform="translate(-919.505 -641.662)" fill="#fff0eb"/>
          <path id="Trazado_191578" data-name="Trazado 191578" d="M1970.716,781.511s3.6-14.846,3.38-20.966-1.505-10.443-2.314-11.551a1.863,1.863,0,0,0-1.937-.794s-1.5-2.1-2.8-2.2c0,0,0-1.865-3-1.549s-5.683,10.594-6.045,11.028.915,5.443,1.45,6.411,3.749,6.77,4.033,8.091,1.423,8.467,1.15,8.327S1970.716,781.511,1970.716,781.511Z" transform="translate(-1775.426 -726.124)" fill="#ffbeaf"/>
          <rect id="Rect치ngulo_41343" data-name="Rect치ngulo 41343" width="33.187" height="16.847" rx="4.57" transform="translate(174.54 9.846) rotate(26.916)" fill="#222752"/>
          <rect id="Rect치ngulo_41344" data-name="Rect치ngulo 41344" width="31.37" height="15.31" rx="4.57" transform="translate(175.276 10.943) rotate(26.916)" fill="#6383be"/>
          <path id="Trazado_191579" data-name="Trazado 191579" d="M1958.625,844.946s.735-7.162.149-10.919-4.178-9.9-3.545-11.209c.961-1.992,4.379.318,7.225,5.185,2.7,4.623,4.145,13.293,2.852,18.675s-4.542,4.287-5.043,3.8S1958.625,844.946,1958.625,844.946Z" transform="translate(-1773.053 -792.229)" fill="#ffbeaf"/>
          <path id="Trazado_191580" data-name="Trazado 191580" d="M1662.108,989.745s25.194-9.829,32.4-14.116,11.889-22.65,12.588-24.3,13.561,3.992,14.189,5.39-1.76,20.68-7.058,27.983-26.4,18.976-26.4,18.976Z" transform="translate(-1523.708 -901.934)" fill="#6383be"/>
          <path id="Trazado_191581" data-name="Trazado 191581" d="M2186.776,1096.182s11.376-10.2,14.662-15.363,4.675-9.459,4.636-10.83a1.864,1.864,0,0,0-1.146-1.752s-.043-2.577-1.055-3.4c0,0,1.055-1.539-1.592-2.974s-10.685,5.512-11.229,5.664-2.33,5-2.436,6.1-.745,7.7-1.259,8.953-3.624,7.784-3.769,7.513S2186.776,1096.182,2186.776,1096.182Z" transform="translate(-1967.415 -996.069)" fill="#ffbeaf"/>
          <ellipse id="Elipse_5399" data-name="Elipse 5399" cx="8.502" cy="8.731" rx="8.502" ry="8.731" transform="translate(220.116 58.011)" fill="#ffb26f"/>
          <circle id="Elipse_5400" data-name="Elipse 5400" cx="6.72" cy="6.72" r="6.72" transform="translate(219.839 63.334) rotate(-22.5)" fill="#ffe06a"/>
          <path id="Trazado_191582" data-name="Trazado 191582" d="M2152.947,1112.018s4.663-5.485,6.308-8.914,2.163-10.522,3.429-11.245c1.92-1.1,3.428,2.743,3.017,8.365-.391,5.341-4.114,13.3-8.228,17s-6.171.96-6.308.274S2152.947,1112.018,2152.947,1112.018Z" transform="translate(-1939.825 -1021.597)" fill="#ffbeaf"/>
          <path id="Trazado_191583" data-name="Trazado 191583" d="M1765.9,1222.928s26.33,6.171,34.7,6.72,22.627-11.931,24.136-12.891,8.914,10.971,8.639,12.48-13.165,16.045-21.667,19.062-32.5.686-32.5.686Z" transform="translate(-1612.024 -1127.982)" fill="#6383be"/>
          <path id="Trazado_191584" data-name="Trazado 191584" d="M1138.581,837.589s-.735-7.162-.149-10.919,4.178-9.9,3.544-11.209c-.961-1.992-4.379.318-7.225,5.185-2.7,4.623-4.145,13.293-2.852,18.674s4.542,4.287,5.043,3.8S1138.581,837.589,1138.581,837.589Z" transform="translate(-1072.161 -785.97)" fill="#ffbeaf"/>
          <path id="Trazado_191585" data-name="Trazado 191585" d="M1153.888,989.745s-25.194-9.829-32.4-14.116-11.889-22.65-12.588-24.3-13.561,3.992-14.189,5.39,1.76,20.68,7.058,27.983,26.4,18.976,26.4,18.976Z" transform="translate(-1040.845 -901.934)" fill="#6383be"/>
          <path id="Trazado_191586" data-name="Trazado 191586" d="M917.871,1112.018s-4.663-5.485-6.308-8.914-2.163-10.522-3.428-11.245c-1.92-1.1-3.429,2.743-3.017,8.365.391,5.341,4.114,13.3,8.228,17s6.171.96,6.308.274S917.871,1112.018,917.871,1112.018Z" transform="translate(-879.55 -1021.597)" fill="#ffbeaf"/>
          <path id="Trazado_191587" data-name="Trazado 191587" d="M1003.281,1222.928s-26.33,6.171-34.7,6.72-22.628-11.931-24.136-12.891-8.914,10.971-8.64,12.48,13.165,16.045,21.668,19.062,32.5.686,32.5.686Z" transform="translate(-905.717 -1127.982)" fill="#6383be"/>
          <circle id="Elipse_5401" data-name="Elipse 5401" cx="13.576" cy="13.576" r="13.576" transform="matrix(0.924, -0.383, 0.383, 0.924, 107.205, 10.391)" fill="#222752"/>
          <path id="Trazado_191588" data-name="Trazado 191588" d="M1388.839,729.7c-31.13,0-31.542,28.25-27.976,43.2s-15.5,31.815,7.268,44.706,45.8.4,49.369-5.623c4.8-8.091-3.428-25.233-.96-36.752C1419.1,763.267,1422.163,729.7,1388.839,729.7Z" transform="translate(-1263.896 -713.604)" fill="#222752"/>
          <path id="Trazado_191589" data-name="Trazado 191589" d="M1459.686,1260.995c.137.823,3.84,31.953,4.662,31.816s29.073-1.1,27.976-1.92,3.428-26.056,2.743-27.427-12.753-3.977-14.811-4.526S1459.686,1260.995,1459.686,1260.995Z" transform="translate(-1351.474 -1163.854)" fill="#fff0eb"/>
          <path id="Trazado_191590" data-name="Trazado 191590" d="M1463.856,1130.333a12.053,12.053,0,0,0,5.348-3.428c1.371-1.509,1.371-8.228,1.371-8.228l14.537,1.234s.274,4.937,1.509,6.583,3.428,2.469,5.617,3.84l.829,13.439s-10.971,10.7-30.855,0c0,0-.686-7.405-.686-7.954A54.981,54.981,0,0,1,1463.856,1130.333Z" transform="translate(-1353.038 -1044.575)" fill="#ffbeaf"/>
          <path id="Trazado_191591" data-name="Trazado 191591" d="M1253.349,1196.84s-.137,22.353,6.582,42.649l-27.839,44.432s-16.182-11.794-17.828-29.759,11.345-36.691,17.279-44.021C1236.206,1204.382,1247.726,1198.485,1253.349,1196.84Z" transform="translate(-1142.53 -1111.082)" fill="#6383be"/>
          <path id="Trazado_191592" data-name="Trazado 191592" d="M1629.914,1196.84s.137,22.353-6.583,42.649l27.839,44.432s16.182-11.794,17.828-29.759-11.345-36.691-17.279-44.021C1647.056,1204.382,1635.536,1198.485,1629.914,1196.84Z" transform="translate(-1490.714 -1111.082)" fill="#6383be"/>
          <path id="Trazado_191593" data-name="Trazado 191593" d="M1351.573,1490.184h-69.427a3.242,3.242,0,0,1-3.2-2.751l-7.271-47.464a3.242,3.242,0,0,1,3.2-3.733h83.971a3.242,3.242,0,0,1,3.2,3.733l-7.271,47.464A3.242,3.242,0,0,1,1351.573,1490.184Z" transform="translate(-1191.463 -1314.776)" fill="#0d2380"/>
          <path id="Trazado_191594" data-name="Trazado 191594" d="M1477.158,1196.84" transform="translate(-1366.34 -1111.082)" fill="#ff86ad" stroke="#221f20" stroke-miterlimit="10" stroke-width="1"/>
          <path id="Trazado_191595" data-name="Trazado 191595" d="M1168.4,665.759c.864-.791,2.208-2.369,1.031-3.742-1.2-1.406-2.628-.387-3.466.314-1.242-1.635-2.318-2.846-2.568-2.646-.915.732-4.114,3.565-4.525,4.388s5.485,9.325,6.994,8.777a20.606,20.606,0,0,0,4.663-3.291C1170.69,669.4,1169.695,667.7,1168.4,665.759Z" transform="translate(-1095.5 -654.016)" fill="#6383be"/>
          <path id="Trazado_191596" data-name="Trazado 191596" d="M1212.682,681.415a.391.391,0,0,0,0-.073.61.61,0,0,0-.094-.178,1.046,1.046,0,0,0-.376-.445l-.078-.033a.49.49,0,0,0-.25-.056.949.949,0,0,0-.182.026c-.061.021-.123.049-.182.076a.455.455,0,0,0-.07.04,1.581,1.581,0,0,0-.182.143,1.437,1.437,0,0,0-.149.183,1.114,1.114,0,0,0-.147.3c0,.009,0,.018-.007.027l0,.007a.382.382,0,0,0-.014.043c0,.005,0,.01,0,.015l-.027.2c0,.007,0,.013,0,.02,0,.039.012.093.016.122s.009.082.017.121a.334.334,0,0,0,.012.044,1.821,1.821,0,0,0,.09.213l.01.018a.482.482,0,0,0,.064.084.6.6,0,0,0,.062.079,1.26,1.26,0,0,0,.161.125l.015.01a.388.388,0,0,0,.04.026,1.483,1.483,0,0,0,.2.085l.042.011a1.333,1.333,0,0,0,.192.027.514.514,0,0,0,.252-.054l-.062.026a.678.678,0,0,0,.143-.06l.019-.008-.018.008c.012-.007.026-.018.039-.026l-.009.009c.009-.006.014-.012.022-.018s.025-.015.04-.027.016-.018.026-.026a1.2,1.2,0,0,0,.25-.262.474.474,0,0,0,.037-.062,1.633,1.633,0,0,0,.091-.222,1.127,1.127,0,0,0,.045-.316A1.552,1.552,0,0,0,1212.682,681.415Z" transform="translate(-1139.8 -671.855)" fill="#4c68ad"/>
          <g id="Grupo_134438" data-name="Grupo 134438" transform="translate(11.833 53.17)">
            <path id="Trazado_191597" data-name="Trazado 191597" d="M815.085,979.789a.483.483,0,0,0,.023-.147,1.021,1.021,0,0,0-.057-.277,1.7,1.7,0,0,0-.194-.383,2.848,2.848,0,0,0-.261-.342,1.527,1.527,0,0,0-.352-.25.552.552,0,0,0-.755.755c.038.056.073.113.106.172a2.168,2.168,0,0,0,.2.27l-.1-.124c.078.1.14.208.21.314.044.068.093.135.143.2a.83.83,0,0,0,.1.112,5.4,5.4,0,0,0,.332.2c.014.02.027.041.04.062a.712.712,0,0,0,.124.161.134.134,0,0,0,.206-.026.547.547,0,0,0,.084-.234c.006-.035.011-.07.016-.1A.546.546,0,0,0,815.085,979.789Z" transform="translate(-813.413 -978.317)" fill="#222752"/>
            <path id="Trazado_191598" data-name="Trazado 191598" d="M820.3,991.133l0-.005h0v0Z" transform="translate(-819.268 -989.217)" fill="#222752"/>
          </g>
          <path id="Trazado_191599" data-name="Trazado 191599" d="M890.3,1119.06a1.826,1.826,0,0,0-.049-.265,2.667,2.667,0,0,0-.134-.34,1.137,1.137,0,0,0-.167-.225c-.016-.021-.033-.041-.051-.06s-.036-.039-.055-.057a1.1,1.1,0,0,0-.183-.142c-.01-.005-.022-.009-.032-.014a1.171,1.171,0,0,0-.171-.1l-.171-.072a.544.544,0,0,0-.285-.013.357.357,0,0,0-.181.049.534.534,0,0,0-.23.148.851.851,0,0,0-.184.316.543.543,0,0,0-.013.285.535.535,0,0,0,.085.266,1.1,1.1,0,0,1,.084.132c.024.053.048.107.072.16a1.228,1.228,0,0,0,.057.141h0c.009.027.02.053.027.081l.02.078c0,.013.006.026.009.039a.847.847,0,0,0,.207.36.629.629,0,0,0,.174.14.65.65,0,0,0,.292.094.578.578,0,0,0,.305-.014l.183-.077a.426.426,0,0,0,.085-.065.587.587,0,0,0,.2-.219.667.667,0,0,0,.055-.118.742.742,0,0,0,.069-.324A1.481,1.481,0,0,0,890.3,1119.06Z" transform="translate(-865.365 -1043.795)" fill="#222752"/>
          <path id="Trazado_191600" data-name="Trazado 191600" d="M788.831,1113.166a.472.472,0,0,0-.13-.2.741.741,0,0,0-.277-.161.651.651,0,0,0-.484.063,1.426,1.426,0,0,0-.681.723,2.4,2.4,0,0,0-.141.384l-.025.186a.526.526,0,0,0,.06.27.351.351,0,0,0,.09.155.53.53,0,0,0,.2.18.83.83,0,0,0,.354.1.718.718,0,0,0,.5-.205c.034-.032.069-.064.1-.1a.743.743,0,0,0,.217-.52l.019-.035a2.14,2.14,0,0,1,.171-.278l.063-.15a.476.476,0,0,0,.011-.25A.314.314,0,0,0,788.831,1113.166Z" transform="translate(-779.184 -1039.558)" fill="#222752"/>
          <path id="Trazado_191601" data-name="Trazado 191601" d="M914.025,1000.054a.552.552,0,0,0-.2-.289.527.527,0,0,0-.263-.109.567.567,0,0,0-.314.051.648.648,0,0,0-.221.075q-.072.051-.139.108c-.027.023-.055.045-.083.067l.135-.1c-.114.087-.22.183-.333.271l.135-.1a1.294,1.294,0,0,0-.35.356.387.387,0,0,0-.044.052.809.809,0,0,0-.092.331.559.559,0,0,0,.077.284.566.566,0,0,0,.2.2.7.7,0,0,0,.333.088c.022,0,.043-.009.065-.012s.016,0,.024,0l.172-.023c.031-.012.062-.024.092-.038a1.239,1.239,0,0,0,.151-.069,2.575,2.575,0,0,0,.265-.2.928.928,0,0,0,.131-.121l.052-.063a.49.49,0,0,0,.135-.211.483.483,0,0,0,.029-.128v0c.014-.042.027-.083.039-.126A.587.587,0,0,0,914.025,1000.054Z" transform="translate(-885.683 -943.299)" fill="#222752"/>
          <path id="Trazado_191602" data-name="Trazado 191602" d="M819.556,987.538a4.323,4.323,0,0,0-.784-1.339,1.819,1.819,0,0,0-1.362-.954,3.618,3.618,0,0,0-1.537.523,3.072,3.072,0,0,0-1.257.831l-.043.045a.412.412,0,0,0,.288.7l.158.021c.073-.008.145-.019.217-.032.112-.019.227-.036.337-.066a5.59,5.59,0,0,0,.721-.264l.245-.106c-.465,1.422-.953,2.836-1.483,4.234-.3.8-.6,1.611-.912,2.411-.144.367-.348.767-.515,1.177-.043.017-.085.037-.126.056a.908.908,0,0,0-.3.229c-.014.016-.024.035-.037.052a.622.622,0,0,0-.175.16.414.414,0,0,0-.106.182.622.622,0,0,0-.07.3c-.726.055-1.451.125-2.174.227-.48.068-.961.146-1.434.253-.167.038-.35.084-.532.138.025-.038.049-.078.075-.116.137-.2.287-.39.412-.6a.573.573,0,0,0-.9-.694,4.172,4.172,0,0,0-.6.732,3.577,3.577,0,0,0-.4.727,1.806,1.806,0,0,0,.1,1.533,2.642,2.642,0,0,0,.97.942c.439.267,1.042.58,1.545.314a.522.522,0,0,0,.183-.7,1.093,1.093,0,0,0-.529-.45l-.154-.065h0l-.072-.032c-.082-.038-.163-.078-.242-.121s-.154-.087-.228-.136c-.033-.021-.063-.048-.1-.067h0l-.026-.024c.276-.018.557-.064.8-.1q.661-.09,1.324-.16,1.367-.144,2.742-.154a1,1,0,0,0,.268.032,2.139,2.139,0,0,0,.28-.039,1.6,1.6,0,0,0,.32-.123,1.251,1.251,0,0,0,.272-.2l-.147.113a1.964,1.964,0,0,0,.229-.18,1.507,1.507,0,0,0,.183-.228.949.949,0,0,0,.154-.378,1.433,1.433,0,0,0-.005-.573,1.367,1.367,0,0,0-.1-.257.675.675,0,0,0-.065-.116c-.016-.023-.034-.04-.051-.062.166-.374.305-.76.45-1.086.359-.812.715-1.628,1.038-2.456.547-1.4,1.037-2.823,1.5-4.255a4.63,4.63,0,0,0,.567.831A.657.657,0,0,0,819.556,987.538Z" transform="translate(-796.239 -931.041)" fill="#222752"/>
          <path id="Trazado_191603" data-name="Trazado 191603" d="M1131.777,715.335a10.972,10.972,0,0,0-1.566-2.491q-.879-1.275-1.768-2.542c-.575-.82-1.147-1.642-1.742-2.447a9.64,9.64,0,0,0-1.845-2.2c-.18-.13-.419.085-.363.28a10.03,10.03,0,0,0,1.433,2.483c.543.838,1.106,1.664,1.657,2.5s1.1,1.668,1.645,2.506c.273.419.541.84.816,1.258.167.254.33.524.517.772a.255.255,0,0,0,.185.276l.06.008c.035.036.066.075.1.108l0-.031C1131.262,716.135,1131.964,715.9,1131.777,715.335Z" transform="translate(-1066.261 -693.112)" fill="#6383be"/>
          <path id="Trazado_191604" data-name="Trazado 191604" d="M1100.548,715.879a18.434,18.434,0,0,0-2.654-3.79c-.987-1.255-2.021-2.472-3.041-3.7s-2.034-2.455-2.98-3.736q-.709-.959-1.362-1.957a5.365,5.365,0,0,0-1.264-1.647.109.109,0,0,0-.162.093,3.782,3.782,0,0,0,.687,1.841c.364.658.76,1.3,1.175,1.923.856,1.3,1.789,2.536,2.744,3.76.979,1.255,1.979,2.494,2.937,3.765.454.6.9,1.212,1.33,1.832a12.844,12.844,0,0,1,1.387,2.123A.656.656,0,1,0,1100.548,715.879Z" transform="translate(-1036.139 -689.215)" fill="#6383be"/>
          <path id="Trazado_191605" data-name="Trazado 191605" d="M1072.348,734.27a18.437,18.437,0,0,0-2.654-3.789c-.987-1.255-2.02-2.472-3.041-3.7s-2.034-2.455-2.98-3.736q-.709-.959-1.362-1.957a5.358,5.358,0,0,0-1.264-1.647.108.108,0,0,0-.162.093,3.783,3.783,0,0,0,.687,1.841c.364.658.76,1.3,1.174,1.923.856,1.3,1.789,2.536,2.744,3.76.979,1.255,1.979,2.494,2.937,3.765.454.6.9,1.212,1.33,1.832a12.842,12.842,0,0,1,1.387,2.123A.656.656,0,1,0,1072.348,734.27Z" transform="translate(-1012.144 -704.864)" fill="#6383be"/>
          <path id="Trazado_191606" data-name="Trazado 191606" d="M1053.5,755.806a18.428,18.428,0,0,0-2.576-3.843c-.962-1.275-1.969-2.513-2.965-3.761s-1.983-2.5-2.9-3.8q-.689-.973-1.322-1.985a5.357,5.357,0,0,0-1.23-1.672.108.108,0,0,0-.164.089,3.783,3.783,0,0,0,.649,1.855c.351.665.734,1.31,1.135,1.946.829,1.313,1.737,2.572,2.667,3.815.953,1.275,1.928,2.534,2.86,3.824.442.612.875,1.23,1.292,1.859a12.865,12.865,0,0,1,1.344,2.151A.656.656,0,1,0,1053.5,755.806Z" transform="translate(-996.36 -722.993)" fill="#6383be"/>
          <path id="Trazado_191607" data-name="Trazado 191607" d="M1020.852,777.184a18.41,18.41,0,0,0-2.654-3.789c-.987-1.254-2.02-2.472-3.041-3.7s-2.034-2.455-2.98-3.736q-.709-.959-1.362-1.957a5.36,5.36,0,0,0-1.264-1.647.108.108,0,0,0-.162.093,3.782,3.782,0,0,0,.687,1.841c.364.658.76,1.3,1.175,1.923.856,1.3,1.789,2.536,2.744,3.76.979,1.255,1.979,2.494,2.937,3.765.454.6.9,1.212,1.33,1.832a12.847,12.847,0,0,1,1.387,2.123A.656.656,0,1,0,1020.852,777.184Z" transform="translate(-968.328 -741.377)" fill="#6383be"/>
          <path id="Trazado_191608" data-name="Trazado 191608" d="M995.1,795.575a18.428,18.428,0,0,0-2.654-3.79c-.987-1.255-2.02-2.472-3.041-3.7s-2.034-2.455-2.98-3.736q-.709-.959-1.362-1.957a5.364,5.364,0,0,0-1.264-1.647.109.109,0,0,0-.162.093,3.78,3.78,0,0,0,.687,1.841c.364.658.76,1.3,1.174,1.923.856,1.3,1.789,2.536,2.744,3.76.979,1.255,1.979,2.494,2.937,3.765.454.6.9,1.212,1.33,1.832a12.862,12.862,0,0,1,1.387,2.123A.656.656,0,1,0,995.1,795.575Z" transform="translate(-946.42 -757.025)" fill="#6383be"/>
          <path id="Trazado_191609" data-name="Trazado 191609" d="M1259.877,1255.768c-.841-.042-1.615,1.067-2.159,1.607-.334.331-.65.679-.977,1.017a6.025,6.025,0,0,0-2.224.061c-.724.074-1.447.173-2.167.278s-1.448.213-2.163.362a8.48,8.48,0,0,0-1.1.286c-.262.092-.558.172-.685.437a.188.188,0,0,0,.028.221,1,1,0,0,0,.768.168c.377-.012.749-.061,1.122-.109.725-.094,1.447-.2,2.173-.288s1.455-.153,2.183-.222c.312-.029.644-.038.974-.061-.095.1-.2.2-.291.3a65.45,65.45,0,0,0-4.177,5.089,71.144,71.144,0,0,0-6.95,11.392q-.8,1.644-1.515,3.326-.356.836-.693,1.679a2.817,2.817,0,0,0-.181,1.75c.017.112.151.131.233.095a1.689,1.689,0,0,0,.995-.8c.264-.51.435-1.087.654-1.618q.64-1.549,1.357-3.065c.932-1.977,1.956-3.91,3.055-5.8a76.7,76.7,0,0,1,7.554-10.654q1.175-1.4,2.419-2.745.6-.647,1.216-1.28c.354-.363.756-.695.75-1.234A.2.2,0,0,0,1259.877,1255.768Z" transform="translate(-1166.067 -1161.221)" fill="#4c68ad"/>
          <path id="Trazado_191610" data-name="Trazado 191610" d="M1790.418,1275.167a50.524,50.524,0,0,0-7.023-10.955,66.609,66.609,0,0,0-5.037-5.552c-.863-.849-1.716-1.708-2.578-2.558-.083-.081-.167-.169-.252-.259l.038.012c1.107.358,2.221.7,3.333,1.038,1.076.332,2.149.675,3.23.991.515.15,1.029.328,1.55.452a1.243,1.243,0,0,0,.709.024.539.539,0,0,0,.238-.139q.117-.2.072-.059c.115-.042.22-.2.128-.315-.069-.09-.1-.269-.2-.389a1.266,1.266,0,0,0-.61-.347c-.473-.16-.964-.281-1.442-.421-1.08-.315-2.169-.6-3.254-.9s-2.168-.606-3.257-.89c-.508-.133-1.016-.268-1.525-.4-.15-.038-.314-.091-.48-.129a3.287,3.287,0,0,0-.984-.588.381.381,0,0,0-.466.466,7.587,7.587,0,0,0,1.936,2.381c.741.792,1.493,1.577,2.209,2.393,1.462,1.664,2.92,3.334,4.331,5.042a56.557,56.557,0,0,1,7.309,10.87c.494,1,.958,2.011,1.363,3.05.252.648.552,2.258,1.472,2.221C1792.936,1280.135,1790.738,1275.88,1790.418,1275.167Z" transform="translate(-1617.718 -1159.516)" fill="#4c68ad"/>
          <path id="Trazado_191611" data-name="Trazado 191611" d="M1113.881,990.335c-.414-1.335-2.559-.54-3.486-.3a32.521,32.521,0,0,0-4.324,1.481,36.036,36.036,0,0,0-3.93,1.909,13.214,13.214,0,0,0-3.66,2.543c-.294.351-.026,1.091.509.873a31.377,31.377,0,0,0,3.39-2,33.443,33.443,0,0,1,3.715-1.815,35.66,35.66,0,0,1,3.843-1.3c.651-.185,1.306-.363,1.968-.5.545-.115,1.285.047,1.737-.3A.539.539,0,0,0,1113.881,990.335Z" transform="translate(-1044.032 -934.731)" fill="#4c68ad"/>
          <path id="Trazado_191612" data-name="Trazado 191612" d="M973.985,1244.14a14,14,0,0,0-2.389,2.919c-.81,1.092-1.586,2.206-2.3,3.361a33.583,33.583,0,0,0-1.89,3.443q-.4.861-.752,1.749c-.23.589-.362,1.237-.618,1.811a.643.643,0,0,0,1.005.776c.392-.316.477-1.011.639-1.468.223-.634.471-1.258.749-1.87a32.467,32.467,0,0,1,1.91-3.561c.688-1.124,1.43-2.216,2.185-3.3q.568-.811,1.152-1.611a7.777,7.777,0,0,0,1.072-1.668A.521.521,0,0,0,973.985,1244.14Z" transform="translate(-931.379 -1151.259)" fill="#4c68ad"/>
          <path id="Trazado_191613" data-name="Trazado 191613" d="M1965.306,1006.975a10.34,10.34,0,0,0-1.638-1.094,24.65,24.65,0,0,0-3.939-1.634c-1.55-.529-3.12-1.016-4.7-1.432-.768-.2-1.549-.4-2.33-.542-.513-.09-1.3-.3-1.713.117a.085.085,0,0,0-.021.082c.139.5.717.669,1.154.845.7.282,1.419.5,2.129.742,1.509.519,3.022,1.021,4.527,1.552a26.471,26.471,0,0,1,3.742,1.545,11.057,11.057,0,0,1,1.588,1.023,3.015,3.015,0,0,0,.834.559,2.067,2.067,0,0,0,.783.03.231.231,0,0,0,.224-.224A1.517,1.517,0,0,0,1965.306,1006.975Z" transform="translate(-1769.481 -945.418)" fill="#4c68ad"/>
          <path id="Trazado_191614" data-name="Trazado 191614" d="M2139.907,1256.2c-.234-.605-.493-1.2-.766-1.792a28.986,28.986,0,0,0-4.254-6.626c-.746-.873-1.737-2.275-2.981-2.366a.471.471,0,0,0-.4.7,9.562,9.562,0,0,0,1.122,1.316c.411.461.826.915,1.217,1.394a29.509,29.509,0,0,1,3.955,6.365c.257.563.486,1.135.71,1.711.216.557.334,1.228.981,1.406a.591.591,0,0,0,.643-.262C2140.534,1257.514,2140.12,1256.751,2139.907,1256.2Z" transform="translate(-1923.05 -1152.415)" fill="#4c68ad"/>
          <path id="Trazado_191615" data-name="Trazado 191615" d="M1528.837,1123.582a29.869,29.869,0,0,1-.468-3.671l-14.537-1.234s0,6.719-1.371,8.228c-.033.036-.065.068-.1.1,1.586.073,3.268-.06,3.979-.088a31.62,31.62,0,0,0,9.342-1.656A13.756,13.756,0,0,0,1528.837,1123.582Z" transform="translate(-1396.294 -1044.575)" fill="#ffa19b"/>
          <path id="Trazado_191616" data-name="Trazado 191616" d="M1427.968,871.823s-4.748-.665-4.748,3.514,4.368,4.368,4.368,4.368,1.8,20.132,18.328,20.132c15.384,0,17.283-19.716,17.283-19.716s4.368-1.234,4.083-4.368-3.988-3.893-3.988-3.893-14.15-4.119-17.948-16.18C1445.346,855.679,1439.554,869.069,1427.968,871.823Z" transform="translate(-1320.446 -820.799)" fill="#ffbeaf"/>
          <path id="Trazado_191617" data-name="Trazado 191617" d="M1925.229,714.832a10.735,10.735,0,0,0-1.069-.412c-.6-.233-1.2-.469-1.8-.715s-1.187-.484-1.78-.729a3.646,3.646,0,0,0-1.948-.564.508.508,0,0,0-.354.624c.269.656,1,.977,1.58,1.324.555.329,1.117.641,1.7.923q.92.448,1.868.833c.633.257,1.547.783,2.185.29C1926.188,715.96,1925.794,715.125,1925.229,714.832Z" transform="translate(-1741.656 -698.877)" fill="#8e95cb"/>
          <path id="Trazado_191618" data-name="Trazado 191618" d="M1979.4,742.71a.85.85,0,0,0-.247-.557c-.025-.028-.05-.057-.077-.084a1.714,1.714,0,0,0-.569-.335l.2.086c-.2-.086-.392-.186-.6-.257-.065-.023-.13-.052-.2-.073a.946.946,0,0,0-.506,0,.7.7,0,0,0-.079.009.6.6,0,0,0-.43.565.731.731,0,0,0,.016.156.58.58,0,0,0,.016.126,2.075,2.075,0,0,0,.094.22l-.074-.175a1.531,1.531,0,0,0,.665.775,1.69,1.69,0,0,0,.878.307.976.976,0,0,0,.687-.236l.116-.15c-.014,0-.016,0-.007-.007a.65.65,0,0,0,.078-.12.333.333,0,0,0,.024-.182.548.548,0,0,0-.009-.061Z" transform="translate(-1791.557 -723.608)" fill="#8e95cb"/>
          <path id="Trazado_191619" data-name="Trazado 191619" d="M2027.974,850.573a1.185,1.185,0,0,0-.116-.15.845.845,0,0,0-.312-.292c-.086-.047-.179-.089-.269-.127-.16-.068-.326-.126-.49-.186a2.359,2.359,0,0,0-.556-.127c-.061-.006-.123-.015-.185-.019a.6.6,0,0,0-.292.057c-.1.045-.1.04.026-.013l-.048.008a.5.5,0,0,0-.348.614l.017.052a1.164,1.164,0,0,0,.319.534,2.174,2.174,0,0,0,.282.227,1.471,1.471,0,0,0,.187.131,1.5,1.5,0,0,0,1.448.24l-.181.076a.637.637,0,0,0,.112-.027.7.7,0,0,0,.441-.394A.665.665,0,0,0,2027.974,850.573Z" transform="translate(-1832.792 -815.686)" fill="#8e95cb"/>
          <path id="Trazado_191620" data-name="Trazado 191620" d="M2249.957,1037.5c-.138-.036-.279-.063-.42-.09l-.265-2.022c-.04-.307-.076-.62-.117-.933a5.337,5.337,0,0,1,.605.015c.434.035.895.234,1.3-.012a.332.332,0,0,0,.151-.37c-.269-.7-1.333-.805-1.988-.827-.091,0-.183.006-.275.008-.027-.113-.051-.227-.084-.338a.47.47,0,0,0-.918.124c-.014.124-.016.25-.022.376a3.4,3.4,0,0,0-.806.343,2.794,2.794,0,0,0-1.3,3.524,2.858,2.858,0,0,0,2.322,1.209q.047.965.089,1.931c.015.358.014.747.028,1.136a10.746,10.746,0,0,0-1.219.13,1.668,1.668,0,0,0-.683.267.223.223,0,0,0-.107.079c-.513.67.451,1.223,1.007,1.255a9.646,9.646,0,0,0,1.363-.036c.386.47,1.308.474,1.492-.183a3.649,3.649,0,0,0,1.822-.781,2.449,2.449,0,0,0,.87-1.9C2252.746,1038.893,2251.292,1037.845,2249.957,1037.5Zm-3.007-.791a1.079,1.079,0,0,1-.016-.911,2.024,2.024,0,0,1,1-1.052c.017.28.035.559.05.835q.042.793.084,1.585c-.135-.024-.271-.047-.405-.078A1.048,1.048,0,0,1,2246.95,1036.706Zm3.829,4.4a2.454,2.454,0,0,1-.684.275c-.046-.33-.1-.659-.146-.98-.076-.54-.15-1.08-.225-1.62l.029.008a2.059,2.059,0,0,1,1.456,1.117A.924.924,0,0,1,2250.778,1041.1Z" transform="translate(-2020.156 -971.33)" fill="#ffb26f"/>
          <path id="Trazado_191621" data-name="Trazado 191621" d="M2287.791,1020.559a9.808,9.808,0,0,0-.9-.766,8.692,8.692,0,0,0-.891-.6,4.6,4.6,0,0,0-.571-.294,1.184,1.184,0,0,0-.593-.141.473.473,0,0,0-.387.222.455.455,0,0,0,0,.453,1.438,1.438,0,0,0,.481.442c.134.1.278.182.415.276q.114.078.226.16l.089.066.01.007.021.017c.136.109.27.22.4.336a8.559,8.559,0,0,1,.718.724c.054.062.107.125.162.187a.871.871,0,0,1,.152.177l.009.016c.05.069.1.136.152.2a1.3,1.3,0,0,0,.271.233.617.617,0,0,0,.919-.527A1.728,1.728,0,0,0,2287.791,1020.559Z" transform="translate(-2053.186 -959.557)" fill="#ffd172"/>
          <path id="Trazado_191622" data-name="Trazado 191622" d="M2311.32,1045.312a.693.693,0,0,0-.176-.264.857.857,0,0,0-.459-.257l-.029-.022a.109.109,0,0,0-.183.076l0,.021a.239.239,0,0,0-.048.057.86.86,0,0,0-.041.1.471.471,0,0,0-.033.12c-.011.08-.018.16-.026.24a1.051,1.051,0,0,0,.213.605c.025.023.054.044.081.065a.585.585,0,0,0,.2.118.457.457,0,0,0,.3-.023.437.437,0,0,0,.184-.141.227.227,0,0,0,.059-.1.346.346,0,0,0,.04-.177,1,1,0,0,0,.012-.1A.7.7,0,0,0,2311.32,1045.312Z" transform="translate(-2075.253 -981.664)" fill="#ffd172"/>
          <circle id="Elipse_5402" data-name="Elipse 5402" cx="6.815" cy="6.815" r="6.815" transform="translate(118.581 141.618)" fill="#fff0eb"/>
          <path id="Trazado_191623" data-name="Trazado 191623" d="M1435.592,979.064a2.055,2.055,0,0,0-.617-.428,1.527,1.527,0,0,0-.383-.123,1.013,1.013,0,0,0-.284-.008c-.054,0,.043-.006-.014,0a.794.794,0,0,0-.163.031.288.288,0,0,0,0,.55l.1.034c-.006,0-.034-.013,0,0s.063.03.1.042c.072.026.145.048.216.077l.05.024c.031.015.061.032.09.049s.059.036.087.055l.042.03,0,0h0a1.943,1.943,0,0,1,.167.151c.024.025.048.051.071.077l.034.04,0,0c.015.021.028.043.042.064a1.489,1.489,0,0,0-.763,1.36,1.029,1.029,0,0,0,.508.886.843.843,0,0,0,1.031-.185A2.074,2.074,0,0,0,1435.592,979.064Z" transform="translate(-1329.557 -925.302)" fill="#ffa19b"/>
          <path id="Trazado_191624" data-name="Trazado 191624" d="M1693.918,983.813a.906.906,0,0,0-1.1-.659c0-.037,0-.074.005-.11,0-.02,0-.04.006-.059v-.008a2.583,2.583,0,0,1,.064-.277c.012-.039.025-.078.038-.116.008-.021.016-.042.025-.063l0,0a2.392,2.392,0,0,1,.123-.233c.028-.046.059-.09.089-.135l.014-.022.02-.021c.063-.07.125-.142.185-.214a.625.625,0,0,0,.145-.354.448.448,0,0,0,.035-.163.13.13,0,0,0-.066-.115.442.442,0,0,0-.172-.045.546.546,0,0,0-.444.058,1.222,1.222,0,0,0-.288.255,2.549,2.549,0,0,0-.38.58,2.6,2.6,0,0,0-.25,1.34,1.552,1.552,0,0,0,.757,1.349A.9.9,0,0,0,1693.918,983.813Z" transform="translate(-1549.107 -927.594)" fill="#ffa19b"/>
          <path id="Trazado_191625" data-name="Trazado 191625" d="M1515.529,727.939c-.426-.174-.864-.322-1.3-.467q-1.187-.4-2.4-.7a35.076,35.076,0,0,0-5.056-.885,34.7,34.7,0,0,0-10.1.455q-1.424.276-2.813.691c-.464.138-.923.294-1.373.471a1.611,1.611,0,0,0-.987.673.113.113,0,0,0,.04.154,1.277,1.277,0,0,0,.9.005c.425-.109.849-.223,1.273-.337q1.209-.327,2.433-.587a34.273,34.273,0,0,1,14.776.146q1.347.314,2.665.739.69.223,1.369.475c.4.147.835.361,1.22.093a.224.224,0,0,0,.1-.24C1516.205,728.231,1515.87,728.078,1515.529,727.939Z" transform="translate(-1378.534 -710.209)" fill="#303562"/>
          <path id="Trazado_191626" data-name="Trazado 191626" d="M1449.3,864.3a2.114,2.114,0,0,0-1.475-.043c-.52.081-1.045.136-1.57.172a21.005,21.005,0,0,1-3.128-.02,21.314,21.314,0,0,1-6.122-1.441,20.1,20.1,0,0,1-5.411-3.193,25.337,25.337,0,0,1-4.485-4.983c-.739-1.052-1.422-2.142-2.076-3.249-.663-1.125-1.267-2.294-1.993-3.38a.393.393,0,0,0-.226-.169c-.026-.165-.077-.331-.111-.487a.153.153,0,0,0-.254-.067,4.188,4.188,0,0,0-.474.457,2.925,2.925,0,0,0-.3.733q-.274.738-.609,1.451a22.6,22.6,0,0,1-1.513,2.707,28.141,28.141,0,0,1-3.991,4.79c-3.106,3.022-6.833,5.687-11.087,6.759a16.309,16.309,0,0,1-3.83.5,17.1,17.1,0,0,1-1.948-.1c-.639-.068-1.265-.2-1.909-.206a.21.21,0,0,0-.1.387,7.223,7.223,0,0,0,3.423.813,15.524,15.524,0,0,0,3.559-.253,20.134,20.134,0,0,0,6.544-2.524,31.645,31.645,0,0,0,9.75-9.013,23.123,23.123,0,0,0,1.855-3.143q.4-.823.729-1.678c.016-.04.034-.082.051-.124.442.936.962,1.839,1.476,2.737.586,1.022,1.207,2.027,1.865,3a27.753,27.753,0,0,0,4.576,5.37,21.792,21.792,0,0,0,11.795,5.209,21.117,21.117,0,0,0,3.657.122c.615-.033,1.227-.1,1.837-.182a7.937,7.937,0,0,0,.931-.16,1.087,1.087,0,0,0,.659-.467A.244.244,0,0,0,1449.3,864.3Z" transform="translate(-1297.778 -813.755)" fill="#303562"/>
          <path id="Trazado_191627" data-name="Trazado 191627" d="M1387.321,997.316c-.284-1.217-.634-2.42-.975-3.622l-.517-1.821a5.871,5.871,0,0,0-.678-1.824.179.179,0,0,0-.331.09,5.119,5.119,0,0,0,.236,1.645c.129.568.272,1.134.408,1.7.27,1.125.556,2.247.809,3.376a17.541,17.541,0,0,1,.475,6.508c-.62,4.086-2.849,7.686-3.87,11.657a12.015,12.015,0,0,0-.429,3.4,3.557,3.557,0,0,0,1.115,2.874.146.146,0,0,0,.218-.125c-.015-.969-.317-1.9-.338-2.875a11.087,11.087,0,0,1,.378-2.947,47.522,47.522,0,0,1,2.078-5.812,27.82,27.82,0,0,0,1.776-5.784A16.609,16.609,0,0,0,1387.321,997.316Z" transform="translate(-1285.75 -935.058)" fill="#303562"/>
          <path id="Trazado_191628" data-name="Trazado 191628" d="M1426.649,1062.625c.794-2.694,1.838-5.4,1.815-8.25a6.574,6.574,0,0,0-1.153-4.215c-.087-.1-.216.011-.2.116.106.676.3,1.336.391,2.016a11.018,11.018,0,0,1,.084,2.019,18.973,18.973,0,0,1-.688,4.068c-.757,2.8-1.893,5.505-2.138,8.417a7.209,7.209,0,0,0,.093,2.224,3.184,3.184,0,0,0,1.094,1.739.089.089,0,0,0,.148-.086,11.462,11.462,0,0,1-.3-1.9,10.149,10.149,0,0,1-.037-1.913A20.909,20.909,0,0,1,1426.649,1062.625Z" transform="translate(-1321.72 -986.243)" fill="#303562"/>
          <path id="Trazado_191629" data-name="Trazado 191629" d="M1468.406,1133.353a7.293,7.293,0,0,1-.087-1.815c.036-.6.107-1.2.194-1.786a5.092,5.092,0,0,1,.175-.817c.065-.2.255-.432.245-.644a.181.181,0,0,0-.127-.167c-.265-.1-.556.168-.712.359a2.341,2.341,0,0,0-.422.934,12.575,12.575,0,0,0-.321,2.12,6.313,6.313,0,0,0,.151,2.115,2.636,2.636,0,0,0,1.2,1.534c.094.058.175-.052.138-.138A7.886,7.886,0,0,1,1468.406,1133.353Z" transform="translate(-1357.975 -1052.596)" fill="#303562"/>
          <path id="Trazado_191630" data-name="Trazado 191630" d="M1725.825,1001.569a19.212,19.212,0,0,1,.055-6.671c.236-1.229.557-2.441.857-3.655.146-.59.278-1.183.415-1.774a5.321,5.321,0,0,0,.25-1.851.116.116,0,0,0-.213-.058,4.326,4.326,0,0,0-.6,1.375c-.178.555-.344,1.114-.515,1.671-.323,1.06-.625,2.129-.881,3.206a19.235,19.235,0,0,0-.5,6.487c.415,4.025,1.855,7.924,1.688,12.007a12.208,12.208,0,0,1-.486,3.027c-.289.958-.768,1.85-1.021,2.819a.187.187,0,0,0,.271.208,4.317,4.317,0,0,0,1.538-2.2,11.17,11.17,0,0,0,.607-2.656,19.852,19.852,0,0,0-.226-5.541C1726.71,1005.818,1726.164,1003.713,1725.825,1001.569Z" transform="translate(-1576.879 -932.967)" fill="#303562"/>
          <path id="Trazado_191631" data-name="Trazado 191631" d="M1698.8,1061.069a31.033,31.033,0,0,0-.756-4.137c-.182-.779-.37-1.554-.528-2.338-.078-.388-.145-.778-.213-1.168a12.742,12.742,0,0,1-.281-1.325.065.065,0,0,0-.131,0c-.025.336-.144.646-.165.984a7.239,7.239,0,0,0,.039,1.117c.064.688.174,1.369.3,2.049.243,1.365.561,2.719.72,4.1a20.713,20.713,0,0,1-.576,7.777c-.2.721-.438,1.428-.693,2.13a6.474,6.474,0,0,0-.488,2.053.1.1,0,0,0,.164.068,6.44,6.44,0,0,0,1.815-3.416,21.626,21.626,0,0,0,.777-3.941A20.039,20.039,0,0,0,1698.8,1061.069Z" transform="translate(-1552.564 -987.873)" fill="#303562"/>
          <path id="Trazado_191632" data-name="Trazado 191632" d="M1671.166,1128.056a6.06,6.06,0,0,0-.285-1.191,2.124,2.124,0,0,0-.212-.455c-.068-.1-.188-.146-.231-.211a.082.082,0,0,0-.152.041c0,.08-.062.156-.08.236a1.64,1.64,0,0,0,.023.477c.035.323.076.645.106.968a12.166,12.166,0,0,1,.035,1.842,13.184,13.184,0,0,1-.258,1.824c-.074.369-.122,1.179-.593,1.258a.092.092,0,0,0-.04.152c.426.348.963,0,1.229-.386a4.694,4.694,0,0,0,.538-2.173A10.226,10.226,0,0,0,1671.166,1128.056Z" transform="translate(-1529.957 -1050.943)" fill="#303562"/>
          <path id="Trazado_191633" data-name="Trazado 191633" d="M1418.869,812.9a.091.091,0,0,0-.166.07,6.933,6.933,0,0,1-.267,3.477,15.476,15.476,0,0,1-1.2,2.959,21.517,21.517,0,0,1-3.457,4.9,22.552,22.552,0,0,1-10.138,6.225,19.5,19.5,0,0,1-3.368.693,7.75,7.75,0,0,1-1.9,0,15.989,15.989,0,0,1-1.792-.48c-.055-.014-.116.051-.079.1a3.746,3.746,0,0,0,2.92,1.146,13.123,13.123,0,0,0,3.392-.335,21.589,21.589,0,0,0,6.037-2.283,23.087,23.087,0,0,0,9-9.031,17.693,17.693,0,0,0,1.5-3.5A4.433,4.433,0,0,0,1418.869,812.9Z" transform="translate(-1297.701 -784.364)" fill="#303562"/>
          <path id="Trazado_191634" data-name="Trazado 191634" d="M1422.582,781.685c-.013-.089-.145-.076-.167,0-.252.894-.548,1.764-.746,2.674a22.56,22.56,0,0,1-.758,2.7,19.778,19.778,0,0,1-11.127,11.721,22.8,22.8,0,0,1-2.952,1c-1.016.275-2.053.436-3.062.735a.141.141,0,0,0,.037.275,12.613,12.613,0,0,0,5.7-.952,20.015,20.015,0,0,0,5.145-2.742,20.8,20.8,0,0,0,6.942-9.092,19.426,19.426,0,0,0,.953-3.149,7.631,7.631,0,0,0,.2-1.568A11.388,11.388,0,0,0,1422.582,781.685Z" transform="translate(-1303.811 -757.786)" fill="#303562"/>
          <path id="Trazado_191635" data-name="Trazado 191635" d="M1417.317,776a17.381,17.381,0,0,1-.907,2.02c-.309.658-.563,1.34-.872,2a21.981,21.981,0,0,1-2.179,3.665,23.042,23.042,0,0,1-6.319,5.815c-.679.427-1.385.807-2.1,1.171-.372.189-.75.365-1.13.538-.16.073-1.02.557-1.095.23a.057.057,0,0,0-.1-.013.284.284,0,0,0,.13.39.974.974,0,0,0,.811.041,15.711,15.711,0,0,0,2.244-.8,20.435,20.435,0,0,0,4.113-2.481,22.271,22.271,0,0,0,6.088-7.338,16.572,16.572,0,0,0,1.078-2.466,15.737,15.737,0,0,0,.432-2.718A.1.1,0,0,0,1417.317,776Z" transform="translate(-1302.885 -752.938)" fill="#303562"/>
          <path id="Trazado_191636" data-name="Trazado 191636" d="M1611.167,829.591c-.8.017-1.608.116-2.412.162a10.177,10.177,0,0,1-2.456-.138,12.333,12.333,0,0,1-4.547-1.885c-2.962-1.965-4.986-5.047-6.767-8.052-.524-.885-1.06-1.768-1.549-2.674a7.6,7.6,0,0,1-.662-1.546,9.31,9.31,0,0,0-.316-1.383.05.05,0,0,0-.077-.01c-.669.615-.238,1.9.048,2.615a25.119,25.119,0,0,0,1.353,2.673,39.328,39.328,0,0,0,3.054,4.869c2.218,2.941,5.128,5.43,8.8,6.266,1.8.411,4.109.571,5.6-.73A.1.1,0,0,0,1611.167,829.591Z" transform="translate(-1464.079 -785.38)" fill="#303562"/>
          <path id="Trazado_191637" data-name="Trazado 191637" d="M1627.142,801.992c-.345.732-1.4.827-2.1.749a14.066,14.066,0,0,1-2.575-.633,15.886,15.886,0,0,1-4.435-2.1,21.594,21.594,0,0,1-5.794-6.711c-.449-.742-.874-1.5-1.3-2.25a13.379,13.379,0,0,0-1.335-2.091c-.044-.051-.118,0-.105.061a11.1,11.1,0,0,0,.851,2.238c.344.753.726,1.492,1.119,2.221a27.066,27.066,0,0,0,2.68,4.11,16.777,16.777,0,0,0,3.5,3.314,17.261,17.261,0,0,0,4.947,2.267,7.611,7.611,0,0,0,3.073.522,1.875,1.875,0,0,0,1.64-1.631C1627.312,801.972,1627.188,801.895,1627.142,801.992Z" transform="translate(-1478.935 -764.009)" fill="#303562"/>
          <path id="Trazado_191638" data-name="Trazado 191638" d="M1659.959,782.833a3.545,3.545,0,0,0-1.4-.76c-.513-.2-1.021-.419-1.514-.667a15.435,15.435,0,0,1-2.841-1.833,16.93,16.93,0,0,1-4.237-5.13,18.082,18.082,0,0,1-.806-1.733c-.122-.3-.235-.606-.349-.91a8.909,8.909,0,0,1-.4-.9c-.015-.059-.1-.033-.09.025.049.292-.008.59.033.887a7.005,7.005,0,0,0,.2.9,13.051,13.051,0,0,0,.588,1.653,15.385,15.385,0,0,0,1.741,3.038,16.33,16.33,0,0,0,5.289,4.638,13.89,13.89,0,0,0,1.773.83,3.031,3.031,0,0,0,1.924.282A.192.192,0,0,0,1659.959,782.833Z" transform="translate(-1511.98 -748.635)" fill="#303562"/>
          <path id="Trazado_191639" data-name="Trazado 191639" d="M1552.914,660.147a15.2,15.2,0,0,1-2.21-.88,6.961,6.961,0,0,0-4.862-.13,5.329,5.329,0,0,0-1.131.546,2.31,2.31,0,0,0-.42.346c-.151.163-.125.274-.2.468a.037.037,0,0,0,.036.047,2.108,2.108,0,0,0,.406.007,3.785,3.785,0,0,0,.558-.219,9.1,9.1,0,0,1,1.092-.395,6.669,6.669,0,0,1,2.449-.239,6.563,6.563,0,0,1,2.3.7c.588.289,1.676.736,2.042-.1A.1.1,0,0,0,1552.914,660.147Z" transform="translate(-1423.289 -653.247)" fill="#303562"/>
          <path id="Trazado_191640" data-name="Trazado 191640" d="M1524.532,686.5a4.137,4.137,0,0,0-1.965-.847c-.727-.2-1.458-.393-2.189-.581a40.974,40.974,0,0,0-4.423-.983,14.508,14.508,0,0,0-7.654.938,11.038,11.038,0,0,0-1.9.993c-.464.313-1.265.771-1.367,1.372a.05.05,0,0,0,.048.062c.516.029,1.056-.42,1.492-.653.546-.293,1.1-.574,1.671-.813a14.725,14.725,0,0,1,3.553-.98,20.138,20.138,0,0,1,7.973.9c.8.207,1.6.414,2.41.6a4.47,4.47,0,0,0,2.286.242A.151.151,0,0,0,1524.532,686.5Z" transform="translate(-1390.058 -674.671)" fill="#303562"/>
          <path id="Trazado_191641" data-name="Trazado 191641" d="M1535.123,711.887a21.275,21.275,0,0,0-6.921-1.655,17.577,17.577,0,0,0-3.461.2,15.926,15.926,0,0,0-1.7.371,3.955,3.955,0,0,0-1.6.683.232.232,0,0,0,.162.391,6.39,6.39,0,0,0,1.644-.329c.568-.135,1.142-.237,1.719-.318a17.316,17.316,0,0,1,3.443-.135,16.756,16.756,0,0,1,3.4.559c1.081.295,2.2.892,3.324.49A.132.132,0,0,0,1535.123,711.887Z" transform="translate(-1403.955 -697.029)" fill="#303562"/>
          <path id="Trazado_191642" data-name="Trazado 191642" d="M1500.649,958.473c-.156-.663-.9-1.042-1.489-1.269a3.644,3.644,0,0,0-1.619-.235c-1.024.1-2.718.683-2.668,1.949a.529.529,0,0,0,.657.5c-.057.008-.038.007.007.009a.785.785,0,0,0,.341-.092,3.053,3.053,0,0,0,.286-.146c.169-.1.324-.215.5-.309.043-.024.086-.047.13-.068l.076-.036c.08-.031.161-.06.243-.084s.19-.048.285-.069l.036-.007c.049-.005.1-.01.147-.012a2.946,2.946,0,0,1,.3,0c.05,0,.1.009.15.011h0a5.148,5.148,0,0,1,.6.168l.026.013c.045.023.09.045.134.069.089.047.176.1.261.15.053.033.1.071.156.106h0l.064.049a1.129,1.129,0,0,0,.475.209A.746.746,0,0,0,1500.649,958.473Z" transform="translate(-1381.412 -906.971)" fill="#222752"/>
          <path id="Trazado_191643" data-name="Trazado 191643" d="M1614.853,958.473c-.155-.663-.9-1.042-1.489-1.269a3.645,3.645,0,0,0-1.619-.235c-1.024.1-2.718.683-2.668,1.949a.529.529,0,0,0,.657.5c-.057.008-.038.007.007.009a.782.782,0,0,0,.34-.092,2.971,2.971,0,0,0,.287-.146c.169-.1.325-.215.5-.309.043-.024.086-.047.13-.068l.077-.036c.08-.031.161-.06.243-.084s.189-.048.285-.069l.036-.007c.049-.005.1-.01.147-.012a2.953,2.953,0,0,1,.3,0c.05,0,.1.009.15.011h0a5.152,5.152,0,0,1,.6.168l.026.013.134.069c.089.047.176.1.261.15.053.033.1.071.155.106h0l.064.049a1.128,1.128,0,0,0,.475.209A.746.746,0,0,0,1614.853,958.473Z" transform="translate(-1478.584 -906.971)" fill="#222752"/>
          <path id="Trazado_191644" data-name="Trazado 191644" d="M1506.829,989.993a1.326,1.326,0,0,0-1.608-.934,1.42,1.42,0,0,0-.7.471,2.181,2.181,0,0,0-.508,1.076,3.147,3.147,0,0,0,.063,1.288,3.045,3.045,0,0,0,.422.962,1.39,1.39,0,0,0,.816.6,1.329,1.329,0,0,0,1.2-.338A3.1,3.1,0,0,0,1506.829,989.993Z" transform="translate(-1389.156 -934.244)" fill="#222752"/>
          <path id="Trazado_191645" data-name="Trazado 191645" d="M1622.695,989.993a1.327,1.327,0,0,0-1.609-.934,1.421,1.421,0,0,0-.7.471,2.184,2.184,0,0,0-.508,1.076,3.149,3.149,0,0,0,.063,1.288,3.048,3.048,0,0,0,.422.962,1.391,1.391,0,0,0,.816.6,1.329,1.329,0,0,0,1.2-.338A3.1,3.1,0,0,0,1622.695,989.993Z" transform="translate(-1487.742 -934.244)" fill="#222752"/>
          <g id="Grupo_134439" data-name="Grupo 134439" transform="translate(123.118 62.834)">
            <path id="Trazado_191646" data-name="Trazado 191646" d="M1587.032,1047.283h0C1587.026,1047.329,1587.022,1047.364,1587.032,1047.283Z" transform="translate(-1582.942 -1046.662)" fill="#ffa19b"/>
            <path id="Trazado_191647" data-name="Trazado 191647" d="M1563.725,1043.432a.428.428,0,0,0-.408-.31.644.644,0,0,0-.208.041c-.026.01-.052.021-.077.034l-.008,0a1.525,1.525,0,0,0-.264.1c-.143.07-.274.161-.412.24-.066.038-.135.071-.2.108h0c-.04.013-.08.028-.12.04-.073.022-.146.037-.22.053h0c-.042,0-.085.006-.128.007-.074,0-.147,0-.22-.01l-.02,0-.1-.02a2.342,2.342,0,0,1-.252-.063l-.1-.034-.015-.005-.055-.024-.109-.048-.08-.04c-.067-.037-.133-.076-.2-.113a1.921,1.921,0,0,0-.316-.155.35.35,0,0,0-.551.374.117.117,0,0,0,.006.016c-.018.372.406.8.653.991a2.287,2.287,0,0,0,1.359.448,2.658,2.658,0,0,0,1.309-.335,1.64,1.64,0,0,0,.58-.525,1.115,1.115,0,0,0,.166-.462c0-.011,0-.022.005-.033A.6.6,0,0,0,1563.725,1043.432Z" transform="translate(-1559.638 -1043.121)" fill="#ffa19b"/>
          </g>
          <path id="Trazado_191648" data-name="Trazado 191648" d="M1566.21,1075.607a.494.494,0,0,0-.359-.359.9.9,0,0,0-.372-.005.872.872,0,0,0-.339.206h0l-.058.039c-.049.032-.1.061-.152.088l-.039.019-.017.007c-.056.02-.112.038-.169.053s-.115.026-.173.038h0l-.08.007a2.755,2.755,0,0,1-.34-.009l-.081-.015c-.058-.011-.116-.022-.173-.037s-.112-.033-.167-.052l-.019-.005c-.034-.012-.08-.038-.1-.046a.967.967,0,0,0-.44-.085.345.345,0,0,0-.338.338.963.963,0,0,0,.645.794,2.34,2.34,0,0,0,1.011.228,2.657,2.657,0,0,0,1.381-.392.908.908,0,0,0,.32-.305A.769.769,0,0,0,1566.21,1075.607Z" transform="translate(-1439.203 -1007.604)" fill="#ffa19b"/>
          <path id="Trazado_191649" data-name="Trazado 191649" d="M1482.164,1032.856a2.07,2.07,0,0,0-.941-.828,4.567,4.567,0,0,0-2.342-.3c-.091.007-.181.018-.27.032-.042.007-.085.008-.127.015a2.143,2.143,0,0,0-1.991,1.705,2.027,2.027,0,0,0,1.59,2.013,6.033,6.033,0,0,0,1.333.193,6.272,6.272,0,0,0,1.241-.025,2.294,2.294,0,0,0,1.3-.551,1.849,1.849,0,0,0,.563-1.224A1.385,1.385,0,0,0,1482.164,1032.856Z" transform="translate(-1365.765 -970.561)" fill="#ff7b8e"/>
          <path id="Trazado_191650" data-name="Trazado 191650" d="M1629.908,1032.856a2.072,2.072,0,0,0-.941-.828,4.568,4.568,0,0,0-2.342-.3c-.091.007-.181.018-.27.032-.042.007-.085.008-.127.015a2.143,2.143,0,0,0-1.991,1.705,2.027,2.027,0,0,0,1.59,2.013,6.032,6.032,0,0,0,1.333.193,6.272,6.272,0,0,0,1.241-.025,2.294,2.294,0,0,0,1.3-.551,1.85,1.85,0,0,0,.563-1.224A1.387,1.387,0,0,0,1629.908,1032.856Z" transform="translate(-1491.476 -970.561)" fill="#ff7b8e"/>
          <path id="Trazado_191651" data-name="Trazado 191651" d="M1636.937,1192.549a.424.424,0,0,0-.811,0,19.446,19.446,0,0,0-.226,4.375q-.035,2.287-.158,4.571-.247,4.53-.846,9.032t-1.559,8.933q-.48,2.239-1.048,4.458-.284,1.109-.59,2.213a12.722,12.722,0,0,0-.493,1.8.559.559,0,0,0,.4.53l.1.041a.671.671,0,0,0,.76-.31,24.1,24.1,0,0,0,1.189-4.189q.559-2.221,1.03-4.463.93-4.43,1.5-8.922.589-4.54.816-9.119.112-2.284.134-4.571A17.2,17.2,0,0,0,1636.937,1192.549Z" transform="translate(-1497.412 -1107.175)" fill="#4c68ad"/>
          <path id="Trazado_191652" data-name="Trazado 191652" d="M1474.661,1210.219c-.524-2.92-.984-5.849-1.246-8.806q-.2-2.246-.241-4.5-.022-1.128.007-2.256a7.327,7.327,0,0,0-.052-2.089c-.085-.321-.619-.444-.769-.1a11.067,11.067,0,0,0-.369,4.164c-.006,1.5.068,3,.188,4.5.234,2.924.648,5.835,1.108,8.731.952,5.989,2.131,11.923,2.726,17.964.085.859,1.421.887,1.365,0C1477,1221.9,1475.708,1216.051,1474.661,1210.219Z" transform="translate(-1361.927 -1107.185)" fill="#4c68ad"/>
          <path id="Trazado_191653" data-name="Trazado 191653" d="M1351.185,1372.8a6.66,6.66,0,0,0-1.234,2.076c-.368.738-.731,1.479-1.07,2.231s-.657,1.516-.969,2.28a4.609,4.609,0,0,0-.654,2.306c.077.415.581.437.848.224a2.6,2.6,0,0,0,.611-1.115c.143-.358.279-.718.423-1.076.3-.741.614-1.474.925-2.209s.634-1.472.967-2.2a7.506,7.506,0,0,0,.876-2.218C1351.946,1372.706,1351.434,1372.584,1351.185,1372.8Z" transform="translate(-1255.792 -1260.711)" fill="#4c68ad"/>
          <path id="Trazado_191654" data-name="Trazado 191654" d="M1779.6,1378.138c-.634-1.759-1.427-3.474-2.207-5.173-.38-.827-.776-1.643-1.2-2.445a2.541,2.541,0,0,0-.659-.975.658.658,0,0,0-.889.043.313.313,0,0,0,.062.482,1.656,1.656,0,0,1,.476.753c.158.354.311.71.466,1.065.322.736.657,1.465.969,2.205.613,1.451,1.112,2.935,1.66,4.41C1778.583,1379.323,1779.905,1378.975,1779.6,1378.138Z" transform="translate(-1619.388 -1257.902)" fill="#4c68ad"/>
        </g>
        <g id="Grupo_134441" data-name="Grupo 134441" transform="translate(33.139 213.88)">
          <path id="Trazado_191655" data-name="Trazado 191655" d="M1056.262,1633.716s12.87-4.123,12.166,7.742-8.547,13.172-13.373,11.161V1649.3s7.038,2.111,8.245-4.424-1.911-8.345-6.435-6.938Z" transform="translate(-1032.9 -1626.987)" fill="#ea5779"/>
          <path id="Trazado_191656" data-name="Trazado 191656" d="M928.58,1623.183H910.564a2,2,0,0,1-1.989-1.84l-2.081-26.648a2,2,0,0,1,1.989-2.15H930.66a2,2,0,0,1,1.989,2.15l-2.081,26.648A2,2,0,0,1,928.58,1623.183Z" transform="translate(-906.488 -1592.545)" fill="#fc502d"/>
        </g>
        <path id="Trazado_191657" data-name="Trazado 191657" d="M962.542,1808.214H714.661a5.126,5.126,0,0,1-5.111-5.111h0a5.126,5.126,0,0,1,5.111-5.111H962.542a5.126,5.126,0,0,1,5.111,5.111h0A5.126,5.126,0,0,1,962.542,1808.214Z" transform="translate(-705.78 -1553.473)" fill="#222752"/>
        <g id="Grupo_134443" data-name="Grupo 134443" transform="translate(110.162)">
          <path id="Trazado_191658" data-name="Trazado 191658" d="M1493.883,266.748c.275-.257-1.829-4.48-3.291-6.125s-9.142-7.5-6.583-19.656,16.273-17.554,25.69-9.051,1.612,23.958-.64,27.336a37.538,37.538,0,0,0-3.291,6.857Z" transform="translate(-1474.465 -217.429)" fill="#fc502d"/>
          <path id="Trazado_191659" data-name="Trazado 191659" d="M1575.389,539.265s-.055,3.976,2.956,3.8,3.179-4.469,3.179-4.469Z" transform="translate(-1552.658 -481.894)" fill="#222752"/>
          <path id="Trazado_191660" data-name="Trazado 191660" d="M1550.279,507.121s-1.409,2.569.58,4.392,8.286,1.077,10.275.166,1.74-3.149,1.409-4.641-8.37-.414-8.7-.5A32.066,32.066,0,0,0,1550.279,507.121Z" transform="translate(-1530.881 -454.363)" fill="#6383be"/>
          <path id="Trazado_191661" data-name="Trazado 191661" d="M1545.99,478.348a3.055,3.055,0,0,0-.574,2.349,3.576,3.576,0,0,0,1.144,2.415c2.194,2.011,9.142,1.189,11.337.183a3.052,3.052,0,0,0,1.753-2.426c.154-1.047.313-2.452-.584-3.234-.963-.839-2.554-.4-3.7-.352-1.247.057-2.491.159-3.739.195a25.135,25.135,0,0,0-4.254.168A2.469,2.469,0,0,0,1545.99,478.348Z" transform="translate(-1527.141 -429.588)" fill="#6383be"/>
          <path id="Trazado_191662" data-name="Trazado 191662" d="M1551.159,375.547a3.91,3.91,0,0,0-3.088-1.118,4.617,4.617,0,0,0-2.782,1.092,4.057,4.057,0,0,0-5.177.1c-.029-.016-.056-.035-.085-.05a2.872,2.872,0,0,0-3.325.645,5.208,5.208,0,0,0-1.206,3.834,9.334,9.334,0,0,0,.99,3.934,8.16,8.16,0,0,0,2.713,3.055c.475.343,1.044-.413.623-.807a9.582,9.582,0,0,1-2.493-3.985,6.142,6.142,0,0,1,.028-4.521,1.7,1.7,0,0,1,1.7-1,1.286,1.286,0,0,1,.129.037,4.217,4.217,0,0,0-.51,1.637,3.348,3.348,0,0,0,1.042,2.917,1.879,1.879,0,0,0,2.629-.19c.767-.981.116-2.321-.352-3.289a6.583,6.583,0,0,0-.822-1.32,2.557,2.557,0,0,1,.921-.434,2.742,2.742,0,0,1,2.292.47,4.714,4.714,0,0,0-.744,2.2c-.079,1.032.286,2.388,1.515,2.489,1.132.093,1.566-1.07,1.674-2a4.142,4.142,0,0,0-.623-2.711,3.283,3.283,0,0,1,2.921-.614,1.689,1.689,0,0,1,1.055.639,3.264,3.264,0,0,1,.243,1.324,15.529,15.529,0,0,1-.034,2.854,17.228,17.228,0,0,1-1.528,5.165.227.227,0,0,0-.266.052.792.792,0,0,0,.472,1.334.687.687,0,0,0,.74-.3,15.147,15.147,0,0,0,2.041-7.806C1551.855,378.06,1551.923,376.462,1551.159,375.547Zm-10.425,4.783c-.4-.152-.588-.722-.655-1.091a2.735,2.735,0,0,1,.192-1.57c.06.087.118.174.17.26a5.118,5.118,0,0,1,.851,1.976C1541.313,380.284,1541.1,380.47,1540.733,380.33Zm4.4-.537c-.2-.09-.148-.744-.137-.929a3.313,3.313,0,0,1,.291-1.143,2.752,2.752,0,0,1,.133.376C1545.487,378.382,1545.576,380,1545.13,379.793Z" transform="translate(-1518.713 -342.204)" fill="#fff"/>
          <path id="Trazado_191663" data-name="Trazado 191663" d="M1507.385,262.328a3.526,3.526,0,0,0-1.949.716,8.933,8.933,0,0,0-1.333,1.144,11.667,11.667,0,0,0-1.862,2.663,17.006,17.006,0,0,0-1.216,3.371,7.33,7.33,0,0,0-.388,1.9,2.264,2.264,0,0,0,.379,1.369,1.524,1.524,0,0,0,1.614.6c1.325-.338,1.6-1.937,2.01-3.038.083-.221.172-.44.258-.659l.009-.02c.055-.123.11-.246.167-.367.206-.439.429-.873.666-1.3.2-.348.413-.678.64-1.006l.014-.021c.048-.058.1-.118.145-.175.135-.158.276-.312.422-.46s.3-.289.454-.425c.069-.06.14-.12.21-.179.027-.023.128-.1.153-.121l.035-.024c.075-.052.154-.1.229-.151a4.172,4.172,0,0,0,.967-.989C1509.871,264.022,1508.7,262.259,1507.385,262.328Z" transform="translate(-1489.053 -246.823)" fill="#fff"/>
          <path id="Trazado_191664" data-name="Trazado 191664" d="M1570.108,242.771a2.1,2.1,0,0,0-1.451-.26c-.364.045-.727.092-1.085.171a4.727,4.727,0,0,0-.988.389,2.014,2.014,0,0,0-.99,1.115,1.281,1.281,0,0,0,.576,1.683l.056.042-.05-.039a1.466,1.466,0,0,0,.642.244c.115.016.228.029.343.041a1.73,1.73,0,0,0,.374-.012c.391-.039.778-.1,1.167-.15l-.463.062a4,4,0,0,0,1.868-.373,1.743,1.743,0,0,0,.835-1.456A1.721,1.721,0,0,0,1570.108,242.771Z" transform="translate(-1544.222 -229.94)" fill="#fff"/>
          <g id="Grupo_134442" data-name="Grupo 134442" transform="translate(3.685 41.349)">
            <path id="Trazado_191665" data-name="Trazado 191665" d="M1452.572,458.06c.031.015.031.013,0,0Z" transform="translate(-1451.842 -454.716)" fill="#ffc86d"/>
            <path id="Trazado_191666" data-name="Trazado 191666" d="M1452.77,436.4a1.062,1.062,0,0,0-.343-.445,1.233,1.233,0,0,0-.662-.237l.022,0-.05-.01c-.025-.009-.05-.022-.075-.029a1.626,1.626,0,0,0-.734,0c-.107.02-.213.049-.319.074a4.376,4.376,0,0,0-.667.2,3.237,3.237,0,0,0-1.71,1.07c-.072.079-.146.156-.212.241a.579.579,0,0,0-.148.254c-.013.024-.018.051-.028.076l-.05.083a.876.876,0,0,0,.518,1.274.683.683,0,0,1,.094.031,1.356,1.356,0,0,1-.3-.207,1.224,1.224,0,0,0,.661.317c.1.013.2.018.3.025a1.916,1.916,0,0,0,1.092-.051c.218-.081.433-.174.65-.26a6.107,6.107,0,0,0,.863-.415c.093-.055.189-.108.28-.166a1.907,1.907,0,0,0,.537-.552l.047-.058A1.139,1.139,0,0,0,1452.77,436.4Z" transform="translate(-1447.676 -435.637)" fill="#fc502d"/>
          </g>
          <path id="Trazado_191667" data-name="Trazado 191667" d="M1427.834,332.624a2.79,2.79,0,0,0-2.268-.6c-.3.019-.6.075-.9.115a1.964,1.964,0,0,0-.8.234c-.062.037-.122.082-.18.124a1.909,1.909,0,0,0-.419.376.971.971,0,0,0-.23.437q-.027.1.051-.072a.95.95,0,0,0,.145,1.123c-.23-.231.1.166.135.2a1.552,1.552,0,0,0,.635.358,1.7,1.7,0,0,0,.743.129,10.02,10.02,0,0,0,1.207-.161,2.825,2.825,0,0,0,2.028-1.122A.967.967,0,0,0,1427.834,332.624Z" transform="translate(-1422.969 -306.114)" fill="#fc502d"/>
          <path id="Trazado_191668" data-name="Trazado 191668" d="M1456.534,231.668c-.017-.035-.036-.07-.055-.1s-.047-.111-.087-.2a1.6,1.6,0,0,0-.345-.394,6.255,6.255,0,0,0-.751-.57,3.864,3.864,0,0,0-.945-.344c-.108-.032-.215-.07-.323-.1a3.41,3.41,0,0,0-.561-.087,1.742,1.742,0,0,0-.906.043,1.635,1.635,0,0,1-.358.1.99.99,0,0,0-.6.459,1.052,1.052,0,0,0-.1.77,2.066,2.066,0,0,0,.838,1.3,3.243,3.243,0,0,0,1.149.435,5.015,5.015,0,0,0,1.214.143c.137-.01.274-.017.411-.016a2.735,2.735,0,0,0,.466-.027c.048,0,.1,0,.144,0a.926.926,0,0,0,.808-.463A.966.966,0,0,0,1456.534,231.668Z" transform="translate(-1447.221 -219.174)" fill="#fc502d"/>
          <path id="Trazado_191669" data-name="Trazado 191669" d="M1554.214,161.316c-.04-.172-.073-.346-.124-.515a6.873,6.873,0,0,0-.472-1.288,4.139,4.139,0,0,0-.357-.5,1.451,1.451,0,0,0-.623-.465q-.342-.149.033.025l-.124-.053a1.163,1.163,0,0,0-.837-.109,1.12,1.12,0,0,0-.649.5l-.057.1q.273-.34.04-.043a1.516,1.516,0,0,0-.326.908,2.939,2.939,0,0,0,.081.828,9.218,9.218,0,0,0,.5,1.369,3.76,3.76,0,0,0,.714,1.186c.112.112.22.23.336.338a1.138,1.138,0,0,0,1.562.025,1.377,1.377,0,0,0,.379-.988c.02-.165.055-.335.059-.5A3.393,3.393,0,0,0,1554.214,161.316Z" transform="translate(-1531.666 -158.369)" fill="#fc502d"/>
          <path id="Trazado_191670" data-name="Trazado 191670" d="M1672.846,186.861l.01.074a1.923,1.923,0,0,0-.042-.6,1.139,1.139,0,0,0-.067-.15.534.534,0,0,0-.016-.089.913.913,0,0,0-.856-.652c-.03,0-.059,0-.089,0a1.221,1.221,0,0,0-.341,0,3.928,3.928,0,0,0-.432.089l.387-.052a2.152,2.152,0,0,0-1.35.585,3.58,3.58,0,0,0-.577.625l-.671.879a3.283,3.283,0,0,0-.885,2.684,1.165,1.165,0,0,0,1.108.844,3.33,3.33,0,0,0,2.39-1.512c.233-.286.469-.569.7-.858a4.065,4.065,0,0,0,.466-.71,2.666,2.666,0,0,0,.224-.531A1.65,1.65,0,0,0,1672.846,186.861Z" transform="translate(-1631.339 -181.396)" fill="#fc502d"/>
          <path id="Trazado_191671" data-name="Trazado 191671" d="M1714.28,337.787a.449.449,0,0,0-.041-.041c-.023-.028-.043-.06-.068-.087a1.319,1.319,0,0,0-.7-.387l.337.142a2.277,2.277,0,0,0-1.005-.257,3.582,3.582,0,0,0-.8.055c-.291.056-.58.127-.87.188a5.411,5.411,0,0,0-.849.257,2.138,2.138,0,0,0-1.241.931,1.163,1.163,0,0,0,.172,1.333,2.09,2.09,0,0,0,1.451.561,4.651,4.651,0,0,0,.882-.018q.44-.053.88-.111a2.981,2.981,0,0,0,1.511-.593,1.5,1.5,0,0,0,.574-.775c.016-.048.029-.1.048-.142A1.072,1.072,0,0,0,1714.28,337.787Z" transform="translate(-1666.264 -310.494)" fill="#fc502d"/>
          <path id="Trazado_191672" data-name="Trazado 191672" d="M1693.36,457.106a2.343,2.343,0,0,0-.3-.586,1.451,1.451,0,0,0-.511-.44,4.1,4.1,0,0,0-.685-.27q-.362-.1-.717-.222c-.122-.041-.244-.094-.369-.123s-.236-.04-.353-.062a4.467,4.467,0,0,0-.642-.1c-.124,0-.25.005-.375.005a1.124,1.124,0,0,0-.963,1.678,3.44,3.44,0,0,0,.623.749,4.419,4.419,0,0,0,.881.617c.833.41,1.852.981,2.744.4a1.516,1.516,0,0,0,.594-.694A1.338,1.338,0,0,0,1693.36,457.106Z" transform="translate(-1648.713 -411.017)" fill="#fc502d"/>
          <path id="Trazado_191673" data-name="Trazado 191673" d="M1563.9,510.031l-.093-.119a.505.505,0,0,0-.6-.088,17.722,17.722,0,0,0-2.792.3l-3.126.363a12.973,12.973,0,0,1-5.6-.145c-.63-.207-.875.755-.271.982a13.018,13.018,0,0,0,5.768.469q1.616-.141,3.231-.289a15.179,15.179,0,0,0,3.2-.362A.673.673,0,0,0,1563.9,510.031Z" transform="translate(-1531.964 -457.36)" fill="#4c68ad"/>
        </g>
        <g id="Grupo_134444" data-name="Grupo 134444" transform="translate(55.161 22.348)">
          <path id="Trazado_191674" data-name="Trazado 191674" d="M1187.8,437.129s9.691,13.348,14.994,8.045-12.8-11.885-12.8-11.885Z" transform="translate(-1167.869 -414.638)" fill="#222752"/>
          <circle id="Elipse_5403" data-name="Elipse 5403" cx="12.799" cy="12.799" r="12.799" fill="#0d2380"/>
          <circle id="Elipse_5404" data-name="Elipse 5404" cx="8.594" cy="8.594" r="8.594" transform="translate(4.206 4.206)" fill="#fff0eb"/>
          <path id="Trazado_191675" data-name="Trazado 191675" d="M1095.63,372.666a6.3,6.3,0,0,0-1.082,1.133,7.426,7.426,0,0,1-1,1.122,7.872,7.872,0,0,1-2.572,1.567,8.051,8.051,0,0,1-6.219-.218,9.546,9.546,0,0,1-4.448-4.4,8.938,8.938,0,0,1-.915-3.463,11.313,11.313,0,0,1,.585-3.707c.054-.193-.21-.368-.351-.2-1.341,1.552-1.353,3.943-.9,5.868a10.51,10.51,0,0,0,2.912,5.079,9.281,9.281,0,0,0,10.508,1.932,8.977,8.977,0,0,0,2.6-1.845,7.378,7.378,0,0,0,1.011-1.262,2.387,2.387,0,0,0,.3-1.423A.251.251,0,0,0,1095.63,372.666Z" transform="translate(-1074.836 -356.047)" fill="#4c68ad"/>
        </g>
        <g id="Grupo_134445" data-name="Grupo 134445" transform="translate(0 49.548)">
          <path id="Trazado_191676" data-name="Trazado 191676" d="M763.855,502.575h-3.019a10.642,10.642,0,0,0-.89-2.159l2.131-2.131a1.662,1.662,0,0,0,0-2.344l-1.891-1.891a1.662,1.662,0,0,0-2.344,0l-2.131,2.131a10.645,10.645,0,0,0-2.159-.889v-3.019a1.662,1.662,0,0,0-1.657-1.658h-2.674a1.662,1.662,0,0,0-1.657,1.658v3.019a10.648,10.648,0,0,0-2.159.889l-2.131-2.131a1.662,1.662,0,0,0-2.344,0l-1.891,1.891a1.662,1.662,0,0,0,0,2.344l2.131,2.131a10.642,10.642,0,0,0-.89,2.159h-3.019a1.662,1.662,0,0,0-1.658,1.657v2.674a1.663,1.663,0,0,0,1.658,1.657h3.019a10.642,10.642,0,0,0,.89,2.159l-2.131,2.131a1.662,1.662,0,0,0,0,2.344l1.891,1.891a1.662,1.662,0,0,0,2.344,0l2.131-2.131a10.631,10.631,0,0,0,2.159.889v3.019a1.662,1.662,0,0,0,1.657,1.657H751.9a1.662,1.662,0,0,0,1.657-1.657v-3.019a10.628,10.628,0,0,0,2.159-.889l2.131,2.131a1.662,1.662,0,0,0,2.344,0l1.891-1.891a1.663,1.663,0,0,0,0-2.344l-2.131-2.131a10.642,10.642,0,0,0,.89-2.159h3.019a1.662,1.662,0,0,0,1.657-1.657v-2.674A1.662,1.662,0,0,0,763.855,502.575Zm-13.3,8.982a5.987,5.987,0,1,1,5.987-5.987A5.987,5.987,0,0,1,750.558,511.557Z" transform="translate(-727.949 -490.615)" fill="#fc502d"/>
          <path id="Trazado_191677" data-name="Trazado 191677" d="M722.687,692.991l-1.832.7a6.922,6.922,0,0,0-1.04-1.1l.8-1.787a1.08,1.08,0,0,0-.542-1.423l-1.586-.71a1.08,1.08,0,0,0-1.423.543l-.8,1.787a6.912,6.912,0,0,0-1.517-.04l-.7-1.832a1.08,1.08,0,0,0-1.39-.623l-1.623.619a1.08,1.08,0,0,0-.622,1.39l.7,1.832a6.911,6.911,0,0,0-1.1,1.04l-1.787-.8a1.08,1.08,0,0,0-1.423.542l-.71,1.586a1.08,1.08,0,0,0,.543,1.423l1.787.8a6.914,6.914,0,0,0-.04,1.516l-1.832.7a1.08,1.08,0,0,0-.623,1.39l.619,1.623a1.08,1.08,0,0,0,1.39.622l1.832-.7a6.923,6.923,0,0,0,1.04,1.1l-.8,1.787a1.08,1.08,0,0,0,.543,1.423l1.586.71a1.08,1.08,0,0,0,1.423-.543l.8-1.787a6.915,6.915,0,0,0,1.516.04l.7,1.832a1.08,1.08,0,0,0,1.39.623l1.623-.619a1.08,1.08,0,0,0,.622-1.39l-.7-1.833a6.9,6.9,0,0,0,1.1-1.04l1.787.8a1.08,1.08,0,0,0,1.423-.543l.71-1.585a1.08,1.08,0,0,0-.543-1.423l-1.787-.8a6.919,6.919,0,0,0,.04-1.516l1.833-.7a1.08,1.08,0,0,0,.622-1.39l-.619-1.623A1.08,1.08,0,0,0,722.687,692.991Zm-5.992,8.53a3.89,3.89,0,1,1,2.249-5.02A3.89,3.89,0,0,1,716.694,701.521Z" transform="translate(-702.633 -658.929)" fill="#0d2380"/>
          <path id="Trazado_191678" data-name="Trazado 191678" d="M690.224,680.816l-.015-.111,0-.024v0c0-.035-.005-.036,0,0a1.023,1.023,0,0,0-.2-.53c-.334-.433-1.03-.463-1.531-.519a4.621,4.621,0,0,0-.7-.024,2.087,2.087,0,0,0-.43.048,1.228,1.228,0,0,0-.22.071,1.345,1.345,0,0,0-.18.12.371.371,0,0,0,0,.634q-.024-.044.038.02a.594.594,0,0,0,.086.061.76.76,0,0,0,.194.067,2.618,2.618,0,0,0,.4.065l.147.015.076.009.15.023.076.01a9.054,9.054,0,0,0-1.291,1.2,9.728,9.728,0,0,0-1.517,2.13,9.173,9.173,0,0,0-.861,2.4c-.138.72-.4,1.865.285,2.365a.091.091,0,0,0,.094,0c.6-.392.623-1.332.82-1.973a10.085,10.085,0,0,1,.882-2.078,9.65,9.65,0,0,1,1.275-1.782,9.337,9.337,0,0,1,.86-.819c.078-.065.166-.123.25-.183q-.011.256-.023.512a1.325,1.325,0,0,0,.138.841.585.585,0,0,0,.418.273.54.54,0,0,0,.48-.157,1.06,1.06,0,0,0,.247-.563,4.008,4.008,0,0,0,.021-.425l.02-.768q.01-.368.019-.737C690.225,680.928,690.227,680.872,690.224,680.816Z" transform="translate(-684.271 -651.416)" fill="#6383be"/>
          <path id="Trazado_191679" data-name="Trazado 191679" d="M860.167,675.882a6.419,6.419,0,0,0-1,1,12.845,12.845,0,0,1-1.013.944,11.927,11.927,0,0,1-2.359,1.513,13.15,13.15,0,0,1-2.56.958c-.417.107-.932.148-1.423.24l.166-.194a7.125,7.125,0,0,0,.471-.581,1.084,1.084,0,0,0,.18-.35.64.64,0,0,0,.033-.162.845.845,0,0,0-.076-.247.105.105,0,0,0-.075-.075,1.379,1.379,0,0,0-.225-.054.6.6,0,0,0-.216.057,1.35,1.35,0,0,0-.365.256,7.76,7.76,0,0,0-.565.576c-.387.407-1.017.9-.74,1.533a1.728,1.728,0,0,0,.626.624l.654.5c.217.165.429.344.656.495a1.071,1.071,0,0,0,.512.19,1.125,1.125,0,0,0,.379-.057.293.293,0,0,0,.211-.277.972.972,0,0,0-.27-.694,2.42,2.42,0,0,0-.436-.337c.315-.042.63-.093.938-.154a12.311,12.311,0,0,0,2.882-.952,13.5,13.5,0,0,0,2.576-1.617,6.339,6.339,0,0,0,2.113-2.311A.739.739,0,0,0,860.167,675.882Z" transform="translate(-825.569 -648.167)" fill="#ea5779"/>
        </g>
        <g id="Grupo_134446" data-name="Grupo 134446" transform="translate(228.109 71.911)">
          <path id="Trazado_191680" data-name="Trazado 191680" d="M2252.766,647.38c-1.345-2.939-30.05-7.855-33.113-6.617-2.841,1.148-5.806,20.285-5.788,22.508,0,.561,2.084,1.354,5.22,2.21.469,2.562,1.269,6.579,1.773,7.23.561.725,4-2.885,5.653-5.472,9.39,1.988,20.775,3.728,21.995,3.224C2250.615,669.592,2254.111,650.319,2252.766,647.38Z" transform="translate(-2213.865 -640.567)" fill="#fc502d"/>
          <path id="Trazado_191681" data-name="Trazado 191681" d="M2264.331,735.56c0-.031.014-.062.017-.093a1.987,1.987,0,0,0-.156-1.013,1.947,1.947,0,0,0-.711-.828,1.776,1.776,0,0,0-1.925-.5,1.977,1.977,0,0,0-1.128,2.063,2.278,2.278,0,0,0,.4,1.068,1.9,1.9,0,0,0,.872.7l.007,0a1.468,1.468,0,0,0,1.206.342,1.735,1.735,0,0,0,1.089-.635A1.713,1.713,0,0,0,2264.331,735.56Z" transform="translate(-2253.477 -719.223)" fill="#fff0eb"/>
          <path id="Trazado_191682" data-name="Trazado 191682" d="M2332.4,751.156c0-.031.014-.063.017-.093a1.984,1.984,0,0,0-.155-1.013,1.945,1.945,0,0,0-.711-.828,1.775,1.775,0,0,0-1.924-.5,1.976,1.976,0,0,0-1.128,2.063,2.275,2.275,0,0,0,.4,1.069,1.9,1.9,0,0,0,.872.7l.008,0a1.469,1.469,0,0,0,1.206.342,1.735,1.735,0,0,0,1.09-.635A1.711,1.711,0,0,0,2332.4,751.156Z" transform="translate(-2311.395 -732.492)" fill="#fff0eb"/>
          <path id="Trazado_191683" data-name="Trazado 191683" d="M2400.468,766.751c0-.031.014-.063.017-.093a1.985,1.985,0,0,0-.155-1.013,1.947,1.947,0,0,0-.711-.828,1.776,1.776,0,0,0-1.925-.5,1.975,1.975,0,0,0-1.127,2.063,2.272,2.272,0,0,0,.4,1.069,1.9,1.9,0,0,0,.872.7l.007,0a1.468,1.468,0,0,0,1.206.342,1.733,1.733,0,0,0,1.089-.635A1.712,1.712,0,0,0,2400.468,766.751Z" transform="translate(-2369.312 -745.762)" fill="#fff0eb"/>
        </g>
        <g id="Grupo_134447" data-name="Grupo 134447" transform="translate(178.03 24.948)">
          <path id="Trazado_191684" data-name="Trazado 191684" d="M1882.633,336.427s-4.754,19.565-4.571,22.308,29.987,11.7,32.547,11.154,6.765-19.565,6.765-19.565Z" transform="translate(-1878.057 -334.821)" fill="#b9cee6"/>
          <path id="Trazado_191685" data-name="Trazado 191685" d="M1903.394,326.17c-1.117,1.515,10.057,19.93,14.628,21.21s20.845-3.474,22.125-6.4S1905.954,322.7,1903.394,326.17Z" transform="translate(-1899.549 -325.661)" fill="#6383be"/>
          <path id="Trazado_191686" data-name="Trazado 191686" d="M1943.6,364.272a2.235,2.235,0,0,0-1.693.471q-.865.484-1.757.917a33.284,33.284,0,0,1-3.677,1.528,24.113,24.113,0,0,1-8.119,1.629c-5.471-.114-9.085-4.822-11.762-9.033-1.754-2.759-3.34-5.644-5.2-8.334a.388.388,0,0,0-.67.392c1.362,2.817,2.978,5.539,4.5,8.275a26.74,26.74,0,0,0,4.961,6.867,12.825,12.825,0,0,0,6.8,3.465,21.04,21.04,0,0,0,8.732-1.052,36.1,36.1,0,0,0,4.437-1.651q1.147-.512,2.25-1.114c.663-.36,1.5-.691,1.7-1.483A.722.722,0,0,0,1943.6,364.272Z" transform="translate(-1905.817 -347.449)" fill="#4c68ad"/>
          <path id="Trazado_191687" data-name="Trazado 191687" d="M1895.924,453.061a1.982,1.982,0,0,0-1.263-.073c-.407.142-.8.339-1.2.506q-1.241.523-2.484,1.042c-.825.344-1.645.7-2.466,1.053-.708.3-1.851.558-2.232,1.284a.383.383,0,0,0,.225.554c.777.256,1.794-.365,2.51-.642.836-.324,1.671-.649,2.5-.988s1.66-.68,2.489-1.022c.395-.163.817-.3,1.2-.5a2,2,0,0,0,.828-.948A.184.184,0,0,0,1895.924,453.061Z" transform="translate(-1885.014 -433.932)" fill="#90bfdf"/>
          <path id="Trazado_191688" data-name="Trazado 191688" d="M2064.835,498.187c-.246-.358-.491-.716-.733-1.077-.469-.7-.91-1.419-1.351-2.138q-.641-1.044-1.225-2.122a12.864,12.864,0,0,0-1.3-2.209.492.492,0,0,0-.832.345,8.433,8.433,0,0,0,.8,2.292c.316.7.661,1.386,1.017,2.065s.74,1.342,1.142,1.995q.321.522.656,1.035.168.256.344.508c.05.072.27.5.26.289a.789.789,0,0,0,1.542.209A1.238,1.238,0,0,0,2064.835,498.187Z" transform="translate(-2032.345 -465.919)" fill="#90bfdf"/>
        </g>
        <g id="Grupo_134451" data-name="Grupo 134451" transform="translate(212.979 190.776)">
          <path id="Trazado_191689" data-name="Trazado 191689" d="M2125.272,1483.131s-10.676-31.263,9.874-32.913c22.216-1.783,16.045,29.073,14.536,33.187S2125.272,1483.131,2125.272,1483.131Z" transform="translate(-2120.995 -1448.276)" fill="#3eadbd"/>
          <path id="Trazado_191690" data-name="Trazado 191690" d="M2141.716,1675.882h-21.89c-1.265,0-2.318-.56-2.417-1.285l-2.528-18.615c-.11-.81,1-1.5,2.417-1.5h26.946c1.413,0,2.526.692,2.417,1.5l-2.528,18.615C2144.033,1675.322,2142.981,1675.882,2141.716,1675.882Z" transform="translate(-2114.506 -1622.14)" fill="#fc502d"/>
          <path id="Trazado_191691" data-name="Trazado 191691" d="M2116.03,1614.1a1.955,1.955,0,0,0-.957-.185c-.241-.012-.481-.017-.722-.035s-.456-.03-.686-.039a1.7,1.7,0,0,0-.72.062l-.082.01a.43.43,0,0,0-.217.059q-.132.114-.074.052a.335.335,0,0,0-.12.457c-.013-.059,0-.033.039.08a.432.432,0,0,0,.155.154c.033.024.068.046.1.069a.751.751,0,0,0,.238.181,3.157,3.157,0,0,0,.439.178,4.984,4.984,0,0,0,.728.187c.293.052.59.1.886.127a1.653,1.653,0,0,0,.988-.131A.717.717,0,0,0,2116.03,1614.1Z" transform="translate(-2112.407 -1587.553)" fill="#0a9399"/>
          <g id="Grupo_134448" data-name="Grupo 134448" transform="translate(0.13 20.616)">
            <path id="Trazado_191692" data-name="Trazado 191692" d="M2116.627,1577.73c.021.1.017.056-.013-.124l-.052-.122.034.081a.887.887,0,0,0-.344-.45c-.046-.031-.091-.063-.137-.093a2.858,2.858,0,0,0-.5-.378c-.169-.111-.331-.233-.5-.346-.081-.054-.159-.112-.237-.171a1.719,1.719,0,0,0-.435-.2,1.252,1.252,0,0,0-.418-.066,1.328,1.328,0,0,0-.251.03l-.039.016a.323.323,0,0,0-.265.044.365.365,0,0,0-.113.3c0-.013.01-.028.018-.053-.006.025-.012.037-.018.056v.006l-.008.017a.627.627,0,0,0-.074.318,1.338,1.338,0,0,0,.139.581,1.983,1.983,0,0,0,.7.742,3.255,3.255,0,0,0,.733.375,1.6,1.6,0,0,0,.759.139,2.666,2.666,0,0,0,.274.023.768.768,0,0,0,.412-.128,1.215,1.215,0,0,0,.151-.114c.113-.126.138-.162.074-.108A.377.377,0,0,0,2116.627,1577.73Z" transform="translate(-2113.28 -1575.864)" fill="#0a9399"/>
            <path id="Trazado_191693" data-name="Trazado 191693" d="M2113.781,1578.477c-.006.019-.009.03-.007.026s0-.015.008-.023S2113.781,1578.478,2113.781,1578.477Z" transform="translate(-2113.7 -1578.087)" fill="#0a9399"/>
            <path id="Trazado_191694" data-name="Trazado 191694" d="M2135.232,1586.589c-.013-.033-.012-.03,0,0Z" transform="translate(-2131.95 -1584.97)" fill="#0a9399"/>
          </g>
          <path id="Trazado_191695" data-name="Trazado 191695" d="M2119.867,1512.874a8.064,8.064,0,0,0-.807-.789,5.341,5.341,0,0,0-.992-.752,2.913,2.913,0,0,0-.622-.246,1,1,0,0,0-.569,0,.2.2,0,0,0-.217.246l0,0a.6.6,0,0,0-.013.253,2.119,2.119,0,0,0,.044.214,2.547,2.547,0,0,0,.274.586,2.069,2.069,0,0,0,.261.339c-.041-.043-.077-.1-.023-.014a2,2,0,0,0,.179.223c.13.143.279.27.42.4a9.535,9.535,0,0,0,.96.807,3,3,0,0,0,.614.337,1.37,1.37,0,0,0,.584.112.508.508,0,0,0,.5-.5A2.009,2.009,0,0,0,2119.867,1512.874Z" transform="translate(-2116.009 -1500.096)" fill="#0a9399"/>
          <g id="Grupo_134449" data-name="Grupo 134449" transform="translate(4.67 2.331)">
            <path id="Trazado_191696" data-name="Trazado 191696" d="M2146.3,1456.9c-.012-.04-.047-.235-.028-.057a1.114,1.114,0,0,0-.055-.259,3.2,3.2,0,0,0-.2-.458l-.046-.1q.116.238-.036-.1c-.024-.048-.052-.1-.077-.143-.055-.108-.1-.218-.156-.328-.008-.02-.015-.039-.022-.059-.022-.059-.042-.119-.061-.18-.038-.121-.078-.241-.111-.364a4.645,4.645,0,0,0-.2-.723.987.987,0,0,0-.127-.274.91.91,0,0,0-.358-.453.433.433,0,0,0-.029-.054.2.2,0,0,0-.262-.069.559.559,0,0,0-.084.069.839.839,0,0,0-.537.529.717.717,0,0,0-.117.222c-.03.109.024-.021.039-.053a1.081,1.081,0,0,0-.116.451,2.625,2.625,0,0,0,.049.61,3.8,3.8,0,0,0,.345,1.038,2.763,2.763,0,0,0,.212.379c.056.082.118.16.179.239a1.64,1.64,0,0,0,.133.168l.167.129-.083-.062c.022.049.122.106.164.14.063.051.126.105.193.15.051.034.131.052.184.085l.14.059a.69.69,0,0,0,.15.038l.03,0h0c.039.009.081.014.12.02A.487.487,0,0,0,2146.3,1456.9Z" transform="translate(-2143.72 -1453.251)" fill="#0a9399"/>
            <path id="Trazado_191697" data-name="Trazado 191697" d="M2153.868,1480.782a.2.2,0,0,0-.033-.017l-.044-.019Z" transform="translate(-2152.29 -1476.646)" fill="#0a9399"/>
          </g>
          <path id="Trazado_191698" data-name="Trazado 191698" d="M2212.767,1439.21c0-.038.006-.052.005-.051q.011-.08.021-.16c.005-.061.007-.122.012-.183a1.094,1.094,0,0,0-.021-.319c.023.148.019.117-.01-.09,0-.016,0-.014-.006-.021-.008-.084-.015-.249-.013-.241a.562.562,0,0,0-.071-.17.459.459,0,0,1-.011-.054c0-.036.01-.1.006-.144a.156.156,0,0,0-.2-.149,1.756,1.756,0,0,0-.287.118c-.383.061-.716.534-.841.848a2.742,2.742,0,0,0-.163,1.042,2.894,2.894,0,0,0,.219,1,1.453,1.453,0,0,0,.1.238c.024.039.147.224.068.081a1.344,1.344,0,0,0,.193.243.664.664,0,0,0,.631.263.175.175,0,0,0,.231-.132.736.736,0,0,0,.152-.551c0-.051.027-.251-.019-.068a.994.994,0,0,0-.006-.419.034.034,0,0,0,0-.007c0-.022,0-.044-.007-.067-.006-.07-.009-.14-.01-.21,0-.133.006-.266,0-.4S2212.758,1439.343,2212.767,1439.21Z" transform="translate(-2196.461 -1437.622)" fill="#0a9399"/>
          <path id="Trazado_191699" data-name="Trazado 191699" d="M2271.3,1456.573a.65.65,0,0,0-.943-.725c.205-.122-.123.054-.178.091a1.436,1.436,0,0,0-.267.227c-.085.093-.167.188-.245.287-.2.256-.405.51-.6.769l.032-.041-.067.086c-.045.057-.09.114-.136.171-.112.141-.232.277-.336.424a2.055,2.055,0,0,0-.41.739,1.317,1.317,0,0,0-.089.236.458.458,0,0,0,.558.558,1.363,1.363,0,0,0,.261-.1,2.118,2.118,0,0,0,.807-.526,8.055,8.055,0,0,0,.568-.582c.185-.2.358-.407.525-.62a5.1,5.1,0,0,0,.339-.469,1.366,1.366,0,0,0,.149-.321C2271.287,1456.708,2271.358,1456.33,2271.3,1456.573Z" transform="translate(-2244.834 -1453.054)" fill="#0a9399"/>
          <path id="Trazado_191700" data-name="Trazado 191700" d="M2169.748,1513.7a.578.578,0,0,0-.174-.322l-.188-.165q.116.158,0,0a.3.3,0,0,0-.1-.109c-.025-.022-.053-.041-.08-.062a5.59,5.59,0,0,0-.592-.4,9.385,9.385,0,0,0-1.167-.536l.22.093c-.1-.041-.19-.079-.285-.118-.076-.035-.152-.069-.229-.1l-.008,0,.161.068a2.559,2.559,0,0,0-.271-.121.691.691,0,0,0-.361-.045.72.72,0,0,0-.441.25l.007-.011c-.011.01-.018.023-.028.034-.024.029-.056.046-.076.079,0,.007-.006.017-.01.024a1.036,1.036,0,0,0,.29,1.317,3.692,3.692,0,0,0,.986.507c.25.1.5.191.754.269a3.07,3.07,0,0,0,.418.086.772.772,0,0,0,.336.01c-.05.009-.044.014.018.017a1.682,1.682,0,0,0,.2.022.521.521,0,0,0,.33-.09A.574.574,0,0,0,2169.748,1513.7Z" transform="translate(-2157.996 -1500.795)" fill="#0a9399"/>
          <path id="Trazado_191701" data-name="Trazado 191701" d="M2229.791,1505.019a.7.7,0,0,0-.574-.288,1.541,1.541,0,0,0-1.043.614,6.886,6.886,0,0,0-.58.746,4.344,4.344,0,0,0-.408.818,1.876,1.876,0,0,0-.1.455,1.023,1.023,0,0,0,.117.627.53.53,0,0,0,.583.237.915.915,0,0,0,.315-.181c.017-.014.092-.071.01-.009-.111.084.1-.079.113-.088a1.733,1.733,0,0,0,.2-.252l.018-.024c.034-.042.068-.083.1-.128.136-.206.272-.411.415-.614.029-.041.058-.081.088-.122l.029-.036q.114-.139.237-.27a1.991,1.991,0,0,0,.62-.846A.735.735,0,0,0,2229.791,1505.019Z" transform="translate(-2209.974 -1494.722)" fill="#0a9399"/>
          <g id="Grupo_134450" data-name="Grupo 134450" transform="translate(13.815 19.269)">
            <path id="Trazado_191702" data-name="Trazado 191702" d="M2211.386,1583.692Z" transform="translate(-2210.43 -1581.165)" fill="#0a9399"/>
            <path id="Trazado_191703" data-name="Trazado 191703" d="M2207.675,1569.544q-.033.238.011-.089a1.236,1.236,0,0,0-.047-.281,4.615,4.615,0,0,0-.33-.864,3.734,3.734,0,0,0-.378-.649,2.823,2.823,0,0,0-.347-.423l-.073-.067a.834.834,0,0,0-.25-.165s-.088-.053-.122-.074a.733.733,0,0,0-1.066.819c.015.051.03.1.042.154a2.177,2.177,0,0,0,.362.75c.149.226.323.446.491.658.031.039.06.078.091.116l-.058-.072.067.084a3.994,3.994,0,0,0,.3.365c.039.041.076.083.115.122a.615.615,0,0,0,.157.127q.3.119.076.038a.53.53,0,0,0,.1.076.554.554,0,0,0,.173.069l.06.03a.378.378,0,0,0,.55-.224c.009-.041.061-.181-.006-.052a.763.763,0,0,0,.084-.362C2207.676,1569.6,2207.675,1569.573,2207.675,1569.544Z" transform="translate(-2205.043 -1566.832)" fill="#0a9399"/>
          </g>
          <path id="Trazado_191704" data-name="Trazado 191704" d="M2164.174,1591.6c-.008-.014-.1-.175-.1-.174l.034.095a1.285,1.285,0,0,0-.1-.23,4.125,4.125,0,0,0-.329-.411,5.08,5.08,0,0,0-.472-.512c-.169-.158-.343-.317-.522-.462a3.231,3.231,0,0,0-.943-.615l.222.094a1.681,1.681,0,0,0-.719-.241h-.007l-.032-.01a.63.63,0,0,0-.772.438,1.433,1.433,0,0,0-.033.375,1.133,1.133,0,0,0,.157.524c.04.064.089.123.134.185a1.865,1.865,0,0,0,.268.331l.18.16c.17.151.346.291.527.428a9.183,9.183,0,0,0,.761.539c.136.083.28.153.42.228a4.109,4.109,0,0,0,.588.224.641.641,0,0,0,.64-.169c.027-.032.053-.065.077-.1l.026-.035A.646.646,0,0,0,2164.174,1591.6Z" transform="translate(-2153.237 -1566.51)" fill="#0a9399"/>
          <path id="Trazado_191705" data-name="Trazado 191705" d="M2246.848,1615.289a.606.606,0,0,0-.22-.038q.176.019-.009,0a1.087,1.087,0,0,0-.392.032c-.105.025-.21.058-.316.084-.228.056-.454.124-.683.178a4.562,4.562,0,0,0-.746.249c-.1.041-.135.051-.267.115-.042.02-.085.042-.126.064a.534.534,0,0,0-.184.181c-.088.034-.132.182-.026.228.032.046.066.09.1.134a.361.361,0,0,0,.109.073c.041.022.084.043.126.063a2.269,2.269,0,0,0,.4.144,2.754,2.754,0,0,0,.823.082,5.323,5.323,0,0,0,.86-.114,3.392,3.392,0,0,0,.367-.1,1.132,1.132,0,0,0,.562-.44A.637.637,0,0,0,2246.848,1615.289Z" transform="translate(-2224.219 -1588.751)" fill="#0a9399"/>
          <path id="Trazado_191706" data-name="Trazado 191706" d="M2255.321,1560a2.114,2.114,0,0,0-.945.358c-.095.054-.193.1-.291.148l-.042.016c-.059.023-.119.043-.179.063-.222.071-.45.149-.667.233-.115.045-.231.079-.347.12a.585.585,0,0,0-.353.352c-.023.044-.056.067-.04.122a.789.789,0,0,0,.17.37.749.749,0,0,0,.31.16,2.306,2.306,0,0,0,.347.092,2.578,2.578,0,0,0,1.041-.042c.634-.159,1.425-.47,1.639-1.148A.671.671,0,0,0,2255.321,1560Z" transform="translate(-2231.567 -1541.75)" fill="#0a9399"/>
          <path id="Trazado_191707" data-name="Trazado 191707" d="M2288.553,1483.96a.571.571,0,0,0-.693-.393.654.654,0,0,0-.188.072q.112-.047.018-.01a1.148,1.148,0,0,0-.415.252,2.682,2.682,0,0,0-.4.488c-.18.269-.368.54-.527.823a7.245,7.245,0,0,0-.5.967c-.114.3-.29.718-.047.99h0a.076.076,0,0,0,.11.085h0c.353.176.751-.171,1.012-.382a5.228,5.228,0,0,0,.681-.726,10.772,10.772,0,0,0,.653-.911A1.616,1.616,0,0,0,2288.553,1483.96Z" transform="translate(-2259.844 -1476.701)" fill="#0a9399"/>
          <path id="Trazado_191708" data-name="Trazado 191708" d="M2302.157,1544.3a.808.808,0,0,0-.715-.481h0a1.9,1.9,0,0,0-.95.193c-.3.112-.595.253-.89.379a5.968,5.968,0,0,0-.7.363,1.169,1.169,0,0,0-.506.409c.061-.126.008-.041-.042,0a.639.639,0,0,0-.209.368.5.5,0,0,0,.129.488.752.752,0,0,0,.466.208c.007,0,.166,0,.166,0q-.216-.033.111.013c.084-.008.167-.018.25-.032l.175-.031a5.69,5.69,0,0,0,.8-.188c.317-.1.633-.206.94-.336l.379-.161a.975.975,0,0,0,.4-.309c.012-.011.026-.021.037-.034A.8.8,0,0,0,2302.157,1544.3Z" transform="translate(-2270.431 -1527.975)" fill="#0a9399"/>
          <path id="Trazado_191709" data-name="Trazado 191709" d="M2303.95,1607.182a1.482,1.482,0,0,0-.819-.811,5.313,5.313,0,0,0-.98-.392,5.571,5.571,0,0,0-1.021-.2c-.053,0-.105,0-.158-.005s-.245-.025-.037,0a1.577,1.577,0,0,0-.376-.015c-.019,0-.038-.007-.05-.011a.646.646,0,0,0-.12-.014.145.145,0,0,0-.213-.013.368.368,0,0,1-.057.05.439.439,0,0,0-.2.48.846.846,0,0,0,.132.3,1.1,1.1,0,0,0,.591.562c.185.088.376.151.567.224l.169.066,0,0,.082.036c.127.057.25.121.377.179l.141.059.08.035c.073.032.146.067.218.1a1.964,1.964,0,0,0,1.028.295A.668.668,0,0,0,2303.95,1607.182Z" transform="translate(-2271.954 -1580.618)" fill="#0a9399"/>
          <path id="Trazado_191710" data-name="Trazado 191710" d="M2193.952,1629.441a.4.4,0,0,0-.295-.2l-.04-.009c.069.032.043.022-.077-.031a1.148,1.148,0,0,0-.217-.024h-.018a.063.063,0,0,0-.015,0,.8.8,0,0,0-.276-.009c-.148.016-.3.027-.442.052a3.017,3.017,0,0,0-.633.153l-.28.115a1.752,1.752,0,0,0-.263.115,1.035,1.035,0,0,0-.3.321.664.664,0,0,0,.394.967.978.978,0,0,0,.534.009c.089-.022.177-.05.265-.076a3.443,3.443,0,0,0,.636-.265,5.274,5.274,0,0,0,.466-.275,1.425,1.425,0,0,0,.407-.4C2193.9,1629.762,2194.041,1629.589,2193.952,1629.441Z" transform="translate(-2179.276 -1600.589)" fill="#0a9399"/>
          <path id="Trazado_191711" data-name="Trazado 191711" d="M2148.445,1681.6c-1.609-1.573-3.806-.532-5.444.366a3.216,3.216,0,0,1-3.292.169,26.021,26.021,0,0,0-3.1-1.46,7.466,7.466,0,0,0-6.548.689,4.1,4.1,0,0,1-3.619.481c-1.206-.34-2.332-.923-3.55-1.224a5.541,5.541,0,0,0-3.4.119c-.794.316-2.144,1.158-1.639,2.181a.482.482,0,0,0,.421.241,1.343,1.343,0,0,0,.873-.441,3.164,3.164,0,0,1,1.244-.649,5.266,5.266,0,0,1,2.982.366c2.007.7,4.152,1.8,6.318,1.048,1-.35,1.813-1.08,2.85-1.35a6.015,6.015,0,0,1,3.119.12c1.953.544,3.657,2.224,5.77,2.112a7.48,7.48,0,0,0,3.127-1.2c.706-.384,1.875-.929,2.608-.292a.9.9,0,0,0,.879.232,1.012,1.012,0,0,0,.54-.415A.915.915,0,0,0,2148.445,1681.6Z" transform="translate(-2116.95 -1644.049)" fill="#fff0eb"/>
          <path id="Trazado_191712" data-name="Trazado 191712" d="M2148.037,1709.107a9.633,9.633,0,0,1-2.768,1.174,6.419,6.419,0,0,1-3.125-.434c-1.835-.657-3.629-1.665-5.646-1.355a15.471,15.471,0,0,0-2.835.994,5.948,5.948,0,0,1-3.5.1c-1.964-.475-3.78-1.414-5.813-1.6-1.679-.154-4.027.221-4.859,1.916a.535.535,0,0,0,.837.645,4.113,4.113,0,0,1,2.79-1.355,8.825,8.825,0,0,1,3.338.506c2.7.885,5.2,1.971,8.009.856a6.2,6.2,0,0,1,3.806-.681,32.594,32.594,0,0,1,3.637,1.306,7.457,7.457,0,0,0,3.632.41,5.265,5.265,0,0,0,3.226-1.54A.6.6,0,0,0,2148.037,1709.107Z" transform="translate(-2118.38 -1667.638)" fill="#fff0eb"/>
        </g>
        <path id="Trazado_191713" data-name="Trazado 191713" d="M1004.093,1892.469c-30.714.013-61.44-.211-92.152.118s-61.436.22-92.153.235q-25.888.013-51.776.021a1.794,1.794,0,0,0-1.377.576c-.112.011-.224.019-.336.031a1.344,1.344,0,0,0,0,2.687c.111.012.223.02.334.031a1.8,1.8,0,0,0,1.378.576q46.077,0,92.153.041c30.719.015,61.434.3,92.153.312l51.776.021C1007.084,1897.119,1007.089,1892.467,1004.093,1892.469Z" transform="translate(-752.964 -1633.808)" fill="#6383be"/>
        <path id="Trazado_191714" data-name="Trazado 191714" d="M763.245,1392.675c-.147-.284-.1-.5-.379-.713a1.658,1.658,0,0,0-.736-.284,4.364,4.364,0,0,0-1.578.018,4.565,4.565,0,0,0-2.607,1.48,4.353,4.353,0,0,0-.76,1.292,6.349,6.349,0,0,1-.625,1.644,2.888,2.888,0,0,1-1.973.833c-1.644.225-3.63.1-4.845,1.452-.79.878-.8,1.992-1.1,3.067-.318,1.111-1.3,1.286-2.319,1.394a6.432,6.432,0,0,0-3.369,1,3.9,3.9,0,0,0-1.714,3.045c.027.523.807.839,1.069.29a4.621,4.621,0,0,1,1.735-2.343,7.048,7.048,0,0,1,2.808-.559,4.111,4.111,0,0,0,2.577-1.018c.8-.821.829-1.917,1.115-2.958.453-1.645,2.372-1.549,3.755-1.7,1.746-.188,3.387-.67,4.065-2.462a7.624,7.624,0,0,1,.631-1.656,2.815,2.815,0,0,1,1.1-.937,2.984,2.984,0,0,1,1.328-.306c.276,0,.535.074.809.093.363.025.513-.167.833-.231A.3.3,0,0,0,763.245,1392.675Z" transform="translate(-732.739 -1207.699)" fill="#3eadbd"/>
        <path id="Trazado_191715" data-name="Trazado 191715" d="M731.307,1459.032c-.147-.284-.1-.5-.379-.713a1.661,1.661,0,0,0-.736-.284,4.361,4.361,0,0,0-1.578.018,4.564,4.564,0,0,0-2.607,1.479,4.348,4.348,0,0,0-.76,1.292,6.335,6.335,0,0,1-.625,1.644,2.886,2.886,0,0,1-1.972.833c-1.644.226-3.63.1-4.845,1.452-.789.877-.8,1.992-1.1,3.067-.318,1.111-1.3,1.286-2.32,1.394a6.431,6.431,0,0,0-3.369,1,3.9,3.9,0,0,0-1.714,3.045c.027.523.807.839,1.069.29a4.622,4.622,0,0,1,1.735-2.344,7.042,7.042,0,0,1,2.807-.559,4.114,4.114,0,0,0,2.577-1.019c.8-.821.829-1.917,1.115-2.958.453-1.645,2.372-1.549,3.755-1.7,1.746-.188,3.388-.67,4.065-2.462a7.642,7.642,0,0,1,.632-1.656,2.814,2.814,0,0,1,1.1-.937,2.981,2.981,0,0,1,1.328-.306c.276,0,.535.074.809.093.363.025.513-.167.833-.232A.3.3,0,0,0,731.307,1459.032Z" transform="translate(-705.564 -1264.161)" fill="#3eadbd"/>
        <path id="Trazado_191716" data-name="Trazado 191716" d="M2226.32,442.7c-.147-.284-.1-.5-.379-.713a1.66,1.66,0,0,0-.736-.284,4.359,4.359,0,0,0-1.578.018,4.566,4.566,0,0,0-2.607,1.48,4.345,4.345,0,0,0-.759,1.292,6.354,6.354,0,0,1-.625,1.644,2.887,2.887,0,0,1-1.973.833c-1.644.225-3.63.1-4.844,1.452-.79.878-.8,1.992-1.1,3.067-.318,1.111-1.3,1.286-2.319,1.394a6.433,6.433,0,0,0-3.369,1,3.9,3.9,0,0,0-1.713,3.045c.027.523.806.839,1.069.29a4.619,4.619,0,0,1,1.735-2.343,7.042,7.042,0,0,1,2.807-.559,4.113,4.113,0,0,0,2.577-1.019c.8-.821.829-1.917,1.116-2.958.452-1.644,2.371-1.549,3.755-1.7,1.746-.188,3.387-.67,4.065-2.462a7.609,7.609,0,0,1,.631-1.656,2.811,2.811,0,0,1,1.1-.937,2.977,2.977,0,0,1,1.328-.306c.276,0,.535.074.808.093.363.025.513-.167.833-.231A.3.3,0,0,0,2226.32,442.7Z" transform="translate(-1977.625 -399.397)" fill="#3eadbd"/>
        <path id="Trazado_191717" data-name="Trazado 191717" d="M2194.381,509.061c-.147-.284-.1-.5-.379-.713a1.663,1.663,0,0,0-.736-.284,4.363,4.363,0,0,0-1.578.018,4.563,4.563,0,0,0-2.607,1.479,4.355,4.355,0,0,0-.76,1.292,6.347,6.347,0,0,1-.625,1.644,2.887,2.887,0,0,1-1.972.833c-1.644.225-3.631.1-4.845,1.452-.789.878-.8,1.992-1.1,3.067-.318,1.111-1.3,1.286-2.32,1.394a6.431,6.431,0,0,0-3.369,1,3.9,3.9,0,0,0-1.714,3.045c.027.523.807.839,1.069.29a4.623,4.623,0,0,1,1.735-2.344,7.051,7.051,0,0,1,2.807-.559,4.111,4.111,0,0,0,2.577-1.018c.8-.821.829-1.917,1.116-2.958.452-1.645,2.372-1.549,3.755-1.7,1.746-.188,3.388-.67,4.065-2.462a7.636,7.636,0,0,1,.632-1.656,2.808,2.808,0,0,1,1.1-.937,2.979,2.979,0,0,1,1.328-.306c.276,0,.534.074.809.093.363.025.512-.167.833-.232A.3.3,0,0,0,2194.381,509.061Z" transform="translate(-1950.449 -455.859)" fill="#3eadbd"/>
        <g id="Grupo_134452" data-name="Grupo 134452" transform="translate(44.345 50.07)">
          <path id="Trazado_191718" data-name="Trazado 191718" d="M990.812,494.27l-7.184,7.176c-.007.007-.015.011-.022.018l-1.819,1.821a.545.545,0,0,0,.771.771l1.821-1.819c.007-.007.011-.015.018-.022l7.176-7.184A.538.538,0,0,0,990.812,494.27Z" transform="translate(-981.626 -494.112)" fill="#3eadbd"/>
          <path id="Trazado_191719" data-name="Trazado 191719" d="M1006.073,509.531l-7.184,7.176c-.007.007-.015.011-.022.018l-1.819,1.821a.545.545,0,0,0,.771.771l1.821-1.819c.007-.007.012-.015.018-.022l7.176-7.184A.538.538,0,0,0,1006.073,509.531Z" transform="translate(-994.611 -507.097)" fill="#3eadbd"/>
          <path id="Trazado_191720" data-name="Trazado 191720" d="M1021.333,524.791l-7.184,7.176c-.007.007-.015.011-.022.018l-1.819,1.821a.545.545,0,0,0,.771.771l1.821-1.819c.007-.007.011-.015.018-.022l7.176-7.184A.538.538,0,0,0,1021.333,524.791Z" transform="translate(-1007.595 -520.082)" fill="#3eadbd"/>
        </g>
        <g id="Grupo_134453" data-name="Grupo 134453" transform="translate(247.581 173.218)">
          <path id="Trazado_191721" data-name="Trazado 191721" d="M2353.618,1320.046l-7.184,7.176c-.007.007-.015.011-.022.018l-1.82,1.821a.545.545,0,0,0,.771.771q.911-.909,1.821-1.819c.007-.007.011-.014.018-.022l7.176-7.184A.538.538,0,0,0,2353.618,1320.046Z" transform="translate(-2344.432 -1319.888)" fill="#3eadbd"/>
          <path id="Trazado_191722" data-name="Trazado 191722" d="M2368.879,1335.306l-7.185,7.176c-.007.007-.015.011-.022.018l-1.819,1.821a.545.545,0,0,0,.771.771q.91-.909,1.821-1.819c.007-.007.011-.015.018-.022l7.175-7.184A.538.538,0,0,0,2368.879,1335.306Z" transform="translate(-2357.417 -1332.872)" fill="#3eadbd"/>
          <path id="Trazado_191723" data-name="Trazado 191723" d="M2384.139,1350.566l-7.184,7.176c-.007.007-.015.011-.022.018l-1.819,1.821a.545.545,0,0,0,.771.771l1.821-1.819c.007-.008.012-.015.018-.022l7.176-7.184A.538.538,0,0,0,2384.139,1350.566Z" transform="translate(-2370.401 -1345.857)" fill="#3eadbd"/>
        </g>
        <path id="Trazado_191724" data-name="Trazado 191724" d="M1119.782,205.838a2.08,2.08,0,0,0-.535-.917,4.165,4.165,0,0,0-.582-.47,1.289,1.289,0,0,0-.2-.123c-.189-.09-.383-.171-.578-.245a2,2,0,0,0-1.152-.023,2.1,2.1,0,0,0-1.321,1.077,1.573,1.573,0,0,0-.351.7,1.9,1.9,0,0,0,0,.873,1.337,1.337,0,0,0,.244.475,1.573,1.573,0,0,0,.155.274,1.621,1.621,0,0,0,.2.256,2.372,2.372,0,0,0,.244.189,1.091,1.091,0,0,0,.134.079c.041.031.078.066.118.095a1.122,1.122,0,0,0,.131.083,1.555,1.555,0,0,0,.432.168,1.64,1.64,0,0,0,.406.025l.107.045a2.094,2.094,0,0,0,1.105,0,2.324,2.324,0,0,0,1.243-.956,1.548,1.548,0,0,0,.247-.773A1.579,1.579,0,0,0,1119.782,205.838Z" transform="translate(-1050.77 -197.184)" fill="#ea5779"/>
        <path id="Trazado_191725" data-name="Trazado 191725" d="M1314.277,658.091a2.065,2.065,0,0,0-.532-.913l-.419-.323a2.059,2.059,0,0,0-1.044-.283,2.127,2.127,0,0,0-2.069,2.069l.074.55a2.064,2.064,0,0,0,.532.913l.419.324a2.055,2.055,0,0,0,1.044.282,2.126,2.126,0,0,0,2.069-2.069Q1314.314,658.366,1314.277,658.091Z" transform="translate(-1216.865 -582.273)" fill="#ffc86d"/>
        <path id="Trazado_191726" data-name="Trazado 191726" d="M752.311,886.1a2.425,2.425,0,0,0-2.156-1.45l-.627.084a2.359,2.359,0,0,0-1.041.607l-.369.478a2.338,2.338,0,0,0-.307.962,2.612,2.612,0,0,0,.269,1.628l.367.475a1.759,1.759,0,0,0,.756.486,1.17,1.17,0,0,0,.593.16,1.78,1.78,0,0,0,.936-.042l.561-.237a2.36,2.36,0,0,0,.842-.842l.013-.026.006-.013c.071-.16.176-.405.24-.568.008-.019.014-.038.02-.058a.531.531,0,0,0,.012-.055c.019-.106.035-.261.044-.324s.032-.217.043-.324c0-.01,0-.021,0-.031A1.776,1.776,0,0,0,752.311,886.1Z" transform="translate(-738.296 -776.341)" fill="#ffc86d"/>
        <path id="Trazado_191727" data-name="Trazado 191727" d="M1107.242,1507l-.05-.374a1.058,1.058,0,0,0-.252-.478.7.7,0,0,0-.165-.165l.055.023,0,0-.286-.221c-.013-.008-.029-.012-.042-.02a1.1,1.1,0,0,0-.11-.052,1.079,1.079,0,0,0-.151-.057c-.01,0-.018-.008-.028-.01l-.063-.012a.6.6,0,0,0-.06-.027l-.157-.021a.467.467,0,0,0-.055.012.71.71,0,0,0-.234.019,2.115,2.115,0,0,0-.573.152,1.441,1.441,0,0,0-.862,1.281l.05.373a1.4,1.4,0,0,0,.361.619l.283.219a1.394,1.394,0,0,0,.708.191,2.074,2.074,0,0,0,.482-.052.491.491,0,0,0,.114-.031l.337-.142a1.067,1.067,0,0,0,.4-.364.705.705,0,0,0,.182-.312,1.064,1.064,0,0,0,.122-.545Z" transform="translate(-1041.581 -1304.675)" fill="#ea5779"/>
        <path id="Trazado_191728" data-name="Trazado 191728" d="M2011.482,1520.481a1.965,1.965,0,0,0-.7-.7,1.944,1.944,0,0,0-.986-.267,6.552,6.552,0,0,0-.7.094,1.3,1.3,0,0,0-.179.061l.01,0a1.061,1.061,0,0,1-.2.061l-.467.2a1.478,1.478,0,0,0-.548.5.976.976,0,0,0-.251.431,1.468,1.468,0,0,0-.168.752q.034.26.07.519l.2.466a2.184,2.184,0,0,0,1.167.9c.025.006.051.012.076.016.193.032.394.059.589.079a1.065,1.065,0,0,0,.159,0l.537-.072.015-.006a4.491,4.491,0,0,0,.51-.218c.021-.011.042-.023.063-.036l.021-.013.4-.313.027-.028.014-.018.309-.4.025-.034a1.956,1.956,0,0,0,0-1.972Z" transform="translate(-1809.994 -1316.525)" fill="#ffc86d"/>
        <path id="Trazado_191729" data-name="Trazado 191729" d="M2424.29,1037.681a2.132,2.132,0,0,0-.55-.943l-.432-.334a2.127,2.127,0,0,0-1.079-.292,2.2,2.2,0,0,0-2.137,2.137l.076.568a2.136,2.136,0,0,0,.55.943l.432.334a2.13,2.13,0,0,0,1.079.292,2.2,2.2,0,0,0,2.138-2.138Z" transform="translate(-2161.226 -905.212)" fill="#ea5779"/>
        <path id="Trazado_191730" data-name="Trazado 191730" d="M2100.6,662.934a1.288,1.288,0,0,0-.205-.643,1.739,1.739,0,0,0-.384-.438,2.058,2.058,0,0,0-.388-.518.961.961,0,0,0-.546-.261.868.868,0,0,0-.605.113l-.129.1-.016,0a.416.416,0,0,0-.288-.239,1.556,1.556,0,0,0-.523,0,1.527,1.527,0,0,0-.387.132,1.294,1.294,0,0,0-.43.351,1.472,1.472,0,0,0-.636.839,1.8,1.8,0,0,0-.022.981,2.328,2.328,0,0,0,.188.47,2.274,2.274,0,0,0,.307.424,1.338,1.338,0,0,0,.208.193,1.746,1.746,0,0,0,.52.449l.052.028a1.743,1.743,0,0,0,.847.234,2.828,2.828,0,0,0,1.384-.338,2.524,2.524,0,0,0,.577-.418,1.727,1.727,0,0,0,.445-.763A1.315,1.315,0,0,0,2100.6,662.934Z" transform="translate(-1885.454 -586.061)" fill="#ffc86d"/>
        <path id="Trazado_191731" data-name="Trazado 191731" d="M1837.675,928.494a1.375,1.375,0,0,0-.379-.59l-.371-.287a1.367,1.367,0,0,0-.682-.217.921.921,0,0,0-.487,0,1.367,1.367,0,0,0-.682.217l-.371.287a1.843,1.843,0,0,0-.3.411.645.645,0,0,1-.055.1,1.86,1.86,0,0,0-.255.943c.022.166.044.331.067.5a1.867,1.867,0,0,0,.48.824,1.921,1.921,0,0,0,2.642,0,1.865,1.865,0,0,0,.48-.824,2.9,2.9,0,0,0,.075-.653A1.386,1.386,0,0,0,1837.675,928.494Z" transform="translate(-1662.615 -812.685)" fill="#ea5779"/>
      </g>
    </g>
  </g>
</svg>
