<svg xmlns="http://www.w3.org/2000/svg" width="128" height="128" viewBox="0 0 128 128">
  <g id="Grupo_137440" data-name="Grupo 137440" transform="translate(-1157.922 -10232)">
    <g id="Elipse_5531" data-name="Elipse 5531" transform="translate(1157.922 10232)" fill="#fff" stroke="#aab2d3" stroke-width="5">
      <circle cx="64" cy="64" r="64" stroke="none"/>
      <circle cx="64" cy="64" r="61.5" fill="none"/>
    </g>
    <path id="Trazado_193352" data-name="Trazado 193352" d="M325.207,336.641q-5.656,0-11.312,0a22.117,22.117,0,0,1-21.98-18.754c-1.837-11.387,4.509-21.9,15.55-25.217,2.72-.817,5.745-.7,8.637-.82a3.726,3.726,0,0,0,2.686-.942c7.626-6.97,16.52-9.056,26.266-5.8,9.384,3.131,15.165,9.961,17.274,19.591a26.3,26.3,0,0,1-20.13,31.343c-2.909.646-6.009.486-9.024.585C330.52,336.711,327.863,336.641,325.207,336.641Zm-2.139-43.016a36.554,36.554,0,0,1,3.223,2.009,1.971,1.971,0,0,0,2.568.143,14.633,14.633,0,0,1,8.533-2.1c11.62.754,17.157,11.658,15.4,19.393-1.469,6.462-4.972,11.105-11.282,13.019a15.494,15.494,0,0,1-16.388-4.181c-3.249-3.272-6.569-6.474-9.869-9.695-1.265-1.234-2.573-1.368-3.674-.431-1.254,1.068-1.263,2.682.1,4.021,3.589,3.534,7.25,7,10.824,10.544a18.809,18.809,0,0,0,12.054,5.5,21.7,21.7,0,0,0,22.635-27.9,21.47,21.47,0,0,0-24.679-15.012A19.9,19.9,0,0,0,323.068,293.625Zm-1.68,38.265c-1.082-1.161-1.89-2.041-2.713-2.907a7.1,7.1,0,0,0-5.408-2.362,12.369,12.369,0,0,1-11.9-12.186,12.521,12.521,0,0,1,7.665-11.81,12.871,12.871,0,0,1,13.951,2.829c2.2,2.231,4.382,4.479,6.6,6.693a2.512,2.512,0,0,0,3.673.291,2.43,2.43,0,0,0-.071-3.66c-2.429-2.525-4.841-5.074-7.395-7.47a16.4,16.4,0,0,0-15.267-4.338c-7.91,1.61-13.335,7.651-14.02,16.155a17.5,17.5,0,0,0,10.864,17.466C311.8,332.457,316.438,331.744,321.388,331.891Z" transform="translate(894.321 9986.363)" fill="#da1f26"/>
  </g>
</svg>
