<svg xmlns="http://www.w3.org/2000/svg" width="128" height="128" viewBox="0 0 128 128">
  <g id="Grupo_137439" data-name="Grupo 137439" transform="translate(-735.922 -10232)">
    <g id="Elipse_5529" data-name="Elipse 5529" transform="translate(735.922 10232)" fill="#fff" stroke="#aab2d3" stroke-width="5">
      <circle cx="64" cy="64" r="64" stroke="none"/>
      <circle cx="64" cy="64" r="61.5" fill="none"/>
    </g>
    <g id="Grupo_137419" data-name="Grupo 137419" transform="translate(438.048 10428.286)">
      <path id="Trazado_193353" data-name="Trazado 193353" d="M544.653,509.166a6.319,6.319,0,0,1-1.757.754,8.574,8.574,0,0,1-2.408.308q-21.712,0-43.425,0a7.588,7.588,0,0,1-3.775-.972,1.185,1.185,0,0,1-.126-.094,9.3,9.3,0,0,0,.558-.931c.378-.644.747-1.293,1.12-1.941l1.295-2.246q.536-.929,1.074-1.856.634-1.094,1.269-2.187.561-.97,1.119-1.941.647-1.123,1.294-2.247.536-.929,1.074-1.856.626-1.08,1.253-2.159c.379-.656.763-1.309,1.133-1.97a7.568,7.568,0,0,0,.625-1.149l.072-.025c.139,0,.278.007.417.007h17.105l10.237,0,.082.046a.457.457,0,0,0,.092.2q4.226,7.339,8.453,14.676Q543.042,506.374,544.653,509.166Z" transform="translate(-157.462 -608.258)" fill="#0185ff"/>
      <path id="Trazado_193354" data-name="Trazado 193354" d="M347.64-105.743l-.072.025c-.139,0-.278-.013-.416-.013H327.314l-3.37,0a6.79,6.79,0,0,1,.392-2.518,9.818,9.818,0,0,1,.924-1.9q2.4-4.154,4.792-8.311l6.908-11.979q4.382-7.6,8.764-15.2c.4-.695.795-1.394,1.211-2.08a7.577,7.577,0,0,1,2.558-2.564c.063-.039.132-.066.2-.1.16.277.33.549.479.832.364.69.784,1.347,1.158,2.031.486.889,1.018,1.753,1.525,2.631.6,1.045,1.2,2.094,1.8,3.139.592,1.026,1.195,2.045,1.786,3.071.772,1.341,1.536,2.687,2.307,4.028.787,1.369,1.575,2.738,2.376,4.1.121.206.182.46.4.6l-.011.112a.479.479,0,0,0-.062.071q-.52.9-1.039,1.8-1.529,2.651-3.058,5.3-1.407,2.443-2.81,4.888-1.646,2.86-3.294,5.718-1.391,2.415-2.778,4.832C348.19-106.731,347.884-106.254,347.64-105.743Z" transform="translate(-0.055 -13.862)" fill="#00ae3c"/>
      <path id="Trazado_193355" data-name="Trazado 193355" d="M861.882-129.634c0-.037.007-.074.011-.112a.524.524,0,0,0,.142-.209l4.279-7.413q2.532-4.387,5.064-8.774,1.162-2.013,2.329-4.023a3.332,3.332,0,0,1,.782.5,8.349,8.349,0,0,1,2.25,2.64q4.417,7.689,8.852,15.369,3.658,6.351,7.312,12.7,2.7,4.7,5.413,9.393a8.255,8.255,0,0,1,1.109,3.613c.01.138,0,.278,0,.417l-.417,0q-11.376,0-22.751,0a.762.762,0,0,0-.407.038l-.082-.046q-.685-1.2-1.37-2.395-2.4-4.171-4.8-8.341-3.115-5.407-6.231-10.814C862.874-127.936,862.377-128.784,861.882-129.634Z" transform="translate(-500.425 -14.065)" fill="#fb0"/>
      <path id="Trazado_193356" data-name="Trazado 193356" d="M323.889,488.822l3.37,0H347.1c.139,0,.278.008.416.013a7.562,7.562,0,0,1-.625,1.149c-.37.661-.754,1.314-1.133,1.97q-.625,1.08-1.253,2.159-.538.928-1.074,1.856-.648,1.123-1.294,2.247-.559.971-1.119,1.941-.633,1.094-1.269,2.187-.538.928-1.074,1.856l-1.295,2.246c-.373.647-.741,1.3-1.12,1.941a9.307,9.307,0,0,1-.558.931,7.25,7.25,0,0,1-2.119-1.783,12.706,12.706,0,0,1-1.21-1.886q-3.7-6.411-7.407-12.824a7.856,7.856,0,0,1-1.087-3.616C323.87,489.079,323.884,488.95,323.889,488.822Z" transform="translate(0 -608.414)" fill="#0066de"/>
      <path id="Trazado_193357" data-name="Trazado 193357" d="M1061.866,488.76a.761.761,0,0,1,.407-.038q11.376,0,22.751,0l.417,0a4.9,4.9,0,0,1-.138,1.619,7.868,7.868,0,0,1-.942,2.408q-3.067,5.3-6.131,10.611c-.594,1.028-1.185,2.057-1.786,3.081a7.767,7.767,0,0,1-2.562,2.651c-.08.051-.168.09-.253.135q-1.61-2.792-3.219-5.584-4.227-7.338-8.453-14.676A.456.456,0,0,1,1061.866,488.76Z" transform="translate(-686.44 -608.314)" fill="#ff4231"/>
      <path id="Trazado_193358" data-name="Trazado 193358" d="M716.312-164.23q-1.164,2.012-2.329,4.023-2.533,4.386-5.064,8.774l-4.279,7.413a.524.524,0,0,1-.142.209c-.219-.143-.28-.4-.4-.6-.8-1.361-1.589-2.73-2.376-4.1-.771-1.341-1.535-2.687-2.307-4.028-.591-1.026-1.194-2.046-1.786-3.071-.6-1.044-1.2-2.094-1.8-3.139-.507-.878-1.039-1.742-1.525-2.631-.374-.684-.795-1.341-1.158-2.031-.149-.283-.319-.555-.479-.832a6.541,6.541,0,0,1,1.847-.769,8.2,8.2,0,0,1,2.185-.272q7.906.006,15.811,0a7.548,7.548,0,0,1,3.65.941A1.338,1.338,0,0,1,716.312-164.23Z" transform="translate(-343.031 0)" fill="#00841e"/>
    </g>
  </g>
</svg>
