<svg xmlns="http://www.w3.org/2000/svg" width="91.003" height="90.914" viewBox="0 0 91.003 90.914">
  <g id="Grupo_137443" data-name="Grupo 137443" transform="translate(-241 -1261.701)">
    <g id="Grupo_136321" data-name="Grupo 136321" transform="translate(-1130.022 1055.019)">
      <path id="Trazado_187983" data-name="Trazado 187983" d="M1438.208,297.6h-61.143a6.877,6.877,0,0,1-6.043-6.031v-8.692c.465-.434,1.051-.327,1.6-.347.972-.036,1.06-.1,1.064-1.082.014-4.019.005-8.038.005-12.057,0-8.511.109-17.024-.046-25.533a7.9,7.9,0,0,1,8.22-8.168c9.386.028,18.773.009,28.159.007,1.7,0,1.7,0,1.7-1.682q0-12.722,0-25.445c0-1.883,0-1.883,1.9-1.883h38.2c1.614,0,1.653.032,1.655,1.7q.008,6.827,0,13.653c0,.325.024.652,0,.975-.057.727.258.995.986.986,2.043-.024,4.086-.015,6.129,0a1.872,1.872,0,0,1,1.425.344v38.14a2.128,2.128,0,0,1-1.607.331q-8.394.011-16.788,0c-.207,0-.415,0-.622,0-1.226.015-1.26.036-1.261,1.234q-.01,8.644,0,17.288c0,1.15.039,1.174,1.208,1.2,1.615.043,1.8.217,1.806,1.791.009,1.951.063,3.9-.014,5.851a7.655,7.655,0,0,1-4.145,6.864A10.989,10.989,0,0,1,1438.208,297.6Z" fill="#1e1713"/>
      <path id="Trazado_187984" data-name="Trazado 187984" d="M1677.62,319.387c5.539,0,11.078.017,16.617-.019.793-.005.982.217.98.99q-.039,15.122,0,30.243c0,.753-.155,1-.965,1q-16.662-.044-33.323,0c-.788,0-.98-.2-.978-.982q.042-15.121,0-30.243c0-.863.287-1,1.056-1C1666.541,319.4,1672.08,319.387,1677.62,319.387Z" transform="translate(-236.123 -92.093)" fill="#fc502d"/>
      <path id="Trazado_187985" data-name="Trazado 187985" d="M1460.061,447.8c-7.967,0-15.934-.009-23.9.015-.756,0-1.042-.116-1.038-.979q.054-15.163.006-30.327c0-.722.15-.929.906-.927q18.214.04,36.428,0c.69,0,.887.164.882.871-.032,5.261,0,10.523-.04,15.784-.006.812.23.961.985.951,3.317-.043,6.634,0,9.951-.034.642-.006.851.122.845.813q-.054,6.517,0,13.035c.006.706-.232.809-.858.807Q1472.144,447.785,1460.061,447.8Z" transform="translate(-52.386 -170.725)" fill="#aab2d3"/>
      <path id="Trazado_187986" data-name="Trazado 187986" d="M1420.848,648.7q-14.48,0-28.959.009a4.424,4.424,0,0,1-4.407-2.67,3.842,3.842,0,0,1-.325-1.638c-.008-1.241.022-2.483-.019-3.723-.02-.592.191-.754.762-.746,2.072.028,4.145.011,6.218.011,4.767,0,9.535.028,14.3-.025.872-.01,1.175.276,1.339,1.071.291,1.415.705,2.8,1.023,4.215a.655.655,0,0,0,.773.609q9.327-.021,18.654,0c.54,0,.7-.213.806-.685.348-1.494.768-2.972,1.107-4.468.118-.517.3-.734.867-.732q10.438.029,20.875,0c.655,0,.79.237.771.823-.038,1.151,0,2.3-.015,3.457a4.3,4.3,0,0,1-4.546,4.486c-5.566.016-11.133.005-16.7.005Z" transform="translate(-13.169 -354.064)" fill="#0d2380"/>
      <path id="Trazado_187987" data-name="Trazado 187987" d="M1629.635,223.185c5.567,0,11.134.012,16.7-.016.7,0,.884.183.879.88q-.049,6.428,0,12.856c.006.726-.158.928-.91.926-9.15-.029-18.3-.009-27.45-.036-.785,0-1.033.162-1.026,1,.042,5.26.009,10.521.037,15.782,0,.665-.166.859-.836.834-1.449-.053-2.9-.037-4.352-.005-.521.011-.713-.1-.712-.674q.027-15.427,0-30.855c0-.752.385-.691.88-.691Q1621.24,223.19,1629.635,223.185Z" transform="translate(-196.911 -13.474)" fill="#fff2bf"/>
      <path id="Trazado_187988" data-name="Trazado 187988" d="M1433.833,427.447q-14.928,0-29.855.016c-.712,0-.948-.137-.947-.906q.039-19.155.02-38.311a4.377,4.377,0,0,1,4.708-4.71c9.893-.009,19.785,0,29.678-.018.655,0,.853.155.845.829-.026,2.087.005,2.088-2.052,2.088h-26.657c-2.507,0-3.572,1.055-3.573,3.548q0,15.52,0,31.039c0,2.441,1.079,3.523,3.509,3.524q24.347,0,48.693,0c2.488,0,3.544-1.065,3.545-3.574,0-4.375.015-8.75-.015-13.125,0-.682.156-.909.876-.9,2.1.035,2.1,0,2.1,2.131,0,5.794-.021,11.588.022,17.382.006.854-.27,1-1.043,1Q1448.761,427.427,1433.833,427.447Z" transform="translate(-26.159 -144.519)" fill="#0d2380"/>
      <path id="Trazado_187989" data-name="Trazado 187989" d="M1534.708,642.516c-2.31,0-4.62-.015-6.929.011-.528.006-.818-.117-.909-.676-.118-.725-.653-1.664-.371-2.1.316-.483,1.363-.147,2.089-.15,4.561-.016,9.121.008,13.681-.025.713-.005.832.154.653.824-.563,2.106-.541,2.112-2.706,2.112Z" transform="translate(-126.997 -353.716)" fill="#fff2bf"/>
      <path id="Trazado_187990" data-name="Trazado 187990" d="M1705.78,371.163c-.251-.016-.314-.207-.413-.342-2.365-3.211-4.72-6.43-7.093-9.635-.29-.392-.185-.577.166-.841q2.9-2.189,5.768-4.428c.364-.285.554-.3.823.109.473.713,1.035,1.368,1.5,2.083.319.487.53.444.935.072,2.936-2.7,5.907-5.368,8.838-8.078.522-.482.8-.537,1.286.055,1.488,1.8,3.035,3.549,4.59,5.29.347.388.295.58-.065.906q-8.022,7.26-16.023,14.545C1705.987,371,1705.872,371.086,1705.78,371.163Z" transform="translate(-267.309 -116.904)" fill="#1e1713"/>
      <path id="Trazado_187991" data-name="Trazado 187991" d="M1792.712,446.615c-1.271,0-2.543-.014-3.814.007-.451.007-.606-.144-.635-.6-.149-2.367-.162-2.366,2.147-2.366.946,0,1.9-.053,2.837.016.774.057.957-.238.913-.951-.058-.941,0-1.888-.02-2.832-.01-.447.143-.608.608-.636,2.354-.144,2.354-.158,2.354,2.14,0,1.416-.058,2.836.022,4.248.048.857-.267,1.036-1.042.994C1794.961,446.57,1793.835,446.615,1792.712,446.615Z" transform="translate(-340.945 -190.022)" fill="#1e1713"/>
      <path id="Trazado_187992" data-name="Trazado 187992" d="M1823.644,408.991c0,1.414,0,1.414-1.458,1.414-1.5,0-1.511,0-1.5-1.474.015-1.714-.236-1.46,1.52-1.476C1823.644,407.441,1823.644,407.451,1823.644,408.991Z" transform="translate(-367.486 -164.077)" fill="#1e1915"/>
      <path id="Trazado_187993" data-name="Trazado 187993" d="M1460.123,431.443c2.665,0,5.331.03,8-.019.738-.014.875.232.865.9-.037,2.364.017,4.729-.034,7.093-.016.732.228.881.9.859,1.449-.048,2.9,0,4.353-.025.506-.01.651.149.649.651q-.026,6.65,0,13.3c0,.554-.172.693-.705.692q-8.129-.025-16.258,0c-.573,0-.682-.189-.676-.709.025-2.335-.045-4.672.038-7,.034-.95-.28-1.126-1.134-1.082-1.359.07-2.724-.008-4.085.032-.561.016-.694-.171-.692-.7q.029-6.65,0-13.3c0-.54.151-.7.7-.7C1454.734,431.457,1457.429,431.443,1460.123,431.443Z" transform="translate(-65.64 -183.67)" fill="#1e1713"/>
      <path id="Trazado_187994" data-name="Trazado 187994" d="M1604.62,527.659c2.633,0,5.266.018,7.9-.013.62-.007.878.093.869.8-.027,2.167.007,2.168-2.139,2.168-4.881,0-9.762-.016-14.643.018-.719.005-.879-.207-.868-.887.035-2.088.007-2.089,2.139-2.089Z" transform="translate(-183.648 -262.307)" fill="#1e1814"/>
      <path id="Trazado_187995" data-name="Trazado 187995" d="M1604.508,562.667c-2.662,0-5.325-.021-7.986.016-.64.009-.78-.191-.776-.8.015-2.175-.008-2.175,2.14-2.175,4.851,0,9.7.015,14.554-.016.707,0,.972.13.955.9-.046,2.072-.009,2.073-2.053,2.073Z" transform="translate(-183.655 -288.5)" fill="#1e1814"/>
      <path id="Trazado_187996" data-name="Trazado 187996" d="M1642.573,271.2c4.615,0,9.23.011,13.845-.013.6,0,.808.128.806.769-.008,2.192.019,2.193-2.14,2.193-8.757,0-17.514-.01-26.271.018-.772,0-1.01-.174-.987-.972.057-1.994.015-1.995,2.055-1.995Z" transform="translate(-209.872 -52.717)" fill="#1e1713"/>
      <path id="Trazado_187997" data-name="Trazado 187997" d="M1671.672,242.066c-3.583,0-7.167-.017-10.75.015-.7.006-.983-.122-.964-.9.048-2.053.008-2.054,2.088-2.054,6.841,0,13.683.013,20.524-.019.754,0,.933.2.916.93-.046,2.031-.011,2.032-2.04,2.032Z" transform="translate(-236.132 -26.497)" fill="#1e1713"/>
      <path id="Trazado_187998" data-name="Trazado 187998" d="M1629.441,239.2c1.469,0,1.469,0,1.469,1.477s0,1.469-1.5,1.469c-1.471,0-1.471,0-1.471-1.5C1627.941,239.2,1627.941,239.2,1629.441,239.2Z" transform="translate(-209.967 -26.576)" fill="#211914"/>
      <path id="Trazado_187999" data-name="Trazado 187999" d="M1724.346,385.449c-.249-.023-.315-.205-.414-.34-1.158-1.57-2.3-3.15-3.473-4.709-.253-.337-.229-.506.1-.78,1.6-1.34,1.576-1.341,2.813.3.417.553.7,1.512,1.321,1.519.508.006,1.034-.784,1.536-1.239,2.7-2.444,5.4-4.882,8.07-7.351.459-.424.694-.407,1.1.065,1.21,1.41,1.233,1.392-.162,2.661q-5.187,4.717-10.376,9.432C1724.685,385.164,1724.5,385.313,1724.346,385.449Z" transform="translate(-285.438 -135.551)" fill="#fbd670"/>
      <path id="Trazado_188000" data-name="Trazado 188000" d="M1473.137,456.441c-1.715,0-3.431-.019-5.145.011-.53.009-.712-.122-.7-.684.031-2.479.025-4.958,0-7.437,0-.49.12-.661.636-.658q5.234.031,10.468,0c.493,0,.659.123.654.637q-.038,3.763,0,7.526c.006.546-.216.619-.679.613C1476.627,456.428,1474.882,456.441,1473.137,456.441Z" transform="translate(-78.673 -196.95)" fill="#fff2bf"/>
      <path id="Trazado_188001" data-name="Trazado 188001" d="M1505.225,504.385c-1.687,0-3.375-.019-5.062.011-.55.01-.789-.1-.771-.72q.066-2.214,0-4.431c-.018-.6.194-.736.758-.729,2.4.028,4.8-.009,7.194.025.659.009.928-.114.916-.859-.036-2.172,0-2.155,2.181-2.128.527.007.721.132.715.69-.027,2.482-.034,4.964,0,7.446.01.636-.255.712-.784.7C1508.66,504.369,1506.943,504.385,1505.225,504.385Z" transform="translate(-104.91 -236.076)" fill="#fec2b5"/>
    </g>
  </g>
</svg>
