<svg xmlns="http://www.w3.org/2000/svg" width="440" height="232.64" viewBox="0 0 440 232.64">
  <g id="Grupo_137442" data-name="Grupo 137442" transform="translate(1754 10302)">
    <g id="Grupo_137441" data-name="Grupo 137441">
      <g id="Grupo_134306" data-name="Grupo 134306" transform="translate(-2019.535 -10671.17)">
        <g id="Grupo_134305" data-name="Grupo 134305" transform="translate(265.535 369.17)">
          <path id="Trazado_191083" data-name="Trazado 191083" d="M405.988,601.175S345.82,537.636,388.01,478.366c15.743-22.116,55.935-34.536,92.881-24.46,21.823,5.951,54.92,5.073,87.258-47.384,44.1-71.537,227.173-39.009,191.438,86.328-15.052,52.795,41.051,55.2,13.261,108.438Z" transform="translate(-355.23 -369.17)" fill="#ebf3fa" opacity="0.59"/>
          <g id="Grupo_134282" data-name="Grupo 134282" transform="translate(27.115 52.93)">
            <g id="Grupo_134281" data-name="Grupo 134281" transform="translate(0 22.255)">
              <path id="Trazado_191084" data-name="Trazado 191084" d="M779.175,853.308l-131.2,108.949-69.028-58.371c-12.92,11.293-32.873,28.724-52.946,46.216-13.718,11.954-24.824,21.613-33.826,29.43l-62.7-.072c17.386-14.693,87.39-75.756,134.551-117.023l14.42-12.617,69.779,59.007,102.42-85.053Z" transform="translate(-429.483 -823.773)" fill="#d5e5fb"/>
            </g>
            <path id="Trazado_191085" data-name="Trazado 191085" d="M2257.426,698.064l62.023,62.213,17.521-71.069Z" transform="translate(-1952.53 -689.208)" fill="#d5e5fb"/>
          </g>
          <g id="Grupo_134296" data-name="Grupo 134296" transform="translate(102.62 142.882)">
            <g id="Grupo_134290" data-name="Grupo 134290" transform="translate(11.441)">
              <g id="Grupo_134288" data-name="Grupo 134288">
                <path id="Trazado_191086" data-name="Trazado 191086" d="M963.561,1408.169a115.018,115.018,0,0,0-1.329-14.108c-.953-5.509-1.81-8.678-1.82-8.712-.125-.484-1.938-2.445-5.969-2.384s-3.648,2.631-3.648,2.631h0a.82.82,0,0,0,.029.228,123.4,123.4,0,0,1,3.579,30.87c0,.243-.03.664-.012.943,0,0,9.341.241,9.343,0C964.059,1416.124,963.9,1411.929,963.561,1408.169Z" transform="translate(-950.785 -1358.178)" fill="#b7d3f3"/>
                <path id="Trazado_191087" data-name="Trazado 191087" d="M970,1416.609c0,.241-.13.435-.286.435h0c-.155,0-.279-.2-.281-.435h-8c0,.241-.13.435-.286.435h0c-.158,0-.284-.2-.282-.447a120.875,120.875,0,0,0-.664-13.675,107.439,107.439,0,0,0-3.059-17.1.849.849,0,0,1-.029-.229s-.382-2.57,3.648-2.631,5.844,1.9,5.97,2.384c.007.025.493,1.82,1.139,5.046.214,1.069.445,2.295.682,3.665a115.153,115.153,0,0,1,1.328,14.108A36.376,36.376,0,0,1,970,1416.609Z" transform="translate(-956.045 -1358.178)" fill="#d2e3fc"/>
                <path id="Trazado_191088" data-name="Trazado 191088" d="M976.251,1576.1h31.383s-.731-2.958-18.906-2.517C975.866,1573.892,976.251,1576.1,976.251,1576.1Z" transform="translate(-972.038 -1517.232)" fill="#c5dcf8"/>
                <g id="Grupo_134283" data-name="Grupo 134283" transform="translate(1.658 59.324)">
                  <path id="Trazado_191089" data-name="Trazado 191089" d="M960.811,1622.229c3.639-18.421,2.7-29.724,2.7-29.867-.009-.284.513-.541.795-.55s1.541-.084,1.686.159c.19.318.923,14.245-4.5,30.258Z" transform="translate(-960.811 -1591.796)" fill="#b7d3f3"/>
                </g>
                <g id="Grupo_134284" data-name="Grupo 134284" transform="translate(25.64 59.324)">
                  <path id="Trazado_191090" data-name="Trazado 191090" d="M1111.138,1622.229c-3.639-18.421-2.7-29.724-2.7-29.867.009-.284-.514-.541-.795-.55s-1.541-.084-1.686.159c-.19.318-.923,14.245,4.5,30.258Z" transform="translate(-1105.818 -1591.796)" fill="#b7d3f3"/>
                </g>
                <g id="Grupo_134285" data-name="Grupo 134285" transform="translate(31.447 59.324)">
                  <path id="Trazado_191091" data-name="Trazado 191091" d="M1146.25,1622.229c-3.639-18.421-2.7-29.724-2.7-29.867.009-.284-.514-.541-.795-.55s-1.541-.084-1.686.159c-.19.318-.923,14.245,4.5,30.258Z" transform="translate(-1140.929 -1591.796)" fill="#b7d3f3"/>
                </g>
                <g id="Grupo_134286" data-name="Grupo 134286" transform="translate(7.504 59.324)">
                  <path id="Trazado_191092" data-name="Trazado 191092" d="M996.159,1622.229c3.639-18.421,2.7-29.724,2.7-29.867-.009-.284.513-.541.795-.55s1.541-.084,1.686.159c.191.318.923,14.245-4.5,30.258Z" transform="translate(-996.159 -1591.796)" fill="#b7d3f3"/>
                </g>
                <path id="Rectángulo_41226" data-name="Rectángulo 41226" d="M.854,0H31.815a.854.854,0,0,1,.854.854v0a.854.854,0,0,1-.854.854H.854A.854.854,0,0,1,0,.854v0A.854.854,0,0,1,.854,0Z" transform="translate(3.588 58.101)" fill="#b7d3f3"/>
                <g id="Grupo_134287" data-name="Grupo 134287" transform="translate(6.118)">
                  <path id="Trazado_191093" data-name="Trazado 191093" d="M1150.362,1411.962l10.432-2.26.615,1.5s-11.511,6.849-12.589,6.514S1150.362,1411.962,1150.362,1411.962Z" transform="translate(-1121.968 -1380.494)" fill="#ffb27d"/>
                  <path id="Trazado_191094" data-name="Trazado 191094" d="M1100.909,1666.671a.927.927,0,0,0-.165.991.009.009,0,0,0,0,.005,6.16,6.16,0,0,0,1.947,2.136c.117.095.221.181.313.26l.07.063.054.049c.856.789.534.969,2.071,2.57,1.753,1.824,2.96,1.857,3.3,1.691.29-.141-.3-1.109-.954-2.2l-.1-.158c-.087-.145-.174-.291-.26-.437-.766-1.309-.57-1.923-.388-3.87.148-1.582,2.462-8.841,2.462-8.841l-3.359-.579s-1.012,5.78-2.126,6.67c-.6.474-1.263.48-1.836.832-.04.025-.08.05-.119.075A4.42,4.42,0,0,0,1100.909,1666.671Z" transform="translate(-1082 -1588.023)" fill="#ffb27d"/>
                  <path id="Trazado_191095" data-name="Trazado 191095" d="M1100.909,1704.53a.927.927,0,0,0-.165.991.009.009,0,0,0,0,.005,7.14,7.14,0,0,0,1.95,2.129c.116.1.218.185.309.267l.07.063.054.049c.856.789.534.969,2.071,2.57,1.753,1.824,2.96,1.857,3.3,1.691.29-.141-.3-1.109-.954-2.2a7.467,7.467,0,0,1-3.125-2.3c-1.056-1.347-1.76-3.078-2.479-4.08-.04.025-.08.05-.119.075A4.42,4.42,0,0,0,1100.909,1704.53Z" transform="translate(-1082 -1625.882)" fill="#1c468a"/>
                  <path id="Trazado_191096" data-name="Trazado 191096" d="M1252.344,1659.414c.208,1.037,1.686.864,3.337.46s1.259.076,3.609-.184,3.062-1.136,3.134-1.486c.064-.31-1.1-.419-2.343-.563l-.471-.056c-1.406-.176-2.437-1.084-3.714-1.829-1.21-.706-3.016-3.583-3.016-3.583l-3.223.255s1.691,2.569,2.346,3.686a3.894,3.894,0,0,1,.316,2.2A4.13,4.13,0,0,0,1252.344,1659.414Z" transform="translate(-1206.345 -1582.863)" fill="#ffb27d"/>
                  <path id="Trazado_191097" data-name="Trazado 191097" d="M1268.991,1687.468c1.651-.4,1.259.076,3.609-.184s3.062-1.136,3.134-1.486c.064-.31-1.1-.419-2.343-.563l-.012.024a6.626,6.626,0,0,1-3.366,1.047c-1.594.039-3.283-.418-4.385-.4a4.13,4.13,0,0,0,.025,1.1C1265.861,1688.044,1267.339,1687.871,1268.991,1687.468Z" transform="translate(-1219.655 -1610.457)" fill="#1c468a"/>
                  <path id="Trazado_191098" data-name="Trazado 191098" d="M1222.538,1398.435s.768-1.881,1.613-1.958,3.533-.5,3.724-.115a2.657,2.657,0,0,1-.576,2.266c-.576.5-4.147,1.305-4.147,1.305Z" transform="translate(-1183.712 -1369.227)" fill="#ffb27d"/>
                  <path id="Trazado_191099" data-name="Trazado 191099" d="M1135.414,1545.258l-6.947,18.7a6.359,6.359,0,0,1-2.09-.192,9,9,0,0,1-2.021-.984s1.723-17.951,4.883-21.684S1135.414,1545.258,1135.414,1545.258Z" transform="translate(-1101.768 -1489.318)" fill="#163560"/>
                  <path id="Trazado_191100" data-name="Trazado 191100" d="M1005.681,1497.777s19.961-6.749,24.413-5.313,17.818,28.029,17.818,28.029a2.584,2.584,0,0,1-1.125.71,10.623,10.623,0,0,1-2.62.269s-12.063-10.34-13.5-13.355-2.01-5.888-3.447-5.6-18.525,7.037-22.4,3.016a11.193,11.193,0,0,1-2.863-9.245Z" transform="translate(-999.511 -1449.4)" fill="#1c468a"/>
                  <path id="Trazado_191101" data-name="Trazado 191101" d="M1010.277,1233.881a4.841,4.841,0,0,0-2.62-.5,1.226,1.226,0,0,1,.553-.262,4.061,4.061,0,0,0-1.449.378c-6.238-2.4-7.219,6.782-7.088,8.916s.146,4.59-2.968,6.5c-6.128,3.766-.957,10.34-.957,10.34.048.028,2.851,4.782,2.851,4.782-.157-1.724,7.8-10.825,11.951-13.55a12,12,0,0,0,1.4-4.323,11.348,11.348,0,0,1-.85,3.911C1014.61,1246.84,1012.564,1235.18,1010.277,1233.881Z" transform="translate(-992.727 -1233.098)" fill="#b5453c"/>
                  <path id="Trazado_191102" data-name="Trazado 191102" d="M1064.385,1308.045a5.751,5.751,0,0,1-3.528.644,4.576,4.576,0,0,1-2.349-2.253c.607-.12.782-.954.769-4.538l.274.054,4.612.913s-.1,1.452-.108,2.819C1064.052,1306.834,1064.122,1307.923,1064.385,1308.045Z" transform="translate(-1046.809 -1290.52)" fill="#ffb27d"/>
                  <path id="Trazado_191103" data-name="Trazado 191103" d="M1069.429,1303.138s-.1,1.452-.108,2.819c-2.581-.073-3.945-2.427-4.5-3.732Z" transform="translate(-1052.076 -1290.792)" fill="#ed975d"/>
                  <path id="Trazado_191104" data-name="Trazado 191104" d="M1053.272,1251.363a13.562,13.562,0,0,1-1.677-3.965c-.232-1.3.433-6.141,5.292-5.444a6.6,6.6,0,0,1,2.738,1.035c1.055.713,2.578,2.251.875,6.471l-.442,1.426Z" transform="translate(-1041.007 -1240.432)" fill="#b5453c"/>
                  <path id="Trazado_191105" data-name="Trazado 191105" d="M1066.732,1263.577s-6.107.1-6.111-3.7-.8-6.353,3.1-6.578,4.658,1.225,4.968,2.495S1068.321,1263.452,1066.732,1263.577Z" transform="translate(-1048.517 -1249.935)" fill="#ffb27d"/>
                  <path id="Trazado_191106" data-name="Trazado 191106" d="M1056.6,1248.948s-1.672,4.463-4.238,5.123-3.679-.028-3.679-.028a7.267,7.267,0,0,0,2.377-4.293S1055.336,1246.823,1056.6,1248.948Z" transform="translate(-1038.607 -1245.681)" fill="#b5453c"/>
                  <path id="Trazado_191107" data-name="Trazado 191107" d="M1094.045,1251.368a5.391,5.391,0,0,1,1.553,1.965c.3.969.441,2.963,1.022,2.9,0,0,1.26-3.033-.156-4.749C1094.964,1249.659,1094.045,1251.368,1094.045,1251.368Z" transform="translate(-1076.47 -1247.739)" fill="#b5453c"/>
                  <path id="Trazado_191108" data-name="Trazado 191108" d="M998.592,1347.358c-.6-2.526,1.447-7.427,3.585-11.484,1.941-3.677,3.955-6.661,4.136-6.553,5.118,3.038,5.581.512,5.581.512h0s4.649.617,5.966,2.883c1.633,2.812,3.4,10.668,5.149,12.156a3.3,3.3,0,0,0,.131,2.282c.061.219.129.427.2.624a11.99,11.99,0,0,0,.88,1.807c-.891.541-2.611,1.571-3.878.83-1.932-1.13-3.439-4.573-4.288-5.944l-.009-.015c-1.844,10.438.663,12.815-.606,13.916-1.34,1.162-3.255-.553-7.468,1.272-2.763,1.2-6.6,2.932-9.179,3.233-1.354.159-2.364-.077-2.693-.991C995.145,1359.229,999.741,1352.173,998.592,1347.358Z" transform="translate(-994.615 -1313.404)" fill="#1c468a"/>
                  <path id="Trazado_191109" data-name="Trazado 191109" d="M1089.709,1300.075s.114.483,1.316.409c0,0,1.009-.062.979-.594A3.248,3.248,0,0,0,1089.709,1300.075Z" transform="translate(-1072.851 -1288.74)" fill="#fff"/>
                  <path id="Trazado_191110" data-name="Trazado 191110" d="M996.1,1418.737c.329.914,1.339,1.15,2.693.991,1.787-.778,9.5-3.768,9.418-5.794-.128-3-1.484-3.1-.527-6.8.769-2.973-6.362-8.5-7.5-9.7-2.139,4.057-2.2,4.249-1.6,6.775C999.741,1409.024,995.146,1416.08,996.1,1418.737Z" transform="translate(-994.616 -1370.255)" fill="#163560"/>
                  <path id="Trazado_191111" data-name="Trazado 191111" d="M988.392,1351.08a11.316,11.316,0,0,1,3.732-3.449c-.216-.556,5.757-7.879,5.757-9.013s1.594-9.284,1.594-9.284-4.977.307-6.7,2.71C990.62,1335.049,986.144,1346.615,988.392,1351.08Z" transform="translate(-987.777 -1313.417)" fill="#1c468a"/>
                  <path id="Trazado_191112" data-name="Trazado 191112" d="M994.9,1439.97l9.945,2.6-.933,1.676s-12.1-.084-12.744-.821S994.9,1439.97,994.9,1439.97Z" transform="translate(-990.556 -1405.756)" fill="#ffb27d"/>
                  <path id="Trazado_191113" data-name="Trazado 191113" d="M1117.427,1420.941c.848,1.371,2.356,4.813,4.288,5.944,1.267.74,2.987-.289,3.878-.83a12,12,0,0,1-.88-1.807c-.711.163-1.579.37-2.138.539C1121.487,1425.116,1117.427,1420.941,1117.427,1420.941Z" transform="translate(-1095.985 -1389.874)" fill="#163560"/>
                  <path id="Trazado_191114" data-name="Trazado 191114" d="M1069.486,1452.085s3.123-.884,3.867-.677,3.293,1.894,2.935,2.353-2.6-.275-3.637-.136-1.832.648-2.576.538a8.649,8.649,0,0,1-1.522-.4Z" transform="translate(-1055.194 -1415.276)" fill="#ffb27d"/>
                  <path id="Trazado_191115" data-name="Trazado 191115" d="M1074.2,1449.263a11.705,11.705,0,0,0,1.963-1.232.122.122,0,0,1,.19.022c.116.184.226.538-.31.891A2.883,2.883,0,0,1,1074.2,1449.263Z" transform="translate(-1059.904 -1412.454)" fill="#ffb27d"/>
                </g>
              </g>
              <g id="Grupo_134289" data-name="Grupo 134289" transform="translate(20.273 25.334)">
                <path id="Trazado_191116" data-name="Trazado 191116" d="M1087.935,1476.368h-14.571a1.161,1.161,0,0,1,1.161-1.161h13.409Z" transform="translate(-1073.364 -1460.499)" fill="#ed7d2b"/>
                <path id="Trazado_191117" data-name="Trazado 191117" d="M1133.207,1386.278h22.527l-5.4,15.869h-22.674Z" transform="translate(-1118.678 -1386.278)" fill="#ed7d2b"/>
                <path id="Trazado_191118" data-name="Trazado 191118" d="M1157.742,1386.279l-5.4,15.868h-22.673l5.549-15.868Z" transform="translate(-1120.353 -1386.279)" fill="#f99746"/>
                <path id="Trazado_191119" data-name="Trazado 191119" d="M1214.765,1427.826a1.465,1.465,0,0,1-1.351,1.1.845.845,0,0,1-.844-1.1,1.464,1.464,0,0,1,1.351-1.1A.845.845,0,0,1,1214.765,1427.826Z" transform="translate(-1189.523 -1420.038)" fill="#f9ddbf"/>
                <path id="Trazado_191120" data-name="Trazado 191120" d="M1196.385,1386.279l-5.4,15.868h-15.015c9.947-3.395,12.594-13.746,13.038-15.868Z" transform="translate(-1158.997 -1386.279)" fill="#ed893e"/>
              </g>
            </g>
            <g id="Grupo_134295" data-name="Grupo 134295" transform="translate(0 41.2)">
              <g id="Grupo_134292" data-name="Grupo 134292" transform="translate(3.286 2.45)">
                <g id="Grupo_134291" data-name="Grupo 134291">
                  <path id="Trazado_191121" data-name="Trazado 191121" d="M901.893,1543.128a.582.582,0,0,0,.577-.473l2.829-16.037,4.07-23.065,1.138-6.45-2.9-.083-.5,3.744-3.531,26.312-2.094,15.6A.409.409,0,0,0,901.893,1543.128Z" transform="translate(-901.478 -1497.02)" fill="#95c0f4"/>
                </g>
                <path id="Trazado_191122" data-name="Trazado 191122" d="M935.51,1500.764a4.158,4.158,0,0,1,2.264,2.788l1.138-6.45-2.9-.083Z" transform="translate(-929.882 -1497.02)" fill="#78acea"/>
              </g>
              <g id="Grupo_134294" data-name="Grupo 134294" transform="translate(67.187 2.45)">
                <g id="Grupo_134293" data-name="Grupo 134293">
                  <path id="Trazado_191123" data-name="Trazado 191123" d="M1296.464,1543.128a.582.582,0,0,1-.577-.473l-2.829-16.037-4.07-23.065-1.138-6.45,2.9-.083.5,3.744,3.531,26.312,2.094,15.6A.409.409,0,0,1,1296.464,1543.128Z" transform="translate(-1287.849 -1497.02)" fill="#95c0f4"/>
                </g>
                <path id="Trazado_191124" data-name="Trazado 191124" d="M1291.251,1500.764a4.158,4.158,0,0,0-2.264,2.788l-1.138-6.45,2.9-.083Z" transform="translate(-1287.849 -1497.02)" fill="#78acea"/>
              </g>
              <path id="Rectángulo_41227" data-name="Rectángulo 41227" d="M2.532,0h72.7a2.532,2.532,0,0,1,2.532,2.532v0a2.532,2.532,0,0,1-2.532,2.532H2.532A2.532,2.532,0,0,1,0,2.532v0A2.532,2.532,0,0,1,2.532,0Z" transform="translate(77.767 5.064) rotate(180)" fill="#78acea"/>
            </g>
          </g>
          <path id="Rectángulo_41228" data-name="Rectángulo 41228" d="M.58,0H439.42a.58.58,0,0,1,.58.58v0a.58.58,0,0,1-.58.58H.58A.58.58,0,0,1,0,.58v0A.58.58,0,0,1,.58,0Z" transform="translate(0 231.327)" fill="#2e3552"/>
          <g id="Grupo_134298" data-name="Grupo 134298" transform="translate(278.619 134.895)">
            <path id="Trazado_191125" data-name="Trazado 191125" d="M1999.873,1465.891s-1.926,2.389-1.324,2.714,2.193.935,2.568.551.493-3.2.493-3.2Z" transform="translate(-1988.641 -1419.402)" fill="#ffb27d"/>
            <path id="Trazado_191126" data-name="Trazado 191126" d="M1997.776,1466.131a2.833,2.833,0,0,0-1.1.683c-.31.41-.995,1.034-.827,1.207s1.151-.592,1.151-.592Z" transform="translate(-1986.465 -1419.603)" fill="#ffb27d"/>
            <path id="Trazado_191127" data-name="Trazado 191127" d="M2014.242,1273.061s-2.171,20.2-2.364,20.781c-.042.125-.212.765-.452,1.685-.342,1.314-.824,3.2-1.282,5-.691,2.713-1.324,5.216-1.324,5.216l-1.884-.621s-.1-9.819.387-12.08,2.036-16.153,2.819-18.023S2014.242,1273.061,2014.242,1273.061Z" transform="translate(-1995.731 -1258.464)" fill="#aec3ff"/>
            <g id="Grupo_134297" data-name="Grupo 134297" transform="translate(0 48.406)">
              <path id="Trazado_191128" data-name="Trazado 191128" d="M1953.225,1495.72l-11.837-3.1a2.9,2.9,0,0,1-2.066-3.536l1.345-5.13a2.9,2.9,0,0,1,3.536-2.067l11.838,3.1a2.9,2.9,0,0,1,2.066,3.536l-1.345,5.13A2.9,2.9,0,0,1,1953.225,1495.72Z" transform="translate(-1939.227 -1481.077)" fill="#a02e2e"/>
              <path id="Trazado_191129" data-name="Trazado 191129" d="M1950.028,1480.763l-1.361,5.189a2.913,2.913,0,0,0,.705,2.737,2.864,2.864,0,0,0,.778.586h0a2.84,2.84,0,0,0,.589.226l11.816,3.1a2.914,2.914,0,0,0,3.549-2.074l1.361-5.189a2.916,2.916,0,0,0-2.075-3.549l-4.069-1.067.29-1.107a.96.96,0,0,0-.684-1.171l-.446-.117-2.475-.649-.615-.161a.96.96,0,0,0-1.171.684l-.291,1.107-2.357-.619c-.094-.025-.186-.044-.279-.058h0a2.917,2.917,0,0,0-2.53.838h0A2.882,2.882,0,0,0,1950.028,1480.763Zm10.716-.2-4.229-1.108.291-1.107a.359.359,0,0,1,.437-.255l1.062.278,1.948.51.526.138a.373.373,0,0,1,.1.043.359.359,0,0,1,.157.394Z" transform="translate(-1947.027 -1477.484)" fill="#bc3f3f"/>
            </g>
            <path id="Trazado_191130" data-name="Trazado 191130" d="M2001.773,1478.257s.526-.886.329-1.195-.906.918-.906.918.484-1.053.3-1.227-.923,1.037-.923,1.037.462-1.023.3-1.058-.713.86-.713.86.286-.767.025-.73-.827.736-.827.736Z" transform="translate(-1989.415 -1428.451)" fill="#ffb27d"/>
            <path id="Trazado_191131" data-name="Trazado 191131" d="M2022.64,1361.3c-.342,1.314-.824,3.2-1.282,5a19.43,19.43,0,0,1-.907-3.963c-.436-3.344.9-10.467.9-10.467Z" transform="translate(-2006.944 -1324.236)" fill="#9db0f4"/>
            <path id="Trazado_191132" data-name="Trazado 191132" d="M2178.015,1460.867a16.694,16.694,0,0,1,2.358,2.237,11.456,11.456,0,0,1,.877,3.14c-.035.635-1.608-1.454-2.07-1.623s.483.858.377,1.078-1.091-.5-1.466-.734-.639-1.829-1.2-2.7S2178.015,1460.867,2178.015,1460.867Z" transform="translate(-2137.49 -1415.209)" fill="#ffb27d"/>
            <path id="Trazado_191133" data-name="Trazado 191133" d="M2017.759,1740.513h10.463c.75-.508-.2-5.479-.2-5.479s-2.856-1.083-3.349,1.12-3.637,2.9-5.3,3.171A1.79,1.79,0,0,0,2017.759,1740.513Z" transform="translate(-2004.771 -1643.81)" fill="#233862"/>
            <path id="Trazado_191134" data-name="Trazado 191134" d="M2111.585,1740.513h10.463c.75-.508-.2-5.479-.2-5.479s-2.856-1.083-3.349,1.12-3.637,2.9-5.3,3.171A1.791,1.791,0,0,0,2111.585,1740.513Z" transform="translate(-2083.079 -1643.81)" fill="#233862"/>
            <path id="Trazado_191135" data-name="Trazado 191135" d="M2034.779,1458.813s.47,5.867,1.023,12.921c.751,9.581,2.777,33.336,2.777,33.336s1.328,1.134,4.271.514a93.009,93.009,0,0,0,3.254-17.549c.012-.153.023-.308.035-.462.7-9.522,1.78-29.572,1.78-29.572Z" transform="translate(-2018.976 -1412.817)" fill="#2b478b"/>
            <path id="Trazado_191136" data-name="Trazado 191136" d="M2033.809,1450.656s.631,7.895,1.184,14.948l10.3,16.3c.012-.153.023-.308.035-.462.7-9.522,1.78-29.572,1.78-29.572Z" transform="translate(-2018.166 -1406.687)" fill="#233862"/>
            <path id="Trazado_191137" data-name="Trazado 191137" d="M2051.965,1432.521s7.472,18.6,9.86,25.649c1.7,5.022,6.5,22.639,6.5,22.639a4.823,4.823,0,0,0,3.84-.592s1.785-18-1.821-23.074c-1.913-2.692-.476-27.99-8.232-28.206S2051.965,1432.521,2051.965,1432.521Z" transform="translate(-2033.32 -1388.552)" fill="#2b478b"/>
            <path id="Trazado_191138" data-name="Trazado 191138" d="M2044.828,1302.834c-3.115,1.758-16.463,1.718-17.081.339-1.381-3.081-1.727-18.735-1.076-23.537,0,0,.337-7.38,1.076-7.054,4.93-2.265,12.91-.208,12.91-.208,2.151.634,1.967,5.551,2.567,12.455.077.89.163,1.817.259,2.775.424,4.264,1.042,9.162,1.981,14.329C2045.528,1302.272,2045.291,1302.573,2044.828,1302.834Z" transform="translate(-2011.944 -1257.176)" fill="#aec3ff"/>
            <path id="Trazado_191139" data-name="Trazado 191139" d="M2063.666,1244.207c-.083,1.32-1.8,1.17-3.874.7s-1.32-1.692-1.32-1.692.031-.938.161-2.062c.048-.408.107-.843.186-1.265.036-.206.077-.41.124-.606.271-1.161,4.135-.041,4.107.272C2062.974,1240.4,2063.585,1243.171,2063.666,1244.207Z" transform="translate(-2038.64 -1229.84)" fill="#ffb27d"/>
            <path id="Trazado_191140" data-name="Trazado 191140" d="M2062.895,1276.4l-.163-1.823,2.292.432-.882,1.628Z" transform="translate(-2042.305 -1259.727)" fill="#233862"/>
            <path id="Trazado_191141" data-name="Trazado 191141" d="M2052.525,1260.469l-1.369,2.082a3.029,3.029,0,0,0,1.188,2.21l1.872-1.743A3.366,3.366,0,0,1,2052.525,1260.469Z" transform="translate(-2032.644 -1247.954)" fill="#9db0f4"/>
            <path id="Trazado_191142" data-name="Trazado 191142" d="M2069.659,1264.691a4.9,4.9,0,0,0,1.138,2.031s2.923-.786,3.62-2.283l-1.522-1.965S2072.82,1263.96,2069.659,1264.691Z" transform="translate(-2048.087 -1249.627)" fill="#9db0f4"/>
            <path id="Trazado_191143" data-name="Trazado 191143" d="M2064.552,1244.857a7.174,7.174,0,0,1-4.438.944c.048-.409.107-.843.186-1.265.509-.124.935-.2.935-.2Z" transform="translate(-2040.121 -1234.489)" fill="#e2915a"/>
            <path id="Trazado_191144" data-name="Trazado 191144" d="M2059.647,1202.771c-.909,2.5-4.228,1.864-5.641,1.462-.4-.113-.644-.207-.644-.207-.437-.2-.572-.96-.534-1.923a14.886,14.886,0,0,1,1.26-5.243c.65-.975,1.733-1.967,4.952-.586S2060.813,1199.564,2059.647,1202.771Z" transform="translate(-2034.035 -1193.809)" fill="#ffb27d"/>
            <path id="Trazado_191145" data-name="Trazado 191145" d="M2064.269,1192.478c-1.016.829-3.2,2.362-3.2,2.362a3.962,3.962,0,0,0,.54-1.114,1.105,1.105,0,0,0,.04-.377,2.079,2.079,0,0,1,.3-1.156c.133-.216.181-.44.013-.6-.276-.261-.747-.021-1.056.19a.624.624,0,0,1-.681.017l0,0c-.868-.544.09-1.5-.615-2.3s-3.76-.9-3.637-1.4c-1.042-.589-.385-2.762-.366-2.877a11.267,11.267,0,0,0,3.364-.334,4.978,4.978,0,0,1,3.718.994.85.85,0,0,0-.084-.371.785.785,0,0,1,.225.491c.023.023.033.039.026.044a1,1,0,0,1,.478.11s-.129-.041-.19.036a.091.091,0,0,1-.026.02C2065.142,1187.647,2065.112,1191.789,2064.269,1192.478Z" transform="translate(-2036.17 -1184.801)" fill="#233862"/>
            <path id="Trazado_191146" data-name="Trazado 191146" d="M2057.139,1234.113s-.163.315-.984.054c0,0-.689-.219-.575-.582A2.322,2.322,0,0,1,2057.139,1234.113Z" transform="translate(-2036.326 -1225.512)" fill="#fff"/>
            <path id="Trazado_191147" data-name="Trazado 191147" d="M2054.623,1285.6s-1.828,23.1-1.8,25.026,2.026,3.96,2.026,3.96a8.467,8.467,0,0,0,1.9-3.586c.311-1.841-.882-25.164-.882-25.164Z" transform="translate(-2034.033 -1268.929)" fill="#2a4e96"/>
            <path id="Trazado_191148" data-name="Trazado 191148" d="M2112.842,1276.7s2.951.706,5.284,5.188,4.176,13.521,5.29,15.907,1.878,9.9,1.878,9.9l-1.763.865s-4.258-7.7-4.888-10.226c-.341-1.366-5.547-12.3-5.547-12.3Z" transform="translate(-2084.128 -1261.498)" fill="#aec3ff"/>
            <path id="Trazado_191149" data-name="Trazado 191149" d="M2117.477,1363.651h0c-5.556-.8-3.965-19.19-3.528-19.263s2.034,3.287,2.034,3.287l.153.746c.424,4.264,1.042,9.162,1.981,14.329C2118.176,1363.09,2117.939,1363.391,2117.477,1363.651Z" transform="translate(-2084.593 -1317.994)" fill="#9db0f4"/>
          </g>
          <g id="Grupo_134301" data-name="Grupo 134301" transform="translate(332.793 93.384)">
            <g id="Grupo_134299" data-name="Grupo 134299" transform="translate(6.82 60.425)">
              <path id="Trazado_191150" data-name="Trazado 191150" d="M2514.954,1698.729s2.314,2.111,1.862,3.612-2.54,2.5-2.822,4.334-1.41,2.834-2.426,2.834h-4.843s-.748-1.29,1.058-1.679,2.487-2.544,2.374-4.544a35.23,35.23,0,0,1,.169-4.667l3.837-.889Z" transform="translate(-2472.97 -1631.812)" fill="#233862"/>
              <path id="Trazado_191151" data-name="Trazado 191151" d="M2317,1727.411s.415,4.805-.6,5.305l-13-.027s0-1.5,2.088-1.833,5.756-1.556,6.377-4.279S2317,1727.411,2317,1727.411Z" transform="translate(-2303.399 -1655.033)" fill="#233862"/>
              <path id="Trazado_191152" data-name="Trazado 191152" d="M2319.27,1320.492s.686,8.423,1.492,18.548c1.095,13.754,2.412,30.648,2.542,33.848.225,5.557,1.129,14.447,1.129,14.447s2.143,2.112,6.433,1.222a143.455,143.455,0,0,0,4.914-26.117c.017-.22.034-.442.051-.663,1.016-13.669,2.6-42.451,2.6-42.451Z" transform="translate(-2316.645 -1315.991)" fill="#2a4e96"/>
              <path id="Trazado_191153" data-name="Trazado 191153" d="M2319.27,1320.492s.686,8.423,1.492,18.548l15.019,23.4c.017-.22.034-.442.051-.663,1.016-13.669,2.6-42.451,2.6-42.451Z" transform="translate(-2316.645 -1315.991)" fill="#233862"/>
              <path id="Trazado_191154" data-name="Trazado 191154" d="M2338.2,1304.669s12.358,30.5,20.484,44.84,10.666,18.336,10.666,18.336,4.655-1.833,5.079-3.084c0,0-3.107-27.676-8.549-34.422-3.075-3.812-5.727-12.27-5.594-16.272.229-6.9-2.363-14.9-2.363-14.9Z" transform="translate(-2332.446 -1299.168)" fill="#2a4e96"/>
            </g>
            <path id="Trazado_191155" data-name="Trazado 191155" d="M2264.869,1335.138s-2.308,3.125-2.477,3.958a16.448,16.448,0,0,0-.093,4.682c.276.871,1.715-2.6,2.3-3s-.364,1.366-.137,1.635,1.338-1.085,1.776-1.547.232-2.775.7-4.182S2264.869,1335.138,2264.869,1335.138Z" transform="translate(-2262.162 -1268.764)" fill="#ffb27d"/>
            <path id="Trazado_191156" data-name="Trazado 191156" d="M2285.808,1060.607s-3.118,29.027-3.4,29.854c-.06.18-.3,1.1-.65,2.421-.491,1.888-1.184,4.6-1.842,7.18-.992,3.9-2.064,7.267-2.064,7.267a2.732,2.732,0,0,1-1.606.208,1.7,1.7,0,0,1-1.193-.728s.114-14.251.81-17.5,2.924-23.206,4.05-25.892S2285.808,1060.607,2285.808,1060.607Z" transform="translate(-2272.924 -1039.637)" fill="#fff"/>
            <path id="Trazado_191157" data-name="Trazado 191157" d="M2299.1,1187.37c-.491,1.888-1.184,4.6-1.842,7.18a27.891,27.891,0,0,1-1.3-5.693c-.627-4.8,1.3-15.038,1.3-15.038Z" transform="translate(-2290.258 -1134.125)" fill="#dceaff"/>
            <path id="Trazado_191158" data-name="Trazado 191158" d="M2330.972,1103.378c-4.476,2.525-23.651,2.469-24.539.487-1.984-4.426-2.481-26.915-1.545-33.814,0,0,.485-10.6,1.545-10.134,7.082-3.254,18.547-.3,18.547-.3,3.091.911,2.825,7.974,3.688,17.893.111,1.278.234,2.611.372,3.987.61,6.126,1.5,13.162,2.847,20.585C2331.976,1102.572,2331.636,1103,2330.972,1103.378Z" transform="translate(-2297.44 -1037.786)" fill="#fff"/>
            <path id="Trazado_191159" data-name="Trazado 191159" d="M2358.034,1019.155c-.119,1.9-2.592,1.681-5.566,1s-1.9-2.431-1.9-2.431.044-1.347.232-2.962c.069-.587.155-1.211.267-1.817.052-.3.111-.589.177-.871.389-1.669,5.94-.059,5.9.39C2357.04,1013.679,2357.917,1017.666,2358.034,1019.155Z" transform="translate(-2335.792 -998.515)" fill="#ffb27d"/>
            <path id="Trazado_191160" data-name="Trazado 191160" d="M2356.926,1065.4l-.235-2.62,3.292.621-1.267,2.339Z" transform="translate(-2341.057 -1041.452)" fill="#233862"/>
            <path id="Trazado_191161" data-name="Trazado 191161" d="M2342.028,1042.517l-1.967,2.991a4.352,4.352,0,0,0,1.707,3.175l2.689-2.5S2342.719,1045.516,2342.028,1042.517Z" transform="translate(-2327.177 -1024.538)" fill="#dceaff"/>
            <path id="Trazado_191162" data-name="Trazado 191162" d="M2366.643,1048.582a7.039,7.039,0,0,0,1.635,2.918s4.2-1.129,5.2-3.28l-2.187-2.823S2371.185,1047.532,2366.643,1048.582Z" transform="translate(-2349.363 -1026.941)" fill="#dceaff"/>
            <path id="Trazado_191163" data-name="Trazado 191163" d="M2359.306,1020.087a10.3,10.3,0,0,1-6.376,1.355c.069-.587.155-1.211.267-1.817.731-.178,1.343-.288,1.343-.288Z" transform="translate(-2337.918 -1005.192)" fill="#e2915a"/>
            <path id="Trazado_191164" data-name="Trazado 191164" d="M2352.261,959.627c-1.306,3.6-6.074,2.678-8.1,2.1-.572-.162-.925-.3-.925-.3-.628-.284-.822-1.379-.767-2.762a21.385,21.385,0,0,1,1.809-7.532c.934-1.4,2.49-2.826,7.115-.842S2353.936,955.019,2352.261,959.627Z" transform="translate(-2329.176 -946.751)" fill="#ffb27d"/>
            <path id="Trazado_191165" data-name="Trazado 191165" d="M2358.9,944.84c-1.46,1.19-4.6,3.394-4.6,3.394a5.682,5.682,0,0,0,.776-1.6,1.583,1.583,0,0,0,.057-.542,2.988,2.988,0,0,1,.428-1.661c.191-.31.26-.632.019-.86-.4-.375-1.073-.031-1.516.273a.9.9,0,0,1-.978.025l-.006,0c-1.247-.781.129-2.157-.884-3.3s-5.4-1.3-5.226-2.015c-1.5-.846-.554-3.968-.526-4.133a16.188,16.188,0,0,0,4.833-.48c2.178-.547,4.58.852,5.34,1.428a1.224,1.224,0,0,0-.121-.533,1.128,1.128,0,0,1,.323.706c.033.033.048.056.038.063a1.448,1.448,0,0,1,.687.159s-.186-.059-.274.052a.132.132,0,0,1-.038.029C2360.154,937.9,2360.111,943.85,2358.9,944.84Z" transform="translate(-2332.243 -933.811)" fill="#bc3f3f"/>
            <path id="Trazado_191166" data-name="Trazado 191166" d="M2348.658,1004.652s-.235.453-1.413.077c0,0-.99-.315-.826-.837A3.336,3.336,0,0,1,2348.658,1004.652Z" transform="translate(-2332.468 -992.297)" fill="#fff"/>
            <path id="Trazado_191167" data-name="Trazado 191167" d="M2345.042,1078.621s-2.626,33.188-2.589,35.953,2.91,5.689,2.91,5.689a12.164,12.164,0,0,0,2.736-5.152c.447-2.646-1.267-36.151-1.267-36.151Z" transform="translate(-2329.174 -1054.671)" fill="#2a4e96"/>
            <path id="Trazado_191168" data-name="Trazado 191168" d="M2435.339,1190.75h0c-7.983-1.149-5.7-27.569-5.069-27.673s2.922,4.722,2.922,4.722l.219,1.072c.61,6.126,1.5,13.162,2.847,20.585C2436.343,1189.944,2436,1190.376,2435.339,1190.75Z" transform="translate(-2401.808 -1125.158)" fill="#dceaff"/>
            <g id="Grupo_134300" data-name="Grupo 134300" transform="translate(32.666 68.423)">
              <path id="Trazado_191169" data-name="Trazado 191169" d="M2484.008,1371.344l-16.881,4.912a4.172,4.172,0,0,1-5.157-2.832l-2.129-7.316a4.172,4.172,0,0,1,2.832-5.157l16.881-4.912a4.172,4.172,0,0,1,5.157,2.832l2.129,7.315A4.173,4.173,0,0,1,2484.008,1371.344Z" transform="translate(-2459.676 -1354.493)" fill="#a02e2e"/>
              <path id="Trazado_191170" data-name="Trazado 191170" d="M2473.286,1358.489l2.154,7.4a4.184,4.184,0,0,0,2.89,2.853,4.108,4.108,0,0,0,1.391.147h0a4.081,4.081,0,0,0,.893-.156l16.85-4.9a4.187,4.187,0,0,0,2.842-5.176l-2.153-7.4a4.189,4.189,0,0,0-5.177-2.842l-5.8,1.689-.459-1.579a1.379,1.379,0,0,0-1.708-.938l-.636.185-3.529,1.027-.877.255a1.379,1.379,0,0,0-.938,1.708l.459,1.579-3.362.977c-.133.039-.261.084-.387.134h0a4.191,4.191,0,0,0-2.5,2.9h0A4.14,4.14,0,0,0,2473.286,1358.489Zm13.063-8.151-6.03,1.755-.459-1.579a.515.515,0,0,1,.35-.637l1.514-.44,2.778-.809.75-.217a.517.517,0,0,1,.638.35Z" transform="translate(-2470.897 -1347.526)" fill="#bc3f3f"/>
            </g>
            <path id="Trazado_191171" data-name="Trazado 191171" d="M2521.819,1329.687s-.523,4.377.458,4.314,3.383-.534,3.547-1.287-1.839-4.27-1.839-4.27Z" transform="translate(-2478.759 -1263.177)" fill="#ffb27d"/>
            <path id="Trazado_191172" data-name="Trazado 191172" d="M2518.017,1335.892a4.069,4.069,0,0,0-.816,1.667c-.065.735-.423,2.017-.086,2.1s.951-1.6.951-1.6Z" transform="translate(-2474.83 -1269.393)" fill="#ffb27d"/>
            <path id="Trazado_191173" data-name="Trazado 191173" d="M2428.68,1065.828s4.24,1.015,7.592,7.453,6,19.425,7.6,22.852,2.818,13.712,2.818,13.712a1.573,1.573,0,0,1-1.112.7,5.256,5.256,0,0,1-1.356.088s-6.3-10.1-7.208-13.724c-.49-1.963-7.969-17.676-7.969-17.676Z" transform="translate(-2401.14 -1043.994)" fill="#fff"/>
          </g>
          <path id="Trazado_191174" data-name="Trazado 191174" d="M737.2,1709.279l-.635-4.575,2.668-2.23.841,6.057Z" transform="translate(-658.661 -1481.964)" fill="#ffb27d"/>
          <path id="Trazado_191175" data-name="Trazado 191175" d="M738.783,1739.1H727.9a5.975,5.975,0,0,1,.307-2.916c.545-1.207,1.392-1.952,1.469-2.877a3.268,3.268,0,0,0,3.115.958,11.93,11.93,0,0,0,1.888,2.447C735.394,1737.223,738.564,1737.041,738.783,1739.1Z" transform="translate(-651.384 -1507.697)" fill="#233862"/>
          <path id="Trazado_191176" data-name="Trazado 191176" d="M712.713,1339.985c-.711,5.723-1.293,11.119-1.767,16.147-2.532,26.794-2.035,43.17-2.035,43.17s-.183.485-1.753.492a9,9,0,0,1-1.756-.189s-5.669-17.5-5.231-27.453a15.249,15.249,0,0,1,.442-3.223c1.36-5.094-5.032-24.576,1.916-31.831S713.04,1337.359,712.713,1339.985Z" transform="translate(-627.5 -1174.451)" fill="#fc502d"/>
          <path id="Trazado_191178" data-name="Trazado 191178" d="M829.66,1009.477s-.262-1.308-.557-2.305c-.131-.442.78-3.342,1.41-3.7s2.272,1.6,1.807,3.1c-.239.77-.631,3.277-.631,3.277Z" transform="translate(-735.885 -898.532)" fill="#ffb27d"/>
          <path id="Trazado_191179" data-name="Trazado 191179" d="M824.865,1025.588s-.342-.758-.652-.881-.641-1.363-.868-1.854c0,0,.219-.322.6.092.234.252.756.992.756.992Z" transform="translate(-731.091 -914.643)" fill="#ffb27d"/>
          <path id="Trazado_191180" data-name="Trazado 191180" d="M541.594,1052.944c-.067.138-.159.384-.242.615q0-.095,0-.187c0-.46-1.724-2.967-2.431-3.124s-1.705,2.191-.822,3.489c.454.667,1.562,2.949,1.562,2.949l1.832-.946s.106-.825.365-1.033.214-1.491.287-2.027C542.143,1052.679,541.839,1052.436,541.594,1052.944Z" transform="translate(-492.728 -937.601)" fill="#ffb27d"/>
          <path id="Trazado_191181" data-name="Trazado 191181" d="M629.121,1704.942c-.154-1.467-.192-5.325-.192-5.325s3.931-1.257,3.787-.394a27.77,27.77,0,0,0-.518,6.342l-1.59.95Z" transform="translate(-568.828 -1478.998)" fill="#ffb27d"/>
          <path id="Trazado_191182" data-name="Trazado 191182" d="M646.263,1364.336s-15.188,41.632-18.178,59.691a3.026,3.026,0,0,1-1.985.318,2.219,2.219,0,0,1-1.867-1.2s-2.744-21.644,2.71-29.159c3.747-5.162-1.616-27.835,7.11-29.653S646.263,1364.336,646.263,1364.336Z" transform="translate(-564.334 -1199.074)" fill="#fc502d"/>
          <path id="Trazado_191183" data-name="Trazado 191183" d="M619.47,1084.838h0a.342.342,0,0,0-.013-.054c-.089-.366-.186-.727-.29-1.085h0a24.445,24.445,0,0,0-1.1-3.057c-.235-.528-.478-1.017-.727-1.452-.038-.067-.075-.13-.111-.194h0a4.365,4.365,0,0,0-1.735-1.879,5.206,5.206,0,0,0-2.858-.119,1.316,1.316,0,0,1,.545-.365,4.346,4.346,0,0,0-1.478.629c-7-1.564-6.586,8.331-6.11,10.574s-1.778,3.333-4.954,5.627c-6.062,4.379-5.96,9.02-5.96,9.02.055.023.114.05.176.081.244-.6.761-1.737,1.3-1.978a23.572,23.572,0,0,0-.582,2.351c.923.509,2.2,1.3,3.589,2.186h0c1.856,1.188,3.906,2.555,5.547,3.666a3.762,3.762,0,0,1-.041-1.46l.523,1.621.069.211c1.048.71,1.875,1.279,2.294,1.569l.116.079.188.13c-.139-.573.472-2.066,1.5-3.948.07-.131.145-.265.221-.4.331-.595.7-1.222,1.1-1.868.143-.234.288-.467.439-.705,0,0,0,0,0,0,.12-.192.242-.382.368-.576v0c.3-.459.6-.922.919-1.386.813-1.2,1.674-2.394,2.525-3.487a30.608,30.608,0,0,1,3.462-3.882c.033-.068.065-.138.093-.209a6.918,6.918,0,0,0,.375-1.2c.029-.125.056-.251.079-.377a16.4,16.4,0,0,0,.255-2.967,16.815,16.815,0,0,1-.037,2.99c-.02.161-.041.31-.065.448h0a6.146,6.146,0,0,1-.184.787,4.1,4.1,0,0,0,.441-.679,4.792,4.792,0,0,0,.23-.508C620.4,1090.879,620.179,1087.762,619.47,1084.838Z" transform="translate(-540.238 -959.624)" fill="#163560"/>
          <path id="Trazado_191184" data-name="Trazado 191184" d="M703.923,1158.052a6.166,6.166,0,0,1-3.639,1.24,4.908,4.908,0,0,1-2.847-2.019c.625-.223.678-1.135.1-4.933l.3.014,5.036.241s.118,1.556.33,3.007C703.379,1156.82,703.625,1157.964,703.923,1158.052Z" transform="translate(-626.006 -1022.814)" fill="#ffb27d"/>
          <path id="Trazado_191185" data-name="Trazado 191185" d="M704.887,1152.666s.118,1.556.33,3.007c-2.749.33-4.567-1.952-5.366-3.248Z" transform="translate(-628.021 -1022.885)" fill="#ed975d"/>
          <path id="Trazado_191186" data-name="Trazado 191186" d="M683.23,1096.417a14.545,14.545,0,0,1-2.4-3.94c-.452-1.347-.51-6.581,4.754-6.609a7.077,7.077,0,0,1,3.067.666c1.231.589,3.089,1.981,1.949,6.725l-.244,1.581Z" transform="translate(-611.984 -967.334)" fill="#163560"/>
          <path id="Trazado_191187" data-name="Trazado 191187" d="M675.831,1207.977a21.328,21.328,0,0,1-14.78,1.892c-.1-.024-6.774-1.089-6.774-1.089.115-.314.978-5.472,1.091-5.761,1.46-3.766,4.127-24.209,6.356-25.217a5.048,5.048,0,0,0,3.588.92c1.6-.141,2.14-.834,2.007-1.579,1.774.839,3.137,1.618,3.137,1.618C672.076,1181.19,675.831,1207.977,675.831,1207.977Z" transform="translate(-589.984 -1043.515)" fill="#fff"/>
          <path id="Trazado_191188" data-name="Trazado 191188" d="M698.085,1107.426s-6.46,1.07-7.065-2.963-1.845-6.612,2.254-7.466,5.133.565,5.662,1.862S699.75,1107.043,698.085,1107.426Z" transform="translate(-620.101 -976.408)" fill="#ffb27d"/>
          <path id="Trazado_191189" data-name="Trazado 191189" d="M687.4,1091.971s-1.069,5-3.686,6.1-3.906.551-3.906.551a7.79,7.79,0,0,0,1.843-4.928S685.729,1089.917,687.4,1091.971Z" transform="translate(-611.293 -971.919)" fill="#163560"/>
          <path id="Trazado_191190" data-name="Trazado 191190" d="M723.4,1092.962a5.781,5.781,0,0,1,1.957,1.839c.476.979.935,3.072,1.541,2.909,0,0,.857-3.415-.915-5.012C724.109,1091,723.4,1092.962,723.4,1092.962Z" transform="translate(-647.678 -972.46)" fill="#163560"/>
          <path id="Trazado_191191" data-name="Trazado 191191" d="M751.641,1038.718a4.133,4.133,0,0,0-1.155-.357,3.584,3.584,0,0,0-1.015.106s-1.823,11.33-1.958,11.93-7.818,9.255-9.889,9.22a9.383,9.383,0,0,0-4.5,1.69s4.356,9.211,4.573,10.941c.236,1.883,2.491,30.874,2.491,30.874s-.134,1.349,2.386.624a8.607,8.607,0,0,0,3.15-1.325s-2.315-22.824-2.8-29.922a13.587,13.587,0,0,0-.442-2.648,2.683,2.683,0,0,1,.434-2.28c3.186-4.374,8.217-11.459,8.5-12.965C751.826,1052.393,751.641,1038.718,751.641,1038.718Z" transform="translate(-655.792 -927.68)" fill="#2b478b"/>
          <path id="Trazado_191192" data-name="Trazado 191192" d="M629.694,1739.1H618.815a5.972,5.972,0,0,1,.307-2.916c.544-1.207,1.392-1.952,1.469-2.877a3.268,3.268,0,0,0,3.115.958,11.93,11.93,0,0,0,1.888,2.447C626.305,1737.223,629.475,1737.041,629.694,1739.1Z" transform="translate(-560.338 -1507.697)" fill="#233862"/>
          <path id="Trazado_191193" data-name="Trazado 191193" d="M579.192,1109.061c-.367-2.256-5.048-11.315-5.048-11.315s-2.959-.885-4.907-.179-12.025-4.984-12.348-5.508-5.72-10.581-5.72-10.581a1.251,1.251,0,0,0-1.165.115,1.312,1.312,0,0,0-.712,1.092s4.166,12.663,5.274,14.622c.668,1.181,6.287,5.294,10.643,8.373a2.734,2.734,0,0,1,1.132,2.6c-.586,4.33-.735,6.769-1.408,14.2-.559,6.164-.773,18.1-.773,18.1a40.279,40.279,0,0,0,8.239,1.911c3.364.224,4.1-3.323,4.1-3.323S579.569,1111.381,579.192,1109.061Z" transform="translate(-502.362 -963.598)" fill="#2b478b"/>
          <path id="Trazado_191194" data-name="Trazado 191194" d="M724.26,1146.342a2.885,2.885,0,0,0,1.712.322c.635-.1.779-.848.779-.848a2.5,2.5,0,0,0-1.146,0A4.887,4.887,0,0,0,724.26,1146.342Z" transform="translate(-648.393 -1017.317)" fill="#fff"/>
          <g id="Grupo_134304" data-name="Grupo 134304" transform="translate(192.652 32.606)">
            <path id="Trazado_191195" data-name="Trazado 191195" d="M1965.137,649.421s-3.023-5.372,0-6.465,4.391-.085,4.535,1.138-1.152,6.046-1.152,6.046Z" transform="translate(-1874.012 -629.891)" fill="#ffb27d"/>
            <path id="Trazado_191196" data-name="Trazado 191196" d="M1768.1,711.9a97.742,97.742,0,0,1-15.153,1.556,84.476,84.476,0,0,1-11.647-.524q-1.373-.158-2.64-.351c-8.924-1.353-13.851-3.753-13.851-3.753s8.154-17.067,14.74-16.412c7.727.77,20.822,7.7,22.123,5.76,1.465-2.191,2.692-20.982,2.692-20.982,3.426-2.346,5.472.127,5.472.127S1776.525,710.381,1768.1,711.9Z" transform="translate(-1677.161 -658.014)" fill="#fc502d"/>
            <path id="Trazado_191198" data-name="Trazado 191198" d="M1720.466,1712.112s-.587,6.785.848,7.491l18.355-.038s0-2.118-2.948-2.589-8.127-2.2-9-6.041S1720.466,1712.112,1720.466,1712.112Z" transform="translate(-1670.829 -1520.422)" fill="#233862"/>
            <path id="Trazado_191199" data-name="Trazado 191199" d="M1684.776,1121.586c-.091,4.437-.3,9.013-.721,13.126-1.982,19.516-2.679,43.1-2.964,47.642-.494,7.891-2.053,20.5-2.053,20.5s-3.092,2.935-9.119,1.535a205.192,205.192,0,0,1-6.11-37.279c-.017-.314-.034-.629-.05-.944-.13-2.528-.265-5.418-.4-8.535-.919-20.876-1.916-51.889-1.916-51.889l23.033-5.408S1685,1110.525,1684.776,1121.586Z" transform="translate(-1621.664 -1012.013)" fill="#2a4e96"/>
            <path id="Trazado_191200" data-name="Trazado 191200" d="M1684.776,1121.586c-5.837,10.071-16.964,28.625-21.421,36.044-.919-20.876-1.916-51.889-1.916-51.889l23.033-5.408S1685,1110.525,1684.776,1121.586Z" transform="translate(-1621.664 -1012.013)" fill="#233862"/>
            <path id="Trazado_191201" data-name="Trazado 191201" d="M1425.73,1110.88s-3.748,4.408-4.085,5.63-.938,5.625-.616,6.948,2.813-3.689,3.72-4.225-.68,1.994-.37,2.416,2.1-1.476,2.8-2.118.629-4.1,1.467-6.144S1425.73,1110.88,1425.73,1110.88Z" transform="translate(-1420.937 -1020.817)" fill="#ffb27d"/>
            <path id="Trazado_191202" data-name="Trazado 191202" d="M1430.914,1671.613s-3.267,2.981-2.629,5.1,3.586,3.53,3.984,6.12,1.992,4,3.426,4h6.838s1.056-1.822-1.494-2.371-3.511-3.592-3.352-6.416a49.785,49.785,0,0,0-.239-6.59l-5.418-1.255Z" transform="translate(-1427.001 -1487.634)" fill="#233862"/>
            <path id="Trazado_191203" data-name="Trazado 191203" d="M1499.866,1100.515s-21.562,46.133-33.035,66.375-15.059,25.891-15.059,25.891-6.574-2.589-7.171-4.354c0,0,4.388-39.078,12.071-48.6,4.342-5.383,9.442-21.536,9.681-27.185s5.276-19.132,5.276-19.132Z" transform="translate(-1440.686 -1006.316)" fill="#2a4e96"/>
            <path id="Trazado_191204" data-name="Trazado 191204" d="M1622.646,811.348a37.364,37.364,0,0,1-20.71,5.2c-5.326-.233-15.89-1.743-17.6-5.978-.4-.994-.107-2.256.494-4.194,1.559-5.035,5.191-14.622,4.094-35.878a34.846,34.846,0,0,1,.143-5.578c1.143-10.47,7.143-16.671,12.943-18.7,14.144-4.944,18.859,1.905,18.859,1.905s6.252,4.953,7.195,15.29C1629.952,784.1,1622.646,811.348,1622.646,811.348Z" transform="translate(-1559.774 -714.973)" fill="#fc502d"/>
            <path id="Trazado_191205" data-name="Trazado 191205" d="M1717.192,681.964s6.49,3.947,13.529,2.831c0,0,1.392-.354.707-1.988a20.831,20.831,0,0,0,.625-2.18,32.906,32.906,0,0,0,.806-3.556l-3.995-4.2-3.784-4.012C1724.036,678.451,1717.192,681.964,1717.192,681.964Z" transform="translate(-1668.195 -651.902)" fill="#ffb27d"/>
            <path id="Trazado_191206" data-name="Trazado 191206" d="M1761.229,690.852s2.174,5.81,7.578,8.13c.617-2.255,1.019-4.614,1.019-4.614l-4.208-3.141Z" transform="translate(-1704.949 -670.256)" fill="#ed985f"/>
            <path id="Trazado_191207" data-name="Trazado 191207" d="M1767.328,615.072s-12.388,1.548-13.258-6.064-3.054-12.54,4.819-13.85,9.744,1.426,10.662,3.9S1770.528,614.473,1767.328,615.072Z" transform="translate(-1698.182 -590.105)" fill="#ffb27d"/>
            <path id="Trazado_191208" data-name="Trazado 191208" d="M1730.5,570.135c-.107-.133-.361-.246-.933-.3a2.33,2.33,0,0,1,1.083-.261,2.888,2.888,0,0,1,2.014-2.48,1.722,1.722,0,0,0-.881,1.21c1.652-1.573,5.1-2.633,14.512-1.531,12.4,1.452,8,9.259,6.353,10.147s-5.6-1.867-8.608-1.742-3.743,4.437-4.783,4.994-.6-.48-1.953-1.155-1.57,1.6-1.229,3.1-1.624,3.383-1.624,3.383l-1.833-2.131c-1.834-2.131-3.306-10.919-2.366-12.745C1730.337,570.463,1730.42,570.3,1730.5,570.135Z" transform="translate(-1678.527 -566.32)" fill="#2c3a64"/>
            <g id="Grupo_134303" data-name="Grupo 134303" transform="translate(67.594 6.123)">
              <path id="Trazado_191209" data-name="Trazado 191209" d="M1857.116,639.636l-21.031.187-.144-3.164,20.965-1.625Z" transform="translate(-1834.898 -629.793)" fill="#2a4e96"/>
              <path id="Trazado_191210" data-name="Trazado 191210" d="M1943.091,629.765l-22.9.331-.261-5.752,22.832-1.769Z" transform="translate(-1904.999 -619.393)" fill="#2a4e96"/>
              <path id="Trazado_191211" data-name="Trazado 191211" d="M2054.094,620.883l-19.309.024-.353-7.766,19.23-1.75Z" transform="translate(-2000.562 -610.061)" fill="#233862"/>
              <path id="Trazado_191212" data-name="Trazado 191212" d="M2147,615.475h0a1.08,1.08,0,0,0,1.03-1.127l-.453-9.975a1.079,1.079,0,0,0-1.127-1.029h0a1.079,1.079,0,0,0-1.029,1.128l.453,9.975A1.08,1.08,0,0,0,2147,615.475Z" transform="translate(-2093.192 -603.341)" fill="#233862"/>
              <path id="Trazado_191213" data-name="Trazado 191213" d="M1830.758,645.329h0a.96.96,0,0,1-1-.915l-.118-2.588a.96.96,0,0,1,.915-1h0a.96.96,0,0,1,1,.915l.118,2.588A.96.96,0,0,1,1830.758,645.329Z" transform="translate(-1829.637 -634.623)" fill="#2a4e96"/>
            </g>
            <path id="Trazado_191215" data-name="Trazado 191215" d="M1486.534,748.088s-11.935,2.052-18.161,9.651-16.239,18.316-18.606,22.068-8.94,29.289-8.94,29.289.434.821,2.247,1.3a4.275,4.275,0,0,0,2.994-.252s8.708-14.9,11.985-22.348c1.362-3.093,24.911-15.343,33.764-14.074C1495.293,774.22,1486.534,748.088,1486.534,748.088Z" transform="translate(-1440.149 -718.026)" fill="#fc502d"/>
            <path id="Trazado_191216" data-name="Trazado 191216" d="M1963.214,625.3s2.567,1.57,4.1.906,1.4-1.273,1.4-1.273S1964.078,623.645,1963.214,625.3Z" transform="translate(-1873.528 -614.84)" fill="#ffb27d"/>
            <path id="Trazado_191217" data-name="Trazado 191217" d="M1552.812,795.477s-5.238,33.07-42.4,42.7l-4.048,7.987,7.112,1.2s42.31-12.257,41.74-52.474Z" transform="translate(-1492.234 -757.089)" fill="#bc3f3f"/>
            <path id="Trazado_191218" data-name="Trazado 191218" d="M1773.655,766.512l-1.715.168v2.483l2.527,2.627,2.4-.585V767.76l-1.727-1.248Z" transform="translate(-1713.888 -733.403)" fill="#a02e2e"/>
            <path id="Trazado_191219" data-name="Trazado 191219" d="M1714.074,726.749s-1.661.375-5.457,3.529c0,0,3.775,8.014,11.741,8.974a26.63,26.63,0,0,1,.447-5.926S1714.492,731.065,1714.074,726.749Z" transform="translate(-1661.038 -700.216)" fill="#ed7d2b"/>
            <path id="Trazado_191220" data-name="Trazado 191220" d="M1782.311,755.392s3.887,2.063,4.175,5.279c0,0,1.486-2.354,1.055-3.984a13.279,13.279,0,0,0-1.763-3.5S1785.91,755.152,1782.311,755.392Z" transform="translate(-1722.545 -722.282)" fill="#ed7d2b"/>
          </g>
        </g>
      </g>
    </g>
  </g>
</svg>
