<svg xmlns="http://www.w3.org/2000/svg" xmlns:xlink="http://www.w3.org/1999/xlink" width="428.671" height="261.215" viewBox="0 0 428.671 261.215">
  <defs>
    <clipPath id="clip-path">
      <path id="Trazado_190877" data-name="Trazado 190877" d="M1156.164,392.53h-25.989l8.136-32.647H1164.3Z" transform="translate(-1130.176 -359.883)" fill="#fc502d"/>
    </clipPath>
  </defs>
  <g id="Grupo_137430" data-name="Grupo 137430" transform="translate(6553.232 10001)">
    <g id="Grupo_134053" data-name="Grupo 134053" transform="translate(-6740.952 -10124.137)">
      <path id="Trazado_190821" data-name="Trazado 190821" d="M314.763,123.611c66.575-3.863,136.376,16.259,126.116,45.429s54.854-10.361,80.839.156c18.5,7.488,11.1,30.281,20.054,39.465,20.521,21.058,41.508-5.46,67.625,10.451s-27.354,164.41-54.638,165.239l-311.194-1.891-22.332-2.007s-61.774-33.779-17.584-64.941c29.878-21.07,8.38-36.37,5.13-46.017-3.731-11.075-12.437-30.418,25.5-44.613s28.138-45.081,27.205-51.476-13.29-45.934,53.284-49.8Z" transform="translate(0 0)" fill="#9bc1f9" opacity="0.1"/>
      <g id="Grupo_134053-2" data-name="Grupo 134053" transform="translate(294.271 189.255)">
        <path id="Trazado_190822" data-name="Trazado 190822" d="M1642.976,1004.878l10.222,121.535s1.071,7.367-4.409,7.38c-9.01.021-44.846,0-44.846,0s6.781-1.534,6.7-4.984c-.1-4.067-11.947-125.081-11.947-125.081Z" transform="translate(-1495.178 -938.743)" fill="#db3014"/>
        <path id="Trazado_190823" data-name="Trazado 190823" d="M1584.008,1118.982c1.772.005,36,.113,44.775,0,3.824-.047,4.494-3.4,4.526-5.57a10.878,10.878,0,0,0-.116-1.809l-.266-3.159-.677-8.051-.6-7.113-.769-9.141-.647-7.715-7.263-86.359-44.282-1.149s4.991,50.644,8.521,87.508c.394,4.107.769,8.046,1.116,11.722q.169,1.761.326,3.439c.327,3.488.627,6.691.887,9.519.137,1.491.264,2.876.378,4.144.451,4.971.714,8.146.718,8.75a5.108,5.108,0,0,1-.086.984C1589.822,1118.855,1584.673,1118.982,1584.008,1118.982Z" transform="translate(-1478.152 -926.136)" fill="#fc502d"/>
        <path id="Trazado_190824" data-name="Trazado 190824" d="M946.142,567.242h212.6l-24.9,100.008-3.409,13.7-11.6,46.581H903.4Z" transform="translate(-903.401 -567.241)" fill="#0d2380"/>
        <path id="Trazado_190825" data-name="Trazado 190825" d="M2390.335,567.24l3.45,1.15-38.766,162.615-4.587-3.479Z" transform="translate(-2134.996 -567.24)" fill="#031b68"/>
        <path id="Trazado_190826" data-name="Trazado 190826" d="M1123.428,1647.324H909.318l-5.913-3.479H1118.84Z" transform="translate(-903.405 -1483.559)" fill="#031b68"/>
        <rect id="Rectángulo_41170" data-name="Rectángulo 41170" width="46.358" height="2.203" transform="translate(98.476 192.894)" fill="#db3014"/>
        <path id="Trazado_190827" data-name="Trazado 190827" d="M993.289,567.24h212.6l-32.041,128.779-215.051.041Z" transform="translate(-950.547 -567.24)" fill="#b0c0d2"/>
      </g>
      <path id="Trazado_190828" data-name="Trazado 190828" d="M1026.141,729.925H1225.2l22.543-89.8,1.728-6.887,1.475-5.874,3.457-13.774H1058.213l-3.8,13.774-1.62,5.874-1.9,6.887Z" transform="translate(-713.596 -417.432)" fill="#fff2bf"/>
      <path id="Trazado_190829" data-name="Trazado 190829" d="M1219.855,613.588h196.187l-3.457,13.774H1216.058Z" transform="translate(-875.238 -417.432)"/>
      <g id="Grupo_134054" data-name="Grupo 134054" transform="translate(517.31 200.658)">
        <path id="Trazado_190830" data-name="Trazado 190830" d="M2483.5,643.833a1.3,1.3,0,0,1,1.292,1.722,2.352,2.352,0,0,1-2.151,1.722,1.3,1.3,0,0,1-1.293-1.722A2.352,2.352,0,0,1,2483.5,643.833Z" transform="translate(-2469.419 -643.833)" fill="#e9f3fe"/>
        <path id="Trazado_190831" data-name="Trazado 190831" d="M2445.078,643.833a1.3,1.3,0,0,1,1.292,1.722,2.351,2.351,0,0,1-2.151,1.722,1.3,1.3,0,0,1-1.292-1.722A2.352,2.352,0,0,1,2445.078,643.833Z" transform="translate(-2436.713 -643.833)" fill="#e9f3fe"/>
        <path id="Trazado_190832" data-name="Trazado 190832" d="M2401.549,645.555a2.352,2.352,0,0,1,2.151-1.722,1.3,1.3,0,0,1,1.293,1.722,2.352,2.352,0,0,1-2.151,1.722A1.3,1.3,0,0,1,2401.549,645.555Z" transform="translate(-2401.496 -643.833)" fill="#e9f3fe"/>
      </g>
      <g id="man" transform="translate(238.582 227.645)">
        <g id="Grupo_134055" data-name="Grupo 134055" transform="translate(0 70.225)">
          <path id="Trazado_190833" data-name="Trazado 190833" d="M531.453,1788.133s-2.534,2.349-2.039,4.017,2.781,2.781,3.09,4.82,1.545,3.152,2.657,3.152h5.3s.819-1.435-1.159-1.868-2.723-2.829-2.6-5.054a39.808,39.808,0,0,0-.185-5.191l-4.2-.989Z" transform="translate(-529.349 -1714.033)" fill="#0d2380"/>
          <path id="Trazado_190834" data-name="Trazado 190834" d="M766.148,1831.258H752.065a1.216,1.216,0,0,1-.275-.082c-.939-.469-.646-4.061-.533-5.173.022-.206.037-.328.037-.328s4.945-3.955,5.625-.926c.021.094.046.187.074.279.855,2.833,4.693,4.121,6.91,4.479A2.415,2.415,0,0,1,766.148,1831.258Z" transform="translate(-718.106 -1745.172)" fill="#0d2380"/>
          <path id="Trazado_190835" data-name="Trazado 190835" d="M713.067,1322.983s-.751,9.369-1.633,20.63c-1.2,15.3-2.642,34.089-2.785,37.648-.246,6.181-1.237,16.069-1.237,16.069s-2.347,2.349-7.045,1.359a161.749,161.749,0,0,1-5.382-29.049c-.019-.245-.037-.491-.056-.738-1.112-15.2-2.842-47.217-2.842-47.217Z" transform="translate(-667.858 -1317.977)" fill="#b0c0d2"/>
          <path id="Trazado_190836" data-name="Trazado 190836" d="M713.067,1322.983s-.751,9.369-1.633,20.63l-16.449,26.027c-.019-.245-.037-.491-.056-.738-1.112-15.2-2.842-47.217-2.842-47.217Z" transform="translate(-667.858 -1317.977)" fill="#617b93"/>
          <path id="Trazado_190837" data-name="Trazado 190837" d="M583.154,1302.9s-13.534,33.929-22.434,49.874-11.68,20.395-11.68,20.395-5.1-2.04-5.562-3.43c0,0,3.4-30.782,9.363-38.286,3.368-4.24,7.323-16.964,7.509-21.414s1.205-13.256,1.205-13.256Z" transform="translate(-541.374 -1296.78)" fill="#b0c0d2"/>
        </g>
        <path id="Trazado_190838" data-name="Trazado 190838" d="M887.591,1274.961l.774,1.542a3.464,3.464,0,0,1,2.851,4.651s-.583,1.687-1.668,1.153-.55-.489-2.105-1.207-2.454-2.1-2.107-3.365l-.249-1.342Z" transform="translate(-832.124 -1207.984)" fill="#f8a492"/>
        <path id="Trazado_190839" data-name="Trazado 190839" d="M701.221,922.11a39.706,39.706,0,0,0,.62-5.659l-6.867-5.534a13.771,13.771,0,0,1-4.621,11.269s9.151,4.5,14.44,2.836A12.667,12.667,0,0,0,701.221,922.11Z" transform="translate(-666.383 -898.14)" fill="#f8a492"/>
        <path id="Trazado_190840" data-name="Trazado 190840" d="M718.644,864.622s-8.736,1.451-9.556-4-2.5-8.94,3.043-10.1,6.942.761,7.659,2.515S720.9,864.1,718.644,864.622Z" transform="translate(-681.568 -846.436)" fill="#f8a492"/>
        <path id="Trazado_190841" data-name="Trazado 190841" d="M695.447,839.654a9.042,9.042,0,0,1,8.136-8.479c5.452-.8,2.15-5.359,1.527-6.081,0,0-4.168.8-8.434,1.732C687.723,828.791,694.5,838.567,695.447,839.654Z" transform="translate(-667.87 -825.094)" fill="#33353b"/>
        <path id="Trazado_190842" data-name="Trazado 190842" d="M719.808,1053.547a14.947,14.947,0,0,0,2.035-2.758s-9.926-12.332-10.733-13.611-6.835-21.792-6.835-21.792l-15.244-3.088s12.724,26.252,14.832,29.452c3.483,5.288,13.9,13.159,13.9,13.159A6.273,6.273,0,0,0,719.808,1053.547Z" transform="translate(-665.257 -984.427)" fill="#061a5b"/>
        <path id="Trazado_190843" data-name="Trazado 190843" d="M684.609,1026.243a.855.855,0,0,1-.556.212c-1.986-.027-7.778,1.076-12.678.573a36.509,36.509,0,0,1-11.715-3.381c-.521-.234-1.722-.874-1.695-1.457.018-.638.081-1.564.161-2.73a145.974,145.974,0,0,0,.29-19.068c-.085-1.5-.13-2.983-.135-4.446-.041-10.9,2.084-20.542,6.427-23.787.371-.266,2.686.9,4.778,1.933a7,7,0,0,0,5.113.562l2.408,1.742a18.255,18.255,0,0,1,5.721,9.137c.9,3.628,1.43,10.171,1.722,16.951.132,3.072.239,6.171.266,9.111v.105c.026.291.026.61.026.9C684.848,1020.151,684.742,1026.136,684.609,1026.243Z" transform="translate(-638.817 -950.232)" fill="#0d2380"/>
        <path id="Trazado_190844" data-name="Trazado 190844" d="M659.046,1112.377a145.994,145.994,0,0,0,.29-19.068c-.085-1.5-.13-2.983-.135-4.446,1.809-4.389,3.288-7.572,3.288-7.572h4.561S670.393,1104.13,659.046,1112.377Z" transform="translate(-639.737 -1043.149)" fill="#061a5b"/>
        <g id="Grupo_134056" data-name="Grupo 134056" transform="translate(5.168 22.707)">
          <path id="Trazado_190845" data-name="Trazado 190845" d="M569.33,1292.131l-.866,1.492a3.464,3.464,0,0,1-2.328,4.934s-1.731.437-1.879-.763.107-.728-.144-2.423.41-3.2,1.66-3.606l.986-.944Z" transform="translate(-564.061 -1244.189)" fill="#f8a492"/>
          <path id="Trazado_190846" data-name="Trazado 190846" d="M571.129,1025.959a14.933,14.933,0,0,0,3.423.191s4.875-15.061,5.5-16.437,14.482-17.66,14.482-17.66l-5.771-14.444s-14.985,25.03-16.506,28.548c-2.514,5.812-3.387,18.842-3.387,18.842A6.273,6.273,0,0,0,571.129,1025.959Z" transform="translate(-568.155 -977.609)" fill="#0d2380"/>
        </g>
      </g>
      <g id="Grupo_134060" data-name="Grupo 134060" transform="translate(299.81 146.49)">
        <path id="Trazado_190847" data-name="Trazado 190847" d="M1227.791,523.942h-92.929l31.768-128.524h92.929Z" transform="translate(-1105.941 -378.235)" fill="#b0c0d2"/>
        <path id="Trazado_190848" data-name="Trazado 190848" d="M1134.557,470.08h-92.929L1073.4,341.556h92.929Z" transform="translate(-1026.588 -332.392)" fill="#b0c0d2"/>
        <path id="Trazado_190849" data-name="Trazado 190849" d="M1033.532,408.524H940.6L972.371,280H1065.3Z" transform="translate(-940.603 -280)" fill="#b0c0d2"/>
        <path id="Trazado_190850" data-name="Trazado 190850" d="M1256.737,395.418l-29.4,119.736-77.256.769,79.589,1.751Z" transform="translate(-1118.892 -378.235)" fill="#ffd7ab"/>
        <path id="Trazado_190851" data-name="Trazado 190851" d="M1161.459,341.556l-27.933,118.591-77.256.769,78.567,1.942Z" transform="translate(-1039.05 -332.392)" fill="#ffd7ab"/>
        <path id="Trazado_190852" data-name="Trazado 190852" d="M1156.164,392.53h-25.989l8.136-32.647H1164.3Z" transform="translate(-1101.952 -347.99)" fill="#ff929f"/>
        <path id="Trazado_190853" data-name="Trazado 190853" d="M1437.058,364.393h-46.564l1.146-4.51H1438.2Z" transform="translate(-1323.514 -347.99)" fill="#0d2380"/>
        <path id="Trazado_190854" data-name="Trazado 190854" d="M1422.952,426.591h-46.564l1.146-4.51H1424.1Z" transform="translate(-1311.508 -400.927)" fill="#0d2380"/>
        <path id="Trazado_190855" data-name="Trazado 190855" d="M1408.2,488.788H1361.64l1.146-4.51h46.564Z" transform="translate(-1298.955 -453.865)" fill="#0d2380"/>
        <path id="Trazado_190856" data-name="Trazado 190856" d="M1390.891,550.986h-46.564l1.146-4.51h46.564Z" transform="translate(-1284.22 -506.802)" fill="#0d2380"/>
        <path id="Trazado_190857" data-name="Trazado 190857" d="M1169.792,615.748h-85.24l1.146-4.51h85.24Z" transform="translate(-1063.121 -561.922)" fill="#0d2380"/>
        <path id="Trazado_190858" data-name="Trazado 190858" d="M1154.509,680.51h-85.24l1.146-4.51h85.239Z" transform="translate(-1050.113 -617.043)" fill="#0d2380"/>
        <path id="Trazado_190859" data-name="Trazado 190859" d="M1133.348,753.442h-85.24l1.146-4.51h85.24Z" transform="translate(-1032.103 -679.116)" fill="#0d2380"/>
        <path id="Trazado_190860" data-name="Trazado 190860" d="M1114.112,816.413h-85.239l1.146-4.51h85.239Z" transform="translate(-1015.731 -732.712)" fill="#0d2380"/>
        <g id="Grupo_134059" data-name="Grupo 134059" transform="translate(28.224 11.893)">
          <path id="Trazado_190861" data-name="Trazado 190861" d="M1156.164,392.53h-25.989l8.136-32.647H1164.3Z" transform="translate(-1130.176 -359.883)" fill="#fc502d"/>
          <g id="Grupo_134058" data-name="Grupo 134058" clip-path="url(#clip-path)">
            <g id="Grupo_134057" data-name="Grupo 134057" transform="translate(1.574 2.776)">
              <path id="Trazado_190862" data-name="Trazado 190862" d="M1315.307,597.989s1.524-.7,2.119-.483,2.209.909,2.172,1.607-2.626,1.472-4.356.626S1315.307,597.989,1315.307,597.989Z" transform="translate(-1288.623 -564.87)" fill="#c97e67"/>
              <path id="Trazado_190863" data-name="Trazado 190863" d="M1262.349,494.952a1.04,1.04,0,0,1-.108.242c-.513.826-8.96.868-9.926.174-.431-.31-.563-4.584-.577-9.215-.017-5.725.147-12,.147-12s3.305,1.534,3.466,3.422-1.229,13.234-.263,13.928,5.418.783,6.9,1.22A3.938,3.938,0,0,1,1262.349,494.952Z" transform="translate(-1235.213 -459.92)" fill="#44474f"/>
              <path id="Trazado_190864" data-name="Trazado 190864" d="M1220.763,379.752a3.2,3.2,0,0,0-2.13-.7,1.029,1.029,0,0,1,.489-.159,3.412,3.412,0,0,0-1.249.159s-2.952-2.029-4.954,1.933c0,0,.292-.28.685-.591-1.155,2.278-.768,6,1.814,6.99C1217.1,388.024,1226.687,385.92,1220.763,379.752Z" transform="translate(-1202.174 -378.531)" fill="#33353b"/>
              <path id="Trazado_190865" data-name="Trazado 190865" d="M1226.573,448.058a4.837,4.837,0,0,1-3.011.156,3.85,3.85,0,0,1-1.715-2.132c.519-.035.755-.711,1.132-3.7l.223.075,3.747,1.26s-.245,1.2-.395,2.339C1226.426,447.012,1226.367,447.927,1226.573,448.058Z" transform="translate(-1209.772 -432.875)" fill="#c97e67"/>
              <path id="Trazado_190866" data-name="Trazado 190866" d="M1234.693,444.143s-.245,1.2-.395,2.339c-2.144-.34-3.028-2.45-3.353-3.6Z" transform="translate(-1217.518 -433.302)" fill="#b2604d"/>
              <path id="Trazado_190867" data-name="Trazado 190867" d="M1223.087,396a11.409,11.409,0,0,1-.97-3.487c-.052-1.113,1.025-5.074,5-3.967a5.55,5.55,0,0,1,2.171,1.159c.8.708,1.906,2.156.031,5.491l-.523,1.141Z" transform="translate(-1210.001 -386.894)" fill="#33353b"/>
              <path id="Trazado_190868" data-name="Trazado 190868" d="M1233.03,408.261s-5.1-.576-4.7-3.748.024-5.383,3.3-5.149,3.751,1.525,3.873,2.617S1234.367,408.329,1233.03,408.261Z" transform="translate(-1215.275 -396.247)" fill="#c97e67"/>
              <path id="Trazado_190869" data-name="Trazado 190869" d="M1262.245,505.266c-.042-.373.755-.546.9-.2a6.975,6.975,0,0,1,.3,2.042,12.816,12.816,0,0,1-.531,4.1Z" transform="translate(-1244.155 -486.068)" fill="#33353b"/>
              <path id="Trazado_190870" data-name="Trazado 190870" d="M1227,396.826c-.662-1.054-1.283-.924-1.654-.682-.887-1.787-4.673.14-4.673.14a6.11,6.11,0,0,1-2.446,3.323s.854.693,3.065.421c1.74-.215,3.272-2.453,3.847-3.4a4.074,4.074,0,0,1,.939,1.647c.149.841.048,2.518.54,2.524C1226.62,400.8,1228,398.41,1227,396.826Z" transform="translate(-1206.695 -392.876)" fill="#33353b"/>
              <path id="Trazado_190871" data-name="Trazado 190871" d="M1254.074,444.614s.043.415,1.053.483c0,0,.848.057.88-.389A2.731,2.731,0,0,0,1254.074,444.614Z" transform="translate(-1237.202 -434.67)" fill="#fff"/>
              <path id="Trazado_190872" data-name="Trazado 190872" d="M1263.868,557.889a1.056,1.056,0,0,1-.108.242c-.513.826-8.96.868-9.926.174-.432-.31-.571-5.621.618-10.2.282,2.745-.234,8.231,1.2,8.679C1257.283,557.29,1261.73,557.3,1263.868,557.889Z" transform="translate(-1236.732 -522.857)" fill="#33353b"/>
              <path id="Trazado_190873" data-name="Trazado 190873" d="M1159.8,479.4c-3.353,9.681-1.824,11.432-3.023,12.271-.006,0-1.005.29-1.012.295-1.243.824-1.119-.354-4.829.713a57.319,57.319,0,0,1-5.984,1.517,11.754,11.754,0,0,1-2.018.186c-1.146-.014-1.963-.319-2.139-1.117-.511-2.319,4.083-7.706,3.646-11.845,0-.035-.007-.072-.01-.107a4.433,4.433,0,0,1,.109-1.2c.469-2.217,2.306-5.289,4.132-7.879,2.016-2.857,4.018-5.126,4.157-5.017,3.939,3.086,4.6,1.03,4.6,1.03S1160.94,476.1,1159.8,479.4Z" transform="translate(-1140.75 -454.008)" fill="#44474f"/>
              <path id="Trazado_190874" data-name="Trazado 190874" d="M1156.117,532.081h0c-1.243.824-1.476-.258-5.186.809a57.311,57.311,0,0,1-5.984,1.517,11.942,11.942,0,0,0-2.018.186c-1.146-.014-1.963-.319-2.139-1.117-.511-2.319,4.083-7.706,3.646-11.845,0-.035-.007-.071-.01-.107a3.744,3.744,0,0,1,.109-1.2c.422-1.676,1.914-3.36,3.68-5.866.819,1.125,8.092.887,5.124,10.567C1152.429,527.992,1155.98,529.669,1156.117,532.081Z" transform="translate(-1140.75 -494.22)" fill="#33353b"/>
              <path id="Trazado_190875" data-name="Trazado 190875" d="M1236.51,635.719a5.315,5.315,0,0,1,2.3.217c.681.386,2.021,1.317,1.836,1.7s-1.915.374-2.582-.118-1.264-.056-2.1-.462S1236.51,635.719,1236.51,635.719Z" transform="translate(-1221.554 -597.398)" fill="#c97e67"/>
              <path id="Trazado_190876" data-name="Trazado 190876" d="M1170.841,466.8s-5.8-.673-7.2,1.986-2.353,12.52-1.22,15.671,9.238,8.259,10.176,8.543,1.727-1.115,1.708-1.28-8.093-8.639-7.955-9.392S1170.841,466.8,1170.841,466.8Z" transform="translate(-1158.767 -453.595)" fill="#44474f"/>
            </g>
          </g>
        </g>
      </g>
      <g id="Grupo_134062" data-name="Grupo 134062" transform="translate(396.375 174.822)">
        <path id="Trazado_190878" data-name="Trazado 190878" d="M2493.245,1772.69l-2.072,8.727-3.1-.017-.114-8.709Z" transform="translate(-2354.148 -1578.788)" fill="#c97e67"/>
        <path id="Trazado_190879" data-name="Trazado 190879" d="M2301.293,1768.622l-5.9,8.355-2.3-2.95,3.548-6.553Z" transform="translate(-2188.304 -1574.348)" fill="#c97e67"/>
        <path id="Trazado_190880" data-name="Trazado 190880" d="M2431.854,996.874a6.01,6.01,0,0,1,3.253-.622,1.521,1.521,0,0,0-.686-.326,5.042,5.042,0,0,1,1.8.47c7.747-2.985,8.964,8.421,8.8,11.071s2.6,3.515,6.634,5.6c7.69,3.984,8.365,9.318,8.365,9.318-.06.035-.123.076-.189.121-.381-.646-1.167-1.86-1.829-2.043a27.518,27.518,0,0,1,1.065,2.6c-2.269,1.726-6.512,5.549-9.47,8.261a4.355,4.355,0,0,0-.2-1.679l-.366,2.2c-1.583,1.455-2.674,2.479-2.674,2.479.2-2.141-9.685-13.442-14.84-16.827a14.909,14.909,0,0,1-1.734-5.368,14.1,14.1,0,0,0,1.055,4.857C2426.472,1012.966,2429.013,998.488,2431.854,996.874Z" transform="translate(-2303.536 -917.649)" fill="#33353b"/>
        <path id="Trazado_190881" data-name="Trazado 190881" d="M2450.871,1098.439c-.026.011,2.489,1.317,4.38.8,1.78-.485,2.942-2.792,2.918-2.8-.754-.15-.971-1.185-.955-5.635l-.34.067-5.728,1.134s.13,1.8.134,3.5C2451.284,1096.935,2451.2,1098.287,2450.871,1098.439Z" transform="translate(-2322.585 -998.425)" fill="#f8a492"/>
        <path id="Trazado_190882" data-name="Trazado 190882" d="M2452.717,1092.392s.13,1.8.135,3.5c3.2-.09,4.9-3.014,5.593-4.635Z" transform="translate(-2324.157 -998.809)" fill="#b2604d"/>
        <path id="Trazado_190883" data-name="Trazado 190883" d="M2438.416,1019.792a16.833,16.833,0,0,0,2.082-4.923c.288-1.62-.537-7.625-6.572-6.761a8.2,8.2,0,0,0-3.4,1.285c-1.31.885-3.2,2.8-1.087,8.036l.549,1.77Z" transform="translate(-2303.536 -927.967)" fill="#33353b"/>
        <path id="Trazado_190884" data-name="Trazado 190884" d="M2299.383,1420.552l3.036.093,3.286.1a64.875,64.875,0,0,0,11.849-22c.1-.315.2-.633.315-.956,2.33-6.795,7.161-15.324,9.707-23.043.405-1.229.769-2.387,1.1-3.482.1-.351.206-.7.3-1.035a81.831,81.831,0,0,0,2.92-15.371l-18.383.147A342.681,342.681,0,0,1,2299.383,1420.552Z" transform="translate(-2193.651 -1223.164)" fill="#0d2380"/>
        <path id="Trazado_190885" data-name="Trazado 190885" d="M2396.336,1148.706c.046,8.748-1.283,12.5-1.283,12.5a24.7,24.7,0,0,0,17.225,1.055c.111-.035,7.036-1.424,7.036-1.424-.157-.354-2.067-6.406-2.22-6.73a26.029,26.029,0,0,1-2.48-7.6,27.722,27.722,0,0,1-.227-7.329,58.794,58.794,0,0,1,2.268-11.509,59.783,59.783,0,0,1-7.589-2.594,5.928,5.928,0,0,1-4.094,1.518c-1.864-.041-2.468-.839-2.371-1.71-1.986,1.1-3.57,2.149-3.57,2.149-1.688,2.931-5.11,5.778-5.358,10.275C2393.611,1138.413,2396.334,1148.461,2396.336,1148.706Z" transform="translate(-2273.902 -1027.428)" fill="#ff929f"/>
        <path id="Trazado_190886" data-name="Trazado 190886" d="M2250.836,1135.711c2.7-3.152,9.69-9.989,16.905-10.828l-6.226,12.129a5.367,5.367,0,0,1-2.193,3.29,36.133,36.133,0,0,1-10.258,4.279,53.873,53.873,0,0,1-9.2-5.591c-1.668-1.223-4.6-5.886-4.6-5.886l.791-2.646s4.978,2.783,6.756,3.585c1.013.458,3.346,1.55,4.99,2.322A2.565,2.565,0,0,0,2250.836,1135.711Z" transform="translate(-2139.075 -1027.428)" fill="#b0c0d2"/>
        <path id="Trazado_190887" data-name="Trazado 190887" d="M2431.09,1036.526s7.583.125,7.588-4.6.987-7.889-3.854-8.168-5.784,1.522-6.169,3.1S2429.118,1036.371,2431.09,1036.526Z" transform="translate(-2303.6 -941.334)" fill="#f8a492"/>
        <path id="Trazado_190888" data-name="Trazado 190888" d="M2447.413,1017.659s2.076,5.542,5.263,6.361,4.569-.035,4.569-.035a9.021,9.021,0,0,1-2.951-5.331S2448.979,1015.021,2447.413,1017.659Z" transform="translate(-2319.642 -935.35)" fill="#33353b"/>
        <path id="Trazado_190889" data-name="Trazado 190889" d="M2428.92,1021a6.693,6.693,0,0,0-1.928,2.44c-.378,1.2-.548,3.679-1.27,3.595,0,0-1.564-3.767.194-5.9C2427.78,1018.881,2428.92,1021,2428.92,1021Z" transform="translate(-2300.635 -938.244)" fill="#33353b"/>
        <path id="Trazado_190890" data-name="Trazado 190890" d="M2202.841,1143.118a4.733,4.733,0,0,0-5.3-3.308c-.486.152-1.906.719-1,2.239.669,1.121.959.542,2.011,2.049a3.355,3.355,0,0,0,3.5,1.667Z" transform="translate(-2105.865 -1040.087)" fill="#f8a492"/>
        <path id="Trazado_190891" data-name="Trazado 190891" d="M2487.315,1828.029a8.413,8.413,0,0,0,.4,3.578s.508,2.314-1.771,2.357-2.839-.172-2.581-1.591.749-3.874.749-3.874Z" transform="translate(-2350.187 -1625.889)" fill="#f8a492"/>
        <path id="Trazado_190892" data-name="Trazado 190892" d="M2482.232,1855.068s.049.03.143.076h4.462a1.071,1.071,0,0,0,.126-.076,11.2,11.2,0,0,0-.163-3.346c-2.582,2.366-4.2-.059-4.2-.059A12.094,12.094,0,0,0,2482.232,1855.068Z" transform="translate(-2349.276 -1646.004)" fill="#33353b"/>
        <path id="Trazado_190893" data-name="Trazado 190893" d="M2256.194,1818.527s4.2-4.665,5.493-7.038l3.125,1.6-6.986,6.56-1.635-.215Z" transform="translate(-2156.89 -1611.811)" fill="#f8a492"/>
        <path id="Trazado_190894" data-name="Trazado 190894" d="M2238.691,1830.1h5.751a8.174,8.174,0,0,0,1.714-2.658,2.818,2.818,0,0,1,1.9-1.271v3.885h1.193l1.13-4.13c.743-1.368.059-2.608-.465-3.687-.609,0-2.247.415-5.351,3.914a4.069,4.069,0,0,1-3.266,1.524.3.3,0,0,1-.046.024A4.169,4.169,0,0,0,2238.691,1830.1Z" transform="translate(-2141.995 -1620.962)" fill="#33353b"/>
        <path id="Trazado_190895" data-name="Trazado 190895" d="M2388,1124.883s-4.387,10.839-4.517,13.032-.516,35.87-.516,35.87.259,1.549-2.709.9-3.742-1.29-3.742-1.29,2.839-20.774,2.064-28,5.935-19.01,5.935-19.01Z" transform="translate(-2259.298 -1027.428)" fill="#b0c0d2"/>
        <path id="Trazado_190896" data-name="Trazado 190896" d="M2319.776,1496.775l3.286.1a64.866,64.866,0,0,0,11.849-22q.149-.472.315-.956c2.33-6.794,7.161-15.323,9.707-23.043.406-1.229.769-2.387,1.1-3.482.1-.351.207-.7.3-1.035l-2.707-2.054s-8.127,13.161-10.643,25.547C2330.795,1480.61,2322.042,1493.556,2319.776,1496.775Z" transform="translate(-2211.008 -1299.294)" fill="#051b60"/>
        <path id="Trazado_190897" data-name="Trazado 190897" d="M2467.735,1451.038c-.046,6.023.258,19.87,1.042,25.6h2.911c1.609,0,2.412-.023,2.412-.023,1.968-9.967,3.368-18.215,4.387-25.322.836-5.832,1.579-10.832,2.151-15.136.575-4.332.975-7.958,1.119-11.023q.033-.724.048-1.408t.008-1.335l-15.883-1.548C2466.128,1431.4,2467.76,1447.537,2467.735,1451.038Z" transform="translate(-2335.401 -1279.327)" fill="#0d2380"/>
        <path id="Trazado_190898" data-name="Trazado 190898" d="M2504.616,1501.175c1.609,0,2.411-.023,2.411-.023,1.968-9.968,3.368-18.215,4.387-25.322.836-5.832,1.579-10.832,2.151-15.136.575-4.332.975-7.958,1.118-11.023l-5.828,3.428s3.72,1.312,2.3,11.248S2506.591,1499.769,2504.616,1501.175Z" transform="translate(-2368.329 -1303.861)" fill="#051b60"/>
        <path id="Trazado_190899" data-name="Trazado 190899" d="M2468.549,1174.4s1.119,4.043,4.99,3.526a46.653,46.653,0,0,0,9.375-2.839s-1.654-5.227-3.711-12.094c-2.49-8.313-5.573-19.03-7.026-25.79a41.766,41.766,0,0,1-.79-4.609l-3.211-6.231s-4.788,10.747-5.046,13.456S2468.549,1174.4,2468.549,1174.4Z" transform="translate(-2333.011 -1028.691)" fill="#b0c0d2"/>
        <path id="Trazado_190900" data-name="Trazado 190900" d="M2500.711,1207.468c.173,4.387,1.205,12.9,10.409,17.461.025.012.049.025.073.035-2.49-8.313-5.573-19.03-7.026-25.79C2502.477,1201.7,2500.616,1205.052,2500.711,1207.468Z" transform="translate(-2365.002 -1090.658)" fill="#7792aa"/>
        <g id="Grupo_134061" data-name="Grupo 134061" transform="translate(0 0)">
          <rect id="Rectángulo_41171" data-name="Rectángulo 41171" width="4.105" height="16.324" transform="translate(81.048 84.844) rotate(-45)" fill="#fc502d"/>
          <rect id="Rectángulo_41172" data-name="Rectángulo 41172" width="11.634" height="90.087" rx="5.817" transform="translate(87.87 96.096) rotate(-45)" fill="#33353b"/>
          <path id="Trazado_190901" data-name="Trazado 190901" d="M1603.348,484.439a48.277,48.277,0,1,0,68.274,0A48.277,48.277,0,0,0,1603.348,484.439Zm64.514,64.514a42.959,42.959,0,1,1,0-60.753A42.959,42.959,0,0,1,1667.861,548.953Z" transform="translate(-1589.207 -470.299)" fill="#33353b"/>
        </g>
        <path id="Trazado_190902" data-name="Trazado 190902" d="M2440.007,1139.42l-4.238-13.053a65.423,65.423,0,0,1,8.04,2.947s1.679,2.165,2.719,7.161c0,0,1.1,11.993-1.354,16.38,0,0-7.742,1.548-20.129-2.71v-2.839s13.548.71,16.322,1.032Z" transform="translate(-2300.604 -1028.691)" fill="#f8a492"/>
        <path id="Trazado_190903" data-name="Trazado 190903" d="M2494.474,1126.367s7.857.554,9.75,4.768,2.494,18.236.086,22.365c0,0-3.316.944-9.181-.152l-.217-.041s-1.871-4.581-.194-5.484c0,0,4.946.258,4.43-1.376S2494.474,1126.367,2494.474,1126.367Z" transform="translate(-2359.31 -1028.691)" fill="#b0c0d2"/>
        <path id="Trazado_190904" data-name="Trazado 190904" d="M2395.638,1241.317a6.776,6.776,0,0,1-1.309-2.644,2.874,2.874,0,0,0-2.808-2.571c-1.863-.245-2.664-.271-2.659.254a13.907,13.907,0,0,0,4.2,6.38C2395.73,1244.927,2395.638,1241.317,2395.638,1241.317Z" transform="translate(-2269.808 -1121.946)" fill="#f8a492"/>
      </g>
      <g id="Grupo_134063" data-name="Grupo 134063" transform="translate(401.722 179.854)">
        <path id="Trazado_190905" data-name="Trazado 190905" d="M1712.344,533.786l-57.534,57.533a42.973,42.973,0,0,0,3.212,5.45L1717.794,537A42.913,42.913,0,0,0,1712.344,533.786Z" transform="translate(-1650.39 -529.366)" fill="#fff" opacity="0.4"/>
        <path id="Trazado_190906" data-name="Trazado 190906" d="M1683.129,506.808a42.981,42.981,0,0,0-55.3,55.3Z" transform="translate(-1625.121 -504.096)" fill="#fff" opacity="0.4"/>
        <path id="Trazado_190907" data-name="Trazado 190907" d="M1785.853,722.379a42.971,42.971,0,0,0,57.551-57.551Z" transform="translate(-1761.923 -640.898)" fill="#fff" opacity="0.4"/>
      </g>
    </g>
  </g>
</svg>
