<svg xmlns="http://www.w3.org/2000/svg" width="925" height="298.938" viewBox="0 0 925 298.938">
  <g id="Grupo_137448" data-name="Grupo 137448" transform="translate(-390 -4705.915)">
    <g id="Grupo_137319" data-name="Grupo 137319">
      <path id="Trazado_193201" data-name="Trazado 193201" d="M562.5,304.36H895.785v-70.5" transform="translate(373.706 4666.331)" fill="none" stroke="#fc502d" stroke-linecap="round" stroke-miterlimit="10" stroke-width="2"/>
      <line id="Línea_309" data-name="Línea 309" x2="632.545" transform="translate(556.105 4854.829)" fill="none" stroke="#fc502d" stroke-linecap="round" stroke-miterlimit="10" stroke-width="2"/>
      <line id="Línea_310" data-name="Línea 310" x2="57.723" transform="translate(469.207 4854.829)" fill="none" stroke="#fc502d" stroke-linecap="round" stroke-miterlimit="10" stroke-width="2"/>
      <path id="Trazado_193202" data-name="Trazado 193202" d="M760.939,92.912H872.825l1.108,60.928" transform="translate(395.094 4651.139)" fill="none" stroke="#fc502d" stroke-linecap="round" stroke-miterlimit="10" stroke-width="2"/>
      <path id="Trazado_193203" data-name="Trazado 193203" d="M194.439,190.412v5.776l4.431-2.888Z" transform="translate(334.034 4661.648)" fill="#727997"/>
      <path id="Trazado_193204" data-name="Trazado 193204" d="M276.332,126.843h5.776l-2.888-4.431Z" transform="translate(342.861 4654.318)" fill="#727997"/>
      <path id="Trazado_193205" data-name="Trazado 193205" d="M400.939,86.805v5.776l4.431-2.888Z" transform="translate(356.292 4650.48)" fill="#727997"/>
      <path id="Trazado_193206" data-name="Trazado 193206" d="M611.939,86.805v5.776l4.431-2.888Z" transform="translate(379.034 4650.48)" fill="#727997"/>
      <path id="Trazado_193207" data-name="Trazado 193207" d="M194.439,294.412v5.776l4.431-2.888Z" transform="translate(334.034 4672.857)" fill="#727997"/>
      <path id="Trazado_193208" data-name="Trazado 193208" d="M402.439,294.412v5.776l4.431-2.888Z" transform="translate(356.453 4672.857)" fill="#727997"/>
      <path id="Trazado_193209" data-name="Trazado 193209" d="M113.939,217.912v87.515h86.407" transform="translate(325.358 4664.612)" fill="none" stroke="#fc502d" stroke-linecap="round" stroke-miterlimit="10" stroke-width="2"/>
      <line id="Línea_311" data-name="Línea 311" x2="52.066" transform="translate(704.057 4970.593)" fill="none" stroke="#fc502d" stroke-linecap="round" stroke-miterlimit="10" stroke-width="2"/>
      <line id="Línea_312" data-name="Línea 312" y1="52.066" transform="translate(622.081 4782.823)" fill="none" stroke="#fc502d" stroke-linecap="round" stroke-miterlimit="10" stroke-width="2"/>
      <line id="Línea_313" data-name="Línea 313" x2="52.066" transform="translate(704.057 4740.174)" fill="none" stroke="#fc502d" stroke-linecap="round" stroke-miterlimit="10" stroke-width="2"/>
      <line id="Línea_314" data-name="Línea 314" x2="52.066" transform="translate(936.692 4740.174)" fill="none" stroke="#fc502d" stroke-linecap="round" stroke-miterlimit="10" stroke-width="2"/>
      <path id="Trazado_193210" data-name="Trazado 193210" d="M865.822,150.412h-5.776l2.888,4.431Z" transform="translate(405.776 4657.336)" fill="#727997"/>
      <path id="Trazado_193211" data-name="Trazado 193211" d="M861.046,232.629h5.776l-2.888-4.431Z" transform="translate(405.884 4665.721)" fill="#727997"/>
      <path id="Trazado_193212" data-name="Trazado 193212" d="M777.439,190.3v5.776l4.431-2.888Z" transform="translate(412.873 4661.636)" fill="#727997"/>
      <rect id="Rectángulo_40572" data-name="Rectángulo 40572" width="169.491" height="68.518" rx="4.45" transform="translate(537.335 4820.016)" fill="#fff2bf"/>
      <text id="Tarea_A" data-name="Tarea A" transform="translate(618.726 4848.854)" font-size="18" font-family="Roboto-Bold, Roboto" font-weight="700" style="isolation: isolate"><tspan x="-30.924" y="0">Tarea A</tspan></text>
      <text id="_3_días" data-name="3 días" transform="translate(619.407 4873.225)" font-size="18" font-family="Roboto-Regular, Roboto" style="isolation: isolate"><tspan x="-24.117" y="0">3 días</tspan></text>
      <g id="Grupo_137307" data-name="Grupo 137307" transform="translate(537.335 4705.915)">
        <rect id="Rectángulo_40572-2" data-name="Rectángulo 40572" width="169.491" height="68.518" rx="4.45" transform="translate(0)" fill="#fff2bf"/>
        <text id="Tarea_D" data-name="Tarea D" transform="translate(81.848 28.838)" font-size="18" font-family="Roboto-Bold, Roboto" font-weight="700" style="isolation: isolate"><tspan x="-30.718" y="0">Tarea D</tspan></text>
        <text id="_2_días" data-name="2 días" transform="translate(81.985 53.209)" font-size="18" font-family="Roboto-Regular, Roboto" style="isolation: isolate"><tspan x="-24.117" y="0">2 días</tspan></text>
      </g>
      <rect id="Rectángulo_40572-3" data-name="Rectángulo 40572" width="169.491" height="68.518" rx="4.45" transform="translate(537.335 4936.333)" fill="#0d2380"/>
      <text id="Tarea_B" data-name="Tarea B" transform="translate(619.081 4966.279)" fill="#fff" font-size="18" font-family="Roboto-Bold, Roboto" font-weight="700" style="isolation: isolate"><tspan x="-30.612" y="0">Tarea B</tspan></text>
      <text id="_4_días" data-name="4 días" transform="translate(619.64 4990.65)" fill="#fff" font-size="18" font-family="Roboto-Regular, Roboto" style="isolation: isolate"><tspan x="-24.117" y="0">4 días</tspan></text>
      <rect id="Rectángulo_40572-4" data-name="Rectángulo 40572" width="180.569" height="68.518" rx="4.45" transform="translate(766.093 4936.333)" fill="#0d2380"/>
      <text id="Tarea_C" data-name="Tarea C" transform="translate(853.348 4966.279)" fill="#fff" font-size="18" font-family="Roboto-Bold, Roboto" font-weight="700" style="isolation: isolate"><tspan x="-30.757" y="0">Tarea C</tspan></text>
      <text id="_3_días-2" data-name="3 días" transform="translate(853.704 4990.65)" fill="#fff" font-size="18" font-family="Roboto-Regular, Roboto" style="isolation: isolate"><tspan x="-24.117" y="0">3 días</tspan></text>
      <g id="Grupo_137308" data-name="Grupo 137308" transform="translate(766.093 4705.915)">
        <rect id="Rectángulo_40572-5" data-name="Rectángulo 40572" width="180.569" height="68.518" rx="4.45" fill="#fff2bf"/>
        <text id="Tarea_E" data-name="Tarea E" transform="translate(88.246 29.838)" font-size="19" font-family="Roboto-Bold, Roboto" font-weight="700" style="isolation: isolate"><tspan x="-31.594" y="0">Tarea E</tspan></text>
        <text id="_4_días-2" data-name="4 días" transform="translate(87.844 53.209)" font-size="18" font-family="Roboto-Regular, Roboto" style="isolation: isolate"><tspan x="-24.117" y="0">4 días</tspan></text>
      </g>
      <g id="Grupo_137309" data-name="Grupo 137309" transform="translate(1000.389 4705.915)">
        <rect id="Rectángulo_40572-6" data-name="Rectángulo 40572" width="180.569" height="68.518" rx="4.45" fill="#fff2bf"/>
        <text id="Tarea_F" data-name="Tarea F" transform="translate(88.153 29.838)" font-size="19" font-family="Roboto-Bold, Roboto" font-weight="700" style="isolation: isolate"><tspan x="-31.455" y="0">Tarea F</tspan></text>
        <text id="_1_días" data-name="1 días" transform="translate(87.245 53.209)" font-size="18" font-family="Roboto-Regular, Roboto" style="isolation: isolate"><tspan x="-24.117" y="0">1 días</tspan></text>
      </g>
      <rect id="Rectángulo_40572-7" data-name="Rectángulo 40572" width="103.024" height="68.518" rx="4.45" transform="translate(390 4820.016)" fill="#e8e8e8"/>
      <text id="Inicio" transform="translate(459.554 4860.936)" fill="#0d2380" font-size="19" font-family="Roboto-Bold, Roboto" font-weight="700"><tspan x="-23.453" y="0">Inicio</tspan></text>
      <g id="Grupo_137310" data-name="Grupo 137310" transform="translate(1211.976 4820.016)">
        <rect id="Rectángulo_40572-8" data-name="Rectángulo 40572" width="103.024" height="68.518" rx="4.45" fill="#fc502d"/>
        <rect id="Rectángulo_40572-9" data-name="Rectángulo 40572" width="37.665" height="64.712" rx="4.203" transform="translate(1.108 1.903)" fill="#fff"/>
        <text id="Final" transform="translate(68.77 40.919)" fill="#fff" font-size="19" font-family="Roboto-Bold, Roboto" font-weight="700"><tspan x="-20.656" y="0">Final</tspan></text>
        <text id="x" transform="translate(18.924 42.345)" fill="#fc502d" font-size="37" font-family="Roboto-Regular, Roboto"><tspan x="-9.169" y="0">x</tspan></text>
      </g>
      <path id="Rectángulo_40572-10" data-name="Rectángulo 40572" d="M75.034,162.579H102.48a4.583,4.583,0,0,1,4.506,4.656v55.4a4.583,4.583,0,0,1-4.506,4.656H75.034a4.583,4.583,0,0,1-4.506-4.656v-55.4A4.583,4.583,0,0,1,75.034,162.579Z" transform="translate(320.679 4658.648)" fill="#fff"/>
      <path id="Trazado_193213" data-name="Trazado 193213" d="M75.983,189.125s4.274.1,6.146,7.781c0,0,3.121-11.673,10.6-16.993" transform="translate(325.267 4664)" fill="none" stroke="#0d2380" stroke-linecap="round" stroke-miterlimit="10" stroke-width="3"/>
    </g>
  </g>
</svg>
