<svg xmlns="http://www.w3.org/2000/svg" width="1031" height="469.128" viewBox="0 0 1031 469.128">
  <g id="Grupo_137421" data-name="Grupo 137421" transform="translate(-265.5 -304)">
    <g id="Grupo_137376" data-name="Grupo 137376" transform="translate(229.876 167)">
      <path id="Trazado_193298" data-name="Trazado 193298" d="M618.713,523.138V349.572l190.221-75.387L854.518,172.5H363.624" transform="translate(-40.415 -4.381)" fill="none" stroke="#0d2380" stroke-miterlimit="10" stroke-width="1"/>
      <path id="Trazado_193299" data-name="Trazado 193299" d="M542.3,188.5c-31.557,15.779-165.677,58.732-165.677,58.732" transform="translate(-42.019 -6.355)" fill="none" stroke="#0d2380" stroke-miterlimit="10" stroke-width="1"/>
      <line id="Línea_315" data-name="Línea 315" x1="19.285" y2="79.77" transform="translate(512.554 177.762)" fill="none" stroke="#0d2380" stroke-miterlimit="10" stroke-width="1"/>
      <line id="Línea_316" data-name="Línea 316" x2="70.128" y2="57.855" transform="translate(634.401 339.055)" fill="none" stroke="#0d2380" stroke-miterlimit="10" stroke-width="1"/>
      <line id="Línea_317" data-name="Línea 317" x2="142.885" transform="translate(763.26 399.54)" fill="none" stroke="#0d2380" stroke-miterlimit="10" stroke-width="1"/>
      <line id="Línea_318" data-name="Línea 318" y1="64.868" x2="87.66" transform="translate(810.596 332.043)" fill="none" stroke="#0d2380" stroke-miterlimit="10" stroke-width="1"/>
      <line id="Línea_319" data-name="Línea 319" x2="78.894" y2="57.855" transform="translate(814.979 404.8)" fill="none" stroke="#0d2380" stroke-miterlimit="10" stroke-width="1"/>
      <line id="Línea_320" data-name="Línea 320" x2="53.472" y2="122.723" transform="translate(804.46 407.43)" fill="none" stroke="#0d2380" stroke-miterlimit="10" stroke-width="1"/>
      <path id="Trazado_193300" data-name="Trazado 193300" d="M570.773,365.5l-222.655,1.753L158.773,480.334l-13.149,70.128" transform="translate(-13.513 -28.198)" fill="none" stroke="#0d2380" stroke-miterlimit="10" stroke-width="1"/>
      <path id="Trazado_193301" data-name="Trazado 193301" d="M356.539,536.406,332.871,349.691,166.318,244.5H129.5l-.877,108.7" transform="translate(-11.415 -13.266)" fill="none" stroke="#0d2380" stroke-miterlimit="10" stroke-width="1"/>
      <rect id="Rectángulo_82649" data-name="Rectángulo 82649" width="133.243" height="26.298" rx="4" transform="translate(700.584 257.094)" fill="#fc502d"/>
      <rect id="Rectángulo_82650" data-name="Rectángulo 82650" width="133.243" height="26.298" rx="4" transform="translate(443.741 244.821)" fill="#f3f9ff" stroke="#005a72" stroke-miterlimit="10" stroke-width="1"/>
      <rect id="Rectángulo_82651" data-name="Rectángulo 82651" width="133.243" height="26.298" rx="4" transform="translate(268.422 225.536)" fill="#f3f9ff" stroke="#005a72" stroke-miterlimit="10" stroke-width="1"/>
      <rect id="Rectángulo_82652" data-name="Rectángulo 82652" width="133.243" height="26.298" rx="4" transform="translate(271.052 151.902)" fill="#f3f9ff" stroke="#005a72" stroke-miterlimit="10" stroke-width="1"/>
      <rect id="Rectángulo_82653" data-name="Rectángulo 82653" width="133.243" height="26.298" rx="4" transform="translate(523.306 449.068)" fill="#fc502d"/>
      <rect id="Rectángulo_82654" data-name="Rectángulo 82654" width="133.243" height="30.681" rx="4" transform="translate(278.064 444.685)" fill="#d2e1f1" stroke="#005a72" stroke-miterlimit="10" stroke-width="1"/>
      <rect id="Rectángulo_82655" data-name="Rectángulo 82655" width="133.243" height="30.681" rx="4" transform="translate(797.223 515.536)" fill="#d2e1f1" stroke="#005a72" stroke-miterlimit="10" stroke-width="1"/>
      <rect id="Rectángulo_82656" data-name="Rectángulo 82656" width="197.234" height="30.681" rx="4" transform="translate(724.252 155.409)" fill="#d2e1f1" stroke="#005a72" stroke-miterlimit="10" stroke-width="1"/>
      <rect id="Rectángulo_82657" data-name="Rectángulo 82657" width="302.426" height="57.728" rx="4" transform="translate(440.468 503.417)" fill="#d2e1f1" stroke="#005a72" stroke-miterlimit="10" stroke-width="1"/>
      <rect id="Rectángulo_82658" data-name="Rectángulo 82658" width="185.838" height="54.717" rx="4" transform="translate(36.124 208.881)" fill="#d2e1f1" stroke="#005a72" stroke-miterlimit="10" stroke-width="1"/>
      <rect id="Rectángulo_82659" data-name="Rectángulo 82659" width="194.604" height="26.298" rx="4" transform="translate(646.235 387.706)" fill="#fc502d"/>
      <rect id="Rectángulo_82660" data-name="Rectángulo 82660" width="168.306" height="50.843" rx="4" transform="translate(250.013 321.085)" fill="#fc502d"/>
      <rect id="Rectángulo_40558" data-name="Rectángulo 40558" width="244.57" height="65.745" rx="10" transform="translate(449.877 137)" fill="#fff2bf"/>
      <path id="Rectángulo_40558-2" data-name="Rectángulo 40558" d="M49.961,316.83H179.173a7.066,7.066,0,0,1,6.837,7.274v86.559a7.066,7.066,0,0,1-6.837,7.274H49.961a7.066,7.066,0,0,1-6.837-7.274V324.1A7.066,7.066,0,0,1,49.961,316.83Z" transform="translate(-0.864 -22.192)" fill="#fff2bf"/>
      <path id="Rectángulo_40558-3" data-name="Rectángulo 40558" d="M312.461,554H441.673a6.644,6.644,0,0,1,6.837,6.432V636.98a6.644,6.644,0,0,1-6.837,6.432H312.461a6.644,6.644,0,0,1-6.837-6.432V560.432A6.644,6.644,0,0,1,312.461,554Z" transform="translate(-33.257 -51.46)" fill="#fff2bf"/>
      <rect id="Rectángulo_38337" data-name="Rectángulo 38337" width="174.858" height="49.938" rx="9.339" transform="translate(494.609 313.852)" fill="#0d2380"/>
      <text id="Información" transform="translate(534.562 342.822)" fill="#fff" font-size="16" font-family="Roboto-Bold, Roboto" font-weight="700"><tspan x="0" y="0">Información</tspan></text>
      <text id="Métodos_de_obtención" data-name="Métodos de obtención" transform="translate(734.31 404.29)" fill="#fff" font-size="14" font-family="Roboto-Bold, Roboto" font-weight="700"><tspan x="-70.205" y="0">Métodos de obtención</tspan></text>
      <text id="Se_define_cómo" data-name="Se define cómo" transform="translate(584.51 465.652)" fill="#fff" font-size="14" font-family="Roboto-Bold, Roboto" font-weight="700"><tspan x="-48.891" y="0">Se define cómo</tspan></text>
      <text id="Formato" transform="translate(341.604 463.652)" font-size="14" font-family="Roboto-Regular, Roboto"><tspan x="-26.312" y="0">Formato</tspan></text>
      <text id="Verbal_Papel_Digital" data-name="Verbal
Papel
Digital" transform="translate(321.555 530.737)" font-size="14" font-family="Roboto-Regular, Roboto"><tspan x="0" y="0">Verbal</tspan><tspan x="0" y="17">Papel</tspan><tspan x="0" y="34">Digital</tspan></text>
      <g id="Grupo_137372" data-name="Grupo 137372" transform="translate(36.124 444.685)">
        <rect id="Rectángulo_82661" data-name="Rectángulo 82661" width="203.37" height="30.681" rx="4" fill="#d2e1f1" stroke="#005a72" stroke-miterlimit="10" stroke-width="1"/>
        <text id="Nivel_de_confidencialidad_" data-name="Nivel de confidencialidad
" transform="translate(91.076 19.448)" font-size="14" font-family="Roboto-Regular, Roboto"><tspan x="-77.793" y="0">Nivel de confidencialidad</tspan><tspan font-family="Roboto-Regular"><tspan x="0" y="17"></tspan></tspan></text>
      </g>
      <path id="Rectángulo_40558-4" data-name="Rectángulo 40558" d="M49.961,556.83H179.173a7.066,7.066,0,0,1,6.837,7.274v86.559a7.066,7.066,0,0,1-6.837,7.274H49.961a7.066,7.066,0,0,1-6.837-7.274V564.1A7.066,7.066,0,0,1,49.961,556.83Z" transform="translate(-0.864 -51.809)" fill="#fff2bf"/>
      <text id="Pública_Interna_Restringida_Confidencial" data-name="Pública
Interna
Restringida
Confidencial" transform="translate(75.867 531.2)" font-size="14" font-family="Roboto-Regular, Roboto"><tspan x="0" y="0">Pública</tspan><tspan x="0" y="17">Interna</tspan><tspan x="0" y="34">Restringida</tspan><tspan x="0" y="51">Confidencial</tspan></text>
      <text id="Un_conjunto_de_datos_ordenados_con_el_propósito_de_transmitir_conocimiento" data-name="Un conjunto de datos ordenados con el 
propósito de transmitir conocimiento" transform="translate(578.437 525.26)" font-size="14" font-family="Roboto-Regular, Roboto"><tspan x="-123.047" y="0">Un conjunto de datos ordenados con el </tspan><tspan x="-114.987" y="17">propósito de transmitir conocimiento</tspan></text>
      <g id="Grupo_137373" data-name="Grupo 137373" transform="translate(868.137 321.085)">
        <rect id="Rectángulo_82662" data-name="Rectángulo 82662" width="197.234" height="30.681" rx="4" fill="#d2e1f1" stroke="#005a72" stroke-miterlimit="10" stroke-width="1"/>
        <text id="Metodología_JAD" data-name="Metodología JAD" transform="translate(91.966 17.46)" font-size="14" font-family="Roboto-Regular, Roboto"><tspan x="-53.877" y="0">Metodología JAD</tspan></text>
      </g>
      <g id="Grupo_137374" data-name="Grupo 137374" transform="translate(868.89 386.516)">
        <rect id="Rectángulo_82663" data-name="Rectángulo 82663" width="197.234" height="30.681" rx="4" fill="#d2e1f1" stroke="#005a72" stroke-miterlimit="10" stroke-width="1"/>
        <text id="Encuestas_y_entrevistas" data-name="Encuestas y entrevistas" transform="translate(88.202 17.46)" font-size="14" font-family="Roboto-Regular, Roboto"><tspan x="-73.456" y="0">Encuestas y entrevistas</tspan></text>
      </g>
      <g id="Grupo_137375" data-name="Grupo 137375" transform="translate(868.89 445.562)">
        <rect id="Rectángulo_82664" data-name="Rectángulo 82664" width="197.234" height="30.681" rx="4" fill="#d2e1f1" stroke="#005a72" stroke-miterlimit="10" stroke-width="1"/>
        <text id="Preguntas_cuestionarios_" data-name="Preguntas, cuestionarios
" transform="translate(90.816 18.337)" font-size="14" font-family="Roboto-Regular, Roboto"><tspan x="-77.109" y="0">Preguntas, cuestionarios</tspan><tspan font-family="Roboto-Regular"><tspan x="0" y="17"></tspan></tspan></text>
      </g>
      <text id="Observación_" data-name="Observación
" transform="translate(858.254 532.273)" font-size="14" font-family="Roboto-Regular, Roboto"><tspan x="-38.852" y="0">Observación</tspan><tspan font-family="Roboto-Regular"><tspan x="0" y="17"></tspan></tspan></text>
      <text id="Desarrollar_tareas" data-name="Desarrollar tareas" transform="translate(815.492 173.899)" font-size="14" font-family="Roboto-Regular, Roboto"><tspan x="-55.272" y="0">Desarrollar tareas</tspan></text>
      <text id="Método_ágil" data-name="Método ágil" transform="translate(332.558 167.475)" font-size="14" font-family="Roboto-Regular, Roboto"><tspan x="-36.835" y="0">Método ágil</tspan></text>
      <text id="Ruta_crítica" data-name="Ruta crítica" transform="translate(330.508 242.712)" font-size="14" font-family="Roboto-Regular, Roboto"><tspan x="-35.215" y="0">Ruta crítica</tspan></text>
      <text id="Seguridad_Financiera_Informática_Comercial" data-name="Seguridad
Financiera
Informática
Comercial" transform="translate(72.804 320.817)" font-size="14" font-family="Roboto-Regular, Roboto"><tspan x="0" y="0">Seguridad</tspan><tspan x="0" y="17">Financiera</tspan><tspan x="0" y="34">Informática</tspan><tspan x="0" y="51">Comercial</tspan></text>
      <text id="Cascada" transform="translate(506.67 261.997)" font-size="14" font-family="Roboto-Regular, Roboto"><tspan x="-27.2" y="0">Cascada</tspan></text>
      <text id="Clasificaciones_esenciales" data-name="Clasificaciones 
esenciales" transform="translate(329.941 341.147)" fill="#fff" font-size="14" font-family="Roboto-Bold, Roboto" font-weight="700"><tspan x="-49.817" y="0">Clasificaciones </tspan><tspan x="-33.585" y="17">esenciales</tspan></text>
      <text id="Área_y_grupo_de_interés_por_ejemplo:" data-name="Área y grupo 
de interés, por ejemplo:" transform="translate(119.878 230.36)" font-size="14" font-family="Roboto-Regular, Roboto"><tspan x="-41.036" y="0">Área y grupo </tspan><tspan x="-72.297" y="17">de interés, por ejemplo:</tspan></text>
      <text id="Que_pueden_ser_planteadas_mediante_metodología_cómo:" data-name="Que pueden ser planteadas 
mediante metodología cómo:" transform="translate(560.786 163.226)" font-size="14" font-family="Roboto-Regular, Roboto"><tspan x="-86.475" y="0">Que pueden ser planteadas </tspan><tspan x="-91.25" y="17">mediante metodología cómo:</tspan></text>
      <text id="Se_usa_para" data-name="Se usa para" transform="translate(762.902 273.07)" fill="#fff" font-size="14" font-family="Roboto-Bold, Roboto" font-weight="700"><tspan x="-36.74" y="0">Se usa para</tspan></text>
      <circle id="Elipse_5515" data-name="Elipse 5515" cx="2.191" cy="2.191" r="2.191" transform="translate(64.175 314.949)" fill="#0d2380"/>
      <circle id="Elipse_5516" data-name="Elipse 5516" cx="2.191" cy="2.191" r="2.191" transform="translate(64.175 329.357)" fill="#0d2380"/>
      <circle id="Elipse_5517" data-name="Elipse 5517" cx="2.191" cy="2.191" r="2.191" transform="translate(64.175 346.766)" fill="#0d2380"/>
      <circle id="Elipse_5518" data-name="Elipse 5518" cx="2.191" cy="2.191" r="2.191" transform="translate(64.175 366.051)" fill="#0d2380"/>
      <circle id="Elipse_5519" data-name="Elipse 5519" cx="2.191" cy="2.191" r="2.191" transform="translate(68.01 524.22)" fill="#0d2380"/>
      <circle id="Elipse_5520" data-name="Elipse 5520" cx="2.191" cy="2.191" r="2.191" transform="translate(67.681 541.74)" fill="#0d2380"/>
      <circle id="Elipse_5521" data-name="Elipse 5521" cx="2.191" cy="2.191" r="2.191" transform="translate(67.353 557.26)" fill="#0d2380"/>
      <circle id="Elipse_5522" data-name="Elipse 5522" cx="2.191" cy="2.191" r="2.191" transform="translate(67.024 576.78)" fill="#0d2380"/>
      <circle id="Elipse_5523" data-name="Elipse 5523" cx="2.191" cy="2.191" r="2.191" transform="translate(313.598 523.735)" fill="#0d2380"/>
      <circle id="Elipse_5524" data-name="Elipse 5524" cx="2.191" cy="2.191" r="2.191" transform="translate(314.005 539.74)" fill="#0d2380"/>
      <circle id="Elipse_5525" data-name="Elipse 5525" cx="2.191" cy="2.191" r="2.191" transform="translate(314.005 559.149)" fill="#0d2380"/>
    </g>
  </g>
</svg>
